G04 #@! TF.GenerationSoftware,KiCad,Pcbnew,(5.1.5)-3*
G04 #@! TF.CreationDate,2020-03-18T20:22:11+01:00*
G04 #@! TF.ProjectId,motor,6d6f746f-722e-46b6-9963-61645f706362,rev?*
G04 #@! TF.SameCoordinates,Original*
G04 #@! TF.FileFunction,Soldermask,Top*
G04 #@! TF.FilePolarity,Negative*
%FSLAX46Y46*%
G04 Gerber Fmt 4.6, Leading zero omitted, Abs format (unit mm)*
G04 Created by KiCad (PCBNEW (5.1.5)-3) date 2020-03-18 20:22:11*
%MOMM*%
%LPD*%
G04 APERTURE LIST*
%ADD10C,2.100000*%
%ADD11C,2.500000*%
%ADD12C,2.400000*%
%ADD13C,2.300000*%
%ADD14R,1.600000X1.600000*%
%ADD15C,1.600000*%
%ADD16C,0.100000*%
%ADD17R,1.000000X1.000000*%
%ADD18O,1.700000X1.950000*%
%ADD19R,4.300000X7.900000*%
%ADD20R,1.750000X0.650000*%
%ADD21C,4.400000*%
G04 APERTURE END LIST*
D10*
X73228000Y-41504500D03*
X73228000Y-46204500D03*
X82728000Y-46204500D03*
X82728000Y-41504500D03*
D11*
X77978000Y-38754500D03*
D12*
X77978000Y-42004500D03*
D13*
X77978000Y-48004500D03*
D14*
X68707000Y-85344000D03*
D15*
X72207000Y-85344000D03*
D16*
G36*
X86707505Y-103965204D02*
G01*
X86731773Y-103968804D01*
X86755572Y-103974765D01*
X86778671Y-103983030D01*
X86800850Y-103993520D01*
X86821893Y-104006132D01*
X86841599Y-104020747D01*
X86859777Y-104037223D01*
X86876253Y-104055401D01*
X86890868Y-104075107D01*
X86903480Y-104096150D01*
X86913970Y-104118329D01*
X86922235Y-104141428D01*
X86928196Y-104165227D01*
X86931796Y-104189495D01*
X86933000Y-104213999D01*
X86933000Y-104864001D01*
X86931796Y-104888505D01*
X86928196Y-104912773D01*
X86922235Y-104936572D01*
X86913970Y-104959671D01*
X86903480Y-104981850D01*
X86890868Y-105002893D01*
X86876253Y-105022599D01*
X86859777Y-105040777D01*
X86841599Y-105057253D01*
X86821893Y-105071868D01*
X86800850Y-105084480D01*
X86778671Y-105094970D01*
X86755572Y-105103235D01*
X86731773Y-105109196D01*
X86707505Y-105112796D01*
X86683001Y-105114000D01*
X85782999Y-105114000D01*
X85758495Y-105112796D01*
X85734227Y-105109196D01*
X85710428Y-105103235D01*
X85687329Y-105094970D01*
X85665150Y-105084480D01*
X85644107Y-105071868D01*
X85624401Y-105057253D01*
X85606223Y-105040777D01*
X85589747Y-105022599D01*
X85575132Y-105002893D01*
X85562520Y-104981850D01*
X85552030Y-104959671D01*
X85543765Y-104936572D01*
X85537804Y-104912773D01*
X85534204Y-104888505D01*
X85533000Y-104864001D01*
X85533000Y-104213999D01*
X85534204Y-104189495D01*
X85537804Y-104165227D01*
X85543765Y-104141428D01*
X85552030Y-104118329D01*
X85562520Y-104096150D01*
X85575132Y-104075107D01*
X85589747Y-104055401D01*
X85606223Y-104037223D01*
X85624401Y-104020747D01*
X85644107Y-104006132D01*
X85665150Y-103993520D01*
X85687329Y-103983030D01*
X85710428Y-103974765D01*
X85734227Y-103968804D01*
X85758495Y-103965204D01*
X85782999Y-103964000D01*
X86683001Y-103964000D01*
X86707505Y-103965204D01*
G37*
G36*
X86707505Y-101915204D02*
G01*
X86731773Y-101918804D01*
X86755572Y-101924765D01*
X86778671Y-101933030D01*
X86800850Y-101943520D01*
X86821893Y-101956132D01*
X86841599Y-101970747D01*
X86859777Y-101987223D01*
X86876253Y-102005401D01*
X86890868Y-102025107D01*
X86903480Y-102046150D01*
X86913970Y-102068329D01*
X86922235Y-102091428D01*
X86928196Y-102115227D01*
X86931796Y-102139495D01*
X86933000Y-102163999D01*
X86933000Y-102814001D01*
X86931796Y-102838505D01*
X86928196Y-102862773D01*
X86922235Y-102886572D01*
X86913970Y-102909671D01*
X86903480Y-102931850D01*
X86890868Y-102952893D01*
X86876253Y-102972599D01*
X86859777Y-102990777D01*
X86841599Y-103007253D01*
X86821893Y-103021868D01*
X86800850Y-103034480D01*
X86778671Y-103044970D01*
X86755572Y-103053235D01*
X86731773Y-103059196D01*
X86707505Y-103062796D01*
X86683001Y-103064000D01*
X85782999Y-103064000D01*
X85758495Y-103062796D01*
X85734227Y-103059196D01*
X85710428Y-103053235D01*
X85687329Y-103044970D01*
X85665150Y-103034480D01*
X85644107Y-103021868D01*
X85624401Y-103007253D01*
X85606223Y-102990777D01*
X85589747Y-102972599D01*
X85575132Y-102952893D01*
X85562520Y-102931850D01*
X85552030Y-102909671D01*
X85543765Y-102886572D01*
X85537804Y-102862773D01*
X85534204Y-102838505D01*
X85533000Y-102814001D01*
X85533000Y-102163999D01*
X85534204Y-102139495D01*
X85537804Y-102115227D01*
X85543765Y-102091428D01*
X85552030Y-102068329D01*
X85562520Y-102046150D01*
X85575132Y-102025107D01*
X85589747Y-102005401D01*
X85606223Y-101987223D01*
X85624401Y-101970747D01*
X85644107Y-101956132D01*
X85665150Y-101943520D01*
X85687329Y-101933030D01*
X85710428Y-101924765D01*
X85734227Y-101918804D01*
X85758495Y-101915204D01*
X85782999Y-101914000D01*
X86683001Y-101914000D01*
X86707505Y-101915204D01*
G37*
G36*
X107535505Y-103965204D02*
G01*
X107559773Y-103968804D01*
X107583572Y-103974765D01*
X107606671Y-103983030D01*
X107628850Y-103993520D01*
X107649893Y-104006132D01*
X107669599Y-104020747D01*
X107687777Y-104037223D01*
X107704253Y-104055401D01*
X107718868Y-104075107D01*
X107731480Y-104096150D01*
X107741970Y-104118329D01*
X107750235Y-104141428D01*
X107756196Y-104165227D01*
X107759796Y-104189495D01*
X107761000Y-104213999D01*
X107761000Y-104864001D01*
X107759796Y-104888505D01*
X107756196Y-104912773D01*
X107750235Y-104936572D01*
X107741970Y-104959671D01*
X107731480Y-104981850D01*
X107718868Y-105002893D01*
X107704253Y-105022599D01*
X107687777Y-105040777D01*
X107669599Y-105057253D01*
X107649893Y-105071868D01*
X107628850Y-105084480D01*
X107606671Y-105094970D01*
X107583572Y-105103235D01*
X107559773Y-105109196D01*
X107535505Y-105112796D01*
X107511001Y-105114000D01*
X106610999Y-105114000D01*
X106586495Y-105112796D01*
X106562227Y-105109196D01*
X106538428Y-105103235D01*
X106515329Y-105094970D01*
X106493150Y-105084480D01*
X106472107Y-105071868D01*
X106452401Y-105057253D01*
X106434223Y-105040777D01*
X106417747Y-105022599D01*
X106403132Y-105002893D01*
X106390520Y-104981850D01*
X106380030Y-104959671D01*
X106371765Y-104936572D01*
X106365804Y-104912773D01*
X106362204Y-104888505D01*
X106361000Y-104864001D01*
X106361000Y-104213999D01*
X106362204Y-104189495D01*
X106365804Y-104165227D01*
X106371765Y-104141428D01*
X106380030Y-104118329D01*
X106390520Y-104096150D01*
X106403132Y-104075107D01*
X106417747Y-104055401D01*
X106434223Y-104037223D01*
X106452401Y-104020747D01*
X106472107Y-104006132D01*
X106493150Y-103993520D01*
X106515329Y-103983030D01*
X106538428Y-103974765D01*
X106562227Y-103968804D01*
X106586495Y-103965204D01*
X106610999Y-103964000D01*
X107511001Y-103964000D01*
X107535505Y-103965204D01*
G37*
G36*
X107535505Y-101915204D02*
G01*
X107559773Y-101918804D01*
X107583572Y-101924765D01*
X107606671Y-101933030D01*
X107628850Y-101943520D01*
X107649893Y-101956132D01*
X107669599Y-101970747D01*
X107687777Y-101987223D01*
X107704253Y-102005401D01*
X107718868Y-102025107D01*
X107731480Y-102046150D01*
X107741970Y-102068329D01*
X107750235Y-102091428D01*
X107756196Y-102115227D01*
X107759796Y-102139495D01*
X107761000Y-102163999D01*
X107761000Y-102814001D01*
X107759796Y-102838505D01*
X107756196Y-102862773D01*
X107750235Y-102886572D01*
X107741970Y-102909671D01*
X107731480Y-102931850D01*
X107718868Y-102952893D01*
X107704253Y-102972599D01*
X107687777Y-102990777D01*
X107669599Y-103007253D01*
X107649893Y-103021868D01*
X107628850Y-103034480D01*
X107606671Y-103044970D01*
X107583572Y-103053235D01*
X107559773Y-103059196D01*
X107535505Y-103062796D01*
X107511001Y-103064000D01*
X106610999Y-103064000D01*
X106586495Y-103062796D01*
X106562227Y-103059196D01*
X106538428Y-103053235D01*
X106515329Y-103044970D01*
X106493150Y-103034480D01*
X106472107Y-103021868D01*
X106452401Y-103007253D01*
X106434223Y-102990777D01*
X106417747Y-102972599D01*
X106403132Y-102952893D01*
X106390520Y-102931850D01*
X106380030Y-102909671D01*
X106371765Y-102886572D01*
X106365804Y-102862773D01*
X106362204Y-102838505D01*
X106361000Y-102814001D01*
X106361000Y-102163999D01*
X106362204Y-102139495D01*
X106365804Y-102115227D01*
X106371765Y-102091428D01*
X106380030Y-102068329D01*
X106390520Y-102046150D01*
X106403132Y-102025107D01*
X106417747Y-102005401D01*
X106434223Y-101987223D01*
X106452401Y-101970747D01*
X106472107Y-101956132D01*
X106493150Y-101943520D01*
X106515329Y-101933030D01*
X106538428Y-101924765D01*
X106562227Y-101918804D01*
X106586495Y-101915204D01*
X106610999Y-101914000D01*
X107511001Y-101914000D01*
X107535505Y-101915204D01*
G37*
G36*
X128363505Y-103956204D02*
G01*
X128387773Y-103959804D01*
X128411572Y-103965765D01*
X128434671Y-103974030D01*
X128456850Y-103984520D01*
X128477893Y-103997132D01*
X128497599Y-104011747D01*
X128515777Y-104028223D01*
X128532253Y-104046401D01*
X128546868Y-104066107D01*
X128559480Y-104087150D01*
X128569970Y-104109329D01*
X128578235Y-104132428D01*
X128584196Y-104156227D01*
X128587796Y-104180495D01*
X128589000Y-104204999D01*
X128589000Y-104855001D01*
X128587796Y-104879505D01*
X128584196Y-104903773D01*
X128578235Y-104927572D01*
X128569970Y-104950671D01*
X128559480Y-104972850D01*
X128546868Y-104993893D01*
X128532253Y-105013599D01*
X128515777Y-105031777D01*
X128497599Y-105048253D01*
X128477893Y-105062868D01*
X128456850Y-105075480D01*
X128434671Y-105085970D01*
X128411572Y-105094235D01*
X128387773Y-105100196D01*
X128363505Y-105103796D01*
X128339001Y-105105000D01*
X127438999Y-105105000D01*
X127414495Y-105103796D01*
X127390227Y-105100196D01*
X127366428Y-105094235D01*
X127343329Y-105085970D01*
X127321150Y-105075480D01*
X127300107Y-105062868D01*
X127280401Y-105048253D01*
X127262223Y-105031777D01*
X127245747Y-105013599D01*
X127231132Y-104993893D01*
X127218520Y-104972850D01*
X127208030Y-104950671D01*
X127199765Y-104927572D01*
X127193804Y-104903773D01*
X127190204Y-104879505D01*
X127189000Y-104855001D01*
X127189000Y-104204999D01*
X127190204Y-104180495D01*
X127193804Y-104156227D01*
X127199765Y-104132428D01*
X127208030Y-104109329D01*
X127218520Y-104087150D01*
X127231132Y-104066107D01*
X127245747Y-104046401D01*
X127262223Y-104028223D01*
X127280401Y-104011747D01*
X127300107Y-103997132D01*
X127321150Y-103984520D01*
X127343329Y-103974030D01*
X127366428Y-103965765D01*
X127390227Y-103959804D01*
X127414495Y-103956204D01*
X127438999Y-103955000D01*
X128339001Y-103955000D01*
X128363505Y-103956204D01*
G37*
G36*
X128363505Y-101906204D02*
G01*
X128387773Y-101909804D01*
X128411572Y-101915765D01*
X128434671Y-101924030D01*
X128456850Y-101934520D01*
X128477893Y-101947132D01*
X128497599Y-101961747D01*
X128515777Y-101978223D01*
X128532253Y-101996401D01*
X128546868Y-102016107D01*
X128559480Y-102037150D01*
X128569970Y-102059329D01*
X128578235Y-102082428D01*
X128584196Y-102106227D01*
X128587796Y-102130495D01*
X128589000Y-102154999D01*
X128589000Y-102805001D01*
X128587796Y-102829505D01*
X128584196Y-102853773D01*
X128578235Y-102877572D01*
X128569970Y-102900671D01*
X128559480Y-102922850D01*
X128546868Y-102943893D01*
X128532253Y-102963599D01*
X128515777Y-102981777D01*
X128497599Y-102998253D01*
X128477893Y-103012868D01*
X128456850Y-103025480D01*
X128434671Y-103035970D01*
X128411572Y-103044235D01*
X128387773Y-103050196D01*
X128363505Y-103053796D01*
X128339001Y-103055000D01*
X127438999Y-103055000D01*
X127414495Y-103053796D01*
X127390227Y-103050196D01*
X127366428Y-103044235D01*
X127343329Y-103035970D01*
X127321150Y-103025480D01*
X127300107Y-103012868D01*
X127280401Y-102998253D01*
X127262223Y-102981777D01*
X127245747Y-102963599D01*
X127231132Y-102943893D01*
X127218520Y-102922850D01*
X127208030Y-102900671D01*
X127199765Y-102877572D01*
X127193804Y-102853773D01*
X127190204Y-102829505D01*
X127189000Y-102805001D01*
X127189000Y-102154999D01*
X127190204Y-102130495D01*
X127193804Y-102106227D01*
X127199765Y-102082428D01*
X127208030Y-102059329D01*
X127218520Y-102037150D01*
X127231132Y-102016107D01*
X127245747Y-101996401D01*
X127262223Y-101978223D01*
X127280401Y-101961747D01*
X127300107Y-101947132D01*
X127321150Y-101934520D01*
X127343329Y-101924030D01*
X127366428Y-101915765D01*
X127390227Y-101909804D01*
X127414495Y-101906204D01*
X127438999Y-101905000D01*
X128339001Y-101905000D01*
X128363505Y-101906204D01*
G37*
G36*
X148937505Y-102287204D02*
G01*
X148961773Y-102290804D01*
X148985572Y-102296765D01*
X149008671Y-102305030D01*
X149030850Y-102315520D01*
X149051893Y-102328132D01*
X149071599Y-102342747D01*
X149089777Y-102359223D01*
X149106253Y-102377401D01*
X149120868Y-102397107D01*
X149133480Y-102418150D01*
X149143970Y-102440329D01*
X149152235Y-102463428D01*
X149158196Y-102487227D01*
X149161796Y-102511495D01*
X149163000Y-102535999D01*
X149163000Y-103186001D01*
X149161796Y-103210505D01*
X149158196Y-103234773D01*
X149152235Y-103258572D01*
X149143970Y-103281671D01*
X149133480Y-103303850D01*
X149120868Y-103324893D01*
X149106253Y-103344599D01*
X149089777Y-103362777D01*
X149071599Y-103379253D01*
X149051893Y-103393868D01*
X149030850Y-103406480D01*
X149008671Y-103416970D01*
X148985572Y-103425235D01*
X148961773Y-103431196D01*
X148937505Y-103434796D01*
X148913001Y-103436000D01*
X148012999Y-103436000D01*
X147988495Y-103434796D01*
X147964227Y-103431196D01*
X147940428Y-103425235D01*
X147917329Y-103416970D01*
X147895150Y-103406480D01*
X147874107Y-103393868D01*
X147854401Y-103379253D01*
X147836223Y-103362777D01*
X147819747Y-103344599D01*
X147805132Y-103324893D01*
X147792520Y-103303850D01*
X147782030Y-103281671D01*
X147773765Y-103258572D01*
X147767804Y-103234773D01*
X147764204Y-103210505D01*
X147763000Y-103186001D01*
X147763000Y-102535999D01*
X147764204Y-102511495D01*
X147767804Y-102487227D01*
X147773765Y-102463428D01*
X147782030Y-102440329D01*
X147792520Y-102418150D01*
X147805132Y-102397107D01*
X147819747Y-102377401D01*
X147836223Y-102359223D01*
X147854401Y-102342747D01*
X147874107Y-102328132D01*
X147895150Y-102315520D01*
X147917329Y-102305030D01*
X147940428Y-102296765D01*
X147964227Y-102290804D01*
X147988495Y-102287204D01*
X148012999Y-102286000D01*
X148913001Y-102286000D01*
X148937505Y-102287204D01*
G37*
G36*
X148937505Y-104337204D02*
G01*
X148961773Y-104340804D01*
X148985572Y-104346765D01*
X149008671Y-104355030D01*
X149030850Y-104365520D01*
X149051893Y-104378132D01*
X149071599Y-104392747D01*
X149089777Y-104409223D01*
X149106253Y-104427401D01*
X149120868Y-104447107D01*
X149133480Y-104468150D01*
X149143970Y-104490329D01*
X149152235Y-104513428D01*
X149158196Y-104537227D01*
X149161796Y-104561495D01*
X149163000Y-104585999D01*
X149163000Y-105236001D01*
X149161796Y-105260505D01*
X149158196Y-105284773D01*
X149152235Y-105308572D01*
X149143970Y-105331671D01*
X149133480Y-105353850D01*
X149120868Y-105374893D01*
X149106253Y-105394599D01*
X149089777Y-105412777D01*
X149071599Y-105429253D01*
X149051893Y-105443868D01*
X149030850Y-105456480D01*
X149008671Y-105466970D01*
X148985572Y-105475235D01*
X148961773Y-105481196D01*
X148937505Y-105484796D01*
X148913001Y-105486000D01*
X148012999Y-105486000D01*
X147988495Y-105484796D01*
X147964227Y-105481196D01*
X147940428Y-105475235D01*
X147917329Y-105466970D01*
X147895150Y-105456480D01*
X147874107Y-105443868D01*
X147854401Y-105429253D01*
X147836223Y-105412777D01*
X147819747Y-105394599D01*
X147805132Y-105374893D01*
X147792520Y-105353850D01*
X147782030Y-105331671D01*
X147773765Y-105308572D01*
X147767804Y-105284773D01*
X147764204Y-105260505D01*
X147763000Y-105236001D01*
X147763000Y-104585999D01*
X147764204Y-104561495D01*
X147767804Y-104537227D01*
X147773765Y-104513428D01*
X147782030Y-104490329D01*
X147792520Y-104468150D01*
X147805132Y-104447107D01*
X147819747Y-104427401D01*
X147836223Y-104409223D01*
X147854401Y-104392747D01*
X147874107Y-104378132D01*
X147895150Y-104365520D01*
X147917329Y-104355030D01*
X147940428Y-104346765D01*
X147964227Y-104340804D01*
X147988495Y-104337204D01*
X148012999Y-104336000D01*
X148913001Y-104336000D01*
X148937505Y-104337204D01*
G37*
G36*
X72483505Y-96064204D02*
G01*
X72507773Y-96067804D01*
X72531572Y-96073765D01*
X72554671Y-96082030D01*
X72576850Y-96092520D01*
X72597893Y-96105132D01*
X72617599Y-96119747D01*
X72635777Y-96136223D01*
X72652253Y-96154401D01*
X72666868Y-96174107D01*
X72679480Y-96195150D01*
X72689970Y-96217329D01*
X72698235Y-96240428D01*
X72704196Y-96264227D01*
X72707796Y-96288495D01*
X72709000Y-96312999D01*
X72709000Y-96963001D01*
X72707796Y-96987505D01*
X72704196Y-97011773D01*
X72698235Y-97035572D01*
X72689970Y-97058671D01*
X72679480Y-97080850D01*
X72666868Y-97101893D01*
X72652253Y-97121599D01*
X72635777Y-97139777D01*
X72617599Y-97156253D01*
X72597893Y-97170868D01*
X72576850Y-97183480D01*
X72554671Y-97193970D01*
X72531572Y-97202235D01*
X72507773Y-97208196D01*
X72483505Y-97211796D01*
X72459001Y-97213000D01*
X71558999Y-97213000D01*
X71534495Y-97211796D01*
X71510227Y-97208196D01*
X71486428Y-97202235D01*
X71463329Y-97193970D01*
X71441150Y-97183480D01*
X71420107Y-97170868D01*
X71400401Y-97156253D01*
X71382223Y-97139777D01*
X71365747Y-97121599D01*
X71351132Y-97101893D01*
X71338520Y-97080850D01*
X71328030Y-97058671D01*
X71319765Y-97035572D01*
X71313804Y-97011773D01*
X71310204Y-96987505D01*
X71309000Y-96963001D01*
X71309000Y-96312999D01*
X71310204Y-96288495D01*
X71313804Y-96264227D01*
X71319765Y-96240428D01*
X71328030Y-96217329D01*
X71338520Y-96195150D01*
X71351132Y-96174107D01*
X71365747Y-96154401D01*
X71382223Y-96136223D01*
X71400401Y-96119747D01*
X71420107Y-96105132D01*
X71441150Y-96092520D01*
X71463329Y-96082030D01*
X71486428Y-96073765D01*
X71510227Y-96067804D01*
X71534495Y-96064204D01*
X71558999Y-96063000D01*
X72459001Y-96063000D01*
X72483505Y-96064204D01*
G37*
G36*
X72483505Y-98114204D02*
G01*
X72507773Y-98117804D01*
X72531572Y-98123765D01*
X72554671Y-98132030D01*
X72576850Y-98142520D01*
X72597893Y-98155132D01*
X72617599Y-98169747D01*
X72635777Y-98186223D01*
X72652253Y-98204401D01*
X72666868Y-98224107D01*
X72679480Y-98245150D01*
X72689970Y-98267329D01*
X72698235Y-98290428D01*
X72704196Y-98314227D01*
X72707796Y-98338495D01*
X72709000Y-98362999D01*
X72709000Y-99013001D01*
X72707796Y-99037505D01*
X72704196Y-99061773D01*
X72698235Y-99085572D01*
X72689970Y-99108671D01*
X72679480Y-99130850D01*
X72666868Y-99151893D01*
X72652253Y-99171599D01*
X72635777Y-99189777D01*
X72617599Y-99206253D01*
X72597893Y-99220868D01*
X72576850Y-99233480D01*
X72554671Y-99243970D01*
X72531572Y-99252235D01*
X72507773Y-99258196D01*
X72483505Y-99261796D01*
X72459001Y-99263000D01*
X71558999Y-99263000D01*
X71534495Y-99261796D01*
X71510227Y-99258196D01*
X71486428Y-99252235D01*
X71463329Y-99243970D01*
X71441150Y-99233480D01*
X71420107Y-99220868D01*
X71400401Y-99206253D01*
X71382223Y-99189777D01*
X71365747Y-99171599D01*
X71351132Y-99151893D01*
X71338520Y-99130850D01*
X71328030Y-99108671D01*
X71319765Y-99085572D01*
X71313804Y-99061773D01*
X71310204Y-99037505D01*
X71309000Y-99013001D01*
X71309000Y-98362999D01*
X71310204Y-98338495D01*
X71313804Y-98314227D01*
X71319765Y-98290428D01*
X71328030Y-98267329D01*
X71338520Y-98245150D01*
X71351132Y-98224107D01*
X71365747Y-98204401D01*
X71382223Y-98186223D01*
X71400401Y-98169747D01*
X71420107Y-98155132D01*
X71441150Y-98142520D01*
X71463329Y-98132030D01*
X71486428Y-98123765D01*
X71510227Y-98117804D01*
X71534495Y-98114204D01*
X71558999Y-98113000D01*
X72459001Y-98113000D01*
X72483505Y-98114204D01*
G37*
G36*
X75658505Y-101906204D02*
G01*
X75682773Y-101909804D01*
X75706572Y-101915765D01*
X75729671Y-101924030D01*
X75751850Y-101934520D01*
X75772893Y-101947132D01*
X75792599Y-101961747D01*
X75810777Y-101978223D01*
X75827253Y-101996401D01*
X75841868Y-102016107D01*
X75854480Y-102037150D01*
X75864970Y-102059329D01*
X75873235Y-102082428D01*
X75879196Y-102106227D01*
X75882796Y-102130495D01*
X75884000Y-102154999D01*
X75884000Y-102805001D01*
X75882796Y-102829505D01*
X75879196Y-102853773D01*
X75873235Y-102877572D01*
X75864970Y-102900671D01*
X75854480Y-102922850D01*
X75841868Y-102943893D01*
X75827253Y-102963599D01*
X75810777Y-102981777D01*
X75792599Y-102998253D01*
X75772893Y-103012868D01*
X75751850Y-103025480D01*
X75729671Y-103035970D01*
X75706572Y-103044235D01*
X75682773Y-103050196D01*
X75658505Y-103053796D01*
X75634001Y-103055000D01*
X74733999Y-103055000D01*
X74709495Y-103053796D01*
X74685227Y-103050196D01*
X74661428Y-103044235D01*
X74638329Y-103035970D01*
X74616150Y-103025480D01*
X74595107Y-103012868D01*
X74575401Y-102998253D01*
X74557223Y-102981777D01*
X74540747Y-102963599D01*
X74526132Y-102943893D01*
X74513520Y-102922850D01*
X74503030Y-102900671D01*
X74494765Y-102877572D01*
X74488804Y-102853773D01*
X74485204Y-102829505D01*
X74484000Y-102805001D01*
X74484000Y-102154999D01*
X74485204Y-102130495D01*
X74488804Y-102106227D01*
X74494765Y-102082428D01*
X74503030Y-102059329D01*
X74513520Y-102037150D01*
X74526132Y-102016107D01*
X74540747Y-101996401D01*
X74557223Y-101978223D01*
X74575401Y-101961747D01*
X74595107Y-101947132D01*
X74616150Y-101934520D01*
X74638329Y-101924030D01*
X74661428Y-101915765D01*
X74685227Y-101909804D01*
X74709495Y-101906204D01*
X74733999Y-101905000D01*
X75634001Y-101905000D01*
X75658505Y-101906204D01*
G37*
G36*
X75658505Y-103956204D02*
G01*
X75682773Y-103959804D01*
X75706572Y-103965765D01*
X75729671Y-103974030D01*
X75751850Y-103984520D01*
X75772893Y-103997132D01*
X75792599Y-104011747D01*
X75810777Y-104028223D01*
X75827253Y-104046401D01*
X75841868Y-104066107D01*
X75854480Y-104087150D01*
X75864970Y-104109329D01*
X75873235Y-104132428D01*
X75879196Y-104156227D01*
X75882796Y-104180495D01*
X75884000Y-104204999D01*
X75884000Y-104855001D01*
X75882796Y-104879505D01*
X75879196Y-104903773D01*
X75873235Y-104927572D01*
X75864970Y-104950671D01*
X75854480Y-104972850D01*
X75841868Y-104993893D01*
X75827253Y-105013599D01*
X75810777Y-105031777D01*
X75792599Y-105048253D01*
X75772893Y-105062868D01*
X75751850Y-105075480D01*
X75729671Y-105085970D01*
X75706572Y-105094235D01*
X75682773Y-105100196D01*
X75658505Y-105103796D01*
X75634001Y-105105000D01*
X74733999Y-105105000D01*
X74709495Y-105103796D01*
X74685227Y-105100196D01*
X74661428Y-105094235D01*
X74638329Y-105085970D01*
X74616150Y-105075480D01*
X74595107Y-105062868D01*
X74575401Y-105048253D01*
X74557223Y-105031777D01*
X74540747Y-105013599D01*
X74526132Y-104993893D01*
X74513520Y-104972850D01*
X74503030Y-104950671D01*
X74494765Y-104927572D01*
X74488804Y-104903773D01*
X74485204Y-104879505D01*
X74484000Y-104855001D01*
X74484000Y-104204999D01*
X74485204Y-104180495D01*
X74488804Y-104156227D01*
X74494765Y-104132428D01*
X74503030Y-104109329D01*
X74513520Y-104087150D01*
X74526132Y-104066107D01*
X74540747Y-104046401D01*
X74557223Y-104028223D01*
X74575401Y-104011747D01*
X74595107Y-103997132D01*
X74616150Y-103984520D01*
X74638329Y-103974030D01*
X74661428Y-103965765D01*
X74685227Y-103959804D01*
X74709495Y-103956204D01*
X74733999Y-103955000D01*
X75634001Y-103955000D01*
X75658505Y-103956204D01*
G37*
G36*
X96486505Y-101906204D02*
G01*
X96510773Y-101909804D01*
X96534572Y-101915765D01*
X96557671Y-101924030D01*
X96579850Y-101934520D01*
X96600893Y-101947132D01*
X96620599Y-101961747D01*
X96638777Y-101978223D01*
X96655253Y-101996401D01*
X96669868Y-102016107D01*
X96682480Y-102037150D01*
X96692970Y-102059329D01*
X96701235Y-102082428D01*
X96707196Y-102106227D01*
X96710796Y-102130495D01*
X96712000Y-102154999D01*
X96712000Y-102805001D01*
X96710796Y-102829505D01*
X96707196Y-102853773D01*
X96701235Y-102877572D01*
X96692970Y-102900671D01*
X96682480Y-102922850D01*
X96669868Y-102943893D01*
X96655253Y-102963599D01*
X96638777Y-102981777D01*
X96620599Y-102998253D01*
X96600893Y-103012868D01*
X96579850Y-103025480D01*
X96557671Y-103035970D01*
X96534572Y-103044235D01*
X96510773Y-103050196D01*
X96486505Y-103053796D01*
X96462001Y-103055000D01*
X95561999Y-103055000D01*
X95537495Y-103053796D01*
X95513227Y-103050196D01*
X95489428Y-103044235D01*
X95466329Y-103035970D01*
X95444150Y-103025480D01*
X95423107Y-103012868D01*
X95403401Y-102998253D01*
X95385223Y-102981777D01*
X95368747Y-102963599D01*
X95354132Y-102943893D01*
X95341520Y-102922850D01*
X95331030Y-102900671D01*
X95322765Y-102877572D01*
X95316804Y-102853773D01*
X95313204Y-102829505D01*
X95312000Y-102805001D01*
X95312000Y-102154999D01*
X95313204Y-102130495D01*
X95316804Y-102106227D01*
X95322765Y-102082428D01*
X95331030Y-102059329D01*
X95341520Y-102037150D01*
X95354132Y-102016107D01*
X95368747Y-101996401D01*
X95385223Y-101978223D01*
X95403401Y-101961747D01*
X95423107Y-101947132D01*
X95444150Y-101934520D01*
X95466329Y-101924030D01*
X95489428Y-101915765D01*
X95513227Y-101909804D01*
X95537495Y-101906204D01*
X95561999Y-101905000D01*
X96462001Y-101905000D01*
X96486505Y-101906204D01*
G37*
G36*
X96486505Y-103956204D02*
G01*
X96510773Y-103959804D01*
X96534572Y-103965765D01*
X96557671Y-103974030D01*
X96579850Y-103984520D01*
X96600893Y-103997132D01*
X96620599Y-104011747D01*
X96638777Y-104028223D01*
X96655253Y-104046401D01*
X96669868Y-104066107D01*
X96682480Y-104087150D01*
X96692970Y-104109329D01*
X96701235Y-104132428D01*
X96707196Y-104156227D01*
X96710796Y-104180495D01*
X96712000Y-104204999D01*
X96712000Y-104855001D01*
X96710796Y-104879505D01*
X96707196Y-104903773D01*
X96701235Y-104927572D01*
X96692970Y-104950671D01*
X96682480Y-104972850D01*
X96669868Y-104993893D01*
X96655253Y-105013599D01*
X96638777Y-105031777D01*
X96620599Y-105048253D01*
X96600893Y-105062868D01*
X96579850Y-105075480D01*
X96557671Y-105085970D01*
X96534572Y-105094235D01*
X96510773Y-105100196D01*
X96486505Y-105103796D01*
X96462001Y-105105000D01*
X95561999Y-105105000D01*
X95537495Y-105103796D01*
X95513227Y-105100196D01*
X95489428Y-105094235D01*
X95466329Y-105085970D01*
X95444150Y-105075480D01*
X95423107Y-105062868D01*
X95403401Y-105048253D01*
X95385223Y-105031777D01*
X95368747Y-105013599D01*
X95354132Y-104993893D01*
X95341520Y-104972850D01*
X95331030Y-104950671D01*
X95322765Y-104927572D01*
X95316804Y-104903773D01*
X95313204Y-104879505D01*
X95312000Y-104855001D01*
X95312000Y-104204999D01*
X95313204Y-104180495D01*
X95316804Y-104156227D01*
X95322765Y-104132428D01*
X95331030Y-104109329D01*
X95341520Y-104087150D01*
X95354132Y-104066107D01*
X95368747Y-104046401D01*
X95385223Y-104028223D01*
X95403401Y-104011747D01*
X95423107Y-103997132D01*
X95444150Y-103984520D01*
X95466329Y-103974030D01*
X95489428Y-103965765D01*
X95513227Y-103959804D01*
X95537495Y-103956204D01*
X95561999Y-103955000D01*
X96462001Y-103955000D01*
X96486505Y-103956204D01*
G37*
G36*
X117314505Y-101906204D02*
G01*
X117338773Y-101909804D01*
X117362572Y-101915765D01*
X117385671Y-101924030D01*
X117407850Y-101934520D01*
X117428893Y-101947132D01*
X117448599Y-101961747D01*
X117466777Y-101978223D01*
X117483253Y-101996401D01*
X117497868Y-102016107D01*
X117510480Y-102037150D01*
X117520970Y-102059329D01*
X117529235Y-102082428D01*
X117535196Y-102106227D01*
X117538796Y-102130495D01*
X117540000Y-102154999D01*
X117540000Y-102805001D01*
X117538796Y-102829505D01*
X117535196Y-102853773D01*
X117529235Y-102877572D01*
X117520970Y-102900671D01*
X117510480Y-102922850D01*
X117497868Y-102943893D01*
X117483253Y-102963599D01*
X117466777Y-102981777D01*
X117448599Y-102998253D01*
X117428893Y-103012868D01*
X117407850Y-103025480D01*
X117385671Y-103035970D01*
X117362572Y-103044235D01*
X117338773Y-103050196D01*
X117314505Y-103053796D01*
X117290001Y-103055000D01*
X116389999Y-103055000D01*
X116365495Y-103053796D01*
X116341227Y-103050196D01*
X116317428Y-103044235D01*
X116294329Y-103035970D01*
X116272150Y-103025480D01*
X116251107Y-103012868D01*
X116231401Y-102998253D01*
X116213223Y-102981777D01*
X116196747Y-102963599D01*
X116182132Y-102943893D01*
X116169520Y-102922850D01*
X116159030Y-102900671D01*
X116150765Y-102877572D01*
X116144804Y-102853773D01*
X116141204Y-102829505D01*
X116140000Y-102805001D01*
X116140000Y-102154999D01*
X116141204Y-102130495D01*
X116144804Y-102106227D01*
X116150765Y-102082428D01*
X116159030Y-102059329D01*
X116169520Y-102037150D01*
X116182132Y-102016107D01*
X116196747Y-101996401D01*
X116213223Y-101978223D01*
X116231401Y-101961747D01*
X116251107Y-101947132D01*
X116272150Y-101934520D01*
X116294329Y-101924030D01*
X116317428Y-101915765D01*
X116341227Y-101909804D01*
X116365495Y-101906204D01*
X116389999Y-101905000D01*
X117290001Y-101905000D01*
X117314505Y-101906204D01*
G37*
G36*
X117314505Y-103956204D02*
G01*
X117338773Y-103959804D01*
X117362572Y-103965765D01*
X117385671Y-103974030D01*
X117407850Y-103984520D01*
X117428893Y-103997132D01*
X117448599Y-104011747D01*
X117466777Y-104028223D01*
X117483253Y-104046401D01*
X117497868Y-104066107D01*
X117510480Y-104087150D01*
X117520970Y-104109329D01*
X117529235Y-104132428D01*
X117535196Y-104156227D01*
X117538796Y-104180495D01*
X117540000Y-104204999D01*
X117540000Y-104855001D01*
X117538796Y-104879505D01*
X117535196Y-104903773D01*
X117529235Y-104927572D01*
X117520970Y-104950671D01*
X117510480Y-104972850D01*
X117497868Y-104993893D01*
X117483253Y-105013599D01*
X117466777Y-105031777D01*
X117448599Y-105048253D01*
X117428893Y-105062868D01*
X117407850Y-105075480D01*
X117385671Y-105085970D01*
X117362572Y-105094235D01*
X117338773Y-105100196D01*
X117314505Y-105103796D01*
X117290001Y-105105000D01*
X116389999Y-105105000D01*
X116365495Y-105103796D01*
X116341227Y-105100196D01*
X116317428Y-105094235D01*
X116294329Y-105085970D01*
X116272150Y-105075480D01*
X116251107Y-105062868D01*
X116231401Y-105048253D01*
X116213223Y-105031777D01*
X116196747Y-105013599D01*
X116182132Y-104993893D01*
X116169520Y-104972850D01*
X116159030Y-104950671D01*
X116150765Y-104927572D01*
X116144804Y-104903773D01*
X116141204Y-104879505D01*
X116140000Y-104855001D01*
X116140000Y-104204999D01*
X116141204Y-104180495D01*
X116144804Y-104156227D01*
X116150765Y-104132428D01*
X116159030Y-104109329D01*
X116169520Y-104087150D01*
X116182132Y-104066107D01*
X116196747Y-104046401D01*
X116213223Y-104028223D01*
X116231401Y-104011747D01*
X116251107Y-103997132D01*
X116272150Y-103984520D01*
X116294329Y-103974030D01*
X116317428Y-103965765D01*
X116341227Y-103959804D01*
X116365495Y-103956204D01*
X116389999Y-103955000D01*
X117290001Y-103955000D01*
X117314505Y-103956204D01*
G37*
G36*
X137888505Y-102287204D02*
G01*
X137912773Y-102290804D01*
X137936572Y-102296765D01*
X137959671Y-102305030D01*
X137981850Y-102315520D01*
X138002893Y-102328132D01*
X138022599Y-102342747D01*
X138040777Y-102359223D01*
X138057253Y-102377401D01*
X138071868Y-102397107D01*
X138084480Y-102418150D01*
X138094970Y-102440329D01*
X138103235Y-102463428D01*
X138109196Y-102487227D01*
X138112796Y-102511495D01*
X138114000Y-102535999D01*
X138114000Y-103186001D01*
X138112796Y-103210505D01*
X138109196Y-103234773D01*
X138103235Y-103258572D01*
X138094970Y-103281671D01*
X138084480Y-103303850D01*
X138071868Y-103324893D01*
X138057253Y-103344599D01*
X138040777Y-103362777D01*
X138022599Y-103379253D01*
X138002893Y-103393868D01*
X137981850Y-103406480D01*
X137959671Y-103416970D01*
X137936572Y-103425235D01*
X137912773Y-103431196D01*
X137888505Y-103434796D01*
X137864001Y-103436000D01*
X136963999Y-103436000D01*
X136939495Y-103434796D01*
X136915227Y-103431196D01*
X136891428Y-103425235D01*
X136868329Y-103416970D01*
X136846150Y-103406480D01*
X136825107Y-103393868D01*
X136805401Y-103379253D01*
X136787223Y-103362777D01*
X136770747Y-103344599D01*
X136756132Y-103324893D01*
X136743520Y-103303850D01*
X136733030Y-103281671D01*
X136724765Y-103258572D01*
X136718804Y-103234773D01*
X136715204Y-103210505D01*
X136714000Y-103186001D01*
X136714000Y-102535999D01*
X136715204Y-102511495D01*
X136718804Y-102487227D01*
X136724765Y-102463428D01*
X136733030Y-102440329D01*
X136743520Y-102418150D01*
X136756132Y-102397107D01*
X136770747Y-102377401D01*
X136787223Y-102359223D01*
X136805401Y-102342747D01*
X136825107Y-102328132D01*
X136846150Y-102315520D01*
X136868329Y-102305030D01*
X136891428Y-102296765D01*
X136915227Y-102290804D01*
X136939495Y-102287204D01*
X136963999Y-102286000D01*
X137864001Y-102286000D01*
X137888505Y-102287204D01*
G37*
G36*
X137888505Y-104337204D02*
G01*
X137912773Y-104340804D01*
X137936572Y-104346765D01*
X137959671Y-104355030D01*
X137981850Y-104365520D01*
X138002893Y-104378132D01*
X138022599Y-104392747D01*
X138040777Y-104409223D01*
X138057253Y-104427401D01*
X138071868Y-104447107D01*
X138084480Y-104468150D01*
X138094970Y-104490329D01*
X138103235Y-104513428D01*
X138109196Y-104537227D01*
X138112796Y-104561495D01*
X138114000Y-104585999D01*
X138114000Y-105236001D01*
X138112796Y-105260505D01*
X138109196Y-105284773D01*
X138103235Y-105308572D01*
X138094970Y-105331671D01*
X138084480Y-105353850D01*
X138071868Y-105374893D01*
X138057253Y-105394599D01*
X138040777Y-105412777D01*
X138022599Y-105429253D01*
X138002893Y-105443868D01*
X137981850Y-105456480D01*
X137959671Y-105466970D01*
X137936572Y-105475235D01*
X137912773Y-105481196D01*
X137888505Y-105484796D01*
X137864001Y-105486000D01*
X136963999Y-105486000D01*
X136939495Y-105484796D01*
X136915227Y-105481196D01*
X136891428Y-105475235D01*
X136868329Y-105466970D01*
X136846150Y-105456480D01*
X136825107Y-105443868D01*
X136805401Y-105429253D01*
X136787223Y-105412777D01*
X136770747Y-105394599D01*
X136756132Y-105374893D01*
X136743520Y-105353850D01*
X136733030Y-105331671D01*
X136724765Y-105308572D01*
X136718804Y-105284773D01*
X136715204Y-105260505D01*
X136714000Y-105236001D01*
X136714000Y-104585999D01*
X136715204Y-104561495D01*
X136718804Y-104537227D01*
X136724765Y-104513428D01*
X136733030Y-104490329D01*
X136743520Y-104468150D01*
X136756132Y-104447107D01*
X136770747Y-104427401D01*
X136787223Y-104409223D01*
X136805401Y-104392747D01*
X136825107Y-104378132D01*
X136846150Y-104365520D01*
X136868329Y-104355030D01*
X136891428Y-104346765D01*
X136915227Y-104340804D01*
X136939495Y-104337204D01*
X136963999Y-104336000D01*
X137864001Y-104336000D01*
X137888505Y-104337204D01*
G37*
D15*
X93289000Y-109220000D03*
D14*
X89789000Y-109220000D03*
D16*
G36*
X93311505Y-93905204D02*
G01*
X93335773Y-93908804D01*
X93359572Y-93914765D01*
X93382671Y-93923030D01*
X93404850Y-93933520D01*
X93425893Y-93946132D01*
X93445599Y-93960747D01*
X93463777Y-93977223D01*
X93480253Y-93995401D01*
X93494868Y-94015107D01*
X93507480Y-94036150D01*
X93517970Y-94058329D01*
X93526235Y-94081428D01*
X93532196Y-94105227D01*
X93535796Y-94129495D01*
X93537000Y-94153999D01*
X93537000Y-94804001D01*
X93535796Y-94828505D01*
X93532196Y-94852773D01*
X93526235Y-94876572D01*
X93517970Y-94899671D01*
X93507480Y-94921850D01*
X93494868Y-94942893D01*
X93480253Y-94962599D01*
X93463777Y-94980777D01*
X93445599Y-94997253D01*
X93425893Y-95011868D01*
X93404850Y-95024480D01*
X93382671Y-95034970D01*
X93359572Y-95043235D01*
X93335773Y-95049196D01*
X93311505Y-95052796D01*
X93287001Y-95054000D01*
X92386999Y-95054000D01*
X92362495Y-95052796D01*
X92338227Y-95049196D01*
X92314428Y-95043235D01*
X92291329Y-95034970D01*
X92269150Y-95024480D01*
X92248107Y-95011868D01*
X92228401Y-94997253D01*
X92210223Y-94980777D01*
X92193747Y-94962599D01*
X92179132Y-94942893D01*
X92166520Y-94921850D01*
X92156030Y-94899671D01*
X92147765Y-94876572D01*
X92141804Y-94852773D01*
X92138204Y-94828505D01*
X92137000Y-94804001D01*
X92137000Y-94153999D01*
X92138204Y-94129495D01*
X92141804Y-94105227D01*
X92147765Y-94081428D01*
X92156030Y-94058329D01*
X92166520Y-94036150D01*
X92179132Y-94015107D01*
X92193747Y-93995401D01*
X92210223Y-93977223D01*
X92228401Y-93960747D01*
X92248107Y-93946132D01*
X92269150Y-93933520D01*
X92291329Y-93923030D01*
X92314428Y-93914765D01*
X92338227Y-93908804D01*
X92362495Y-93905204D01*
X92386999Y-93904000D01*
X93287001Y-93904000D01*
X93311505Y-93905204D01*
G37*
G36*
X93311505Y-95955204D02*
G01*
X93335773Y-95958804D01*
X93359572Y-95964765D01*
X93382671Y-95973030D01*
X93404850Y-95983520D01*
X93425893Y-95996132D01*
X93445599Y-96010747D01*
X93463777Y-96027223D01*
X93480253Y-96045401D01*
X93494868Y-96065107D01*
X93507480Y-96086150D01*
X93517970Y-96108329D01*
X93526235Y-96131428D01*
X93532196Y-96155227D01*
X93535796Y-96179495D01*
X93537000Y-96203999D01*
X93537000Y-96854001D01*
X93535796Y-96878505D01*
X93532196Y-96902773D01*
X93526235Y-96926572D01*
X93517970Y-96949671D01*
X93507480Y-96971850D01*
X93494868Y-96992893D01*
X93480253Y-97012599D01*
X93463777Y-97030777D01*
X93445599Y-97047253D01*
X93425893Y-97061868D01*
X93404850Y-97074480D01*
X93382671Y-97084970D01*
X93359572Y-97093235D01*
X93335773Y-97099196D01*
X93311505Y-97102796D01*
X93287001Y-97104000D01*
X92386999Y-97104000D01*
X92362495Y-97102796D01*
X92338227Y-97099196D01*
X92314428Y-97093235D01*
X92291329Y-97084970D01*
X92269150Y-97074480D01*
X92248107Y-97061868D01*
X92228401Y-97047253D01*
X92210223Y-97030777D01*
X92193747Y-97012599D01*
X92179132Y-96992893D01*
X92166520Y-96971850D01*
X92156030Y-96949671D01*
X92147765Y-96926572D01*
X92141804Y-96902773D01*
X92138204Y-96878505D01*
X92137000Y-96854001D01*
X92137000Y-96203999D01*
X92138204Y-96179495D01*
X92141804Y-96155227D01*
X92147765Y-96131428D01*
X92156030Y-96108329D01*
X92166520Y-96086150D01*
X92179132Y-96065107D01*
X92193747Y-96045401D01*
X92210223Y-96027223D01*
X92228401Y-96010747D01*
X92248107Y-95996132D01*
X92269150Y-95983520D01*
X92291329Y-95973030D01*
X92314428Y-95964765D01*
X92338227Y-95958804D01*
X92362495Y-95955204D01*
X92386999Y-95954000D01*
X93287001Y-95954000D01*
X93311505Y-95955204D01*
G37*
D14*
X110363000Y-109220000D03*
D15*
X113863000Y-109220000D03*
D16*
G36*
X114139505Y-95955204D02*
G01*
X114163773Y-95958804D01*
X114187572Y-95964765D01*
X114210671Y-95973030D01*
X114232850Y-95983520D01*
X114253893Y-95996132D01*
X114273599Y-96010747D01*
X114291777Y-96027223D01*
X114308253Y-96045401D01*
X114322868Y-96065107D01*
X114335480Y-96086150D01*
X114345970Y-96108329D01*
X114354235Y-96131428D01*
X114360196Y-96155227D01*
X114363796Y-96179495D01*
X114365000Y-96203999D01*
X114365000Y-96854001D01*
X114363796Y-96878505D01*
X114360196Y-96902773D01*
X114354235Y-96926572D01*
X114345970Y-96949671D01*
X114335480Y-96971850D01*
X114322868Y-96992893D01*
X114308253Y-97012599D01*
X114291777Y-97030777D01*
X114273599Y-97047253D01*
X114253893Y-97061868D01*
X114232850Y-97074480D01*
X114210671Y-97084970D01*
X114187572Y-97093235D01*
X114163773Y-97099196D01*
X114139505Y-97102796D01*
X114115001Y-97104000D01*
X113214999Y-97104000D01*
X113190495Y-97102796D01*
X113166227Y-97099196D01*
X113142428Y-97093235D01*
X113119329Y-97084970D01*
X113097150Y-97074480D01*
X113076107Y-97061868D01*
X113056401Y-97047253D01*
X113038223Y-97030777D01*
X113021747Y-97012599D01*
X113007132Y-96992893D01*
X112994520Y-96971850D01*
X112984030Y-96949671D01*
X112975765Y-96926572D01*
X112969804Y-96902773D01*
X112966204Y-96878505D01*
X112965000Y-96854001D01*
X112965000Y-96203999D01*
X112966204Y-96179495D01*
X112969804Y-96155227D01*
X112975765Y-96131428D01*
X112984030Y-96108329D01*
X112994520Y-96086150D01*
X113007132Y-96065107D01*
X113021747Y-96045401D01*
X113038223Y-96027223D01*
X113056401Y-96010747D01*
X113076107Y-95996132D01*
X113097150Y-95983520D01*
X113119329Y-95973030D01*
X113142428Y-95964765D01*
X113166227Y-95958804D01*
X113190495Y-95955204D01*
X113214999Y-95954000D01*
X114115001Y-95954000D01*
X114139505Y-95955204D01*
G37*
G36*
X114139505Y-93905204D02*
G01*
X114163773Y-93908804D01*
X114187572Y-93914765D01*
X114210671Y-93923030D01*
X114232850Y-93933520D01*
X114253893Y-93946132D01*
X114273599Y-93960747D01*
X114291777Y-93977223D01*
X114308253Y-93995401D01*
X114322868Y-94015107D01*
X114335480Y-94036150D01*
X114345970Y-94058329D01*
X114354235Y-94081428D01*
X114360196Y-94105227D01*
X114363796Y-94129495D01*
X114365000Y-94153999D01*
X114365000Y-94804001D01*
X114363796Y-94828505D01*
X114360196Y-94852773D01*
X114354235Y-94876572D01*
X114345970Y-94899671D01*
X114335480Y-94921850D01*
X114322868Y-94942893D01*
X114308253Y-94962599D01*
X114291777Y-94980777D01*
X114273599Y-94997253D01*
X114253893Y-95011868D01*
X114232850Y-95024480D01*
X114210671Y-95034970D01*
X114187572Y-95043235D01*
X114163773Y-95049196D01*
X114139505Y-95052796D01*
X114115001Y-95054000D01*
X113214999Y-95054000D01*
X113190495Y-95052796D01*
X113166227Y-95049196D01*
X113142428Y-95043235D01*
X113119329Y-95034970D01*
X113097150Y-95024480D01*
X113076107Y-95011868D01*
X113056401Y-94997253D01*
X113038223Y-94980777D01*
X113021747Y-94962599D01*
X113007132Y-94942893D01*
X112994520Y-94921850D01*
X112984030Y-94899671D01*
X112975765Y-94876572D01*
X112969804Y-94852773D01*
X112966204Y-94828505D01*
X112965000Y-94804001D01*
X112965000Y-94153999D01*
X112966204Y-94129495D01*
X112969804Y-94105227D01*
X112975765Y-94081428D01*
X112984030Y-94058329D01*
X112994520Y-94036150D01*
X113007132Y-94015107D01*
X113021747Y-93995401D01*
X113038223Y-93977223D01*
X113056401Y-93960747D01*
X113076107Y-93946132D01*
X113097150Y-93933520D01*
X113119329Y-93923030D01*
X113142428Y-93914765D01*
X113166227Y-93908804D01*
X113190495Y-93905204D01*
X113214999Y-93904000D01*
X114115001Y-93904000D01*
X114139505Y-93905204D01*
G37*
D15*
X134437000Y-108966000D03*
D14*
X130937000Y-108966000D03*
D16*
G36*
X134967505Y-93905204D02*
G01*
X134991773Y-93908804D01*
X135015572Y-93914765D01*
X135038671Y-93923030D01*
X135060850Y-93933520D01*
X135081893Y-93946132D01*
X135101599Y-93960747D01*
X135119777Y-93977223D01*
X135136253Y-93995401D01*
X135150868Y-94015107D01*
X135163480Y-94036150D01*
X135173970Y-94058329D01*
X135182235Y-94081428D01*
X135188196Y-94105227D01*
X135191796Y-94129495D01*
X135193000Y-94153999D01*
X135193000Y-94804001D01*
X135191796Y-94828505D01*
X135188196Y-94852773D01*
X135182235Y-94876572D01*
X135173970Y-94899671D01*
X135163480Y-94921850D01*
X135150868Y-94942893D01*
X135136253Y-94962599D01*
X135119777Y-94980777D01*
X135101599Y-94997253D01*
X135081893Y-95011868D01*
X135060850Y-95024480D01*
X135038671Y-95034970D01*
X135015572Y-95043235D01*
X134991773Y-95049196D01*
X134967505Y-95052796D01*
X134943001Y-95054000D01*
X134042999Y-95054000D01*
X134018495Y-95052796D01*
X133994227Y-95049196D01*
X133970428Y-95043235D01*
X133947329Y-95034970D01*
X133925150Y-95024480D01*
X133904107Y-95011868D01*
X133884401Y-94997253D01*
X133866223Y-94980777D01*
X133849747Y-94962599D01*
X133835132Y-94942893D01*
X133822520Y-94921850D01*
X133812030Y-94899671D01*
X133803765Y-94876572D01*
X133797804Y-94852773D01*
X133794204Y-94828505D01*
X133793000Y-94804001D01*
X133793000Y-94153999D01*
X133794204Y-94129495D01*
X133797804Y-94105227D01*
X133803765Y-94081428D01*
X133812030Y-94058329D01*
X133822520Y-94036150D01*
X133835132Y-94015107D01*
X133849747Y-93995401D01*
X133866223Y-93977223D01*
X133884401Y-93960747D01*
X133904107Y-93946132D01*
X133925150Y-93933520D01*
X133947329Y-93923030D01*
X133970428Y-93914765D01*
X133994227Y-93908804D01*
X134018495Y-93905204D01*
X134042999Y-93904000D01*
X134943001Y-93904000D01*
X134967505Y-93905204D01*
G37*
G36*
X134967505Y-95955204D02*
G01*
X134991773Y-95958804D01*
X135015572Y-95964765D01*
X135038671Y-95973030D01*
X135060850Y-95983520D01*
X135081893Y-95996132D01*
X135101599Y-96010747D01*
X135119777Y-96027223D01*
X135136253Y-96045401D01*
X135150868Y-96065107D01*
X135163480Y-96086150D01*
X135173970Y-96108329D01*
X135182235Y-96131428D01*
X135188196Y-96155227D01*
X135191796Y-96179495D01*
X135193000Y-96203999D01*
X135193000Y-96854001D01*
X135191796Y-96878505D01*
X135188196Y-96902773D01*
X135182235Y-96926572D01*
X135173970Y-96949671D01*
X135163480Y-96971850D01*
X135150868Y-96992893D01*
X135136253Y-97012599D01*
X135119777Y-97030777D01*
X135101599Y-97047253D01*
X135081893Y-97061868D01*
X135060850Y-97074480D01*
X135038671Y-97084970D01*
X135015572Y-97093235D01*
X134991773Y-97099196D01*
X134967505Y-97102796D01*
X134943001Y-97104000D01*
X134042999Y-97104000D01*
X134018495Y-97102796D01*
X133994227Y-97099196D01*
X133970428Y-97093235D01*
X133947329Y-97084970D01*
X133925150Y-97074480D01*
X133904107Y-97061868D01*
X133884401Y-97047253D01*
X133866223Y-97030777D01*
X133849747Y-97012599D01*
X133835132Y-96992893D01*
X133822520Y-96971850D01*
X133812030Y-96949671D01*
X133803765Y-96926572D01*
X133797804Y-96902773D01*
X133794204Y-96878505D01*
X133793000Y-96854001D01*
X133793000Y-96203999D01*
X133794204Y-96179495D01*
X133797804Y-96155227D01*
X133803765Y-96131428D01*
X133812030Y-96108329D01*
X133822520Y-96086150D01*
X133835132Y-96065107D01*
X133849747Y-96045401D01*
X133866223Y-96027223D01*
X133884401Y-96010747D01*
X133904107Y-95996132D01*
X133925150Y-95983520D01*
X133947329Y-95973030D01*
X133970428Y-95964765D01*
X133994227Y-95958804D01*
X134018495Y-95955204D01*
X134042999Y-95954000D01*
X134943001Y-95954000D01*
X134967505Y-95955204D01*
G37*
D17*
X77978000Y-53423500D03*
X77978000Y-55923500D03*
D16*
G36*
X83078329Y-108283023D02*
G01*
X83098957Y-108286083D01*
X83119185Y-108291150D01*
X83138820Y-108298176D01*
X83157672Y-108307092D01*
X83175559Y-108317813D01*
X83192309Y-108330235D01*
X83207760Y-108344240D01*
X83221765Y-108359691D01*
X83234187Y-108376441D01*
X83244908Y-108394328D01*
X83253824Y-108413180D01*
X83260850Y-108432815D01*
X83265917Y-108453043D01*
X83268977Y-108473671D01*
X83270000Y-108494500D01*
X83270000Y-109819500D01*
X83268977Y-109840329D01*
X83265917Y-109860957D01*
X83260850Y-109881185D01*
X83253824Y-109900820D01*
X83244908Y-109919672D01*
X83234187Y-109937559D01*
X83221765Y-109954309D01*
X83207760Y-109969760D01*
X83192309Y-109983765D01*
X83175559Y-109996187D01*
X83157672Y-110006908D01*
X83138820Y-110015824D01*
X83119185Y-110022850D01*
X83098957Y-110027917D01*
X83078329Y-110030977D01*
X83057500Y-110032000D01*
X82632500Y-110032000D01*
X82611671Y-110030977D01*
X82591043Y-110027917D01*
X82570815Y-110022850D01*
X82551180Y-110015824D01*
X82532328Y-110006908D01*
X82514441Y-109996187D01*
X82497691Y-109983765D01*
X82482240Y-109969760D01*
X82468235Y-109954309D01*
X82455813Y-109937559D01*
X82445092Y-109919672D01*
X82436176Y-109900820D01*
X82429150Y-109881185D01*
X82424083Y-109860957D01*
X82421023Y-109840329D01*
X82420000Y-109819500D01*
X82420000Y-108494500D01*
X82421023Y-108473671D01*
X82424083Y-108453043D01*
X82429150Y-108432815D01*
X82436176Y-108413180D01*
X82445092Y-108394328D01*
X82455813Y-108376441D01*
X82468235Y-108359691D01*
X82482240Y-108344240D01*
X82497691Y-108330235D01*
X82514441Y-108317813D01*
X82532328Y-108307092D01*
X82551180Y-108298176D01*
X82570815Y-108291150D01*
X82591043Y-108286083D01*
X82611671Y-108283023D01*
X82632500Y-108282000D01*
X83057500Y-108282000D01*
X83078329Y-108283023D01*
G37*
G36*
X78678329Y-108283023D02*
G01*
X78698957Y-108286083D01*
X78719185Y-108291150D01*
X78738820Y-108298176D01*
X78757672Y-108307092D01*
X78775559Y-108317813D01*
X78792309Y-108330235D01*
X78807760Y-108344240D01*
X78821765Y-108359691D01*
X78834187Y-108376441D01*
X78844908Y-108394328D01*
X78853824Y-108413180D01*
X78860850Y-108432815D01*
X78865917Y-108453043D01*
X78868977Y-108473671D01*
X78870000Y-108494500D01*
X78870000Y-109819500D01*
X78868977Y-109840329D01*
X78865917Y-109860957D01*
X78860850Y-109881185D01*
X78853824Y-109900820D01*
X78844908Y-109919672D01*
X78834187Y-109937559D01*
X78821765Y-109954309D01*
X78807760Y-109969760D01*
X78792309Y-109983765D01*
X78775559Y-109996187D01*
X78757672Y-110006908D01*
X78738820Y-110015824D01*
X78719185Y-110022850D01*
X78698957Y-110027917D01*
X78678329Y-110030977D01*
X78657500Y-110032000D01*
X78232500Y-110032000D01*
X78211671Y-110030977D01*
X78191043Y-110027917D01*
X78170815Y-110022850D01*
X78151180Y-110015824D01*
X78132328Y-110006908D01*
X78114441Y-109996187D01*
X78097691Y-109983765D01*
X78082240Y-109969760D01*
X78068235Y-109954309D01*
X78055813Y-109937559D01*
X78045092Y-109919672D01*
X78036176Y-109900820D01*
X78029150Y-109881185D01*
X78024083Y-109860957D01*
X78021023Y-109840329D01*
X78020000Y-109819500D01*
X78020000Y-108494500D01*
X78021023Y-108473671D01*
X78024083Y-108453043D01*
X78029150Y-108432815D01*
X78036176Y-108413180D01*
X78045092Y-108394328D01*
X78055813Y-108376441D01*
X78068235Y-108359691D01*
X78082240Y-108344240D01*
X78097691Y-108330235D01*
X78114441Y-108317813D01*
X78132328Y-108307092D01*
X78151180Y-108298176D01*
X78170815Y-108291150D01*
X78191043Y-108286083D01*
X78211671Y-108283023D01*
X78232500Y-108282000D01*
X78657500Y-108282000D01*
X78678329Y-108283023D01*
G37*
G36*
X83044505Y-103583204D02*
G01*
X83068773Y-103586804D01*
X83092572Y-103592765D01*
X83115671Y-103601030D01*
X83137850Y-103611520D01*
X83158893Y-103624132D01*
X83178599Y-103638747D01*
X83196777Y-103655223D01*
X83213253Y-103673401D01*
X83227868Y-103693107D01*
X83240480Y-103714150D01*
X83250970Y-103736329D01*
X83259235Y-103759428D01*
X83265196Y-103783227D01*
X83268796Y-103807495D01*
X83270000Y-103831999D01*
X83270000Y-105132001D01*
X83268796Y-105156505D01*
X83265196Y-105180773D01*
X83259235Y-105204572D01*
X83250970Y-105227671D01*
X83240480Y-105249850D01*
X83227868Y-105270893D01*
X83213253Y-105290599D01*
X83196777Y-105308777D01*
X83178599Y-105325253D01*
X83158893Y-105339868D01*
X83137850Y-105352480D01*
X83115671Y-105362970D01*
X83092572Y-105371235D01*
X83068773Y-105377196D01*
X83044505Y-105380796D01*
X83020001Y-105382000D01*
X82469999Y-105382000D01*
X82445495Y-105380796D01*
X82421227Y-105377196D01*
X82397428Y-105371235D01*
X82374329Y-105362970D01*
X82352150Y-105352480D01*
X82331107Y-105339868D01*
X82311401Y-105325253D01*
X82293223Y-105308777D01*
X82276747Y-105290599D01*
X82262132Y-105270893D01*
X82249520Y-105249850D01*
X82239030Y-105227671D01*
X82230765Y-105204572D01*
X82224804Y-105180773D01*
X82221204Y-105156505D01*
X82220000Y-105132001D01*
X82220000Y-103831999D01*
X82221204Y-103807495D01*
X82224804Y-103783227D01*
X82230765Y-103759428D01*
X82239030Y-103736329D01*
X82249520Y-103714150D01*
X82262132Y-103693107D01*
X82276747Y-103673401D01*
X82293223Y-103655223D01*
X82311401Y-103638747D01*
X82331107Y-103624132D01*
X82352150Y-103611520D01*
X82374329Y-103601030D01*
X82397428Y-103592765D01*
X82421227Y-103586804D01*
X82445495Y-103583204D01*
X82469999Y-103582000D01*
X83020001Y-103582000D01*
X83044505Y-103583204D01*
G37*
G36*
X78844505Y-103583204D02*
G01*
X78868773Y-103586804D01*
X78892572Y-103592765D01*
X78915671Y-103601030D01*
X78937850Y-103611520D01*
X78958893Y-103624132D01*
X78978599Y-103638747D01*
X78996777Y-103655223D01*
X79013253Y-103673401D01*
X79027868Y-103693107D01*
X79040480Y-103714150D01*
X79050970Y-103736329D01*
X79059235Y-103759428D01*
X79065196Y-103783227D01*
X79068796Y-103807495D01*
X79070000Y-103831999D01*
X79070000Y-105132001D01*
X79068796Y-105156505D01*
X79065196Y-105180773D01*
X79059235Y-105204572D01*
X79050970Y-105227671D01*
X79040480Y-105249850D01*
X79027868Y-105270893D01*
X79013253Y-105290599D01*
X78996777Y-105308777D01*
X78978599Y-105325253D01*
X78958893Y-105339868D01*
X78937850Y-105352480D01*
X78915671Y-105362970D01*
X78892572Y-105371235D01*
X78868773Y-105377196D01*
X78844505Y-105380796D01*
X78820001Y-105382000D01*
X78269999Y-105382000D01*
X78245495Y-105380796D01*
X78221227Y-105377196D01*
X78197428Y-105371235D01*
X78174329Y-105362970D01*
X78152150Y-105352480D01*
X78131107Y-105339868D01*
X78111401Y-105325253D01*
X78093223Y-105308777D01*
X78076747Y-105290599D01*
X78062132Y-105270893D01*
X78049520Y-105249850D01*
X78039030Y-105227671D01*
X78030765Y-105204572D01*
X78024804Y-105180773D01*
X78021204Y-105156505D01*
X78020000Y-105132001D01*
X78020000Y-103831999D01*
X78021204Y-103807495D01*
X78024804Y-103783227D01*
X78030765Y-103759428D01*
X78039030Y-103736329D01*
X78049520Y-103714150D01*
X78062132Y-103693107D01*
X78076747Y-103673401D01*
X78093223Y-103655223D01*
X78111401Y-103638747D01*
X78131107Y-103624132D01*
X78152150Y-103611520D01*
X78174329Y-103601030D01*
X78197428Y-103592765D01*
X78221227Y-103586804D01*
X78245495Y-103583204D01*
X78269999Y-103582000D01*
X78820001Y-103582000D01*
X78844505Y-103583204D01*
G37*
G36*
X99672505Y-103837204D02*
G01*
X99696773Y-103840804D01*
X99720572Y-103846765D01*
X99743671Y-103855030D01*
X99765850Y-103865520D01*
X99786893Y-103878132D01*
X99806599Y-103892747D01*
X99824777Y-103909223D01*
X99841253Y-103927401D01*
X99855868Y-103947107D01*
X99868480Y-103968150D01*
X99878970Y-103990329D01*
X99887235Y-104013428D01*
X99893196Y-104037227D01*
X99896796Y-104061495D01*
X99898000Y-104085999D01*
X99898000Y-105386001D01*
X99896796Y-105410505D01*
X99893196Y-105434773D01*
X99887235Y-105458572D01*
X99878970Y-105481671D01*
X99868480Y-105503850D01*
X99855868Y-105524893D01*
X99841253Y-105544599D01*
X99824777Y-105562777D01*
X99806599Y-105579253D01*
X99786893Y-105593868D01*
X99765850Y-105606480D01*
X99743671Y-105616970D01*
X99720572Y-105625235D01*
X99696773Y-105631196D01*
X99672505Y-105634796D01*
X99648001Y-105636000D01*
X99097999Y-105636000D01*
X99073495Y-105634796D01*
X99049227Y-105631196D01*
X99025428Y-105625235D01*
X99002329Y-105616970D01*
X98980150Y-105606480D01*
X98959107Y-105593868D01*
X98939401Y-105579253D01*
X98921223Y-105562777D01*
X98904747Y-105544599D01*
X98890132Y-105524893D01*
X98877520Y-105503850D01*
X98867030Y-105481671D01*
X98858765Y-105458572D01*
X98852804Y-105434773D01*
X98849204Y-105410505D01*
X98848000Y-105386001D01*
X98848000Y-104085999D01*
X98849204Y-104061495D01*
X98852804Y-104037227D01*
X98858765Y-104013428D01*
X98867030Y-103990329D01*
X98877520Y-103968150D01*
X98890132Y-103947107D01*
X98904747Y-103927401D01*
X98921223Y-103909223D01*
X98939401Y-103892747D01*
X98959107Y-103878132D01*
X98980150Y-103865520D01*
X99002329Y-103855030D01*
X99025428Y-103846765D01*
X99049227Y-103840804D01*
X99073495Y-103837204D01*
X99097999Y-103836000D01*
X99648001Y-103836000D01*
X99672505Y-103837204D01*
G37*
G36*
X103872505Y-103837204D02*
G01*
X103896773Y-103840804D01*
X103920572Y-103846765D01*
X103943671Y-103855030D01*
X103965850Y-103865520D01*
X103986893Y-103878132D01*
X104006599Y-103892747D01*
X104024777Y-103909223D01*
X104041253Y-103927401D01*
X104055868Y-103947107D01*
X104068480Y-103968150D01*
X104078970Y-103990329D01*
X104087235Y-104013428D01*
X104093196Y-104037227D01*
X104096796Y-104061495D01*
X104098000Y-104085999D01*
X104098000Y-105386001D01*
X104096796Y-105410505D01*
X104093196Y-105434773D01*
X104087235Y-105458572D01*
X104078970Y-105481671D01*
X104068480Y-105503850D01*
X104055868Y-105524893D01*
X104041253Y-105544599D01*
X104024777Y-105562777D01*
X104006599Y-105579253D01*
X103986893Y-105593868D01*
X103965850Y-105606480D01*
X103943671Y-105616970D01*
X103920572Y-105625235D01*
X103896773Y-105631196D01*
X103872505Y-105634796D01*
X103848001Y-105636000D01*
X103297999Y-105636000D01*
X103273495Y-105634796D01*
X103249227Y-105631196D01*
X103225428Y-105625235D01*
X103202329Y-105616970D01*
X103180150Y-105606480D01*
X103159107Y-105593868D01*
X103139401Y-105579253D01*
X103121223Y-105562777D01*
X103104747Y-105544599D01*
X103090132Y-105524893D01*
X103077520Y-105503850D01*
X103067030Y-105481671D01*
X103058765Y-105458572D01*
X103052804Y-105434773D01*
X103049204Y-105410505D01*
X103048000Y-105386001D01*
X103048000Y-104085999D01*
X103049204Y-104061495D01*
X103052804Y-104037227D01*
X103058765Y-104013428D01*
X103067030Y-103990329D01*
X103077520Y-103968150D01*
X103090132Y-103947107D01*
X103104747Y-103927401D01*
X103121223Y-103909223D01*
X103139401Y-103892747D01*
X103159107Y-103878132D01*
X103180150Y-103865520D01*
X103202329Y-103855030D01*
X103225428Y-103846765D01*
X103249227Y-103840804D01*
X103273495Y-103837204D01*
X103297999Y-103836000D01*
X103848001Y-103836000D01*
X103872505Y-103837204D01*
G37*
G36*
X99506329Y-108537023D02*
G01*
X99526957Y-108540083D01*
X99547185Y-108545150D01*
X99566820Y-108552176D01*
X99585672Y-108561092D01*
X99603559Y-108571813D01*
X99620309Y-108584235D01*
X99635760Y-108598240D01*
X99649765Y-108613691D01*
X99662187Y-108630441D01*
X99672908Y-108648328D01*
X99681824Y-108667180D01*
X99688850Y-108686815D01*
X99693917Y-108707043D01*
X99696977Y-108727671D01*
X99698000Y-108748500D01*
X99698000Y-110073500D01*
X99696977Y-110094329D01*
X99693917Y-110114957D01*
X99688850Y-110135185D01*
X99681824Y-110154820D01*
X99672908Y-110173672D01*
X99662187Y-110191559D01*
X99649765Y-110208309D01*
X99635760Y-110223760D01*
X99620309Y-110237765D01*
X99603559Y-110250187D01*
X99585672Y-110260908D01*
X99566820Y-110269824D01*
X99547185Y-110276850D01*
X99526957Y-110281917D01*
X99506329Y-110284977D01*
X99485500Y-110286000D01*
X99060500Y-110286000D01*
X99039671Y-110284977D01*
X99019043Y-110281917D01*
X98998815Y-110276850D01*
X98979180Y-110269824D01*
X98960328Y-110260908D01*
X98942441Y-110250187D01*
X98925691Y-110237765D01*
X98910240Y-110223760D01*
X98896235Y-110208309D01*
X98883813Y-110191559D01*
X98873092Y-110173672D01*
X98864176Y-110154820D01*
X98857150Y-110135185D01*
X98852083Y-110114957D01*
X98849023Y-110094329D01*
X98848000Y-110073500D01*
X98848000Y-108748500D01*
X98849023Y-108727671D01*
X98852083Y-108707043D01*
X98857150Y-108686815D01*
X98864176Y-108667180D01*
X98873092Y-108648328D01*
X98883813Y-108630441D01*
X98896235Y-108613691D01*
X98910240Y-108598240D01*
X98925691Y-108584235D01*
X98942441Y-108571813D01*
X98960328Y-108561092D01*
X98979180Y-108552176D01*
X98998815Y-108545150D01*
X99019043Y-108540083D01*
X99039671Y-108537023D01*
X99060500Y-108536000D01*
X99485500Y-108536000D01*
X99506329Y-108537023D01*
G37*
G36*
X103906329Y-108537023D02*
G01*
X103926957Y-108540083D01*
X103947185Y-108545150D01*
X103966820Y-108552176D01*
X103985672Y-108561092D01*
X104003559Y-108571813D01*
X104020309Y-108584235D01*
X104035760Y-108598240D01*
X104049765Y-108613691D01*
X104062187Y-108630441D01*
X104072908Y-108648328D01*
X104081824Y-108667180D01*
X104088850Y-108686815D01*
X104093917Y-108707043D01*
X104096977Y-108727671D01*
X104098000Y-108748500D01*
X104098000Y-110073500D01*
X104096977Y-110094329D01*
X104093917Y-110114957D01*
X104088850Y-110135185D01*
X104081824Y-110154820D01*
X104072908Y-110173672D01*
X104062187Y-110191559D01*
X104049765Y-110208309D01*
X104035760Y-110223760D01*
X104020309Y-110237765D01*
X104003559Y-110250187D01*
X103985672Y-110260908D01*
X103966820Y-110269824D01*
X103947185Y-110276850D01*
X103926957Y-110281917D01*
X103906329Y-110284977D01*
X103885500Y-110286000D01*
X103460500Y-110286000D01*
X103439671Y-110284977D01*
X103419043Y-110281917D01*
X103398815Y-110276850D01*
X103379180Y-110269824D01*
X103360328Y-110260908D01*
X103342441Y-110250187D01*
X103325691Y-110237765D01*
X103310240Y-110223760D01*
X103296235Y-110208309D01*
X103283813Y-110191559D01*
X103273092Y-110173672D01*
X103264176Y-110154820D01*
X103257150Y-110135185D01*
X103252083Y-110114957D01*
X103249023Y-110094329D01*
X103248000Y-110073500D01*
X103248000Y-108748500D01*
X103249023Y-108727671D01*
X103252083Y-108707043D01*
X103257150Y-108686815D01*
X103264176Y-108667180D01*
X103273092Y-108648328D01*
X103283813Y-108630441D01*
X103296235Y-108613691D01*
X103310240Y-108598240D01*
X103325691Y-108584235D01*
X103342441Y-108571813D01*
X103360328Y-108561092D01*
X103379180Y-108552176D01*
X103398815Y-108545150D01*
X103419043Y-108540083D01*
X103439671Y-108537023D01*
X103460500Y-108536000D01*
X103885500Y-108536000D01*
X103906329Y-108537023D01*
G37*
G36*
X124734329Y-109045023D02*
G01*
X124754957Y-109048083D01*
X124775185Y-109053150D01*
X124794820Y-109060176D01*
X124813672Y-109069092D01*
X124831559Y-109079813D01*
X124848309Y-109092235D01*
X124863760Y-109106240D01*
X124877765Y-109121691D01*
X124890187Y-109138441D01*
X124900908Y-109156328D01*
X124909824Y-109175180D01*
X124916850Y-109194815D01*
X124921917Y-109215043D01*
X124924977Y-109235671D01*
X124926000Y-109256500D01*
X124926000Y-110581500D01*
X124924977Y-110602329D01*
X124921917Y-110622957D01*
X124916850Y-110643185D01*
X124909824Y-110662820D01*
X124900908Y-110681672D01*
X124890187Y-110699559D01*
X124877765Y-110716309D01*
X124863760Y-110731760D01*
X124848309Y-110745765D01*
X124831559Y-110758187D01*
X124813672Y-110768908D01*
X124794820Y-110777824D01*
X124775185Y-110784850D01*
X124754957Y-110789917D01*
X124734329Y-110792977D01*
X124713500Y-110794000D01*
X124288500Y-110794000D01*
X124267671Y-110792977D01*
X124247043Y-110789917D01*
X124226815Y-110784850D01*
X124207180Y-110777824D01*
X124188328Y-110768908D01*
X124170441Y-110758187D01*
X124153691Y-110745765D01*
X124138240Y-110731760D01*
X124124235Y-110716309D01*
X124111813Y-110699559D01*
X124101092Y-110681672D01*
X124092176Y-110662820D01*
X124085150Y-110643185D01*
X124080083Y-110622957D01*
X124077023Y-110602329D01*
X124076000Y-110581500D01*
X124076000Y-109256500D01*
X124077023Y-109235671D01*
X124080083Y-109215043D01*
X124085150Y-109194815D01*
X124092176Y-109175180D01*
X124101092Y-109156328D01*
X124111813Y-109138441D01*
X124124235Y-109121691D01*
X124138240Y-109106240D01*
X124153691Y-109092235D01*
X124170441Y-109079813D01*
X124188328Y-109069092D01*
X124207180Y-109060176D01*
X124226815Y-109053150D01*
X124247043Y-109048083D01*
X124267671Y-109045023D01*
X124288500Y-109044000D01*
X124713500Y-109044000D01*
X124734329Y-109045023D01*
G37*
G36*
X120334329Y-109045023D02*
G01*
X120354957Y-109048083D01*
X120375185Y-109053150D01*
X120394820Y-109060176D01*
X120413672Y-109069092D01*
X120431559Y-109079813D01*
X120448309Y-109092235D01*
X120463760Y-109106240D01*
X120477765Y-109121691D01*
X120490187Y-109138441D01*
X120500908Y-109156328D01*
X120509824Y-109175180D01*
X120516850Y-109194815D01*
X120521917Y-109215043D01*
X120524977Y-109235671D01*
X120526000Y-109256500D01*
X120526000Y-110581500D01*
X120524977Y-110602329D01*
X120521917Y-110622957D01*
X120516850Y-110643185D01*
X120509824Y-110662820D01*
X120500908Y-110681672D01*
X120490187Y-110699559D01*
X120477765Y-110716309D01*
X120463760Y-110731760D01*
X120448309Y-110745765D01*
X120431559Y-110758187D01*
X120413672Y-110768908D01*
X120394820Y-110777824D01*
X120375185Y-110784850D01*
X120354957Y-110789917D01*
X120334329Y-110792977D01*
X120313500Y-110794000D01*
X119888500Y-110794000D01*
X119867671Y-110792977D01*
X119847043Y-110789917D01*
X119826815Y-110784850D01*
X119807180Y-110777824D01*
X119788328Y-110768908D01*
X119770441Y-110758187D01*
X119753691Y-110745765D01*
X119738240Y-110731760D01*
X119724235Y-110716309D01*
X119711813Y-110699559D01*
X119701092Y-110681672D01*
X119692176Y-110662820D01*
X119685150Y-110643185D01*
X119680083Y-110622957D01*
X119677023Y-110602329D01*
X119676000Y-110581500D01*
X119676000Y-109256500D01*
X119677023Y-109235671D01*
X119680083Y-109215043D01*
X119685150Y-109194815D01*
X119692176Y-109175180D01*
X119701092Y-109156328D01*
X119711813Y-109138441D01*
X119724235Y-109121691D01*
X119738240Y-109106240D01*
X119753691Y-109092235D01*
X119770441Y-109079813D01*
X119788328Y-109069092D01*
X119807180Y-109060176D01*
X119826815Y-109053150D01*
X119847043Y-109048083D01*
X119867671Y-109045023D01*
X119888500Y-109044000D01*
X120313500Y-109044000D01*
X120334329Y-109045023D01*
G37*
G36*
X124700505Y-104345204D02*
G01*
X124724773Y-104348804D01*
X124748572Y-104354765D01*
X124771671Y-104363030D01*
X124793850Y-104373520D01*
X124814893Y-104386132D01*
X124834599Y-104400747D01*
X124852777Y-104417223D01*
X124869253Y-104435401D01*
X124883868Y-104455107D01*
X124896480Y-104476150D01*
X124906970Y-104498329D01*
X124915235Y-104521428D01*
X124921196Y-104545227D01*
X124924796Y-104569495D01*
X124926000Y-104593999D01*
X124926000Y-105894001D01*
X124924796Y-105918505D01*
X124921196Y-105942773D01*
X124915235Y-105966572D01*
X124906970Y-105989671D01*
X124896480Y-106011850D01*
X124883868Y-106032893D01*
X124869253Y-106052599D01*
X124852777Y-106070777D01*
X124834599Y-106087253D01*
X124814893Y-106101868D01*
X124793850Y-106114480D01*
X124771671Y-106124970D01*
X124748572Y-106133235D01*
X124724773Y-106139196D01*
X124700505Y-106142796D01*
X124676001Y-106144000D01*
X124125999Y-106144000D01*
X124101495Y-106142796D01*
X124077227Y-106139196D01*
X124053428Y-106133235D01*
X124030329Y-106124970D01*
X124008150Y-106114480D01*
X123987107Y-106101868D01*
X123967401Y-106087253D01*
X123949223Y-106070777D01*
X123932747Y-106052599D01*
X123918132Y-106032893D01*
X123905520Y-106011850D01*
X123895030Y-105989671D01*
X123886765Y-105966572D01*
X123880804Y-105942773D01*
X123877204Y-105918505D01*
X123876000Y-105894001D01*
X123876000Y-104593999D01*
X123877204Y-104569495D01*
X123880804Y-104545227D01*
X123886765Y-104521428D01*
X123895030Y-104498329D01*
X123905520Y-104476150D01*
X123918132Y-104455107D01*
X123932747Y-104435401D01*
X123949223Y-104417223D01*
X123967401Y-104400747D01*
X123987107Y-104386132D01*
X124008150Y-104373520D01*
X124030329Y-104363030D01*
X124053428Y-104354765D01*
X124077227Y-104348804D01*
X124101495Y-104345204D01*
X124125999Y-104344000D01*
X124676001Y-104344000D01*
X124700505Y-104345204D01*
G37*
G36*
X120500505Y-104345204D02*
G01*
X120524773Y-104348804D01*
X120548572Y-104354765D01*
X120571671Y-104363030D01*
X120593850Y-104373520D01*
X120614893Y-104386132D01*
X120634599Y-104400747D01*
X120652777Y-104417223D01*
X120669253Y-104435401D01*
X120683868Y-104455107D01*
X120696480Y-104476150D01*
X120706970Y-104498329D01*
X120715235Y-104521428D01*
X120721196Y-104545227D01*
X120724796Y-104569495D01*
X120726000Y-104593999D01*
X120726000Y-105894001D01*
X120724796Y-105918505D01*
X120721196Y-105942773D01*
X120715235Y-105966572D01*
X120706970Y-105989671D01*
X120696480Y-106011850D01*
X120683868Y-106032893D01*
X120669253Y-106052599D01*
X120652777Y-106070777D01*
X120634599Y-106087253D01*
X120614893Y-106101868D01*
X120593850Y-106114480D01*
X120571671Y-106124970D01*
X120548572Y-106133235D01*
X120524773Y-106139196D01*
X120500505Y-106142796D01*
X120476001Y-106144000D01*
X119925999Y-106144000D01*
X119901495Y-106142796D01*
X119877227Y-106139196D01*
X119853428Y-106133235D01*
X119830329Y-106124970D01*
X119808150Y-106114480D01*
X119787107Y-106101868D01*
X119767401Y-106087253D01*
X119749223Y-106070777D01*
X119732747Y-106052599D01*
X119718132Y-106032893D01*
X119705520Y-106011850D01*
X119695030Y-105989671D01*
X119686765Y-105966572D01*
X119680804Y-105942773D01*
X119677204Y-105918505D01*
X119676000Y-105894001D01*
X119676000Y-104593999D01*
X119677204Y-104569495D01*
X119680804Y-104545227D01*
X119686765Y-104521428D01*
X119695030Y-104498329D01*
X119705520Y-104476150D01*
X119718132Y-104455107D01*
X119732747Y-104435401D01*
X119749223Y-104417223D01*
X119767401Y-104400747D01*
X119787107Y-104386132D01*
X119808150Y-104373520D01*
X119830329Y-104363030D01*
X119853428Y-104354765D01*
X119877227Y-104348804D01*
X119901495Y-104345204D01*
X119925999Y-104344000D01*
X120476001Y-104344000D01*
X120500505Y-104345204D01*
G37*
G36*
X141074505Y-104853204D02*
G01*
X141098773Y-104856804D01*
X141122572Y-104862765D01*
X141145671Y-104871030D01*
X141167850Y-104881520D01*
X141188893Y-104894132D01*
X141208599Y-104908747D01*
X141226777Y-104925223D01*
X141243253Y-104943401D01*
X141257868Y-104963107D01*
X141270480Y-104984150D01*
X141280970Y-105006329D01*
X141289235Y-105029428D01*
X141295196Y-105053227D01*
X141298796Y-105077495D01*
X141300000Y-105101999D01*
X141300000Y-106402001D01*
X141298796Y-106426505D01*
X141295196Y-106450773D01*
X141289235Y-106474572D01*
X141280970Y-106497671D01*
X141270480Y-106519850D01*
X141257868Y-106540893D01*
X141243253Y-106560599D01*
X141226777Y-106578777D01*
X141208599Y-106595253D01*
X141188893Y-106609868D01*
X141167850Y-106622480D01*
X141145671Y-106632970D01*
X141122572Y-106641235D01*
X141098773Y-106647196D01*
X141074505Y-106650796D01*
X141050001Y-106652000D01*
X140499999Y-106652000D01*
X140475495Y-106650796D01*
X140451227Y-106647196D01*
X140427428Y-106641235D01*
X140404329Y-106632970D01*
X140382150Y-106622480D01*
X140361107Y-106609868D01*
X140341401Y-106595253D01*
X140323223Y-106578777D01*
X140306747Y-106560599D01*
X140292132Y-106540893D01*
X140279520Y-106519850D01*
X140269030Y-106497671D01*
X140260765Y-106474572D01*
X140254804Y-106450773D01*
X140251204Y-106426505D01*
X140250000Y-106402001D01*
X140250000Y-105101999D01*
X140251204Y-105077495D01*
X140254804Y-105053227D01*
X140260765Y-105029428D01*
X140269030Y-105006329D01*
X140279520Y-104984150D01*
X140292132Y-104963107D01*
X140306747Y-104943401D01*
X140323223Y-104925223D01*
X140341401Y-104908747D01*
X140361107Y-104894132D01*
X140382150Y-104881520D01*
X140404329Y-104871030D01*
X140427428Y-104862765D01*
X140451227Y-104856804D01*
X140475495Y-104853204D01*
X140499999Y-104852000D01*
X141050001Y-104852000D01*
X141074505Y-104853204D01*
G37*
G36*
X145274505Y-104853204D02*
G01*
X145298773Y-104856804D01*
X145322572Y-104862765D01*
X145345671Y-104871030D01*
X145367850Y-104881520D01*
X145388893Y-104894132D01*
X145408599Y-104908747D01*
X145426777Y-104925223D01*
X145443253Y-104943401D01*
X145457868Y-104963107D01*
X145470480Y-104984150D01*
X145480970Y-105006329D01*
X145489235Y-105029428D01*
X145495196Y-105053227D01*
X145498796Y-105077495D01*
X145500000Y-105101999D01*
X145500000Y-106402001D01*
X145498796Y-106426505D01*
X145495196Y-106450773D01*
X145489235Y-106474572D01*
X145480970Y-106497671D01*
X145470480Y-106519850D01*
X145457868Y-106540893D01*
X145443253Y-106560599D01*
X145426777Y-106578777D01*
X145408599Y-106595253D01*
X145388893Y-106609868D01*
X145367850Y-106622480D01*
X145345671Y-106632970D01*
X145322572Y-106641235D01*
X145298773Y-106647196D01*
X145274505Y-106650796D01*
X145250001Y-106652000D01*
X144699999Y-106652000D01*
X144675495Y-106650796D01*
X144651227Y-106647196D01*
X144627428Y-106641235D01*
X144604329Y-106632970D01*
X144582150Y-106622480D01*
X144561107Y-106609868D01*
X144541401Y-106595253D01*
X144523223Y-106578777D01*
X144506747Y-106560599D01*
X144492132Y-106540893D01*
X144479520Y-106519850D01*
X144469030Y-106497671D01*
X144460765Y-106474572D01*
X144454804Y-106450773D01*
X144451204Y-106426505D01*
X144450000Y-106402001D01*
X144450000Y-105101999D01*
X144451204Y-105077495D01*
X144454804Y-105053227D01*
X144460765Y-105029428D01*
X144469030Y-105006329D01*
X144479520Y-104984150D01*
X144492132Y-104963107D01*
X144506747Y-104943401D01*
X144523223Y-104925223D01*
X144541401Y-104908747D01*
X144561107Y-104894132D01*
X144582150Y-104881520D01*
X144604329Y-104871030D01*
X144627428Y-104862765D01*
X144651227Y-104856804D01*
X144675495Y-104853204D01*
X144699999Y-104852000D01*
X145250001Y-104852000D01*
X145274505Y-104853204D01*
G37*
G36*
X140908329Y-109553023D02*
G01*
X140928957Y-109556083D01*
X140949185Y-109561150D01*
X140968820Y-109568176D01*
X140987672Y-109577092D01*
X141005559Y-109587813D01*
X141022309Y-109600235D01*
X141037760Y-109614240D01*
X141051765Y-109629691D01*
X141064187Y-109646441D01*
X141074908Y-109664328D01*
X141083824Y-109683180D01*
X141090850Y-109702815D01*
X141095917Y-109723043D01*
X141098977Y-109743671D01*
X141100000Y-109764500D01*
X141100000Y-111089500D01*
X141098977Y-111110329D01*
X141095917Y-111130957D01*
X141090850Y-111151185D01*
X141083824Y-111170820D01*
X141074908Y-111189672D01*
X141064187Y-111207559D01*
X141051765Y-111224309D01*
X141037760Y-111239760D01*
X141022309Y-111253765D01*
X141005559Y-111266187D01*
X140987672Y-111276908D01*
X140968820Y-111285824D01*
X140949185Y-111292850D01*
X140928957Y-111297917D01*
X140908329Y-111300977D01*
X140887500Y-111302000D01*
X140462500Y-111302000D01*
X140441671Y-111300977D01*
X140421043Y-111297917D01*
X140400815Y-111292850D01*
X140381180Y-111285824D01*
X140362328Y-111276908D01*
X140344441Y-111266187D01*
X140327691Y-111253765D01*
X140312240Y-111239760D01*
X140298235Y-111224309D01*
X140285813Y-111207559D01*
X140275092Y-111189672D01*
X140266176Y-111170820D01*
X140259150Y-111151185D01*
X140254083Y-111130957D01*
X140251023Y-111110329D01*
X140250000Y-111089500D01*
X140250000Y-109764500D01*
X140251023Y-109743671D01*
X140254083Y-109723043D01*
X140259150Y-109702815D01*
X140266176Y-109683180D01*
X140275092Y-109664328D01*
X140285813Y-109646441D01*
X140298235Y-109629691D01*
X140312240Y-109614240D01*
X140327691Y-109600235D01*
X140344441Y-109587813D01*
X140362328Y-109577092D01*
X140381180Y-109568176D01*
X140400815Y-109561150D01*
X140421043Y-109556083D01*
X140441671Y-109553023D01*
X140462500Y-109552000D01*
X140887500Y-109552000D01*
X140908329Y-109553023D01*
G37*
G36*
X145308329Y-109553023D02*
G01*
X145328957Y-109556083D01*
X145349185Y-109561150D01*
X145368820Y-109568176D01*
X145387672Y-109577092D01*
X145405559Y-109587813D01*
X145422309Y-109600235D01*
X145437760Y-109614240D01*
X145451765Y-109629691D01*
X145464187Y-109646441D01*
X145474908Y-109664328D01*
X145483824Y-109683180D01*
X145490850Y-109702815D01*
X145495917Y-109723043D01*
X145498977Y-109743671D01*
X145500000Y-109764500D01*
X145500000Y-111089500D01*
X145498977Y-111110329D01*
X145495917Y-111130957D01*
X145490850Y-111151185D01*
X145483824Y-111170820D01*
X145474908Y-111189672D01*
X145464187Y-111207559D01*
X145451765Y-111224309D01*
X145437760Y-111239760D01*
X145422309Y-111253765D01*
X145405559Y-111266187D01*
X145387672Y-111276908D01*
X145368820Y-111285824D01*
X145349185Y-111292850D01*
X145328957Y-111297917D01*
X145308329Y-111300977D01*
X145287500Y-111302000D01*
X144862500Y-111302000D01*
X144841671Y-111300977D01*
X144821043Y-111297917D01*
X144800815Y-111292850D01*
X144781180Y-111285824D01*
X144762328Y-111276908D01*
X144744441Y-111266187D01*
X144727691Y-111253765D01*
X144712240Y-111239760D01*
X144698235Y-111224309D01*
X144685813Y-111207559D01*
X144675092Y-111189672D01*
X144666176Y-111170820D01*
X144659150Y-111151185D01*
X144654083Y-111130957D01*
X144651023Y-111110329D01*
X144650000Y-111089500D01*
X144650000Y-109764500D01*
X144651023Y-109743671D01*
X144654083Y-109723043D01*
X144659150Y-109702815D01*
X144666176Y-109683180D01*
X144675092Y-109664328D01*
X144685813Y-109646441D01*
X144698235Y-109629691D01*
X144712240Y-109614240D01*
X144727691Y-109600235D01*
X144744441Y-109587813D01*
X144762328Y-109577092D01*
X144781180Y-109568176D01*
X144800815Y-109561150D01*
X144821043Y-109556083D01*
X144841671Y-109553023D01*
X144862500Y-109552000D01*
X145287500Y-109552000D01*
X145308329Y-109553023D01*
G37*
G36*
X88978504Y-41028204D02*
G01*
X89002773Y-41031804D01*
X89026571Y-41037765D01*
X89049671Y-41046030D01*
X89071849Y-41056520D01*
X89092893Y-41069133D01*
X89112598Y-41083747D01*
X89130777Y-41100223D01*
X89147253Y-41118402D01*
X89161867Y-41138107D01*
X89174480Y-41159151D01*
X89184970Y-41181329D01*
X89193235Y-41204429D01*
X89199196Y-41228227D01*
X89202796Y-41252496D01*
X89204000Y-41277000D01*
X89204000Y-42727000D01*
X89202796Y-42751504D01*
X89199196Y-42775773D01*
X89193235Y-42799571D01*
X89184970Y-42822671D01*
X89174480Y-42844849D01*
X89161867Y-42865893D01*
X89147253Y-42885598D01*
X89130777Y-42903777D01*
X89112598Y-42920253D01*
X89092893Y-42934867D01*
X89071849Y-42947480D01*
X89049671Y-42957970D01*
X89026571Y-42966235D01*
X89002773Y-42972196D01*
X88978504Y-42975796D01*
X88954000Y-42977000D01*
X87754000Y-42977000D01*
X87729496Y-42975796D01*
X87705227Y-42972196D01*
X87681429Y-42966235D01*
X87658329Y-42957970D01*
X87636151Y-42947480D01*
X87615107Y-42934867D01*
X87595402Y-42920253D01*
X87577223Y-42903777D01*
X87560747Y-42885598D01*
X87546133Y-42865893D01*
X87533520Y-42844849D01*
X87523030Y-42822671D01*
X87514765Y-42799571D01*
X87508804Y-42775773D01*
X87505204Y-42751504D01*
X87504000Y-42727000D01*
X87504000Y-41277000D01*
X87505204Y-41252496D01*
X87508804Y-41228227D01*
X87514765Y-41204429D01*
X87523030Y-41181329D01*
X87533520Y-41159151D01*
X87546133Y-41138107D01*
X87560747Y-41118402D01*
X87577223Y-41100223D01*
X87595402Y-41083747D01*
X87615107Y-41069133D01*
X87636151Y-41056520D01*
X87658329Y-41046030D01*
X87681429Y-41037765D01*
X87705227Y-41031804D01*
X87729496Y-41028204D01*
X87754000Y-41027000D01*
X88954000Y-41027000D01*
X88978504Y-41028204D01*
G37*
D18*
X90854000Y-42002000D03*
X93354000Y-42002000D03*
X95854000Y-42002000D03*
X98354000Y-42002000D03*
X100854000Y-42002000D03*
X103354000Y-42002000D03*
X105854000Y-42002000D03*
X108354000Y-42002000D03*
X110854000Y-42002000D03*
X113354000Y-42002000D03*
X115854000Y-42002000D03*
X149929000Y-42002000D03*
X147429000Y-42002000D03*
X144929000Y-42002000D03*
X142429000Y-42002000D03*
X139929000Y-42002000D03*
X137429000Y-42002000D03*
X134929000Y-42002000D03*
X132429000Y-42002000D03*
X129929000Y-42002000D03*
X127429000Y-42002000D03*
X124929000Y-42002000D03*
D16*
G36*
X123053504Y-41028204D02*
G01*
X123077773Y-41031804D01*
X123101571Y-41037765D01*
X123124671Y-41046030D01*
X123146849Y-41056520D01*
X123167893Y-41069133D01*
X123187598Y-41083747D01*
X123205777Y-41100223D01*
X123222253Y-41118402D01*
X123236867Y-41138107D01*
X123249480Y-41159151D01*
X123259970Y-41181329D01*
X123268235Y-41204429D01*
X123274196Y-41228227D01*
X123277796Y-41252496D01*
X123279000Y-41277000D01*
X123279000Y-42727000D01*
X123277796Y-42751504D01*
X123274196Y-42775773D01*
X123268235Y-42799571D01*
X123259970Y-42822671D01*
X123249480Y-42844849D01*
X123236867Y-42865893D01*
X123222253Y-42885598D01*
X123205777Y-42903777D01*
X123187598Y-42920253D01*
X123167893Y-42934867D01*
X123146849Y-42947480D01*
X123124671Y-42957970D01*
X123101571Y-42966235D01*
X123077773Y-42972196D01*
X123053504Y-42975796D01*
X123029000Y-42977000D01*
X121829000Y-42977000D01*
X121804496Y-42975796D01*
X121780227Y-42972196D01*
X121756429Y-42966235D01*
X121733329Y-42957970D01*
X121711151Y-42947480D01*
X121690107Y-42934867D01*
X121670402Y-42920253D01*
X121652223Y-42903777D01*
X121635747Y-42885598D01*
X121621133Y-42865893D01*
X121608520Y-42844849D01*
X121598030Y-42822671D01*
X121589765Y-42799571D01*
X121583804Y-42775773D01*
X121580204Y-42751504D01*
X121579000Y-42727000D01*
X121579000Y-41277000D01*
X121580204Y-41252496D01*
X121583804Y-41228227D01*
X121589765Y-41204429D01*
X121598030Y-41181329D01*
X121608520Y-41159151D01*
X121621133Y-41138107D01*
X121635747Y-41118402D01*
X121652223Y-41100223D01*
X121670402Y-41083747D01*
X121690107Y-41069133D01*
X121711151Y-41056520D01*
X121733329Y-41046030D01*
X121756429Y-41037765D01*
X121780227Y-41031804D01*
X121804496Y-41028204D01*
X121829000Y-41027000D01*
X123029000Y-41027000D01*
X123053504Y-41028204D01*
G37*
D19*
X80645000Y-96139000D03*
D20*
X85445000Y-93639000D03*
X85445000Y-94639000D03*
X85445000Y-95639000D03*
X85445000Y-96639000D03*
X85445000Y-97639000D03*
X85445000Y-98639000D03*
X75845000Y-98639000D03*
X75845000Y-97639000D03*
X75845000Y-96639000D03*
X75845000Y-95639000D03*
X75845000Y-94639000D03*
X75845000Y-93639000D03*
X96673000Y-93639000D03*
X96673000Y-94639000D03*
X96673000Y-95639000D03*
X96673000Y-96639000D03*
X96673000Y-97639000D03*
X96673000Y-98639000D03*
X106273000Y-98639000D03*
X106273000Y-97639000D03*
X106273000Y-96639000D03*
X106273000Y-95639000D03*
X106273000Y-94639000D03*
X106273000Y-93639000D03*
D19*
X101473000Y-96139000D03*
X122301000Y-96139000D03*
D20*
X127101000Y-93639000D03*
X127101000Y-94639000D03*
X127101000Y-95639000D03*
X127101000Y-96639000D03*
X127101000Y-97639000D03*
X127101000Y-98639000D03*
X117501000Y-98639000D03*
X117501000Y-97639000D03*
X117501000Y-96639000D03*
X117501000Y-95639000D03*
X117501000Y-94639000D03*
X117501000Y-93639000D03*
X138329000Y-93639000D03*
X138329000Y-94639000D03*
X138329000Y-95639000D03*
X138329000Y-96639000D03*
X138329000Y-97639000D03*
X138329000Y-98639000D03*
X147929000Y-98639000D03*
X147929000Y-97639000D03*
X147929000Y-96639000D03*
X147929000Y-95639000D03*
X147929000Y-94639000D03*
X147929000Y-93639000D03*
D19*
X143129000Y-96139000D03*
D21*
X67691000Y-41910000D03*
X67691000Y-107950000D03*
X156591000Y-42164000D03*
X156591000Y-107950000D03*
M02*
