G04 #@! TF.GenerationSoftware,KiCad,Pcbnew,(5.1.5)-3*
G04 #@! TF.CreationDate,2020-03-18T20:22:11+01:00*
G04 #@! TF.ProjectId,motor,6d6f746f-722e-46b6-9963-61645f706362,rev?*
G04 #@! TF.SameCoordinates,Original*
G04 #@! TF.FileFunction,Copper,L2,Bot*
G04 #@! TF.FilePolarity,Positive*
%FSLAX46Y46*%
G04 Gerber Fmt 4.6, Leading zero omitted, Abs format (unit mm)*
G04 Created by KiCad (PCBNEW (5.1.5)-3) date 2020-03-18 20:22:11*
%MOMM*%
%LPD*%
G04 APERTURE LIST*
%ADD10C,2.100000*%
%ADD11C,2.500000*%
%ADD12C,2.400000*%
%ADD13C,2.300000*%
%ADD14R,1.600000X1.600000*%
%ADD15C,1.600000*%
%ADD16C,0.100000*%
%ADD17O,1.700000X1.950000*%
%ADD18C,4.400000*%
%ADD19C,0.800000*%
%ADD20C,0.250000*%
%ADD21C,0.254000*%
G04 APERTURE END LIST*
D10*
X73228000Y-41504500D03*
X73228000Y-46204500D03*
X82728000Y-46204500D03*
X82728000Y-41504500D03*
D11*
X77978000Y-38754500D03*
D12*
X77978000Y-42004500D03*
D13*
X77978000Y-48004500D03*
D14*
X68707000Y-85344000D03*
D15*
X72207000Y-85344000D03*
X93289000Y-109220000D03*
D14*
X89789000Y-109220000D03*
X110363000Y-109220000D03*
D15*
X113863000Y-109220000D03*
X134437000Y-108966000D03*
D14*
X130937000Y-108966000D03*
G04 #@! TA.AperFunction,ComponentPad*
D16*
G36*
X88978504Y-41028204D02*
G01*
X89002773Y-41031804D01*
X89026571Y-41037765D01*
X89049671Y-41046030D01*
X89071849Y-41056520D01*
X89092893Y-41069133D01*
X89112598Y-41083747D01*
X89130777Y-41100223D01*
X89147253Y-41118402D01*
X89161867Y-41138107D01*
X89174480Y-41159151D01*
X89184970Y-41181329D01*
X89193235Y-41204429D01*
X89199196Y-41228227D01*
X89202796Y-41252496D01*
X89204000Y-41277000D01*
X89204000Y-42727000D01*
X89202796Y-42751504D01*
X89199196Y-42775773D01*
X89193235Y-42799571D01*
X89184970Y-42822671D01*
X89174480Y-42844849D01*
X89161867Y-42865893D01*
X89147253Y-42885598D01*
X89130777Y-42903777D01*
X89112598Y-42920253D01*
X89092893Y-42934867D01*
X89071849Y-42947480D01*
X89049671Y-42957970D01*
X89026571Y-42966235D01*
X89002773Y-42972196D01*
X88978504Y-42975796D01*
X88954000Y-42977000D01*
X87754000Y-42977000D01*
X87729496Y-42975796D01*
X87705227Y-42972196D01*
X87681429Y-42966235D01*
X87658329Y-42957970D01*
X87636151Y-42947480D01*
X87615107Y-42934867D01*
X87595402Y-42920253D01*
X87577223Y-42903777D01*
X87560747Y-42885598D01*
X87546133Y-42865893D01*
X87533520Y-42844849D01*
X87523030Y-42822671D01*
X87514765Y-42799571D01*
X87508804Y-42775773D01*
X87505204Y-42751504D01*
X87504000Y-42727000D01*
X87504000Y-41277000D01*
X87505204Y-41252496D01*
X87508804Y-41228227D01*
X87514765Y-41204429D01*
X87523030Y-41181329D01*
X87533520Y-41159151D01*
X87546133Y-41138107D01*
X87560747Y-41118402D01*
X87577223Y-41100223D01*
X87595402Y-41083747D01*
X87615107Y-41069133D01*
X87636151Y-41056520D01*
X87658329Y-41046030D01*
X87681429Y-41037765D01*
X87705227Y-41031804D01*
X87729496Y-41028204D01*
X87754000Y-41027000D01*
X88954000Y-41027000D01*
X88978504Y-41028204D01*
G37*
G04 #@! TD.AperFunction*
D17*
X90854000Y-42002000D03*
X93354000Y-42002000D03*
X95854000Y-42002000D03*
X98354000Y-42002000D03*
X100854000Y-42002000D03*
X103354000Y-42002000D03*
X105854000Y-42002000D03*
X108354000Y-42002000D03*
X110854000Y-42002000D03*
X113354000Y-42002000D03*
X115854000Y-42002000D03*
X149929000Y-42002000D03*
X147429000Y-42002000D03*
X144929000Y-42002000D03*
X142429000Y-42002000D03*
X139929000Y-42002000D03*
X137429000Y-42002000D03*
X134929000Y-42002000D03*
X132429000Y-42002000D03*
X129929000Y-42002000D03*
X127429000Y-42002000D03*
X124929000Y-42002000D03*
G04 #@! TA.AperFunction,ComponentPad*
D16*
G36*
X123053504Y-41028204D02*
G01*
X123077773Y-41031804D01*
X123101571Y-41037765D01*
X123124671Y-41046030D01*
X123146849Y-41056520D01*
X123167893Y-41069133D01*
X123187598Y-41083747D01*
X123205777Y-41100223D01*
X123222253Y-41118402D01*
X123236867Y-41138107D01*
X123249480Y-41159151D01*
X123259970Y-41181329D01*
X123268235Y-41204429D01*
X123274196Y-41228227D01*
X123277796Y-41252496D01*
X123279000Y-41277000D01*
X123279000Y-42727000D01*
X123277796Y-42751504D01*
X123274196Y-42775773D01*
X123268235Y-42799571D01*
X123259970Y-42822671D01*
X123249480Y-42844849D01*
X123236867Y-42865893D01*
X123222253Y-42885598D01*
X123205777Y-42903777D01*
X123187598Y-42920253D01*
X123167893Y-42934867D01*
X123146849Y-42947480D01*
X123124671Y-42957970D01*
X123101571Y-42966235D01*
X123077773Y-42972196D01*
X123053504Y-42975796D01*
X123029000Y-42977000D01*
X121829000Y-42977000D01*
X121804496Y-42975796D01*
X121780227Y-42972196D01*
X121756429Y-42966235D01*
X121733329Y-42957970D01*
X121711151Y-42947480D01*
X121690107Y-42934867D01*
X121670402Y-42920253D01*
X121652223Y-42903777D01*
X121635747Y-42885598D01*
X121621133Y-42865893D01*
X121608520Y-42844849D01*
X121598030Y-42822671D01*
X121589765Y-42799571D01*
X121583804Y-42775773D01*
X121580204Y-42751504D01*
X121579000Y-42727000D01*
X121579000Y-41277000D01*
X121580204Y-41252496D01*
X121583804Y-41228227D01*
X121589765Y-41204429D01*
X121598030Y-41181329D01*
X121608520Y-41159151D01*
X121621133Y-41138107D01*
X121635747Y-41118402D01*
X121652223Y-41100223D01*
X121670402Y-41083747D01*
X121690107Y-41069133D01*
X121711151Y-41056520D01*
X121733329Y-41046030D01*
X121756429Y-41037765D01*
X121780227Y-41031804D01*
X121804496Y-41028204D01*
X121829000Y-41027000D01*
X123029000Y-41027000D01*
X123053504Y-41028204D01*
G37*
G04 #@! TD.AperFunction*
D18*
X67691000Y-41910000D03*
X67691000Y-107950000D03*
X156591000Y-42164000D03*
X156591000Y-107950000D03*
D19*
X120523000Y-91440000D03*
X124079000Y-91440000D03*
X124079000Y-88392000D03*
X122301000Y-89916000D03*
X124079000Y-89916000D03*
X122301000Y-91440000D03*
X120523000Y-88392000D03*
X122301000Y-88392000D03*
X120523000Y-89916000D03*
X99949000Y-91186000D03*
X103505000Y-91186000D03*
X103505000Y-88138000D03*
X101727000Y-89662000D03*
X103505000Y-89662000D03*
X101727000Y-91186000D03*
X99949000Y-88138000D03*
X101727000Y-88138000D03*
X99949000Y-89662000D03*
X78867000Y-90932000D03*
X82423000Y-90932000D03*
X82423000Y-87884000D03*
X80645000Y-89408000D03*
X82423000Y-89408000D03*
X80645000Y-90932000D03*
X78867000Y-87884000D03*
X80645000Y-87884000D03*
X78867000Y-89408000D03*
X117729000Y-100076000D03*
X118491000Y-102870000D03*
X126111000Y-101346000D03*
X124587000Y-102870000D03*
X120015000Y-101346000D03*
X126111000Y-100076000D03*
X121539000Y-101346000D03*
X123063000Y-101346000D03*
X120015000Y-102870000D03*
X124587000Y-101346000D03*
X126111000Y-102870000D03*
X123063000Y-102870000D03*
X118491000Y-101346000D03*
X119253000Y-100076000D03*
X121539000Y-102870000D03*
X96901000Y-99822000D03*
X97663000Y-102616000D03*
X105283000Y-101092000D03*
X103759000Y-102616000D03*
X99187000Y-101092000D03*
X105283000Y-99822000D03*
X100711000Y-101092000D03*
X102235000Y-101092000D03*
X99187000Y-102616000D03*
X103759000Y-101092000D03*
X105283000Y-102616000D03*
X102235000Y-102616000D03*
X97663000Y-101092000D03*
X98425000Y-99822000D03*
X100711000Y-102616000D03*
X76073000Y-99822000D03*
X76835000Y-102616000D03*
X84455000Y-101092000D03*
X82931000Y-102616000D03*
X78359000Y-101092000D03*
X84455000Y-99822000D03*
X79883000Y-101092000D03*
X81407000Y-101092000D03*
X78359000Y-102616000D03*
X82931000Y-101092000D03*
X84455000Y-102616000D03*
X81407000Y-102616000D03*
X76835000Y-101092000D03*
X77597000Y-99822000D03*
X79883000Y-102616000D03*
X140081000Y-100076000D03*
X138557000Y-100076000D03*
X139319000Y-101346000D03*
X139319000Y-102870000D03*
X140843000Y-101346000D03*
X142367000Y-101346000D03*
X143891000Y-101346000D03*
X145415000Y-101346000D03*
X146939000Y-101346000D03*
X146939000Y-100076000D03*
X140843000Y-102870000D03*
X142367000Y-102870000D03*
X143891000Y-102870000D03*
X145415000Y-102870000D03*
X146939000Y-102870000D03*
X144653000Y-91694000D03*
X142875000Y-91694000D03*
X141097000Y-91694000D03*
X141097000Y-88646000D03*
X142875000Y-88646000D03*
X144653000Y-88646000D03*
X141097000Y-90170000D03*
X142875000Y-90170000D03*
X144653000Y-90170000D03*
X72009000Y-100076000D03*
X113665000Y-91948000D03*
X92837000Y-91948000D03*
X134493000Y-91948000D03*
X136429000Y-94652000D03*
X94629000Y-94652000D03*
X73579000Y-94652000D03*
X115529000Y-94652000D03*
X110854000Y-51077000D03*
X111729000Y-58202000D03*
X109179000Y-75502000D03*
X109179000Y-81477000D03*
X115529000Y-90087000D03*
X133731000Y-39370000D03*
X108229000Y-97652000D03*
X128929000Y-97652000D03*
X149854000Y-97652000D03*
X87329000Y-97652000D03*
X133054000Y-59627000D03*
X136429000Y-95652000D03*
X94654000Y-95652000D03*
X73604000Y-95652000D03*
X115529000Y-95652000D03*
X110004000Y-96527000D03*
X89379000Y-96527000D03*
X130879000Y-96527000D03*
X151404000Y-96527000D03*
X131129000Y-51952000D03*
X132254000Y-56852000D03*
X134454000Y-61702000D03*
X126079000Y-60427000D03*
X126079000Y-51202000D03*
X135329000Y-52902000D03*
X96579000Y-53252000D03*
X103354000Y-53252000D03*
X119154000Y-59802000D03*
X138329000Y-89402000D03*
X99402002Y-55002000D03*
X117429000Y-89102000D03*
X96679000Y-89527000D03*
X95854000Y-49602000D03*
X89629000Y-49577000D03*
X112904000Y-49552000D03*
X147929000Y-89827000D03*
X108204000Y-48827000D03*
X127104000Y-90552000D03*
X105854000Y-48102000D03*
X105854000Y-73452000D03*
X101629000Y-49577000D03*
X150354000Y-93652000D03*
X129379000Y-93677000D03*
X108679000Y-93677000D03*
X87779000Y-93652000D03*
D20*
X115529000Y-94652000D02*
X116094685Y-94652000D01*
X116094685Y-94652000D02*
X136429000Y-94652000D01*
X73579000Y-94652000D02*
X74144685Y-94652000D01*
X74144685Y-94652000D02*
X94629000Y-94652000D01*
X94629000Y-94652000D02*
X115529000Y-94652000D01*
X111729000Y-58202000D02*
X111729000Y-72952000D01*
X111729000Y-72952000D02*
X109179000Y-75502000D01*
X109179000Y-83737000D02*
X109179000Y-81477000D01*
X115529000Y-90087000D02*
X109179000Y-83737000D01*
X110854000Y-42002000D02*
X110854000Y-51077000D01*
X144929000Y-40777000D02*
X143522000Y-39370000D01*
X144929000Y-42002000D02*
X144929000Y-40777000D01*
X143522000Y-39370000D02*
X133731000Y-39370000D01*
X149288315Y-97652000D02*
X128929000Y-97652000D01*
X149854000Y-97652000D02*
X149288315Y-97652000D01*
X128363315Y-97652000D02*
X108229000Y-97652000D01*
X128929000Y-97652000D02*
X128363315Y-97652000D01*
X107663315Y-97652000D02*
X87329000Y-97652000D01*
X108229000Y-97652000D02*
X107663315Y-97652000D01*
X124929000Y-51502000D02*
X133054000Y-59627000D01*
X124929000Y-42002000D02*
X124929000Y-51502000D01*
X129504000Y-95652000D02*
X115529000Y-95652000D01*
X136429000Y-95652000D02*
X129504000Y-95652000D01*
X94088315Y-95652000D02*
X73604000Y-95652000D01*
X94654000Y-95652000D02*
X94088315Y-95652000D01*
X114963315Y-95652000D02*
X94654000Y-95652000D01*
X115529000Y-95652000D02*
X114963315Y-95652000D01*
X89944685Y-96527000D02*
X89379000Y-96527000D01*
X110004000Y-96527000D02*
X89944685Y-96527000D01*
X129988315Y-96527000D02*
X110004000Y-96527000D01*
X130879000Y-96527000D02*
X129988315Y-96527000D01*
X151404000Y-96527000D02*
X130879000Y-96527000D01*
X129929000Y-50752000D02*
X131129000Y-51952000D01*
X129929000Y-42002000D02*
X129929000Y-50752000D01*
X132819685Y-56852000D02*
X137429000Y-52242685D01*
X137429000Y-43227000D02*
X137429000Y-42002000D01*
X137429000Y-52242685D02*
X137429000Y-43227000D01*
X132254000Y-56852000D02*
X132819685Y-56852000D01*
X133888315Y-61702000D02*
X132613315Y-60427000D01*
X134454000Y-61702000D02*
X133888315Y-61702000D01*
X132613315Y-60427000D02*
X126079000Y-60427000D01*
X126079000Y-51202000D02*
X127779000Y-52902000D01*
X127779000Y-52902000D02*
X135329000Y-52902000D01*
X96579000Y-53252000D02*
X97144685Y-53252000D01*
X97144685Y-53252000D02*
X99654000Y-53252000D01*
X99654000Y-53252000D02*
X102554000Y-53252000D01*
X102554000Y-53252000D02*
X103354000Y-53252000D01*
X119154000Y-62440590D02*
X138329000Y-81615590D01*
X119154000Y-59802000D02*
X119154000Y-62440590D01*
X138329000Y-81615590D02*
X138329000Y-89402000D01*
X99802001Y-55401999D02*
X99803999Y-55401999D01*
X99402002Y-55002000D02*
X99802001Y-55401999D01*
X99803999Y-55401999D02*
X101079000Y-56677000D01*
X101079000Y-69750002D02*
X117429000Y-86100002D01*
X101079000Y-56677000D02*
X101079000Y-69750002D01*
X117429000Y-86100002D02*
X117429000Y-89102000D01*
X96679000Y-89527000D02*
X96679000Y-72977000D01*
X95854000Y-72152000D02*
X96679000Y-72977000D01*
X95854000Y-49602000D02*
X95854000Y-72152000D01*
X90194685Y-49577000D02*
X89629000Y-49577000D01*
X92004000Y-49577000D02*
X90194685Y-49577000D01*
X98354000Y-43227000D02*
X92004000Y-49577000D01*
X98354000Y-42002000D02*
X98354000Y-43227000D01*
X128754010Y-65402010D02*
X128754010Y-70652010D01*
X112904000Y-49552000D02*
X128754010Y-65402010D01*
X128754010Y-70652010D02*
X147929000Y-89827000D01*
X108204000Y-48827000D02*
X108204000Y-49392685D01*
X108204000Y-49392685D02*
X108204000Y-50902000D01*
X108204000Y-50902000D02*
X108204000Y-52152000D01*
X108204000Y-52152000D02*
X112854000Y-56802000D01*
X112854000Y-56802000D02*
X112879000Y-56802000D01*
X112879000Y-56802000D02*
X128304000Y-72227000D01*
X128304000Y-72227000D02*
X128304000Y-89352000D01*
X128304000Y-89352000D02*
X127104000Y-90552000D01*
X105854000Y-48102000D02*
X105854000Y-48667685D01*
X105854000Y-48667685D02*
X105854000Y-50927000D01*
X105854000Y-50927000D02*
X105854000Y-73452000D01*
X102004000Y-49577000D02*
X101629000Y-49577000D01*
X108354000Y-43227000D02*
X102004000Y-49577000D01*
X108354000Y-42002000D02*
X108354000Y-43227000D01*
X108654000Y-93652000D02*
X108679000Y-93677000D01*
X87779000Y-93652000D02*
X108654000Y-93652000D01*
X109244685Y-93677000D02*
X129379000Y-93677000D01*
X108679000Y-93677000D02*
X109244685Y-93677000D01*
X150329000Y-93677000D02*
X150354000Y-93652000D01*
X129379000Y-93677000D02*
X150329000Y-93677000D01*
D21*
G36*
X154670848Y-36319420D02*
G01*
X155650734Y-36535759D01*
X156589125Y-36891284D01*
X157466368Y-37378548D01*
X158264076Y-37987340D01*
X158965552Y-38704914D01*
X159556091Y-39516233D01*
X160023324Y-40404296D01*
X160357470Y-41350518D01*
X160552276Y-42338888D01*
X160605000Y-43200923D01*
X160605001Y-106655167D01*
X160530580Y-107680849D01*
X160314240Y-108660737D01*
X159958717Y-109599124D01*
X159471452Y-110476368D01*
X158862660Y-111274076D01*
X158145086Y-111975552D01*
X157333772Y-112566087D01*
X156445706Y-113033323D01*
X155499482Y-113367470D01*
X154511112Y-113562276D01*
X153649077Y-113615000D01*
X68985819Y-113615000D01*
X67960151Y-113540580D01*
X66980263Y-113324240D01*
X66041876Y-112968717D01*
X65164632Y-112481452D01*
X64366924Y-111872660D01*
X63665448Y-111155086D01*
X63074913Y-110343772D01*
X62862360Y-109939775D01*
X65880830Y-109939775D01*
X66120976Y-110327018D01*
X66614877Y-110587641D01*
X67150133Y-110746901D01*
X67706174Y-110798678D01*
X68261632Y-110740981D01*
X68795161Y-110576028D01*
X69261024Y-110327018D01*
X69501170Y-109939775D01*
X67691000Y-108129605D01*
X65880830Y-109939775D01*
X62862360Y-109939775D01*
X62607677Y-109455706D01*
X62273530Y-108509482D01*
X62166248Y-107965174D01*
X64842322Y-107965174D01*
X64900019Y-108520632D01*
X65064972Y-109054161D01*
X65313982Y-109520024D01*
X65701225Y-109760170D01*
X67511395Y-107950000D01*
X67870605Y-107950000D01*
X69680775Y-109760170D01*
X70068018Y-109520024D01*
X70328641Y-109026123D01*
X70487901Y-108490867D01*
X70494499Y-108420000D01*
X88350928Y-108420000D01*
X88350928Y-110020000D01*
X88363188Y-110144482D01*
X88399498Y-110264180D01*
X88458463Y-110374494D01*
X88537815Y-110471185D01*
X88634506Y-110550537D01*
X88744820Y-110609502D01*
X88864518Y-110645812D01*
X88989000Y-110658072D01*
X90589000Y-110658072D01*
X90713482Y-110645812D01*
X90833180Y-110609502D01*
X90943494Y-110550537D01*
X91040185Y-110471185D01*
X91119537Y-110374494D01*
X91178502Y-110264180D01*
X91194117Y-110212702D01*
X92475903Y-110212702D01*
X92547486Y-110456671D01*
X92802996Y-110577571D01*
X93077184Y-110646300D01*
X93359512Y-110660217D01*
X93639130Y-110618787D01*
X93905292Y-110523603D01*
X94030514Y-110456671D01*
X94102097Y-110212702D01*
X93289000Y-109399605D01*
X92475903Y-110212702D01*
X91194117Y-110212702D01*
X91214812Y-110144482D01*
X91227072Y-110020000D01*
X91227072Y-109290512D01*
X91848783Y-109290512D01*
X91890213Y-109570130D01*
X91985397Y-109836292D01*
X92052329Y-109961514D01*
X92296298Y-110033097D01*
X93109395Y-109220000D01*
X93468605Y-109220000D01*
X94281702Y-110033097D01*
X94525671Y-109961514D01*
X94646571Y-109706004D01*
X94715300Y-109431816D01*
X94729217Y-109149488D01*
X94687787Y-108869870D01*
X94592603Y-108603708D01*
X94525671Y-108478486D01*
X94326340Y-108420000D01*
X108924928Y-108420000D01*
X108924928Y-110020000D01*
X108937188Y-110144482D01*
X108973498Y-110264180D01*
X109032463Y-110374494D01*
X109111815Y-110471185D01*
X109208506Y-110550537D01*
X109318820Y-110609502D01*
X109438518Y-110645812D01*
X109563000Y-110658072D01*
X111163000Y-110658072D01*
X111287482Y-110645812D01*
X111407180Y-110609502D01*
X111517494Y-110550537D01*
X111614185Y-110471185D01*
X111693537Y-110374494D01*
X111752502Y-110264180D01*
X111768117Y-110212702D01*
X113049903Y-110212702D01*
X113121486Y-110456671D01*
X113376996Y-110577571D01*
X113651184Y-110646300D01*
X113933512Y-110660217D01*
X114213130Y-110618787D01*
X114479292Y-110523603D01*
X114604514Y-110456671D01*
X114676097Y-110212702D01*
X113863000Y-109399605D01*
X113049903Y-110212702D01*
X111768117Y-110212702D01*
X111788812Y-110144482D01*
X111801072Y-110020000D01*
X111801072Y-109290512D01*
X112422783Y-109290512D01*
X112464213Y-109570130D01*
X112559397Y-109836292D01*
X112626329Y-109961514D01*
X112870298Y-110033097D01*
X113683395Y-109220000D01*
X114042605Y-109220000D01*
X114855702Y-110033097D01*
X115099671Y-109961514D01*
X115220571Y-109706004D01*
X115289300Y-109431816D01*
X115303217Y-109149488D01*
X115261787Y-108869870D01*
X115166603Y-108603708D01*
X115099671Y-108478486D01*
X114855702Y-108406903D01*
X114042605Y-109220000D01*
X113683395Y-109220000D01*
X112870298Y-108406903D01*
X112626329Y-108478486D01*
X112505429Y-108733996D01*
X112436700Y-109008184D01*
X112422783Y-109290512D01*
X111801072Y-109290512D01*
X111801072Y-108420000D01*
X111788812Y-108295518D01*
X111768118Y-108227298D01*
X113049903Y-108227298D01*
X113863000Y-109040395D01*
X114676097Y-108227298D01*
X114658112Y-108166000D01*
X129498928Y-108166000D01*
X129498928Y-109766000D01*
X129511188Y-109890482D01*
X129547498Y-110010180D01*
X129606463Y-110120494D01*
X129685815Y-110217185D01*
X129782506Y-110296537D01*
X129892820Y-110355502D01*
X130012518Y-110391812D01*
X130137000Y-110404072D01*
X131737000Y-110404072D01*
X131861482Y-110391812D01*
X131981180Y-110355502D01*
X132091494Y-110296537D01*
X132188185Y-110217185D01*
X132267537Y-110120494D01*
X132326502Y-110010180D01*
X132342117Y-109958702D01*
X133623903Y-109958702D01*
X133695486Y-110202671D01*
X133950996Y-110323571D01*
X134225184Y-110392300D01*
X134507512Y-110406217D01*
X134787130Y-110364787D01*
X135053292Y-110269603D01*
X135178514Y-110202671D01*
X135250097Y-109958702D01*
X135231170Y-109939775D01*
X154780830Y-109939775D01*
X155020976Y-110327018D01*
X155514877Y-110587641D01*
X156050133Y-110746901D01*
X156606174Y-110798678D01*
X157161632Y-110740981D01*
X157695161Y-110576028D01*
X158161024Y-110327018D01*
X158401170Y-109939775D01*
X156591000Y-108129605D01*
X154780830Y-109939775D01*
X135231170Y-109939775D01*
X134437000Y-109145605D01*
X133623903Y-109958702D01*
X132342117Y-109958702D01*
X132362812Y-109890482D01*
X132375072Y-109766000D01*
X132375072Y-109036512D01*
X132996783Y-109036512D01*
X133038213Y-109316130D01*
X133133397Y-109582292D01*
X133200329Y-109707514D01*
X133444298Y-109779097D01*
X134257395Y-108966000D01*
X134616605Y-108966000D01*
X135429702Y-109779097D01*
X135673671Y-109707514D01*
X135794571Y-109452004D01*
X135863300Y-109177816D01*
X135877217Y-108895488D01*
X135835787Y-108615870D01*
X135740603Y-108349708D01*
X135673671Y-108224486D01*
X135429702Y-108152903D01*
X134616605Y-108966000D01*
X134257395Y-108966000D01*
X133444298Y-108152903D01*
X133200329Y-108224486D01*
X133079429Y-108479996D01*
X133010700Y-108754184D01*
X132996783Y-109036512D01*
X132375072Y-109036512D01*
X132375072Y-108166000D01*
X132362812Y-108041518D01*
X132342118Y-107973298D01*
X133623903Y-107973298D01*
X134437000Y-108786395D01*
X135250097Y-107973298D01*
X135247714Y-107965174D01*
X153742322Y-107965174D01*
X153800019Y-108520632D01*
X153964972Y-109054161D01*
X154213982Y-109520024D01*
X154601225Y-109760170D01*
X156411395Y-107950000D01*
X156770605Y-107950000D01*
X158580775Y-109760170D01*
X158968018Y-109520024D01*
X159228641Y-109026123D01*
X159387901Y-108490867D01*
X159439678Y-107934826D01*
X159381981Y-107379368D01*
X159217028Y-106845839D01*
X158968018Y-106379976D01*
X158580775Y-106139830D01*
X156770605Y-107950000D01*
X156411395Y-107950000D01*
X154601225Y-106139830D01*
X154213982Y-106379976D01*
X153953359Y-106873877D01*
X153794099Y-107409133D01*
X153742322Y-107965174D01*
X135247714Y-107965174D01*
X135178514Y-107729329D01*
X134923004Y-107608429D01*
X134648816Y-107539700D01*
X134366488Y-107525783D01*
X134086870Y-107567213D01*
X133820708Y-107662397D01*
X133695486Y-107729329D01*
X133623903Y-107973298D01*
X132342118Y-107973298D01*
X132326502Y-107921820D01*
X132267537Y-107811506D01*
X132188185Y-107714815D01*
X132091494Y-107635463D01*
X131981180Y-107576498D01*
X131861482Y-107540188D01*
X131737000Y-107527928D01*
X130137000Y-107527928D01*
X130012518Y-107540188D01*
X129892820Y-107576498D01*
X129782506Y-107635463D01*
X129685815Y-107714815D01*
X129606463Y-107811506D01*
X129547498Y-107921820D01*
X129511188Y-108041518D01*
X129498928Y-108166000D01*
X114658112Y-108166000D01*
X114604514Y-107983329D01*
X114349004Y-107862429D01*
X114074816Y-107793700D01*
X113792488Y-107779783D01*
X113512870Y-107821213D01*
X113246708Y-107916397D01*
X113121486Y-107983329D01*
X113049903Y-108227298D01*
X111768118Y-108227298D01*
X111752502Y-108175820D01*
X111693537Y-108065506D01*
X111614185Y-107968815D01*
X111517494Y-107889463D01*
X111407180Y-107830498D01*
X111287482Y-107794188D01*
X111163000Y-107781928D01*
X109563000Y-107781928D01*
X109438518Y-107794188D01*
X109318820Y-107830498D01*
X109208506Y-107889463D01*
X109111815Y-107968815D01*
X109032463Y-108065506D01*
X108973498Y-108175820D01*
X108937188Y-108295518D01*
X108924928Y-108420000D01*
X94326340Y-108420000D01*
X94281702Y-108406903D01*
X93468605Y-109220000D01*
X93109395Y-109220000D01*
X92296298Y-108406903D01*
X92052329Y-108478486D01*
X91931429Y-108733996D01*
X91862700Y-109008184D01*
X91848783Y-109290512D01*
X91227072Y-109290512D01*
X91227072Y-108420000D01*
X91214812Y-108295518D01*
X91194118Y-108227298D01*
X92475903Y-108227298D01*
X93289000Y-109040395D01*
X94102097Y-108227298D01*
X94030514Y-107983329D01*
X93775004Y-107862429D01*
X93500816Y-107793700D01*
X93218488Y-107779783D01*
X92938870Y-107821213D01*
X92672708Y-107916397D01*
X92547486Y-107983329D01*
X92475903Y-108227298D01*
X91194118Y-108227298D01*
X91178502Y-108175820D01*
X91119537Y-108065506D01*
X91040185Y-107968815D01*
X90943494Y-107889463D01*
X90833180Y-107830498D01*
X90713482Y-107794188D01*
X90589000Y-107781928D01*
X88989000Y-107781928D01*
X88864518Y-107794188D01*
X88744820Y-107830498D01*
X88634506Y-107889463D01*
X88537815Y-107968815D01*
X88458463Y-108065506D01*
X88399498Y-108175820D01*
X88363188Y-108295518D01*
X88350928Y-108420000D01*
X70494499Y-108420000D01*
X70539678Y-107934826D01*
X70481981Y-107379368D01*
X70317028Y-106845839D01*
X70068018Y-106379976D01*
X69680775Y-106139830D01*
X67870605Y-107950000D01*
X67511395Y-107950000D01*
X65701225Y-106139830D01*
X65313982Y-106379976D01*
X65053359Y-106873877D01*
X64894099Y-107409133D01*
X64842322Y-107965174D01*
X62166248Y-107965174D01*
X62078724Y-107521112D01*
X62026000Y-106659077D01*
X62026000Y-105960225D01*
X65880830Y-105960225D01*
X67691000Y-107770395D01*
X69501170Y-105960225D01*
X154780830Y-105960225D01*
X156591000Y-107770395D01*
X158401170Y-105960225D01*
X158161024Y-105572982D01*
X157667123Y-105312359D01*
X157131867Y-105153099D01*
X156575826Y-105101322D01*
X156020368Y-105159019D01*
X155486839Y-105323972D01*
X155020976Y-105572982D01*
X154780830Y-105960225D01*
X69501170Y-105960225D01*
X69261024Y-105572982D01*
X68767123Y-105312359D01*
X68231867Y-105153099D01*
X67675826Y-105101322D01*
X67120368Y-105159019D01*
X66586839Y-105323972D01*
X66120976Y-105572982D01*
X65880830Y-105960225D01*
X62026000Y-105960225D01*
X62026000Y-94550061D01*
X72544000Y-94550061D01*
X72544000Y-94753939D01*
X72583774Y-94953898D01*
X72661795Y-95142256D01*
X72682211Y-95172811D01*
X72608774Y-95350102D01*
X72569000Y-95550061D01*
X72569000Y-95753939D01*
X72608774Y-95953898D01*
X72686795Y-96142256D01*
X72800063Y-96311774D01*
X72944226Y-96455937D01*
X73113744Y-96569205D01*
X73302102Y-96647226D01*
X73502061Y-96687000D01*
X73705939Y-96687000D01*
X73905898Y-96647226D01*
X74094256Y-96569205D01*
X74263774Y-96455937D01*
X74307711Y-96412000D01*
X88346598Y-96412000D01*
X88344000Y-96425061D01*
X88344000Y-96628939D01*
X88383774Y-96828898D01*
X88409912Y-96892000D01*
X88032711Y-96892000D01*
X87988774Y-96848063D01*
X87819256Y-96734795D01*
X87630898Y-96656774D01*
X87430939Y-96617000D01*
X87227061Y-96617000D01*
X87027102Y-96656774D01*
X86838744Y-96734795D01*
X86669226Y-96848063D01*
X86525063Y-96992226D01*
X86411795Y-97161744D01*
X86333774Y-97350102D01*
X86294000Y-97550061D01*
X86294000Y-97753939D01*
X86333774Y-97953898D01*
X86411795Y-98142256D01*
X86525063Y-98311774D01*
X86669226Y-98455937D01*
X86838744Y-98569205D01*
X87027102Y-98647226D01*
X87227061Y-98687000D01*
X87430939Y-98687000D01*
X87630898Y-98647226D01*
X87819256Y-98569205D01*
X87988774Y-98455937D01*
X88032711Y-98412000D01*
X107525289Y-98412000D01*
X107569226Y-98455937D01*
X107738744Y-98569205D01*
X107927102Y-98647226D01*
X108127061Y-98687000D01*
X108330939Y-98687000D01*
X108530898Y-98647226D01*
X108719256Y-98569205D01*
X108888774Y-98455937D01*
X108932711Y-98412000D01*
X128225289Y-98412000D01*
X128269226Y-98455937D01*
X128438744Y-98569205D01*
X128627102Y-98647226D01*
X128827061Y-98687000D01*
X129030939Y-98687000D01*
X129230898Y-98647226D01*
X129419256Y-98569205D01*
X129588774Y-98455937D01*
X129632711Y-98412000D01*
X149150289Y-98412000D01*
X149194226Y-98455937D01*
X149363744Y-98569205D01*
X149552102Y-98647226D01*
X149752061Y-98687000D01*
X149955939Y-98687000D01*
X150155898Y-98647226D01*
X150344256Y-98569205D01*
X150513774Y-98455937D01*
X150657937Y-98311774D01*
X150771205Y-98142256D01*
X150849226Y-97953898D01*
X150889000Y-97753939D01*
X150889000Y-97550061D01*
X150860924Y-97408912D01*
X150913744Y-97444205D01*
X151102102Y-97522226D01*
X151302061Y-97562000D01*
X151505939Y-97562000D01*
X151705898Y-97522226D01*
X151894256Y-97444205D01*
X152063774Y-97330937D01*
X152207937Y-97186774D01*
X152321205Y-97017256D01*
X152399226Y-96828898D01*
X152439000Y-96628939D01*
X152439000Y-96425061D01*
X152399226Y-96225102D01*
X152321205Y-96036744D01*
X152207937Y-95867226D01*
X152063774Y-95723063D01*
X151894256Y-95609795D01*
X151705898Y-95531774D01*
X151505939Y-95492000D01*
X151302061Y-95492000D01*
X151102102Y-95531774D01*
X150913744Y-95609795D01*
X150744226Y-95723063D01*
X150700289Y-95767000D01*
X137461402Y-95767000D01*
X137464000Y-95753939D01*
X137464000Y-95550061D01*
X137424226Y-95350102D01*
X137346205Y-95161744D01*
X137339694Y-95152000D01*
X137346205Y-95142256D01*
X137424226Y-94953898D01*
X137464000Y-94753939D01*
X137464000Y-94550061D01*
X137441511Y-94437000D01*
X149675289Y-94437000D01*
X149694226Y-94455937D01*
X149863744Y-94569205D01*
X150052102Y-94647226D01*
X150252061Y-94687000D01*
X150455939Y-94687000D01*
X150655898Y-94647226D01*
X150844256Y-94569205D01*
X151013774Y-94455937D01*
X151157937Y-94311774D01*
X151271205Y-94142256D01*
X151349226Y-93953898D01*
X151389000Y-93753939D01*
X151389000Y-93550061D01*
X151349226Y-93350102D01*
X151271205Y-93161744D01*
X151157937Y-92992226D01*
X151013774Y-92848063D01*
X150844256Y-92734795D01*
X150655898Y-92656774D01*
X150455939Y-92617000D01*
X150252061Y-92617000D01*
X150052102Y-92656774D01*
X149863744Y-92734795D01*
X149694226Y-92848063D01*
X149625289Y-92917000D01*
X130082711Y-92917000D01*
X130038774Y-92873063D01*
X129869256Y-92759795D01*
X129680898Y-92681774D01*
X129480939Y-92642000D01*
X129277061Y-92642000D01*
X129077102Y-92681774D01*
X128888744Y-92759795D01*
X128719226Y-92873063D01*
X128675289Y-92917000D01*
X109382711Y-92917000D01*
X109338774Y-92873063D01*
X109169256Y-92759795D01*
X108980898Y-92681774D01*
X108780939Y-92642000D01*
X108577061Y-92642000D01*
X108377102Y-92681774D01*
X108188744Y-92759795D01*
X108019226Y-92873063D01*
X108000289Y-92892000D01*
X88482711Y-92892000D01*
X88438774Y-92848063D01*
X88269256Y-92734795D01*
X88080898Y-92656774D01*
X87880939Y-92617000D01*
X87677061Y-92617000D01*
X87477102Y-92656774D01*
X87288744Y-92734795D01*
X87119226Y-92848063D01*
X86975063Y-92992226D01*
X86861795Y-93161744D01*
X86783774Y-93350102D01*
X86744000Y-93550061D01*
X86744000Y-93753939D01*
X86771462Y-93892000D01*
X74282711Y-93892000D01*
X74238774Y-93848063D01*
X74069256Y-93734795D01*
X73880898Y-93656774D01*
X73680939Y-93617000D01*
X73477061Y-93617000D01*
X73277102Y-93656774D01*
X73088744Y-93734795D01*
X72919226Y-93848063D01*
X72775063Y-93992226D01*
X72661795Y-94161744D01*
X72583774Y-94350102D01*
X72544000Y-94550061D01*
X62026000Y-94550061D01*
X62026000Y-84544000D01*
X67268928Y-84544000D01*
X67268928Y-86144000D01*
X67281188Y-86268482D01*
X67317498Y-86388180D01*
X67376463Y-86498494D01*
X67455815Y-86595185D01*
X67552506Y-86674537D01*
X67662820Y-86733502D01*
X67782518Y-86769812D01*
X67907000Y-86782072D01*
X69507000Y-86782072D01*
X69631482Y-86769812D01*
X69751180Y-86733502D01*
X69861494Y-86674537D01*
X69958185Y-86595185D01*
X70037537Y-86498494D01*
X70096502Y-86388180D01*
X70112117Y-86336702D01*
X71393903Y-86336702D01*
X71465486Y-86580671D01*
X71720996Y-86701571D01*
X71995184Y-86770300D01*
X72277512Y-86784217D01*
X72557130Y-86742787D01*
X72823292Y-86647603D01*
X72948514Y-86580671D01*
X73020097Y-86336702D01*
X72207000Y-85523605D01*
X71393903Y-86336702D01*
X70112117Y-86336702D01*
X70132812Y-86268482D01*
X70145072Y-86144000D01*
X70145072Y-85414512D01*
X70766783Y-85414512D01*
X70808213Y-85694130D01*
X70903397Y-85960292D01*
X70970329Y-86085514D01*
X71214298Y-86157097D01*
X72027395Y-85344000D01*
X72386605Y-85344000D01*
X73199702Y-86157097D01*
X73443671Y-86085514D01*
X73564571Y-85830004D01*
X73633300Y-85555816D01*
X73647217Y-85273488D01*
X73605787Y-84993870D01*
X73510603Y-84727708D01*
X73443671Y-84602486D01*
X73199702Y-84530903D01*
X72386605Y-85344000D01*
X72027395Y-85344000D01*
X71214298Y-84530903D01*
X70970329Y-84602486D01*
X70849429Y-84857996D01*
X70780700Y-85132184D01*
X70766783Y-85414512D01*
X70145072Y-85414512D01*
X70145072Y-84544000D01*
X70132812Y-84419518D01*
X70112118Y-84351298D01*
X71393903Y-84351298D01*
X72207000Y-85164395D01*
X73020097Y-84351298D01*
X72948514Y-84107329D01*
X72693004Y-83986429D01*
X72418816Y-83917700D01*
X72136488Y-83903783D01*
X71856870Y-83945213D01*
X71590708Y-84040397D01*
X71465486Y-84107329D01*
X71393903Y-84351298D01*
X70112118Y-84351298D01*
X70096502Y-84299820D01*
X70037537Y-84189506D01*
X69958185Y-84092815D01*
X69861494Y-84013463D01*
X69751180Y-83954498D01*
X69631482Y-83918188D01*
X69507000Y-83905928D01*
X67907000Y-83905928D01*
X67782518Y-83918188D01*
X67662820Y-83954498D01*
X67552506Y-84013463D01*
X67455815Y-84092815D01*
X67376463Y-84189506D01*
X67317498Y-84299820D01*
X67281188Y-84419518D01*
X67268928Y-84544000D01*
X62026000Y-84544000D01*
X62026000Y-47375566D01*
X72236539Y-47375566D01*
X72338339Y-47645079D01*
X72636477Y-47790963D01*
X72957346Y-47875880D01*
X73288617Y-47896566D01*
X73617557Y-47852228D01*
X73686193Y-47828693D01*
X76193000Y-47828693D01*
X76193000Y-48180307D01*
X76261596Y-48525165D01*
X76396153Y-48850015D01*
X76591500Y-49142371D01*
X76840129Y-49391000D01*
X77132485Y-49586347D01*
X77457335Y-49720904D01*
X77802193Y-49789500D01*
X78153807Y-49789500D01*
X78498665Y-49720904D01*
X78823515Y-49586347D01*
X79115871Y-49391000D01*
X79364500Y-49142371D01*
X79559847Y-48850015D01*
X79694404Y-48525165D01*
X79763000Y-48180307D01*
X79763000Y-47828693D01*
X79694404Y-47483835D01*
X79649558Y-47375566D01*
X81736539Y-47375566D01*
X81838339Y-47645079D01*
X82136477Y-47790963D01*
X82457346Y-47875880D01*
X82788617Y-47896566D01*
X83117557Y-47852228D01*
X83431527Y-47744569D01*
X83617661Y-47645079D01*
X83719461Y-47375566D01*
X82728000Y-46384105D01*
X81736539Y-47375566D01*
X79649558Y-47375566D01*
X79559847Y-47158985D01*
X79364500Y-46866629D01*
X79115871Y-46618000D01*
X78823515Y-46422653D01*
X78498665Y-46288096D01*
X78383141Y-46265117D01*
X81035934Y-46265117D01*
X81080272Y-46594057D01*
X81187931Y-46908027D01*
X81287421Y-47094161D01*
X81556934Y-47195961D01*
X82548395Y-46204500D01*
X82907605Y-46204500D01*
X83899066Y-47195961D01*
X84168579Y-47094161D01*
X84314463Y-46796023D01*
X84399380Y-46475154D01*
X84420066Y-46143883D01*
X84375728Y-45814943D01*
X84268069Y-45500973D01*
X84168579Y-45314839D01*
X83899066Y-45213039D01*
X82907605Y-46204500D01*
X82548395Y-46204500D01*
X81556934Y-45213039D01*
X81287421Y-45314839D01*
X81141537Y-45612977D01*
X81056620Y-45933846D01*
X81035934Y-46265117D01*
X78383141Y-46265117D01*
X78153807Y-46219500D01*
X77802193Y-46219500D01*
X77457335Y-46288096D01*
X77132485Y-46422653D01*
X76840129Y-46618000D01*
X76591500Y-46866629D01*
X76396153Y-47158985D01*
X76261596Y-47483835D01*
X76193000Y-47828693D01*
X73686193Y-47828693D01*
X73931527Y-47744569D01*
X74117661Y-47645079D01*
X74219461Y-47375566D01*
X73228000Y-46384105D01*
X72236539Y-47375566D01*
X62026000Y-47375566D01*
X62026000Y-46265117D01*
X71535934Y-46265117D01*
X71580272Y-46594057D01*
X71687931Y-46908027D01*
X71787421Y-47094161D01*
X72056934Y-47195961D01*
X73048395Y-46204500D01*
X73407605Y-46204500D01*
X74399066Y-47195961D01*
X74668579Y-47094161D01*
X74814463Y-46796023D01*
X74899380Y-46475154D01*
X74920066Y-46143883D01*
X74875728Y-45814943D01*
X74768069Y-45500973D01*
X74668579Y-45314839D01*
X74399066Y-45213039D01*
X73407605Y-46204500D01*
X73048395Y-46204500D01*
X72056934Y-45213039D01*
X71787421Y-45314839D01*
X71641537Y-45612977D01*
X71556620Y-45933846D01*
X71535934Y-46265117D01*
X62026000Y-46265117D01*
X62026000Y-45033434D01*
X72236539Y-45033434D01*
X73228000Y-46024895D01*
X74219461Y-45033434D01*
X81736539Y-45033434D01*
X82728000Y-46024895D01*
X83719461Y-45033434D01*
X83617661Y-44763921D01*
X83319523Y-44618037D01*
X82998654Y-44533120D01*
X82667383Y-44512434D01*
X82338443Y-44556772D01*
X82024473Y-44664431D01*
X81838339Y-44763921D01*
X81736539Y-45033434D01*
X74219461Y-45033434D01*
X74117661Y-44763921D01*
X73819523Y-44618037D01*
X73498654Y-44533120D01*
X73167383Y-44512434D01*
X72838443Y-44556772D01*
X72524473Y-44664431D01*
X72338339Y-44763921D01*
X72236539Y-45033434D01*
X62026000Y-45033434D01*
X62026000Y-43899775D01*
X65880830Y-43899775D01*
X66120976Y-44287018D01*
X66614877Y-44547641D01*
X67150133Y-44706901D01*
X67706174Y-44758678D01*
X68261632Y-44700981D01*
X68795161Y-44536028D01*
X69261024Y-44287018D01*
X69501170Y-43899775D01*
X67691000Y-42089605D01*
X65880830Y-43899775D01*
X62026000Y-43899775D01*
X62026000Y-43204819D01*
X62100420Y-42179152D01*
X62156493Y-41925174D01*
X64842322Y-41925174D01*
X64900019Y-42480632D01*
X65064972Y-43014161D01*
X65313982Y-43480024D01*
X65701225Y-43720170D01*
X67511395Y-41910000D01*
X67870605Y-41910000D01*
X69680775Y-43720170D01*
X70068018Y-43480024D01*
X70172258Y-43282480D01*
X76879626Y-43282480D01*
X76999514Y-43567336D01*
X77323210Y-43728199D01*
X77672069Y-43822822D01*
X78032684Y-43847567D01*
X78391198Y-43801485D01*
X78733833Y-43686346D01*
X78956486Y-43567336D01*
X79076374Y-43282480D01*
X77978000Y-42184105D01*
X76879626Y-43282480D01*
X70172258Y-43282480D01*
X70328641Y-42986123D01*
X70421044Y-42675566D01*
X72236539Y-42675566D01*
X72338339Y-42945079D01*
X72636477Y-43090963D01*
X72957346Y-43175880D01*
X73288617Y-43196566D01*
X73617557Y-43152228D01*
X73931527Y-43044569D01*
X74117661Y-42945079D01*
X74219461Y-42675566D01*
X73228000Y-41684105D01*
X72236539Y-42675566D01*
X70421044Y-42675566D01*
X70487901Y-42450867D01*
X70539678Y-41894826D01*
X70505431Y-41565117D01*
X71535934Y-41565117D01*
X71580272Y-41894057D01*
X71687931Y-42208027D01*
X71787421Y-42394161D01*
X72056934Y-42495961D01*
X73048395Y-41504500D01*
X73407605Y-41504500D01*
X74399066Y-42495961D01*
X74668579Y-42394161D01*
X74814463Y-42096023D01*
X74824212Y-42059184D01*
X76134933Y-42059184D01*
X76181015Y-42417698D01*
X76296154Y-42760333D01*
X76415164Y-42982986D01*
X76700020Y-43102874D01*
X77798395Y-42004500D01*
X78157605Y-42004500D01*
X79255980Y-43102874D01*
X79540836Y-42982986D01*
X79693610Y-42675566D01*
X81736539Y-42675566D01*
X81838339Y-42945079D01*
X82136477Y-43090963D01*
X82457346Y-43175880D01*
X82788617Y-43196566D01*
X83117557Y-43152228D01*
X83431527Y-43044569D01*
X83557940Y-42977000D01*
X86865928Y-42977000D01*
X86878188Y-43101482D01*
X86914498Y-43221180D01*
X86973463Y-43331494D01*
X87052815Y-43428185D01*
X87149506Y-43507537D01*
X87259820Y-43566502D01*
X87379518Y-43602812D01*
X87504000Y-43615072D01*
X88068250Y-43612000D01*
X88227000Y-43453250D01*
X88227000Y-42129000D01*
X87027750Y-42129000D01*
X86869000Y-42287750D01*
X86865928Y-42977000D01*
X83557940Y-42977000D01*
X83617661Y-42945079D01*
X83719461Y-42675566D01*
X82728000Y-41684105D01*
X81736539Y-42675566D01*
X79693610Y-42675566D01*
X79701699Y-42659290D01*
X79796322Y-42310431D01*
X79821067Y-41949816D01*
X79774985Y-41591302D01*
X79766186Y-41565117D01*
X81035934Y-41565117D01*
X81080272Y-41894057D01*
X81187931Y-42208027D01*
X81287421Y-42394161D01*
X81556934Y-42495961D01*
X82548395Y-41504500D01*
X82907605Y-41504500D01*
X83899066Y-42495961D01*
X84168579Y-42394161D01*
X84314463Y-42096023D01*
X84399380Y-41775154D01*
X84420066Y-41443883D01*
X84375728Y-41114943D01*
X84345573Y-41027000D01*
X86865928Y-41027000D01*
X86869000Y-41716250D01*
X87027750Y-41875000D01*
X88227000Y-41875000D01*
X88227000Y-40550750D01*
X88481000Y-40550750D01*
X88481000Y-41875000D01*
X88501000Y-41875000D01*
X88501000Y-42129000D01*
X88481000Y-42129000D01*
X88481000Y-43453250D01*
X88639750Y-43612000D01*
X89204000Y-43615072D01*
X89328482Y-43602812D01*
X89448180Y-43566502D01*
X89558494Y-43507537D01*
X89655185Y-43428185D01*
X89734537Y-43331494D01*
X89793502Y-43221180D01*
X89804055Y-43186392D01*
X90024987Y-43367706D01*
X90282967Y-43505599D01*
X90562890Y-43590513D01*
X90854000Y-43619185D01*
X91145111Y-43590513D01*
X91425034Y-43505599D01*
X91683014Y-43367706D01*
X91909134Y-43182134D01*
X92094706Y-42956014D01*
X92104000Y-42938626D01*
X92113294Y-42956014D01*
X92298866Y-43182134D01*
X92524987Y-43367706D01*
X92782967Y-43505599D01*
X93062890Y-43590513D01*
X93354000Y-43619185D01*
X93645111Y-43590513D01*
X93925034Y-43505599D01*
X94183014Y-43367706D01*
X94409134Y-43182134D01*
X94594706Y-42956014D01*
X94604000Y-42938626D01*
X94613294Y-42956014D01*
X94798866Y-43182134D01*
X95024987Y-43367706D01*
X95282967Y-43505599D01*
X95562890Y-43590513D01*
X95854000Y-43619185D01*
X96145111Y-43590513D01*
X96425034Y-43505599D01*
X96683014Y-43367706D01*
X96909134Y-43182134D01*
X97094706Y-42956014D01*
X97104000Y-42938626D01*
X97113294Y-42956014D01*
X97298866Y-43182134D01*
X97312706Y-43193492D01*
X91689199Y-48817000D01*
X90332711Y-48817000D01*
X90288774Y-48773063D01*
X90119256Y-48659795D01*
X89930898Y-48581774D01*
X89730939Y-48542000D01*
X89527061Y-48542000D01*
X89327102Y-48581774D01*
X89138744Y-48659795D01*
X88969226Y-48773063D01*
X88825063Y-48917226D01*
X88711795Y-49086744D01*
X88633774Y-49275102D01*
X88594000Y-49475061D01*
X88594000Y-49678939D01*
X88633774Y-49878898D01*
X88711795Y-50067256D01*
X88825063Y-50236774D01*
X88969226Y-50380937D01*
X89138744Y-50494205D01*
X89327102Y-50572226D01*
X89527061Y-50612000D01*
X89730939Y-50612000D01*
X89930898Y-50572226D01*
X90119256Y-50494205D01*
X90288774Y-50380937D01*
X90332711Y-50337000D01*
X91966678Y-50337000D01*
X92004000Y-50340676D01*
X92041322Y-50337000D01*
X92041333Y-50337000D01*
X92152986Y-50326003D01*
X92296247Y-50282546D01*
X92428276Y-50211974D01*
X92544001Y-50117001D01*
X92567804Y-50087997D01*
X98865003Y-43790799D01*
X98894001Y-43767001D01*
X98932749Y-43719787D01*
X98988974Y-43651277D01*
X99059546Y-43519247D01*
X99063686Y-43505599D01*
X99090517Y-43417146D01*
X99183014Y-43367706D01*
X99409134Y-43182134D01*
X99594706Y-42956014D01*
X99604000Y-42938626D01*
X99613294Y-42956014D01*
X99798866Y-43182134D01*
X100024987Y-43367706D01*
X100282967Y-43505599D01*
X100562890Y-43590513D01*
X100854000Y-43619185D01*
X101145111Y-43590513D01*
X101425034Y-43505599D01*
X101683014Y-43367706D01*
X101909134Y-43182134D01*
X102094706Y-42956014D01*
X102104000Y-42938626D01*
X102113294Y-42956014D01*
X102298866Y-43182134D01*
X102524987Y-43367706D01*
X102782967Y-43505599D01*
X103062890Y-43590513D01*
X103354000Y-43619185D01*
X103645111Y-43590513D01*
X103925034Y-43505599D01*
X104183014Y-43367706D01*
X104409134Y-43182134D01*
X104594706Y-42956014D01*
X104604000Y-42938626D01*
X104613294Y-42956014D01*
X104798866Y-43182134D01*
X105024987Y-43367706D01*
X105282967Y-43505599D01*
X105562890Y-43590513D01*
X105854000Y-43619185D01*
X106145111Y-43590513D01*
X106425034Y-43505599D01*
X106683014Y-43367706D01*
X106909134Y-43182134D01*
X107094706Y-42956014D01*
X107104000Y-42938626D01*
X107113294Y-42956014D01*
X107298866Y-43182134D01*
X107312706Y-43193492D01*
X101925499Y-48580700D01*
X101730939Y-48542000D01*
X101527061Y-48542000D01*
X101327102Y-48581774D01*
X101138744Y-48659795D01*
X100969226Y-48773063D01*
X100825063Y-48917226D01*
X100711795Y-49086744D01*
X100633774Y-49275102D01*
X100594000Y-49475061D01*
X100594000Y-49678939D01*
X100633774Y-49878898D01*
X100711795Y-50067256D01*
X100825063Y-50236774D01*
X100969226Y-50380937D01*
X101138744Y-50494205D01*
X101327102Y-50572226D01*
X101527061Y-50612000D01*
X101730939Y-50612000D01*
X101930898Y-50572226D01*
X102119256Y-50494205D01*
X102288774Y-50380937D01*
X102432937Y-50236774D01*
X102475286Y-50173394D01*
X102544001Y-50117001D01*
X102567804Y-50087997D01*
X104860948Y-47794853D01*
X104858774Y-47800102D01*
X104819000Y-48000061D01*
X104819000Y-48203939D01*
X104858774Y-48403898D01*
X104936795Y-48592256D01*
X105050063Y-48761774D01*
X105094000Y-48805711D01*
X105094001Y-50889658D01*
X105094000Y-50889668D01*
X105094001Y-72690202D01*
X101839000Y-69435201D01*
X101839000Y-56714325D01*
X101842676Y-56677000D01*
X101839000Y-56639675D01*
X101839000Y-56639667D01*
X101828003Y-56528014D01*
X101784546Y-56384753D01*
X101713974Y-56252724D01*
X101619001Y-56136999D01*
X101590004Y-56113202D01*
X100437002Y-54960201D01*
X100437002Y-54900061D01*
X100397228Y-54700102D01*
X100319207Y-54511744D01*
X100205939Y-54342226D01*
X100061776Y-54198063D01*
X99892258Y-54084795D01*
X99716517Y-54012000D01*
X102650289Y-54012000D01*
X102694226Y-54055937D01*
X102863744Y-54169205D01*
X103052102Y-54247226D01*
X103252061Y-54287000D01*
X103455939Y-54287000D01*
X103655898Y-54247226D01*
X103844256Y-54169205D01*
X104013774Y-54055937D01*
X104157937Y-53911774D01*
X104271205Y-53742256D01*
X104349226Y-53553898D01*
X104389000Y-53353939D01*
X104389000Y-53150061D01*
X104349226Y-52950102D01*
X104271205Y-52761744D01*
X104157937Y-52592226D01*
X104013774Y-52448063D01*
X103844256Y-52334795D01*
X103655898Y-52256774D01*
X103455939Y-52217000D01*
X103252061Y-52217000D01*
X103052102Y-52256774D01*
X102863744Y-52334795D01*
X102694226Y-52448063D01*
X102650289Y-52492000D01*
X97282711Y-52492000D01*
X97238774Y-52448063D01*
X97069256Y-52334795D01*
X96880898Y-52256774D01*
X96680939Y-52217000D01*
X96614000Y-52217000D01*
X96614000Y-50305711D01*
X96657937Y-50261774D01*
X96771205Y-50092256D01*
X96849226Y-49903898D01*
X96889000Y-49703939D01*
X96889000Y-49500061D01*
X96849226Y-49300102D01*
X96771205Y-49111744D01*
X96657937Y-48942226D01*
X96513774Y-48798063D01*
X96344256Y-48684795D01*
X96155898Y-48606774D01*
X95955939Y-48567000D01*
X95752061Y-48567000D01*
X95552102Y-48606774D01*
X95363744Y-48684795D01*
X95194226Y-48798063D01*
X95050063Y-48942226D01*
X94936795Y-49111744D01*
X94858774Y-49300102D01*
X94819000Y-49500061D01*
X94819000Y-49703939D01*
X94858774Y-49903898D01*
X94936795Y-50092256D01*
X95050063Y-50261774D01*
X95094000Y-50305711D01*
X95094001Y-72114667D01*
X95090324Y-72152000D01*
X95104998Y-72300985D01*
X95148454Y-72444246D01*
X95219026Y-72576276D01*
X95290201Y-72663002D01*
X95314000Y-72692001D01*
X95342998Y-72715799D01*
X95919001Y-73291803D01*
X95919000Y-88823289D01*
X95875063Y-88867226D01*
X95761795Y-89036744D01*
X95683774Y-89225102D01*
X95644000Y-89425061D01*
X95644000Y-89628939D01*
X95683774Y-89828898D01*
X95761795Y-90017256D01*
X95875063Y-90186774D01*
X96019226Y-90330937D01*
X96188744Y-90444205D01*
X96377102Y-90522226D01*
X96577061Y-90562000D01*
X96780939Y-90562000D01*
X96980898Y-90522226D01*
X97169256Y-90444205D01*
X97338774Y-90330937D01*
X97482937Y-90186774D01*
X97596205Y-90017256D01*
X97674226Y-89828898D01*
X97714000Y-89628939D01*
X97714000Y-89425061D01*
X97674226Y-89225102D01*
X97596205Y-89036744D01*
X97482937Y-88867226D01*
X97439000Y-88823289D01*
X97439000Y-81375061D01*
X108144000Y-81375061D01*
X108144000Y-81578939D01*
X108183774Y-81778898D01*
X108261795Y-81967256D01*
X108375063Y-82136774D01*
X108419001Y-82180712D01*
X108419000Y-83699677D01*
X108415324Y-83737000D01*
X108419000Y-83774322D01*
X108419000Y-83774332D01*
X108429997Y-83885985D01*
X108450780Y-83954498D01*
X108473454Y-84029246D01*
X108544026Y-84161276D01*
X108567194Y-84189506D01*
X108638999Y-84277001D01*
X108668003Y-84300804D01*
X114494000Y-90126802D01*
X114494000Y-90188939D01*
X114533774Y-90388898D01*
X114611795Y-90577256D01*
X114725063Y-90746774D01*
X114869226Y-90890937D01*
X115038744Y-91004205D01*
X115227102Y-91082226D01*
X115427061Y-91122000D01*
X115630939Y-91122000D01*
X115830898Y-91082226D01*
X116019256Y-91004205D01*
X116188774Y-90890937D01*
X116332937Y-90746774D01*
X116446205Y-90577256D01*
X116524226Y-90388898D01*
X116564000Y-90188939D01*
X116564000Y-89985061D01*
X116524226Y-89785102D01*
X116446205Y-89596744D01*
X116332937Y-89427226D01*
X116188774Y-89283063D01*
X116019256Y-89169795D01*
X115830898Y-89091774D01*
X115630939Y-89052000D01*
X115568802Y-89052000D01*
X109939000Y-83422199D01*
X109939000Y-82180711D01*
X109982937Y-82136774D01*
X110096205Y-81967256D01*
X110174226Y-81778898D01*
X110214000Y-81578939D01*
X110214000Y-81375061D01*
X110174226Y-81175102D01*
X110096205Y-80986744D01*
X109982937Y-80817226D01*
X109838774Y-80673063D01*
X109669256Y-80559795D01*
X109480898Y-80481774D01*
X109280939Y-80442000D01*
X109077061Y-80442000D01*
X108877102Y-80481774D01*
X108688744Y-80559795D01*
X108519226Y-80673063D01*
X108375063Y-80817226D01*
X108261795Y-80986744D01*
X108183774Y-81175102D01*
X108144000Y-81375061D01*
X97439000Y-81375061D01*
X97439000Y-73014322D01*
X97442676Y-72976999D01*
X97439000Y-72939676D01*
X97439000Y-72939667D01*
X97428003Y-72828014D01*
X97384546Y-72684753D01*
X97313974Y-72552724D01*
X97219001Y-72436999D01*
X97190002Y-72413201D01*
X96614000Y-71837199D01*
X96614000Y-54287000D01*
X96680939Y-54287000D01*
X96880898Y-54247226D01*
X97069256Y-54169205D01*
X97238774Y-54055937D01*
X97282711Y-54012000D01*
X99087487Y-54012000D01*
X98911746Y-54084795D01*
X98742228Y-54198063D01*
X98598065Y-54342226D01*
X98484797Y-54511744D01*
X98406776Y-54700102D01*
X98367002Y-54900061D01*
X98367002Y-55103939D01*
X98406776Y-55303898D01*
X98484797Y-55492256D01*
X98598065Y-55661774D01*
X98742228Y-55805937D01*
X98911746Y-55919205D01*
X99100104Y-55997226D01*
X99300063Y-56037000D01*
X99364199Y-56037000D01*
X100319000Y-56991802D01*
X100319001Y-69712670D01*
X100315324Y-69750002D01*
X100319001Y-69787335D01*
X100329998Y-69898988D01*
X100343180Y-69942444D01*
X100373454Y-70042248D01*
X100444026Y-70174278D01*
X100487897Y-70227734D01*
X100539000Y-70290003D01*
X100567998Y-70313801D01*
X116669000Y-86414804D01*
X116669001Y-88398288D01*
X116625063Y-88442226D01*
X116511795Y-88611744D01*
X116433774Y-88800102D01*
X116394000Y-89000061D01*
X116394000Y-89203939D01*
X116433774Y-89403898D01*
X116511795Y-89592256D01*
X116625063Y-89761774D01*
X116769226Y-89905937D01*
X116938744Y-90019205D01*
X117127102Y-90097226D01*
X117327061Y-90137000D01*
X117530939Y-90137000D01*
X117730898Y-90097226D01*
X117919256Y-90019205D01*
X118088774Y-89905937D01*
X118232937Y-89761774D01*
X118346205Y-89592256D01*
X118424226Y-89403898D01*
X118464000Y-89203939D01*
X118464000Y-89000061D01*
X118424226Y-88800102D01*
X118346205Y-88611744D01*
X118232937Y-88442226D01*
X118189000Y-88398289D01*
X118189000Y-86137327D01*
X118192676Y-86100002D01*
X118189000Y-86062677D01*
X118189000Y-86062669D01*
X118178003Y-85951016D01*
X118134546Y-85807755D01*
X118063974Y-85675726D01*
X117969001Y-85560001D01*
X117940004Y-85536204D01*
X108906966Y-76503166D01*
X109077061Y-76537000D01*
X109280939Y-76537000D01*
X109480898Y-76497226D01*
X109669256Y-76419205D01*
X109838774Y-76305937D01*
X109982937Y-76161774D01*
X110096205Y-75992256D01*
X110174226Y-75803898D01*
X110214000Y-75603939D01*
X110214000Y-75541801D01*
X112240003Y-73515799D01*
X112269001Y-73492001D01*
X112363974Y-73376276D01*
X112434546Y-73244247D01*
X112478003Y-73100986D01*
X112489000Y-72989333D01*
X112492677Y-72952000D01*
X112489000Y-72914667D01*
X112489000Y-58905711D01*
X112532937Y-58861774D01*
X112646205Y-58692256D01*
X112724226Y-58503898D01*
X112764000Y-58303939D01*
X112764000Y-58100061D01*
X112724226Y-57900102D01*
X112646205Y-57711744D01*
X112532937Y-57542226D01*
X112418357Y-57427646D01*
X112429723Y-57436974D01*
X112450024Y-57447825D01*
X127544000Y-72541802D01*
X127544001Y-89037197D01*
X127064199Y-89517000D01*
X127002061Y-89517000D01*
X126802102Y-89556774D01*
X126613744Y-89634795D01*
X126444226Y-89748063D01*
X126300063Y-89892226D01*
X126186795Y-90061744D01*
X126108774Y-90250102D01*
X126069000Y-90450061D01*
X126069000Y-90653939D01*
X126108774Y-90853898D01*
X126186795Y-91042256D01*
X126300063Y-91211774D01*
X126444226Y-91355937D01*
X126613744Y-91469205D01*
X126802102Y-91547226D01*
X127002061Y-91587000D01*
X127205939Y-91587000D01*
X127405898Y-91547226D01*
X127594256Y-91469205D01*
X127763774Y-91355937D01*
X127907937Y-91211774D01*
X128021205Y-91042256D01*
X128099226Y-90853898D01*
X128139000Y-90653939D01*
X128139000Y-90591801D01*
X128815003Y-89915799D01*
X128844001Y-89892001D01*
X128938974Y-89776276D01*
X129009546Y-89644247D01*
X129053003Y-89500986D01*
X129064000Y-89389333D01*
X129064000Y-89389324D01*
X129067676Y-89352001D01*
X129064000Y-89314678D01*
X129064000Y-73425392D01*
X137569000Y-81930392D01*
X137569001Y-88698288D01*
X137525063Y-88742226D01*
X137411795Y-88911744D01*
X137333774Y-89100102D01*
X137294000Y-89300061D01*
X137294000Y-89503939D01*
X137333774Y-89703898D01*
X137411795Y-89892256D01*
X137525063Y-90061774D01*
X137669226Y-90205937D01*
X137838744Y-90319205D01*
X138027102Y-90397226D01*
X138227061Y-90437000D01*
X138430939Y-90437000D01*
X138630898Y-90397226D01*
X138819256Y-90319205D01*
X138988774Y-90205937D01*
X139132937Y-90061774D01*
X139246205Y-89892256D01*
X139324226Y-89703898D01*
X139364000Y-89503939D01*
X139364000Y-89300061D01*
X139324226Y-89100102D01*
X139246205Y-88911744D01*
X139132937Y-88742226D01*
X139089000Y-88698289D01*
X139089000Y-82061802D01*
X146894000Y-89866802D01*
X146894000Y-89928939D01*
X146933774Y-90128898D01*
X147011795Y-90317256D01*
X147125063Y-90486774D01*
X147269226Y-90630937D01*
X147438744Y-90744205D01*
X147627102Y-90822226D01*
X147827061Y-90862000D01*
X148030939Y-90862000D01*
X148230898Y-90822226D01*
X148419256Y-90744205D01*
X148588774Y-90630937D01*
X148732937Y-90486774D01*
X148846205Y-90317256D01*
X148924226Y-90128898D01*
X148964000Y-89928939D01*
X148964000Y-89725061D01*
X148924226Y-89525102D01*
X148846205Y-89336744D01*
X148732937Y-89167226D01*
X148588774Y-89023063D01*
X148419256Y-88909795D01*
X148230898Y-88831774D01*
X148030939Y-88792000D01*
X147968802Y-88792000D01*
X129514010Y-70337209D01*
X129514010Y-65439332D01*
X129517686Y-65402009D01*
X129514010Y-65364686D01*
X129514010Y-65364677D01*
X129503013Y-65253024D01*
X129459556Y-65109763D01*
X129388985Y-64977735D01*
X129388984Y-64977733D01*
X129317809Y-64891007D01*
X129294011Y-64862009D01*
X129265014Y-64838212D01*
X125866887Y-61440085D01*
X125977061Y-61462000D01*
X126180939Y-61462000D01*
X126380898Y-61422226D01*
X126569256Y-61344205D01*
X126738774Y-61230937D01*
X126782711Y-61187000D01*
X132298514Y-61187000D01*
X133324516Y-62213003D01*
X133348314Y-62242001D01*
X133464039Y-62336974D01*
X133596068Y-62407546D01*
X133739276Y-62450987D01*
X133794226Y-62505937D01*
X133963744Y-62619205D01*
X134152102Y-62697226D01*
X134352061Y-62737000D01*
X134555939Y-62737000D01*
X134755898Y-62697226D01*
X134944256Y-62619205D01*
X135113774Y-62505937D01*
X135257937Y-62361774D01*
X135371205Y-62192256D01*
X135449226Y-62003898D01*
X135489000Y-61803939D01*
X135489000Y-61600061D01*
X135449226Y-61400102D01*
X135371205Y-61211744D01*
X135257937Y-61042226D01*
X135113774Y-60898063D01*
X134944256Y-60784795D01*
X134755898Y-60706774D01*
X134555939Y-60667000D01*
X134352061Y-60667000D01*
X134152102Y-60706774D01*
X134021845Y-60760729D01*
X133700753Y-60439637D01*
X133713774Y-60430937D01*
X133857937Y-60286774D01*
X133971205Y-60117256D01*
X134049226Y-59928898D01*
X134089000Y-59728939D01*
X134089000Y-59525061D01*
X134049226Y-59325102D01*
X133971205Y-59136744D01*
X133857937Y-58967226D01*
X133713774Y-58823063D01*
X133544256Y-58709795D01*
X133355898Y-58631774D01*
X133155939Y-58592000D01*
X133093802Y-58592000D01*
X132383350Y-57881548D01*
X132555898Y-57847226D01*
X132744256Y-57769205D01*
X132913774Y-57655937D01*
X132968724Y-57600987D01*
X133111932Y-57557546D01*
X133243961Y-57486974D01*
X133359686Y-57392001D01*
X133383489Y-57362997D01*
X137940004Y-52806483D01*
X137969001Y-52782686D01*
X138063974Y-52666961D01*
X138134546Y-52534932D01*
X138178003Y-52391671D01*
X138189000Y-52280018D01*
X138189000Y-52280010D01*
X138192676Y-52242685D01*
X138189000Y-52205360D01*
X138189000Y-44153775D01*
X154780830Y-44153775D01*
X155020976Y-44541018D01*
X155514877Y-44801641D01*
X156050133Y-44960901D01*
X156606174Y-45012678D01*
X157161632Y-44954981D01*
X157695161Y-44790028D01*
X158161024Y-44541018D01*
X158401170Y-44153775D01*
X156591000Y-42343605D01*
X154780830Y-44153775D01*
X138189000Y-44153775D01*
X138189000Y-43404595D01*
X138258014Y-43367706D01*
X138484134Y-43182134D01*
X138669706Y-42956014D01*
X138679000Y-42938626D01*
X138688294Y-42956014D01*
X138873866Y-43182134D01*
X139099987Y-43367706D01*
X139357967Y-43505599D01*
X139637890Y-43590513D01*
X139929000Y-43619185D01*
X140220111Y-43590513D01*
X140500034Y-43505599D01*
X140758014Y-43367706D01*
X140984134Y-43182134D01*
X141169706Y-42956014D01*
X141179000Y-42938626D01*
X141188294Y-42956014D01*
X141373866Y-43182134D01*
X141599987Y-43367706D01*
X141857967Y-43505599D01*
X142137890Y-43590513D01*
X142429000Y-43619185D01*
X142720111Y-43590513D01*
X143000034Y-43505599D01*
X143258014Y-43367706D01*
X143484134Y-43182134D01*
X143669706Y-42956014D01*
X143679000Y-42938626D01*
X143688294Y-42956014D01*
X143873866Y-43182134D01*
X144099987Y-43367706D01*
X144357967Y-43505599D01*
X144637890Y-43590513D01*
X144929000Y-43619185D01*
X145220111Y-43590513D01*
X145500034Y-43505599D01*
X145758014Y-43367706D01*
X145984134Y-43182134D01*
X146169706Y-42956014D01*
X146183462Y-42930278D01*
X146339951Y-43136429D01*
X146557807Y-43329496D01*
X146809142Y-43476352D01*
X147072110Y-43568476D01*
X147302000Y-43447155D01*
X147302000Y-42129000D01*
X147282000Y-42129000D01*
X147282000Y-41875000D01*
X147302000Y-41875000D01*
X147302000Y-40556845D01*
X147556000Y-40556845D01*
X147556000Y-41875000D01*
X147576000Y-41875000D01*
X147576000Y-42129000D01*
X147556000Y-42129000D01*
X147556000Y-43447155D01*
X147785890Y-43568476D01*
X148048858Y-43476352D01*
X148300193Y-43329496D01*
X148518049Y-43136429D01*
X148674538Y-42930278D01*
X148688294Y-42956014D01*
X148873866Y-43182134D01*
X149099987Y-43367706D01*
X149357967Y-43505599D01*
X149637890Y-43590513D01*
X149929000Y-43619185D01*
X150220111Y-43590513D01*
X150500034Y-43505599D01*
X150758014Y-43367706D01*
X150984134Y-43182134D01*
X151169706Y-42956014D01*
X151307599Y-42698033D01*
X151392513Y-42418110D01*
X151414000Y-42199949D01*
X151414000Y-42179174D01*
X153742322Y-42179174D01*
X153800019Y-42734632D01*
X153964972Y-43268161D01*
X154213982Y-43734024D01*
X154601225Y-43974170D01*
X156411395Y-42164000D01*
X156770605Y-42164000D01*
X158580775Y-43974170D01*
X158968018Y-43734024D01*
X159228641Y-43240123D01*
X159387901Y-42704867D01*
X159439678Y-42148826D01*
X159381981Y-41593368D01*
X159217028Y-41059839D01*
X158968018Y-40593976D01*
X158580775Y-40353830D01*
X156770605Y-42164000D01*
X156411395Y-42164000D01*
X154601225Y-40353830D01*
X154213982Y-40593976D01*
X153953359Y-41087877D01*
X153794099Y-41623133D01*
X153742322Y-42179174D01*
X151414000Y-42179174D01*
X151414000Y-41804050D01*
X151392513Y-41585889D01*
X151307599Y-41305966D01*
X151169706Y-41047986D01*
X150984134Y-40821866D01*
X150758013Y-40636294D01*
X150500033Y-40498401D01*
X150220110Y-40413487D01*
X149929000Y-40384815D01*
X149637889Y-40413487D01*
X149357966Y-40498401D01*
X149099986Y-40636294D01*
X148873866Y-40821866D01*
X148688294Y-41047987D01*
X148674538Y-41073722D01*
X148518049Y-40867571D01*
X148300193Y-40674504D01*
X148048858Y-40527648D01*
X147785890Y-40435524D01*
X147556000Y-40556845D01*
X147302000Y-40556845D01*
X147072110Y-40435524D01*
X146809142Y-40527648D01*
X146557807Y-40674504D01*
X146339951Y-40867571D01*
X146183462Y-41073722D01*
X146169706Y-41047986D01*
X145984134Y-40821866D01*
X145758013Y-40636294D01*
X145665518Y-40586854D01*
X145634546Y-40484753D01*
X145563974Y-40352724D01*
X145524254Y-40304325D01*
X145492799Y-40265996D01*
X145492795Y-40265992D01*
X145469001Y-40236999D01*
X145440008Y-40213205D01*
X145401028Y-40174225D01*
X154780830Y-40174225D01*
X156591000Y-41984395D01*
X158401170Y-40174225D01*
X158161024Y-39786982D01*
X157667123Y-39526359D01*
X157131867Y-39367099D01*
X156575826Y-39315322D01*
X156020368Y-39373019D01*
X155486839Y-39537972D01*
X155020976Y-39786982D01*
X154780830Y-40174225D01*
X145401028Y-40174225D01*
X144085803Y-38859002D01*
X144062001Y-38829999D01*
X143946276Y-38735026D01*
X143814247Y-38664454D01*
X143670986Y-38620997D01*
X143559333Y-38610000D01*
X143559322Y-38610000D01*
X143522000Y-38606324D01*
X143484678Y-38610000D01*
X134434711Y-38610000D01*
X134390774Y-38566063D01*
X134221256Y-38452795D01*
X134032898Y-38374774D01*
X133832939Y-38335000D01*
X133629061Y-38335000D01*
X133429102Y-38374774D01*
X133240744Y-38452795D01*
X133071226Y-38566063D01*
X132927063Y-38710226D01*
X132813795Y-38879744D01*
X132735774Y-39068102D01*
X132696000Y-39268061D01*
X132696000Y-39471939D01*
X132735774Y-39671898D01*
X132813795Y-39860256D01*
X132927063Y-40029774D01*
X133071226Y-40173937D01*
X133240744Y-40287205D01*
X133429102Y-40365226D01*
X133629061Y-40405000D01*
X133832939Y-40405000D01*
X134032898Y-40365226D01*
X134221256Y-40287205D01*
X134390774Y-40173937D01*
X134434711Y-40130000D01*
X143207199Y-40130000D01*
X143887706Y-40810508D01*
X143873866Y-40821866D01*
X143688294Y-41047987D01*
X143679000Y-41065374D01*
X143669706Y-41047986D01*
X143484134Y-40821866D01*
X143258013Y-40636294D01*
X143000033Y-40498401D01*
X142720110Y-40413487D01*
X142429000Y-40384815D01*
X142137889Y-40413487D01*
X141857966Y-40498401D01*
X141599986Y-40636294D01*
X141373866Y-40821866D01*
X141188294Y-41047987D01*
X141179000Y-41065374D01*
X141169706Y-41047986D01*
X140984134Y-40821866D01*
X140758013Y-40636294D01*
X140500033Y-40498401D01*
X140220110Y-40413487D01*
X139929000Y-40384815D01*
X139637889Y-40413487D01*
X139357966Y-40498401D01*
X139099986Y-40636294D01*
X138873866Y-40821866D01*
X138688294Y-41047987D01*
X138679000Y-41065374D01*
X138669706Y-41047986D01*
X138484134Y-40821866D01*
X138258013Y-40636294D01*
X138000033Y-40498401D01*
X137720110Y-40413487D01*
X137429000Y-40384815D01*
X137137889Y-40413487D01*
X136857966Y-40498401D01*
X136599986Y-40636294D01*
X136373866Y-40821866D01*
X136188294Y-41047987D01*
X136179000Y-41065374D01*
X136169706Y-41047986D01*
X135984134Y-40821866D01*
X135758013Y-40636294D01*
X135500033Y-40498401D01*
X135220110Y-40413487D01*
X134929000Y-40384815D01*
X134637889Y-40413487D01*
X134357966Y-40498401D01*
X134099986Y-40636294D01*
X133873866Y-40821866D01*
X133688294Y-41047987D01*
X133679000Y-41065374D01*
X133669706Y-41047986D01*
X133484134Y-40821866D01*
X133258013Y-40636294D01*
X133000033Y-40498401D01*
X132720110Y-40413487D01*
X132429000Y-40384815D01*
X132137889Y-40413487D01*
X131857966Y-40498401D01*
X131599986Y-40636294D01*
X131373866Y-40821866D01*
X131188294Y-41047987D01*
X131179000Y-41065374D01*
X131169706Y-41047986D01*
X130984134Y-40821866D01*
X130758013Y-40636294D01*
X130500033Y-40498401D01*
X130220110Y-40413487D01*
X129929000Y-40384815D01*
X129637889Y-40413487D01*
X129357966Y-40498401D01*
X129099986Y-40636294D01*
X128873866Y-40821866D01*
X128688294Y-41047987D01*
X128679000Y-41065374D01*
X128669706Y-41047986D01*
X128484134Y-40821866D01*
X128258013Y-40636294D01*
X128000033Y-40498401D01*
X127720110Y-40413487D01*
X127429000Y-40384815D01*
X127137889Y-40413487D01*
X126857966Y-40498401D01*
X126599986Y-40636294D01*
X126373866Y-40821866D01*
X126188294Y-41047987D01*
X126179000Y-41065374D01*
X126169706Y-41047986D01*
X125984134Y-40821866D01*
X125758013Y-40636294D01*
X125500033Y-40498401D01*
X125220110Y-40413487D01*
X124929000Y-40384815D01*
X124637889Y-40413487D01*
X124357966Y-40498401D01*
X124099986Y-40636294D01*
X123879055Y-40817608D01*
X123868502Y-40782820D01*
X123809537Y-40672506D01*
X123730185Y-40575815D01*
X123633494Y-40496463D01*
X123523180Y-40437498D01*
X123403482Y-40401188D01*
X123279000Y-40388928D01*
X122714750Y-40392000D01*
X122556000Y-40550750D01*
X122556000Y-41875000D01*
X122576000Y-41875000D01*
X122576000Y-42129000D01*
X122556000Y-42129000D01*
X122556000Y-43453250D01*
X122714750Y-43612000D01*
X123279000Y-43615072D01*
X123403482Y-43602812D01*
X123523180Y-43566502D01*
X123633494Y-43507537D01*
X123730185Y-43428185D01*
X123809537Y-43331494D01*
X123868502Y-43221180D01*
X123879055Y-43186392D01*
X124099987Y-43367706D01*
X124169000Y-43404594D01*
X124169001Y-51464668D01*
X124165324Y-51502000D01*
X124169001Y-51539333D01*
X124179998Y-51650986D01*
X124187587Y-51676003D01*
X124223454Y-51794246D01*
X124294026Y-51926276D01*
X124315137Y-51951999D01*
X124389000Y-52042001D01*
X124417998Y-52065799D01*
X132019000Y-59666802D01*
X132019000Y-59667000D01*
X126782711Y-59667000D01*
X126738774Y-59623063D01*
X126569256Y-59509795D01*
X126380898Y-59431774D01*
X126180939Y-59392000D01*
X125977061Y-59392000D01*
X125777102Y-59431774D01*
X125588744Y-59509795D01*
X125419226Y-59623063D01*
X125275063Y-59767226D01*
X125161795Y-59936744D01*
X125083774Y-60125102D01*
X125044000Y-60325061D01*
X125044000Y-60528939D01*
X125065915Y-60639113D01*
X113939000Y-49512199D01*
X113939000Y-49450061D01*
X113899226Y-49250102D01*
X113821205Y-49061744D01*
X113707937Y-48892226D01*
X113563774Y-48748063D01*
X113394256Y-48634795D01*
X113205898Y-48556774D01*
X113005939Y-48517000D01*
X112802061Y-48517000D01*
X112602102Y-48556774D01*
X112413744Y-48634795D01*
X112244226Y-48748063D01*
X112100063Y-48892226D01*
X111986795Y-49061744D01*
X111908774Y-49250102D01*
X111869000Y-49450061D01*
X111869000Y-49653939D01*
X111908774Y-49853898D01*
X111986795Y-50042256D01*
X112100063Y-50211774D01*
X112244226Y-50355937D01*
X112413744Y-50469205D01*
X112602102Y-50547226D01*
X112802061Y-50587000D01*
X112864199Y-50587000D01*
X127994010Y-65716812D01*
X127994011Y-70205799D01*
X119914000Y-62125789D01*
X119914000Y-60505711D01*
X119957937Y-60461774D01*
X120071205Y-60292256D01*
X120149226Y-60103898D01*
X120189000Y-59903939D01*
X120189000Y-59700061D01*
X120149226Y-59500102D01*
X120071205Y-59311744D01*
X119957937Y-59142226D01*
X119813774Y-58998063D01*
X119644256Y-58884795D01*
X119455898Y-58806774D01*
X119255939Y-58767000D01*
X119052061Y-58767000D01*
X118852102Y-58806774D01*
X118663744Y-58884795D01*
X118494226Y-58998063D01*
X118350063Y-59142226D01*
X118236795Y-59311744D01*
X118158774Y-59500102D01*
X118119000Y-59700061D01*
X118119000Y-59903939D01*
X118158774Y-60103898D01*
X118236795Y-60292256D01*
X118350063Y-60461774D01*
X118394000Y-60505711D01*
X118394001Y-61242199D01*
X113442804Y-56291003D01*
X113419001Y-56261999D01*
X113303276Y-56167026D01*
X113282979Y-56156177D01*
X108964000Y-51837199D01*
X108964000Y-49530711D01*
X109007937Y-49486774D01*
X109121205Y-49317256D01*
X109199226Y-49128898D01*
X109239000Y-48928939D01*
X109239000Y-48725061D01*
X109199226Y-48525102D01*
X109121205Y-48336744D01*
X109007937Y-48167226D01*
X108863774Y-48023063D01*
X108694256Y-47909795D01*
X108505898Y-47831774D01*
X108305939Y-47792000D01*
X108102061Y-47792000D01*
X107902102Y-47831774D01*
X107713744Y-47909795D01*
X107544226Y-48023063D01*
X107400063Y-48167226D01*
X107286795Y-48336744D01*
X107208774Y-48525102D01*
X107169000Y-48725061D01*
X107169000Y-48928939D01*
X107208774Y-49128898D01*
X107286795Y-49317256D01*
X107400063Y-49486774D01*
X107444000Y-49530711D01*
X107444001Y-50864658D01*
X107444000Y-50864668D01*
X107444001Y-52114668D01*
X107440324Y-52152000D01*
X107444001Y-52189333D01*
X107450644Y-52256774D01*
X107454998Y-52300985D01*
X107498454Y-52444246D01*
X107569026Y-52576276D01*
X107640201Y-52663002D01*
X107664000Y-52692001D01*
X107692998Y-52715799D01*
X112290200Y-57313002D01*
X112313999Y-57342001D01*
X112342997Y-57365799D01*
X112353992Y-57374823D01*
X112219256Y-57284795D01*
X112030898Y-57206774D01*
X111830939Y-57167000D01*
X111627061Y-57167000D01*
X111427102Y-57206774D01*
X111238744Y-57284795D01*
X111069226Y-57398063D01*
X110925063Y-57542226D01*
X110811795Y-57711744D01*
X110733774Y-57900102D01*
X110694000Y-58100061D01*
X110694000Y-58303939D01*
X110733774Y-58503898D01*
X110811795Y-58692256D01*
X110925063Y-58861774D01*
X110969000Y-58905711D01*
X110969001Y-72637197D01*
X109139199Y-74467000D01*
X109077061Y-74467000D01*
X108877102Y-74506774D01*
X108688744Y-74584795D01*
X108519226Y-74698063D01*
X108375063Y-74842226D01*
X108261795Y-75011744D01*
X108183774Y-75200102D01*
X108144000Y-75400061D01*
X108144000Y-75603939D01*
X108177834Y-75774034D01*
X106586755Y-74182956D01*
X106657937Y-74111774D01*
X106771205Y-73942256D01*
X106849226Y-73753898D01*
X106889000Y-73553939D01*
X106889000Y-73350061D01*
X106849226Y-73150102D01*
X106771205Y-72961744D01*
X106657937Y-72792226D01*
X106614000Y-72748289D01*
X106614000Y-48805711D01*
X106657937Y-48761774D01*
X106771205Y-48592256D01*
X106849226Y-48403898D01*
X106889000Y-48203939D01*
X106889000Y-48000061D01*
X106849226Y-47800102D01*
X106771205Y-47611744D01*
X106657937Y-47442226D01*
X106513774Y-47298063D01*
X106344256Y-47184795D01*
X106155898Y-47106774D01*
X105955939Y-47067000D01*
X105752061Y-47067000D01*
X105552102Y-47106774D01*
X105546853Y-47108948D01*
X108865003Y-43790799D01*
X108894001Y-43767001D01*
X108932749Y-43719787D01*
X108988974Y-43651277D01*
X109059546Y-43519247D01*
X109063686Y-43505599D01*
X109090517Y-43417146D01*
X109183014Y-43367706D01*
X109409134Y-43182134D01*
X109594706Y-42956014D01*
X109604000Y-42938626D01*
X109613294Y-42956014D01*
X109798866Y-43182134D01*
X110024987Y-43367706D01*
X110094000Y-43404594D01*
X110094001Y-50373288D01*
X110050063Y-50417226D01*
X109936795Y-50586744D01*
X109858774Y-50775102D01*
X109819000Y-50975061D01*
X109819000Y-51178939D01*
X109858774Y-51378898D01*
X109936795Y-51567256D01*
X110050063Y-51736774D01*
X110194226Y-51880937D01*
X110363744Y-51994205D01*
X110552102Y-52072226D01*
X110752061Y-52112000D01*
X110955939Y-52112000D01*
X111155898Y-52072226D01*
X111344256Y-51994205D01*
X111513774Y-51880937D01*
X111657937Y-51736774D01*
X111771205Y-51567256D01*
X111849226Y-51378898D01*
X111889000Y-51178939D01*
X111889000Y-50975061D01*
X111849226Y-50775102D01*
X111771205Y-50586744D01*
X111657937Y-50417226D01*
X111614000Y-50373289D01*
X111614000Y-43404595D01*
X111683014Y-43367706D01*
X111909134Y-43182134D01*
X112094706Y-42956014D01*
X112108462Y-42930278D01*
X112264951Y-43136429D01*
X112482807Y-43329496D01*
X112734142Y-43476352D01*
X112997110Y-43568476D01*
X113227000Y-43447155D01*
X113227000Y-42129000D01*
X113207000Y-42129000D01*
X113207000Y-41875000D01*
X113227000Y-41875000D01*
X113227000Y-40556845D01*
X113481000Y-40556845D01*
X113481000Y-41875000D01*
X113501000Y-41875000D01*
X113501000Y-42129000D01*
X113481000Y-42129000D01*
X113481000Y-43447155D01*
X113710890Y-43568476D01*
X113973858Y-43476352D01*
X114225193Y-43329496D01*
X114443049Y-43136429D01*
X114599538Y-42930278D01*
X114613294Y-42956014D01*
X114798866Y-43182134D01*
X115024987Y-43367706D01*
X115282967Y-43505599D01*
X115562890Y-43590513D01*
X115854000Y-43619185D01*
X116145111Y-43590513D01*
X116425034Y-43505599D01*
X116683014Y-43367706D01*
X116909134Y-43182134D01*
X117077483Y-42977000D01*
X120940928Y-42977000D01*
X120953188Y-43101482D01*
X120989498Y-43221180D01*
X121048463Y-43331494D01*
X121127815Y-43428185D01*
X121224506Y-43507537D01*
X121334820Y-43566502D01*
X121454518Y-43602812D01*
X121579000Y-43615072D01*
X122143250Y-43612000D01*
X122302000Y-43453250D01*
X122302000Y-42129000D01*
X121102750Y-42129000D01*
X120944000Y-42287750D01*
X120940928Y-42977000D01*
X117077483Y-42977000D01*
X117094706Y-42956014D01*
X117232599Y-42698033D01*
X117317513Y-42418110D01*
X117339000Y-42199949D01*
X117339000Y-41804050D01*
X117317513Y-41585889D01*
X117232599Y-41305966D01*
X117094706Y-41047986D01*
X117077484Y-41027000D01*
X120940928Y-41027000D01*
X120944000Y-41716250D01*
X121102750Y-41875000D01*
X122302000Y-41875000D01*
X122302000Y-40550750D01*
X122143250Y-40392000D01*
X121579000Y-40388928D01*
X121454518Y-40401188D01*
X121334820Y-40437498D01*
X121224506Y-40496463D01*
X121127815Y-40575815D01*
X121048463Y-40672506D01*
X120989498Y-40782820D01*
X120953188Y-40902518D01*
X120940928Y-41027000D01*
X117077484Y-41027000D01*
X116909134Y-40821866D01*
X116683013Y-40636294D01*
X116425033Y-40498401D01*
X116145110Y-40413487D01*
X115854000Y-40384815D01*
X115562889Y-40413487D01*
X115282966Y-40498401D01*
X115024986Y-40636294D01*
X114798866Y-40821866D01*
X114613294Y-41047987D01*
X114599538Y-41073722D01*
X114443049Y-40867571D01*
X114225193Y-40674504D01*
X113973858Y-40527648D01*
X113710890Y-40435524D01*
X113481000Y-40556845D01*
X113227000Y-40556845D01*
X112997110Y-40435524D01*
X112734142Y-40527648D01*
X112482807Y-40674504D01*
X112264951Y-40867571D01*
X112108462Y-41073722D01*
X112094706Y-41047986D01*
X111909134Y-40821866D01*
X111683013Y-40636294D01*
X111425033Y-40498401D01*
X111145110Y-40413487D01*
X110854000Y-40384815D01*
X110562889Y-40413487D01*
X110282966Y-40498401D01*
X110024986Y-40636294D01*
X109798866Y-40821866D01*
X109613294Y-41047987D01*
X109604000Y-41065374D01*
X109594706Y-41047986D01*
X109409134Y-40821866D01*
X109183013Y-40636294D01*
X108925033Y-40498401D01*
X108645110Y-40413487D01*
X108354000Y-40384815D01*
X108062889Y-40413487D01*
X107782966Y-40498401D01*
X107524986Y-40636294D01*
X107298866Y-40821866D01*
X107113294Y-41047987D01*
X107104000Y-41065374D01*
X107094706Y-41047986D01*
X106909134Y-40821866D01*
X106683013Y-40636294D01*
X106425033Y-40498401D01*
X106145110Y-40413487D01*
X105854000Y-40384815D01*
X105562889Y-40413487D01*
X105282966Y-40498401D01*
X105024986Y-40636294D01*
X104798866Y-40821866D01*
X104613294Y-41047987D01*
X104604000Y-41065374D01*
X104594706Y-41047986D01*
X104409134Y-40821866D01*
X104183013Y-40636294D01*
X103925033Y-40498401D01*
X103645110Y-40413487D01*
X103354000Y-40384815D01*
X103062889Y-40413487D01*
X102782966Y-40498401D01*
X102524986Y-40636294D01*
X102298866Y-40821866D01*
X102113294Y-41047987D01*
X102104000Y-41065374D01*
X102094706Y-41047986D01*
X101909134Y-40821866D01*
X101683013Y-40636294D01*
X101425033Y-40498401D01*
X101145110Y-40413487D01*
X100854000Y-40384815D01*
X100562889Y-40413487D01*
X100282966Y-40498401D01*
X100024986Y-40636294D01*
X99798866Y-40821866D01*
X99613294Y-41047987D01*
X99604000Y-41065374D01*
X99594706Y-41047986D01*
X99409134Y-40821866D01*
X99183013Y-40636294D01*
X98925033Y-40498401D01*
X98645110Y-40413487D01*
X98354000Y-40384815D01*
X98062889Y-40413487D01*
X97782966Y-40498401D01*
X97524986Y-40636294D01*
X97298866Y-40821866D01*
X97113294Y-41047987D01*
X97104000Y-41065374D01*
X97094706Y-41047986D01*
X96909134Y-40821866D01*
X96683013Y-40636294D01*
X96425033Y-40498401D01*
X96145110Y-40413487D01*
X95854000Y-40384815D01*
X95562889Y-40413487D01*
X95282966Y-40498401D01*
X95024986Y-40636294D01*
X94798866Y-40821866D01*
X94613294Y-41047987D01*
X94604000Y-41065374D01*
X94594706Y-41047986D01*
X94409134Y-40821866D01*
X94183013Y-40636294D01*
X93925033Y-40498401D01*
X93645110Y-40413487D01*
X93354000Y-40384815D01*
X93062889Y-40413487D01*
X92782966Y-40498401D01*
X92524986Y-40636294D01*
X92298866Y-40821866D01*
X92113294Y-41047987D01*
X92104000Y-41065374D01*
X92094706Y-41047986D01*
X91909134Y-40821866D01*
X91683013Y-40636294D01*
X91425033Y-40498401D01*
X91145110Y-40413487D01*
X90854000Y-40384815D01*
X90562889Y-40413487D01*
X90282966Y-40498401D01*
X90024986Y-40636294D01*
X89804055Y-40817608D01*
X89793502Y-40782820D01*
X89734537Y-40672506D01*
X89655185Y-40575815D01*
X89558494Y-40496463D01*
X89448180Y-40437498D01*
X89328482Y-40401188D01*
X89204000Y-40388928D01*
X88639750Y-40392000D01*
X88481000Y-40550750D01*
X88227000Y-40550750D01*
X88068250Y-40392000D01*
X87504000Y-40388928D01*
X87379518Y-40401188D01*
X87259820Y-40437498D01*
X87149506Y-40496463D01*
X87052815Y-40575815D01*
X86973463Y-40672506D01*
X86914498Y-40782820D01*
X86878188Y-40902518D01*
X86865928Y-41027000D01*
X84345573Y-41027000D01*
X84268069Y-40800973D01*
X84168579Y-40614839D01*
X83899066Y-40513039D01*
X82907605Y-41504500D01*
X82548395Y-41504500D01*
X81556934Y-40513039D01*
X81287421Y-40614839D01*
X81141537Y-40912977D01*
X81056620Y-41233846D01*
X81035934Y-41565117D01*
X79766186Y-41565117D01*
X79659846Y-41248667D01*
X79540836Y-41026014D01*
X79255980Y-40906126D01*
X78157605Y-42004500D01*
X77798395Y-42004500D01*
X76700020Y-40906126D01*
X76415164Y-41026014D01*
X76254301Y-41349710D01*
X76159678Y-41698569D01*
X76134933Y-42059184D01*
X74824212Y-42059184D01*
X74899380Y-41775154D01*
X74920066Y-41443883D01*
X74875728Y-41114943D01*
X74768069Y-40800973D01*
X74668579Y-40614839D01*
X74399066Y-40513039D01*
X73407605Y-41504500D01*
X73048395Y-41504500D01*
X72056934Y-40513039D01*
X71787421Y-40614839D01*
X71641537Y-40912977D01*
X71556620Y-41233846D01*
X71535934Y-41565117D01*
X70505431Y-41565117D01*
X70481981Y-41339368D01*
X70317028Y-40805839D01*
X70068018Y-40339976D01*
X70057469Y-40333434D01*
X72236539Y-40333434D01*
X73228000Y-41324895D01*
X74219461Y-40333434D01*
X74119242Y-40068105D01*
X76844000Y-40068105D01*
X76969914Y-40358077D01*
X77066076Y-40406086D01*
X76999514Y-40441664D01*
X76879626Y-40726520D01*
X77978000Y-41824895D01*
X79076374Y-40726520D01*
X78956486Y-40441664D01*
X78890788Y-40409015D01*
X78986086Y-40358077D01*
X78996786Y-40333434D01*
X81736539Y-40333434D01*
X82728000Y-41324895D01*
X83719461Y-40333434D01*
X83617661Y-40063921D01*
X83319523Y-39918037D01*
X82998654Y-39833120D01*
X82667383Y-39812434D01*
X82338443Y-39856772D01*
X82024473Y-39964431D01*
X81838339Y-40063921D01*
X81736539Y-40333434D01*
X78996786Y-40333434D01*
X79112000Y-40068105D01*
X77978000Y-38934105D01*
X76844000Y-40068105D01*
X74119242Y-40068105D01*
X74117661Y-40063921D01*
X73819523Y-39918037D01*
X73498654Y-39833120D01*
X73167383Y-39812434D01*
X72838443Y-39856772D01*
X72524473Y-39964431D01*
X72338339Y-40063921D01*
X72236539Y-40333434D01*
X70057469Y-40333434D01*
X69680775Y-40099830D01*
X67870605Y-41910000D01*
X67511395Y-41910000D01*
X65701225Y-40099830D01*
X65313982Y-40339976D01*
X65053359Y-40833877D01*
X64894099Y-41369133D01*
X64842322Y-41925174D01*
X62156493Y-41925174D01*
X62316759Y-41199266D01*
X62672284Y-40260875D01*
X62861497Y-39920225D01*
X65880830Y-39920225D01*
X67691000Y-41730395D01*
X69501170Y-39920225D01*
X69261024Y-39532982D01*
X68767123Y-39272359D01*
X68231867Y-39113099D01*
X67675826Y-39061322D01*
X67120368Y-39119019D01*
X66586839Y-39283972D01*
X66120976Y-39532982D01*
X65880830Y-39920225D01*
X62861497Y-39920225D01*
X63159548Y-39383632D01*
X63599462Y-38807206D01*
X76084611Y-38807206D01*
X76131275Y-39175575D01*
X76248906Y-39527762D01*
X76374423Y-39762586D01*
X76664395Y-39888500D01*
X77798395Y-38754500D01*
X78157605Y-38754500D01*
X79291605Y-39888500D01*
X79581577Y-39762586D01*
X79747433Y-39430374D01*
X79845290Y-39072188D01*
X79871389Y-38701794D01*
X79824725Y-38333425D01*
X79707094Y-37981238D01*
X79581577Y-37746414D01*
X79291605Y-37620500D01*
X78157605Y-38754500D01*
X77798395Y-38754500D01*
X76664395Y-37620500D01*
X76374423Y-37746414D01*
X76208567Y-38078626D01*
X76110710Y-38436812D01*
X76084611Y-38807206D01*
X63599462Y-38807206D01*
X63768340Y-38585924D01*
X64485914Y-37884448D01*
X65095294Y-37440895D01*
X76844000Y-37440895D01*
X77978000Y-38574895D01*
X79112000Y-37440895D01*
X78986086Y-37150923D01*
X78653874Y-36985067D01*
X78295688Y-36887210D01*
X77925294Y-36861111D01*
X77556925Y-36907775D01*
X77204738Y-37025406D01*
X76969914Y-37150923D01*
X76844000Y-37440895D01*
X65095294Y-37440895D01*
X65297233Y-37293909D01*
X66185296Y-36826676D01*
X67131518Y-36492530D01*
X68119888Y-36297724D01*
X68981923Y-36245000D01*
X153645181Y-36245000D01*
X154670848Y-36319420D01*
G37*
X154670848Y-36319420D02*
X155650734Y-36535759D01*
X156589125Y-36891284D01*
X157466368Y-37378548D01*
X158264076Y-37987340D01*
X158965552Y-38704914D01*
X159556091Y-39516233D01*
X160023324Y-40404296D01*
X160357470Y-41350518D01*
X160552276Y-42338888D01*
X160605000Y-43200923D01*
X160605001Y-106655167D01*
X160530580Y-107680849D01*
X160314240Y-108660737D01*
X159958717Y-109599124D01*
X159471452Y-110476368D01*
X158862660Y-111274076D01*
X158145086Y-111975552D01*
X157333772Y-112566087D01*
X156445706Y-113033323D01*
X155499482Y-113367470D01*
X154511112Y-113562276D01*
X153649077Y-113615000D01*
X68985819Y-113615000D01*
X67960151Y-113540580D01*
X66980263Y-113324240D01*
X66041876Y-112968717D01*
X65164632Y-112481452D01*
X64366924Y-111872660D01*
X63665448Y-111155086D01*
X63074913Y-110343772D01*
X62862360Y-109939775D01*
X65880830Y-109939775D01*
X66120976Y-110327018D01*
X66614877Y-110587641D01*
X67150133Y-110746901D01*
X67706174Y-110798678D01*
X68261632Y-110740981D01*
X68795161Y-110576028D01*
X69261024Y-110327018D01*
X69501170Y-109939775D01*
X67691000Y-108129605D01*
X65880830Y-109939775D01*
X62862360Y-109939775D01*
X62607677Y-109455706D01*
X62273530Y-108509482D01*
X62166248Y-107965174D01*
X64842322Y-107965174D01*
X64900019Y-108520632D01*
X65064972Y-109054161D01*
X65313982Y-109520024D01*
X65701225Y-109760170D01*
X67511395Y-107950000D01*
X67870605Y-107950000D01*
X69680775Y-109760170D01*
X70068018Y-109520024D01*
X70328641Y-109026123D01*
X70487901Y-108490867D01*
X70494499Y-108420000D01*
X88350928Y-108420000D01*
X88350928Y-110020000D01*
X88363188Y-110144482D01*
X88399498Y-110264180D01*
X88458463Y-110374494D01*
X88537815Y-110471185D01*
X88634506Y-110550537D01*
X88744820Y-110609502D01*
X88864518Y-110645812D01*
X88989000Y-110658072D01*
X90589000Y-110658072D01*
X90713482Y-110645812D01*
X90833180Y-110609502D01*
X90943494Y-110550537D01*
X91040185Y-110471185D01*
X91119537Y-110374494D01*
X91178502Y-110264180D01*
X91194117Y-110212702D01*
X92475903Y-110212702D01*
X92547486Y-110456671D01*
X92802996Y-110577571D01*
X93077184Y-110646300D01*
X93359512Y-110660217D01*
X93639130Y-110618787D01*
X93905292Y-110523603D01*
X94030514Y-110456671D01*
X94102097Y-110212702D01*
X93289000Y-109399605D01*
X92475903Y-110212702D01*
X91194117Y-110212702D01*
X91214812Y-110144482D01*
X91227072Y-110020000D01*
X91227072Y-109290512D01*
X91848783Y-109290512D01*
X91890213Y-109570130D01*
X91985397Y-109836292D01*
X92052329Y-109961514D01*
X92296298Y-110033097D01*
X93109395Y-109220000D01*
X93468605Y-109220000D01*
X94281702Y-110033097D01*
X94525671Y-109961514D01*
X94646571Y-109706004D01*
X94715300Y-109431816D01*
X94729217Y-109149488D01*
X94687787Y-108869870D01*
X94592603Y-108603708D01*
X94525671Y-108478486D01*
X94326340Y-108420000D01*
X108924928Y-108420000D01*
X108924928Y-110020000D01*
X108937188Y-110144482D01*
X108973498Y-110264180D01*
X109032463Y-110374494D01*
X109111815Y-110471185D01*
X109208506Y-110550537D01*
X109318820Y-110609502D01*
X109438518Y-110645812D01*
X109563000Y-110658072D01*
X111163000Y-110658072D01*
X111287482Y-110645812D01*
X111407180Y-110609502D01*
X111517494Y-110550537D01*
X111614185Y-110471185D01*
X111693537Y-110374494D01*
X111752502Y-110264180D01*
X111768117Y-110212702D01*
X113049903Y-110212702D01*
X113121486Y-110456671D01*
X113376996Y-110577571D01*
X113651184Y-110646300D01*
X113933512Y-110660217D01*
X114213130Y-110618787D01*
X114479292Y-110523603D01*
X114604514Y-110456671D01*
X114676097Y-110212702D01*
X113863000Y-109399605D01*
X113049903Y-110212702D01*
X111768117Y-110212702D01*
X111788812Y-110144482D01*
X111801072Y-110020000D01*
X111801072Y-109290512D01*
X112422783Y-109290512D01*
X112464213Y-109570130D01*
X112559397Y-109836292D01*
X112626329Y-109961514D01*
X112870298Y-110033097D01*
X113683395Y-109220000D01*
X114042605Y-109220000D01*
X114855702Y-110033097D01*
X115099671Y-109961514D01*
X115220571Y-109706004D01*
X115289300Y-109431816D01*
X115303217Y-109149488D01*
X115261787Y-108869870D01*
X115166603Y-108603708D01*
X115099671Y-108478486D01*
X114855702Y-108406903D01*
X114042605Y-109220000D01*
X113683395Y-109220000D01*
X112870298Y-108406903D01*
X112626329Y-108478486D01*
X112505429Y-108733996D01*
X112436700Y-109008184D01*
X112422783Y-109290512D01*
X111801072Y-109290512D01*
X111801072Y-108420000D01*
X111788812Y-108295518D01*
X111768118Y-108227298D01*
X113049903Y-108227298D01*
X113863000Y-109040395D01*
X114676097Y-108227298D01*
X114658112Y-108166000D01*
X129498928Y-108166000D01*
X129498928Y-109766000D01*
X129511188Y-109890482D01*
X129547498Y-110010180D01*
X129606463Y-110120494D01*
X129685815Y-110217185D01*
X129782506Y-110296537D01*
X129892820Y-110355502D01*
X130012518Y-110391812D01*
X130137000Y-110404072D01*
X131737000Y-110404072D01*
X131861482Y-110391812D01*
X131981180Y-110355502D01*
X132091494Y-110296537D01*
X132188185Y-110217185D01*
X132267537Y-110120494D01*
X132326502Y-110010180D01*
X132342117Y-109958702D01*
X133623903Y-109958702D01*
X133695486Y-110202671D01*
X133950996Y-110323571D01*
X134225184Y-110392300D01*
X134507512Y-110406217D01*
X134787130Y-110364787D01*
X135053292Y-110269603D01*
X135178514Y-110202671D01*
X135250097Y-109958702D01*
X135231170Y-109939775D01*
X154780830Y-109939775D01*
X155020976Y-110327018D01*
X155514877Y-110587641D01*
X156050133Y-110746901D01*
X156606174Y-110798678D01*
X157161632Y-110740981D01*
X157695161Y-110576028D01*
X158161024Y-110327018D01*
X158401170Y-109939775D01*
X156591000Y-108129605D01*
X154780830Y-109939775D01*
X135231170Y-109939775D01*
X134437000Y-109145605D01*
X133623903Y-109958702D01*
X132342117Y-109958702D01*
X132362812Y-109890482D01*
X132375072Y-109766000D01*
X132375072Y-109036512D01*
X132996783Y-109036512D01*
X133038213Y-109316130D01*
X133133397Y-109582292D01*
X133200329Y-109707514D01*
X133444298Y-109779097D01*
X134257395Y-108966000D01*
X134616605Y-108966000D01*
X135429702Y-109779097D01*
X135673671Y-109707514D01*
X135794571Y-109452004D01*
X135863300Y-109177816D01*
X135877217Y-108895488D01*
X135835787Y-108615870D01*
X135740603Y-108349708D01*
X135673671Y-108224486D01*
X135429702Y-108152903D01*
X134616605Y-108966000D01*
X134257395Y-108966000D01*
X133444298Y-108152903D01*
X133200329Y-108224486D01*
X133079429Y-108479996D01*
X133010700Y-108754184D01*
X132996783Y-109036512D01*
X132375072Y-109036512D01*
X132375072Y-108166000D01*
X132362812Y-108041518D01*
X132342118Y-107973298D01*
X133623903Y-107973298D01*
X134437000Y-108786395D01*
X135250097Y-107973298D01*
X135247714Y-107965174D01*
X153742322Y-107965174D01*
X153800019Y-108520632D01*
X153964972Y-109054161D01*
X154213982Y-109520024D01*
X154601225Y-109760170D01*
X156411395Y-107950000D01*
X156770605Y-107950000D01*
X158580775Y-109760170D01*
X158968018Y-109520024D01*
X159228641Y-109026123D01*
X159387901Y-108490867D01*
X159439678Y-107934826D01*
X159381981Y-107379368D01*
X159217028Y-106845839D01*
X158968018Y-106379976D01*
X158580775Y-106139830D01*
X156770605Y-107950000D01*
X156411395Y-107950000D01*
X154601225Y-106139830D01*
X154213982Y-106379976D01*
X153953359Y-106873877D01*
X153794099Y-107409133D01*
X153742322Y-107965174D01*
X135247714Y-107965174D01*
X135178514Y-107729329D01*
X134923004Y-107608429D01*
X134648816Y-107539700D01*
X134366488Y-107525783D01*
X134086870Y-107567213D01*
X133820708Y-107662397D01*
X133695486Y-107729329D01*
X133623903Y-107973298D01*
X132342118Y-107973298D01*
X132326502Y-107921820D01*
X132267537Y-107811506D01*
X132188185Y-107714815D01*
X132091494Y-107635463D01*
X131981180Y-107576498D01*
X131861482Y-107540188D01*
X131737000Y-107527928D01*
X130137000Y-107527928D01*
X130012518Y-107540188D01*
X129892820Y-107576498D01*
X129782506Y-107635463D01*
X129685815Y-107714815D01*
X129606463Y-107811506D01*
X129547498Y-107921820D01*
X129511188Y-108041518D01*
X129498928Y-108166000D01*
X114658112Y-108166000D01*
X114604514Y-107983329D01*
X114349004Y-107862429D01*
X114074816Y-107793700D01*
X113792488Y-107779783D01*
X113512870Y-107821213D01*
X113246708Y-107916397D01*
X113121486Y-107983329D01*
X113049903Y-108227298D01*
X111768118Y-108227298D01*
X111752502Y-108175820D01*
X111693537Y-108065506D01*
X111614185Y-107968815D01*
X111517494Y-107889463D01*
X111407180Y-107830498D01*
X111287482Y-107794188D01*
X111163000Y-107781928D01*
X109563000Y-107781928D01*
X109438518Y-107794188D01*
X109318820Y-107830498D01*
X109208506Y-107889463D01*
X109111815Y-107968815D01*
X109032463Y-108065506D01*
X108973498Y-108175820D01*
X108937188Y-108295518D01*
X108924928Y-108420000D01*
X94326340Y-108420000D01*
X94281702Y-108406903D01*
X93468605Y-109220000D01*
X93109395Y-109220000D01*
X92296298Y-108406903D01*
X92052329Y-108478486D01*
X91931429Y-108733996D01*
X91862700Y-109008184D01*
X91848783Y-109290512D01*
X91227072Y-109290512D01*
X91227072Y-108420000D01*
X91214812Y-108295518D01*
X91194118Y-108227298D01*
X92475903Y-108227298D01*
X93289000Y-109040395D01*
X94102097Y-108227298D01*
X94030514Y-107983329D01*
X93775004Y-107862429D01*
X93500816Y-107793700D01*
X93218488Y-107779783D01*
X92938870Y-107821213D01*
X92672708Y-107916397D01*
X92547486Y-107983329D01*
X92475903Y-108227298D01*
X91194118Y-108227298D01*
X91178502Y-108175820D01*
X91119537Y-108065506D01*
X91040185Y-107968815D01*
X90943494Y-107889463D01*
X90833180Y-107830498D01*
X90713482Y-107794188D01*
X90589000Y-107781928D01*
X88989000Y-107781928D01*
X88864518Y-107794188D01*
X88744820Y-107830498D01*
X88634506Y-107889463D01*
X88537815Y-107968815D01*
X88458463Y-108065506D01*
X88399498Y-108175820D01*
X88363188Y-108295518D01*
X88350928Y-108420000D01*
X70494499Y-108420000D01*
X70539678Y-107934826D01*
X70481981Y-107379368D01*
X70317028Y-106845839D01*
X70068018Y-106379976D01*
X69680775Y-106139830D01*
X67870605Y-107950000D01*
X67511395Y-107950000D01*
X65701225Y-106139830D01*
X65313982Y-106379976D01*
X65053359Y-106873877D01*
X64894099Y-107409133D01*
X64842322Y-107965174D01*
X62166248Y-107965174D01*
X62078724Y-107521112D01*
X62026000Y-106659077D01*
X62026000Y-105960225D01*
X65880830Y-105960225D01*
X67691000Y-107770395D01*
X69501170Y-105960225D01*
X154780830Y-105960225D01*
X156591000Y-107770395D01*
X158401170Y-105960225D01*
X158161024Y-105572982D01*
X157667123Y-105312359D01*
X157131867Y-105153099D01*
X156575826Y-105101322D01*
X156020368Y-105159019D01*
X155486839Y-105323972D01*
X155020976Y-105572982D01*
X154780830Y-105960225D01*
X69501170Y-105960225D01*
X69261024Y-105572982D01*
X68767123Y-105312359D01*
X68231867Y-105153099D01*
X67675826Y-105101322D01*
X67120368Y-105159019D01*
X66586839Y-105323972D01*
X66120976Y-105572982D01*
X65880830Y-105960225D01*
X62026000Y-105960225D01*
X62026000Y-94550061D01*
X72544000Y-94550061D01*
X72544000Y-94753939D01*
X72583774Y-94953898D01*
X72661795Y-95142256D01*
X72682211Y-95172811D01*
X72608774Y-95350102D01*
X72569000Y-95550061D01*
X72569000Y-95753939D01*
X72608774Y-95953898D01*
X72686795Y-96142256D01*
X72800063Y-96311774D01*
X72944226Y-96455937D01*
X73113744Y-96569205D01*
X73302102Y-96647226D01*
X73502061Y-96687000D01*
X73705939Y-96687000D01*
X73905898Y-96647226D01*
X74094256Y-96569205D01*
X74263774Y-96455937D01*
X74307711Y-96412000D01*
X88346598Y-96412000D01*
X88344000Y-96425061D01*
X88344000Y-96628939D01*
X88383774Y-96828898D01*
X88409912Y-96892000D01*
X88032711Y-96892000D01*
X87988774Y-96848063D01*
X87819256Y-96734795D01*
X87630898Y-96656774D01*
X87430939Y-96617000D01*
X87227061Y-96617000D01*
X87027102Y-96656774D01*
X86838744Y-96734795D01*
X86669226Y-96848063D01*
X86525063Y-96992226D01*
X86411795Y-97161744D01*
X86333774Y-97350102D01*
X86294000Y-97550061D01*
X86294000Y-97753939D01*
X86333774Y-97953898D01*
X86411795Y-98142256D01*
X86525063Y-98311774D01*
X86669226Y-98455937D01*
X86838744Y-98569205D01*
X87027102Y-98647226D01*
X87227061Y-98687000D01*
X87430939Y-98687000D01*
X87630898Y-98647226D01*
X87819256Y-98569205D01*
X87988774Y-98455937D01*
X88032711Y-98412000D01*
X107525289Y-98412000D01*
X107569226Y-98455937D01*
X107738744Y-98569205D01*
X107927102Y-98647226D01*
X108127061Y-98687000D01*
X108330939Y-98687000D01*
X108530898Y-98647226D01*
X108719256Y-98569205D01*
X108888774Y-98455937D01*
X108932711Y-98412000D01*
X128225289Y-98412000D01*
X128269226Y-98455937D01*
X128438744Y-98569205D01*
X128627102Y-98647226D01*
X128827061Y-98687000D01*
X129030939Y-98687000D01*
X129230898Y-98647226D01*
X129419256Y-98569205D01*
X129588774Y-98455937D01*
X129632711Y-98412000D01*
X149150289Y-98412000D01*
X149194226Y-98455937D01*
X149363744Y-98569205D01*
X149552102Y-98647226D01*
X149752061Y-98687000D01*
X149955939Y-98687000D01*
X150155898Y-98647226D01*
X150344256Y-98569205D01*
X150513774Y-98455937D01*
X150657937Y-98311774D01*
X150771205Y-98142256D01*
X150849226Y-97953898D01*
X150889000Y-97753939D01*
X150889000Y-97550061D01*
X150860924Y-97408912D01*
X150913744Y-97444205D01*
X151102102Y-97522226D01*
X151302061Y-97562000D01*
X151505939Y-97562000D01*
X151705898Y-97522226D01*
X151894256Y-97444205D01*
X152063774Y-97330937D01*
X152207937Y-97186774D01*
X152321205Y-97017256D01*
X152399226Y-96828898D01*
X152439000Y-96628939D01*
X152439000Y-96425061D01*
X152399226Y-96225102D01*
X152321205Y-96036744D01*
X152207937Y-95867226D01*
X152063774Y-95723063D01*
X151894256Y-95609795D01*
X151705898Y-95531774D01*
X151505939Y-95492000D01*
X151302061Y-95492000D01*
X151102102Y-95531774D01*
X150913744Y-95609795D01*
X150744226Y-95723063D01*
X150700289Y-95767000D01*
X137461402Y-95767000D01*
X137464000Y-95753939D01*
X137464000Y-95550061D01*
X137424226Y-95350102D01*
X137346205Y-95161744D01*
X137339694Y-95152000D01*
X137346205Y-95142256D01*
X137424226Y-94953898D01*
X137464000Y-94753939D01*
X137464000Y-94550061D01*
X137441511Y-94437000D01*
X149675289Y-94437000D01*
X149694226Y-94455937D01*
X149863744Y-94569205D01*
X150052102Y-94647226D01*
X150252061Y-94687000D01*
X150455939Y-94687000D01*
X150655898Y-94647226D01*
X150844256Y-94569205D01*
X151013774Y-94455937D01*
X151157937Y-94311774D01*
X151271205Y-94142256D01*
X151349226Y-93953898D01*
X151389000Y-93753939D01*
X151389000Y-93550061D01*
X151349226Y-93350102D01*
X151271205Y-93161744D01*
X151157937Y-92992226D01*
X151013774Y-92848063D01*
X150844256Y-92734795D01*
X150655898Y-92656774D01*
X150455939Y-92617000D01*
X150252061Y-92617000D01*
X150052102Y-92656774D01*
X149863744Y-92734795D01*
X149694226Y-92848063D01*
X149625289Y-92917000D01*
X130082711Y-92917000D01*
X130038774Y-92873063D01*
X129869256Y-92759795D01*
X129680898Y-92681774D01*
X129480939Y-92642000D01*
X129277061Y-92642000D01*
X129077102Y-92681774D01*
X128888744Y-92759795D01*
X128719226Y-92873063D01*
X128675289Y-92917000D01*
X109382711Y-92917000D01*
X109338774Y-92873063D01*
X109169256Y-92759795D01*
X108980898Y-92681774D01*
X108780939Y-92642000D01*
X108577061Y-92642000D01*
X108377102Y-92681774D01*
X108188744Y-92759795D01*
X108019226Y-92873063D01*
X108000289Y-92892000D01*
X88482711Y-92892000D01*
X88438774Y-92848063D01*
X88269256Y-92734795D01*
X88080898Y-92656774D01*
X87880939Y-92617000D01*
X87677061Y-92617000D01*
X87477102Y-92656774D01*
X87288744Y-92734795D01*
X87119226Y-92848063D01*
X86975063Y-92992226D01*
X86861795Y-93161744D01*
X86783774Y-93350102D01*
X86744000Y-93550061D01*
X86744000Y-93753939D01*
X86771462Y-93892000D01*
X74282711Y-93892000D01*
X74238774Y-93848063D01*
X74069256Y-93734795D01*
X73880898Y-93656774D01*
X73680939Y-93617000D01*
X73477061Y-93617000D01*
X73277102Y-93656774D01*
X73088744Y-93734795D01*
X72919226Y-93848063D01*
X72775063Y-93992226D01*
X72661795Y-94161744D01*
X72583774Y-94350102D01*
X72544000Y-94550061D01*
X62026000Y-94550061D01*
X62026000Y-84544000D01*
X67268928Y-84544000D01*
X67268928Y-86144000D01*
X67281188Y-86268482D01*
X67317498Y-86388180D01*
X67376463Y-86498494D01*
X67455815Y-86595185D01*
X67552506Y-86674537D01*
X67662820Y-86733502D01*
X67782518Y-86769812D01*
X67907000Y-86782072D01*
X69507000Y-86782072D01*
X69631482Y-86769812D01*
X69751180Y-86733502D01*
X69861494Y-86674537D01*
X69958185Y-86595185D01*
X70037537Y-86498494D01*
X70096502Y-86388180D01*
X70112117Y-86336702D01*
X71393903Y-86336702D01*
X71465486Y-86580671D01*
X71720996Y-86701571D01*
X71995184Y-86770300D01*
X72277512Y-86784217D01*
X72557130Y-86742787D01*
X72823292Y-86647603D01*
X72948514Y-86580671D01*
X73020097Y-86336702D01*
X72207000Y-85523605D01*
X71393903Y-86336702D01*
X70112117Y-86336702D01*
X70132812Y-86268482D01*
X70145072Y-86144000D01*
X70145072Y-85414512D01*
X70766783Y-85414512D01*
X70808213Y-85694130D01*
X70903397Y-85960292D01*
X70970329Y-86085514D01*
X71214298Y-86157097D01*
X72027395Y-85344000D01*
X72386605Y-85344000D01*
X73199702Y-86157097D01*
X73443671Y-86085514D01*
X73564571Y-85830004D01*
X73633300Y-85555816D01*
X73647217Y-85273488D01*
X73605787Y-84993870D01*
X73510603Y-84727708D01*
X73443671Y-84602486D01*
X73199702Y-84530903D01*
X72386605Y-85344000D01*
X72027395Y-85344000D01*
X71214298Y-84530903D01*
X70970329Y-84602486D01*
X70849429Y-84857996D01*
X70780700Y-85132184D01*
X70766783Y-85414512D01*
X70145072Y-85414512D01*
X70145072Y-84544000D01*
X70132812Y-84419518D01*
X70112118Y-84351298D01*
X71393903Y-84351298D01*
X72207000Y-85164395D01*
X73020097Y-84351298D01*
X72948514Y-84107329D01*
X72693004Y-83986429D01*
X72418816Y-83917700D01*
X72136488Y-83903783D01*
X71856870Y-83945213D01*
X71590708Y-84040397D01*
X71465486Y-84107329D01*
X71393903Y-84351298D01*
X70112118Y-84351298D01*
X70096502Y-84299820D01*
X70037537Y-84189506D01*
X69958185Y-84092815D01*
X69861494Y-84013463D01*
X69751180Y-83954498D01*
X69631482Y-83918188D01*
X69507000Y-83905928D01*
X67907000Y-83905928D01*
X67782518Y-83918188D01*
X67662820Y-83954498D01*
X67552506Y-84013463D01*
X67455815Y-84092815D01*
X67376463Y-84189506D01*
X67317498Y-84299820D01*
X67281188Y-84419518D01*
X67268928Y-84544000D01*
X62026000Y-84544000D01*
X62026000Y-47375566D01*
X72236539Y-47375566D01*
X72338339Y-47645079D01*
X72636477Y-47790963D01*
X72957346Y-47875880D01*
X73288617Y-47896566D01*
X73617557Y-47852228D01*
X73686193Y-47828693D01*
X76193000Y-47828693D01*
X76193000Y-48180307D01*
X76261596Y-48525165D01*
X76396153Y-48850015D01*
X76591500Y-49142371D01*
X76840129Y-49391000D01*
X77132485Y-49586347D01*
X77457335Y-49720904D01*
X77802193Y-49789500D01*
X78153807Y-49789500D01*
X78498665Y-49720904D01*
X78823515Y-49586347D01*
X79115871Y-49391000D01*
X79364500Y-49142371D01*
X79559847Y-48850015D01*
X79694404Y-48525165D01*
X79763000Y-48180307D01*
X79763000Y-47828693D01*
X79694404Y-47483835D01*
X79649558Y-47375566D01*
X81736539Y-47375566D01*
X81838339Y-47645079D01*
X82136477Y-47790963D01*
X82457346Y-47875880D01*
X82788617Y-47896566D01*
X83117557Y-47852228D01*
X83431527Y-47744569D01*
X83617661Y-47645079D01*
X83719461Y-47375566D01*
X82728000Y-46384105D01*
X81736539Y-47375566D01*
X79649558Y-47375566D01*
X79559847Y-47158985D01*
X79364500Y-46866629D01*
X79115871Y-46618000D01*
X78823515Y-46422653D01*
X78498665Y-46288096D01*
X78383141Y-46265117D01*
X81035934Y-46265117D01*
X81080272Y-46594057D01*
X81187931Y-46908027D01*
X81287421Y-47094161D01*
X81556934Y-47195961D01*
X82548395Y-46204500D01*
X82907605Y-46204500D01*
X83899066Y-47195961D01*
X84168579Y-47094161D01*
X84314463Y-46796023D01*
X84399380Y-46475154D01*
X84420066Y-46143883D01*
X84375728Y-45814943D01*
X84268069Y-45500973D01*
X84168579Y-45314839D01*
X83899066Y-45213039D01*
X82907605Y-46204500D01*
X82548395Y-46204500D01*
X81556934Y-45213039D01*
X81287421Y-45314839D01*
X81141537Y-45612977D01*
X81056620Y-45933846D01*
X81035934Y-46265117D01*
X78383141Y-46265117D01*
X78153807Y-46219500D01*
X77802193Y-46219500D01*
X77457335Y-46288096D01*
X77132485Y-46422653D01*
X76840129Y-46618000D01*
X76591500Y-46866629D01*
X76396153Y-47158985D01*
X76261596Y-47483835D01*
X76193000Y-47828693D01*
X73686193Y-47828693D01*
X73931527Y-47744569D01*
X74117661Y-47645079D01*
X74219461Y-47375566D01*
X73228000Y-46384105D01*
X72236539Y-47375566D01*
X62026000Y-47375566D01*
X62026000Y-46265117D01*
X71535934Y-46265117D01*
X71580272Y-46594057D01*
X71687931Y-46908027D01*
X71787421Y-47094161D01*
X72056934Y-47195961D01*
X73048395Y-46204500D01*
X73407605Y-46204500D01*
X74399066Y-47195961D01*
X74668579Y-47094161D01*
X74814463Y-46796023D01*
X74899380Y-46475154D01*
X74920066Y-46143883D01*
X74875728Y-45814943D01*
X74768069Y-45500973D01*
X74668579Y-45314839D01*
X74399066Y-45213039D01*
X73407605Y-46204500D01*
X73048395Y-46204500D01*
X72056934Y-45213039D01*
X71787421Y-45314839D01*
X71641537Y-45612977D01*
X71556620Y-45933846D01*
X71535934Y-46265117D01*
X62026000Y-46265117D01*
X62026000Y-45033434D01*
X72236539Y-45033434D01*
X73228000Y-46024895D01*
X74219461Y-45033434D01*
X81736539Y-45033434D01*
X82728000Y-46024895D01*
X83719461Y-45033434D01*
X83617661Y-44763921D01*
X83319523Y-44618037D01*
X82998654Y-44533120D01*
X82667383Y-44512434D01*
X82338443Y-44556772D01*
X82024473Y-44664431D01*
X81838339Y-44763921D01*
X81736539Y-45033434D01*
X74219461Y-45033434D01*
X74117661Y-44763921D01*
X73819523Y-44618037D01*
X73498654Y-44533120D01*
X73167383Y-44512434D01*
X72838443Y-44556772D01*
X72524473Y-44664431D01*
X72338339Y-44763921D01*
X72236539Y-45033434D01*
X62026000Y-45033434D01*
X62026000Y-43899775D01*
X65880830Y-43899775D01*
X66120976Y-44287018D01*
X66614877Y-44547641D01*
X67150133Y-44706901D01*
X67706174Y-44758678D01*
X68261632Y-44700981D01*
X68795161Y-44536028D01*
X69261024Y-44287018D01*
X69501170Y-43899775D01*
X67691000Y-42089605D01*
X65880830Y-43899775D01*
X62026000Y-43899775D01*
X62026000Y-43204819D01*
X62100420Y-42179152D01*
X62156493Y-41925174D01*
X64842322Y-41925174D01*
X64900019Y-42480632D01*
X65064972Y-43014161D01*
X65313982Y-43480024D01*
X65701225Y-43720170D01*
X67511395Y-41910000D01*
X67870605Y-41910000D01*
X69680775Y-43720170D01*
X70068018Y-43480024D01*
X70172258Y-43282480D01*
X76879626Y-43282480D01*
X76999514Y-43567336D01*
X77323210Y-43728199D01*
X77672069Y-43822822D01*
X78032684Y-43847567D01*
X78391198Y-43801485D01*
X78733833Y-43686346D01*
X78956486Y-43567336D01*
X79076374Y-43282480D01*
X77978000Y-42184105D01*
X76879626Y-43282480D01*
X70172258Y-43282480D01*
X70328641Y-42986123D01*
X70421044Y-42675566D01*
X72236539Y-42675566D01*
X72338339Y-42945079D01*
X72636477Y-43090963D01*
X72957346Y-43175880D01*
X73288617Y-43196566D01*
X73617557Y-43152228D01*
X73931527Y-43044569D01*
X74117661Y-42945079D01*
X74219461Y-42675566D01*
X73228000Y-41684105D01*
X72236539Y-42675566D01*
X70421044Y-42675566D01*
X70487901Y-42450867D01*
X70539678Y-41894826D01*
X70505431Y-41565117D01*
X71535934Y-41565117D01*
X71580272Y-41894057D01*
X71687931Y-42208027D01*
X71787421Y-42394161D01*
X72056934Y-42495961D01*
X73048395Y-41504500D01*
X73407605Y-41504500D01*
X74399066Y-42495961D01*
X74668579Y-42394161D01*
X74814463Y-42096023D01*
X74824212Y-42059184D01*
X76134933Y-42059184D01*
X76181015Y-42417698D01*
X76296154Y-42760333D01*
X76415164Y-42982986D01*
X76700020Y-43102874D01*
X77798395Y-42004500D01*
X78157605Y-42004500D01*
X79255980Y-43102874D01*
X79540836Y-42982986D01*
X79693610Y-42675566D01*
X81736539Y-42675566D01*
X81838339Y-42945079D01*
X82136477Y-43090963D01*
X82457346Y-43175880D01*
X82788617Y-43196566D01*
X83117557Y-43152228D01*
X83431527Y-43044569D01*
X83557940Y-42977000D01*
X86865928Y-42977000D01*
X86878188Y-43101482D01*
X86914498Y-43221180D01*
X86973463Y-43331494D01*
X87052815Y-43428185D01*
X87149506Y-43507537D01*
X87259820Y-43566502D01*
X87379518Y-43602812D01*
X87504000Y-43615072D01*
X88068250Y-43612000D01*
X88227000Y-43453250D01*
X88227000Y-42129000D01*
X87027750Y-42129000D01*
X86869000Y-42287750D01*
X86865928Y-42977000D01*
X83557940Y-42977000D01*
X83617661Y-42945079D01*
X83719461Y-42675566D01*
X82728000Y-41684105D01*
X81736539Y-42675566D01*
X79693610Y-42675566D01*
X79701699Y-42659290D01*
X79796322Y-42310431D01*
X79821067Y-41949816D01*
X79774985Y-41591302D01*
X79766186Y-41565117D01*
X81035934Y-41565117D01*
X81080272Y-41894057D01*
X81187931Y-42208027D01*
X81287421Y-42394161D01*
X81556934Y-42495961D01*
X82548395Y-41504500D01*
X82907605Y-41504500D01*
X83899066Y-42495961D01*
X84168579Y-42394161D01*
X84314463Y-42096023D01*
X84399380Y-41775154D01*
X84420066Y-41443883D01*
X84375728Y-41114943D01*
X84345573Y-41027000D01*
X86865928Y-41027000D01*
X86869000Y-41716250D01*
X87027750Y-41875000D01*
X88227000Y-41875000D01*
X88227000Y-40550750D01*
X88481000Y-40550750D01*
X88481000Y-41875000D01*
X88501000Y-41875000D01*
X88501000Y-42129000D01*
X88481000Y-42129000D01*
X88481000Y-43453250D01*
X88639750Y-43612000D01*
X89204000Y-43615072D01*
X89328482Y-43602812D01*
X89448180Y-43566502D01*
X89558494Y-43507537D01*
X89655185Y-43428185D01*
X89734537Y-43331494D01*
X89793502Y-43221180D01*
X89804055Y-43186392D01*
X90024987Y-43367706D01*
X90282967Y-43505599D01*
X90562890Y-43590513D01*
X90854000Y-43619185D01*
X91145111Y-43590513D01*
X91425034Y-43505599D01*
X91683014Y-43367706D01*
X91909134Y-43182134D01*
X92094706Y-42956014D01*
X92104000Y-42938626D01*
X92113294Y-42956014D01*
X92298866Y-43182134D01*
X92524987Y-43367706D01*
X92782967Y-43505599D01*
X93062890Y-43590513D01*
X93354000Y-43619185D01*
X93645111Y-43590513D01*
X93925034Y-43505599D01*
X94183014Y-43367706D01*
X94409134Y-43182134D01*
X94594706Y-42956014D01*
X94604000Y-42938626D01*
X94613294Y-42956014D01*
X94798866Y-43182134D01*
X95024987Y-43367706D01*
X95282967Y-43505599D01*
X95562890Y-43590513D01*
X95854000Y-43619185D01*
X96145111Y-43590513D01*
X96425034Y-43505599D01*
X96683014Y-43367706D01*
X96909134Y-43182134D01*
X97094706Y-42956014D01*
X97104000Y-42938626D01*
X97113294Y-42956014D01*
X97298866Y-43182134D01*
X97312706Y-43193492D01*
X91689199Y-48817000D01*
X90332711Y-48817000D01*
X90288774Y-48773063D01*
X90119256Y-48659795D01*
X89930898Y-48581774D01*
X89730939Y-48542000D01*
X89527061Y-48542000D01*
X89327102Y-48581774D01*
X89138744Y-48659795D01*
X88969226Y-48773063D01*
X88825063Y-48917226D01*
X88711795Y-49086744D01*
X88633774Y-49275102D01*
X88594000Y-49475061D01*
X88594000Y-49678939D01*
X88633774Y-49878898D01*
X88711795Y-50067256D01*
X88825063Y-50236774D01*
X88969226Y-50380937D01*
X89138744Y-50494205D01*
X89327102Y-50572226D01*
X89527061Y-50612000D01*
X89730939Y-50612000D01*
X89930898Y-50572226D01*
X90119256Y-50494205D01*
X90288774Y-50380937D01*
X90332711Y-50337000D01*
X91966678Y-50337000D01*
X92004000Y-50340676D01*
X92041322Y-50337000D01*
X92041333Y-50337000D01*
X92152986Y-50326003D01*
X92296247Y-50282546D01*
X92428276Y-50211974D01*
X92544001Y-50117001D01*
X92567804Y-50087997D01*
X98865003Y-43790799D01*
X98894001Y-43767001D01*
X98932749Y-43719787D01*
X98988974Y-43651277D01*
X99059546Y-43519247D01*
X99063686Y-43505599D01*
X99090517Y-43417146D01*
X99183014Y-43367706D01*
X99409134Y-43182134D01*
X99594706Y-42956014D01*
X99604000Y-42938626D01*
X99613294Y-42956014D01*
X99798866Y-43182134D01*
X100024987Y-43367706D01*
X100282967Y-43505599D01*
X100562890Y-43590513D01*
X100854000Y-43619185D01*
X101145111Y-43590513D01*
X101425034Y-43505599D01*
X101683014Y-43367706D01*
X101909134Y-43182134D01*
X102094706Y-42956014D01*
X102104000Y-42938626D01*
X102113294Y-42956014D01*
X102298866Y-43182134D01*
X102524987Y-43367706D01*
X102782967Y-43505599D01*
X103062890Y-43590513D01*
X103354000Y-43619185D01*
X103645111Y-43590513D01*
X103925034Y-43505599D01*
X104183014Y-43367706D01*
X104409134Y-43182134D01*
X104594706Y-42956014D01*
X104604000Y-42938626D01*
X104613294Y-42956014D01*
X104798866Y-43182134D01*
X105024987Y-43367706D01*
X105282967Y-43505599D01*
X105562890Y-43590513D01*
X105854000Y-43619185D01*
X106145111Y-43590513D01*
X106425034Y-43505599D01*
X106683014Y-43367706D01*
X106909134Y-43182134D01*
X107094706Y-42956014D01*
X107104000Y-42938626D01*
X107113294Y-42956014D01*
X107298866Y-43182134D01*
X107312706Y-43193492D01*
X101925499Y-48580700D01*
X101730939Y-48542000D01*
X101527061Y-48542000D01*
X101327102Y-48581774D01*
X101138744Y-48659795D01*
X100969226Y-48773063D01*
X100825063Y-48917226D01*
X100711795Y-49086744D01*
X100633774Y-49275102D01*
X100594000Y-49475061D01*
X100594000Y-49678939D01*
X100633774Y-49878898D01*
X100711795Y-50067256D01*
X100825063Y-50236774D01*
X100969226Y-50380937D01*
X101138744Y-50494205D01*
X101327102Y-50572226D01*
X101527061Y-50612000D01*
X101730939Y-50612000D01*
X101930898Y-50572226D01*
X102119256Y-50494205D01*
X102288774Y-50380937D01*
X102432937Y-50236774D01*
X102475286Y-50173394D01*
X102544001Y-50117001D01*
X102567804Y-50087997D01*
X104860948Y-47794853D01*
X104858774Y-47800102D01*
X104819000Y-48000061D01*
X104819000Y-48203939D01*
X104858774Y-48403898D01*
X104936795Y-48592256D01*
X105050063Y-48761774D01*
X105094000Y-48805711D01*
X105094001Y-50889658D01*
X105094000Y-50889668D01*
X105094001Y-72690202D01*
X101839000Y-69435201D01*
X101839000Y-56714325D01*
X101842676Y-56677000D01*
X101839000Y-56639675D01*
X101839000Y-56639667D01*
X101828003Y-56528014D01*
X101784546Y-56384753D01*
X101713974Y-56252724D01*
X101619001Y-56136999D01*
X101590004Y-56113202D01*
X100437002Y-54960201D01*
X100437002Y-54900061D01*
X100397228Y-54700102D01*
X100319207Y-54511744D01*
X100205939Y-54342226D01*
X100061776Y-54198063D01*
X99892258Y-54084795D01*
X99716517Y-54012000D01*
X102650289Y-54012000D01*
X102694226Y-54055937D01*
X102863744Y-54169205D01*
X103052102Y-54247226D01*
X103252061Y-54287000D01*
X103455939Y-54287000D01*
X103655898Y-54247226D01*
X103844256Y-54169205D01*
X104013774Y-54055937D01*
X104157937Y-53911774D01*
X104271205Y-53742256D01*
X104349226Y-53553898D01*
X104389000Y-53353939D01*
X104389000Y-53150061D01*
X104349226Y-52950102D01*
X104271205Y-52761744D01*
X104157937Y-52592226D01*
X104013774Y-52448063D01*
X103844256Y-52334795D01*
X103655898Y-52256774D01*
X103455939Y-52217000D01*
X103252061Y-52217000D01*
X103052102Y-52256774D01*
X102863744Y-52334795D01*
X102694226Y-52448063D01*
X102650289Y-52492000D01*
X97282711Y-52492000D01*
X97238774Y-52448063D01*
X97069256Y-52334795D01*
X96880898Y-52256774D01*
X96680939Y-52217000D01*
X96614000Y-52217000D01*
X96614000Y-50305711D01*
X96657937Y-50261774D01*
X96771205Y-50092256D01*
X96849226Y-49903898D01*
X96889000Y-49703939D01*
X96889000Y-49500061D01*
X96849226Y-49300102D01*
X96771205Y-49111744D01*
X96657937Y-48942226D01*
X96513774Y-48798063D01*
X96344256Y-48684795D01*
X96155898Y-48606774D01*
X95955939Y-48567000D01*
X95752061Y-48567000D01*
X95552102Y-48606774D01*
X95363744Y-48684795D01*
X95194226Y-48798063D01*
X95050063Y-48942226D01*
X94936795Y-49111744D01*
X94858774Y-49300102D01*
X94819000Y-49500061D01*
X94819000Y-49703939D01*
X94858774Y-49903898D01*
X94936795Y-50092256D01*
X95050063Y-50261774D01*
X95094000Y-50305711D01*
X95094001Y-72114667D01*
X95090324Y-72152000D01*
X95104998Y-72300985D01*
X95148454Y-72444246D01*
X95219026Y-72576276D01*
X95290201Y-72663002D01*
X95314000Y-72692001D01*
X95342998Y-72715799D01*
X95919001Y-73291803D01*
X95919000Y-88823289D01*
X95875063Y-88867226D01*
X95761795Y-89036744D01*
X95683774Y-89225102D01*
X95644000Y-89425061D01*
X95644000Y-89628939D01*
X95683774Y-89828898D01*
X95761795Y-90017256D01*
X95875063Y-90186774D01*
X96019226Y-90330937D01*
X96188744Y-90444205D01*
X96377102Y-90522226D01*
X96577061Y-90562000D01*
X96780939Y-90562000D01*
X96980898Y-90522226D01*
X97169256Y-90444205D01*
X97338774Y-90330937D01*
X97482937Y-90186774D01*
X97596205Y-90017256D01*
X97674226Y-89828898D01*
X97714000Y-89628939D01*
X97714000Y-89425061D01*
X97674226Y-89225102D01*
X97596205Y-89036744D01*
X97482937Y-88867226D01*
X97439000Y-88823289D01*
X97439000Y-81375061D01*
X108144000Y-81375061D01*
X108144000Y-81578939D01*
X108183774Y-81778898D01*
X108261795Y-81967256D01*
X108375063Y-82136774D01*
X108419001Y-82180712D01*
X108419000Y-83699677D01*
X108415324Y-83737000D01*
X108419000Y-83774322D01*
X108419000Y-83774332D01*
X108429997Y-83885985D01*
X108450780Y-83954498D01*
X108473454Y-84029246D01*
X108544026Y-84161276D01*
X108567194Y-84189506D01*
X108638999Y-84277001D01*
X108668003Y-84300804D01*
X114494000Y-90126802D01*
X114494000Y-90188939D01*
X114533774Y-90388898D01*
X114611795Y-90577256D01*
X114725063Y-90746774D01*
X114869226Y-90890937D01*
X115038744Y-91004205D01*
X115227102Y-91082226D01*
X115427061Y-91122000D01*
X115630939Y-91122000D01*
X115830898Y-91082226D01*
X116019256Y-91004205D01*
X116188774Y-90890937D01*
X116332937Y-90746774D01*
X116446205Y-90577256D01*
X116524226Y-90388898D01*
X116564000Y-90188939D01*
X116564000Y-89985061D01*
X116524226Y-89785102D01*
X116446205Y-89596744D01*
X116332937Y-89427226D01*
X116188774Y-89283063D01*
X116019256Y-89169795D01*
X115830898Y-89091774D01*
X115630939Y-89052000D01*
X115568802Y-89052000D01*
X109939000Y-83422199D01*
X109939000Y-82180711D01*
X109982937Y-82136774D01*
X110096205Y-81967256D01*
X110174226Y-81778898D01*
X110214000Y-81578939D01*
X110214000Y-81375061D01*
X110174226Y-81175102D01*
X110096205Y-80986744D01*
X109982937Y-80817226D01*
X109838774Y-80673063D01*
X109669256Y-80559795D01*
X109480898Y-80481774D01*
X109280939Y-80442000D01*
X109077061Y-80442000D01*
X108877102Y-80481774D01*
X108688744Y-80559795D01*
X108519226Y-80673063D01*
X108375063Y-80817226D01*
X108261795Y-80986744D01*
X108183774Y-81175102D01*
X108144000Y-81375061D01*
X97439000Y-81375061D01*
X97439000Y-73014322D01*
X97442676Y-72976999D01*
X97439000Y-72939676D01*
X97439000Y-72939667D01*
X97428003Y-72828014D01*
X97384546Y-72684753D01*
X97313974Y-72552724D01*
X97219001Y-72436999D01*
X97190002Y-72413201D01*
X96614000Y-71837199D01*
X96614000Y-54287000D01*
X96680939Y-54287000D01*
X96880898Y-54247226D01*
X97069256Y-54169205D01*
X97238774Y-54055937D01*
X97282711Y-54012000D01*
X99087487Y-54012000D01*
X98911746Y-54084795D01*
X98742228Y-54198063D01*
X98598065Y-54342226D01*
X98484797Y-54511744D01*
X98406776Y-54700102D01*
X98367002Y-54900061D01*
X98367002Y-55103939D01*
X98406776Y-55303898D01*
X98484797Y-55492256D01*
X98598065Y-55661774D01*
X98742228Y-55805937D01*
X98911746Y-55919205D01*
X99100104Y-55997226D01*
X99300063Y-56037000D01*
X99364199Y-56037000D01*
X100319000Y-56991802D01*
X100319001Y-69712670D01*
X100315324Y-69750002D01*
X100319001Y-69787335D01*
X100329998Y-69898988D01*
X100343180Y-69942444D01*
X100373454Y-70042248D01*
X100444026Y-70174278D01*
X100487897Y-70227734D01*
X100539000Y-70290003D01*
X100567998Y-70313801D01*
X116669000Y-86414804D01*
X116669001Y-88398288D01*
X116625063Y-88442226D01*
X116511795Y-88611744D01*
X116433774Y-88800102D01*
X116394000Y-89000061D01*
X116394000Y-89203939D01*
X116433774Y-89403898D01*
X116511795Y-89592256D01*
X116625063Y-89761774D01*
X116769226Y-89905937D01*
X116938744Y-90019205D01*
X117127102Y-90097226D01*
X117327061Y-90137000D01*
X117530939Y-90137000D01*
X117730898Y-90097226D01*
X117919256Y-90019205D01*
X118088774Y-89905937D01*
X118232937Y-89761774D01*
X118346205Y-89592256D01*
X118424226Y-89403898D01*
X118464000Y-89203939D01*
X118464000Y-89000061D01*
X118424226Y-88800102D01*
X118346205Y-88611744D01*
X118232937Y-88442226D01*
X118189000Y-88398289D01*
X118189000Y-86137327D01*
X118192676Y-86100002D01*
X118189000Y-86062677D01*
X118189000Y-86062669D01*
X118178003Y-85951016D01*
X118134546Y-85807755D01*
X118063974Y-85675726D01*
X117969001Y-85560001D01*
X117940004Y-85536204D01*
X108906966Y-76503166D01*
X109077061Y-76537000D01*
X109280939Y-76537000D01*
X109480898Y-76497226D01*
X109669256Y-76419205D01*
X109838774Y-76305937D01*
X109982937Y-76161774D01*
X110096205Y-75992256D01*
X110174226Y-75803898D01*
X110214000Y-75603939D01*
X110214000Y-75541801D01*
X112240003Y-73515799D01*
X112269001Y-73492001D01*
X112363974Y-73376276D01*
X112434546Y-73244247D01*
X112478003Y-73100986D01*
X112489000Y-72989333D01*
X112492677Y-72952000D01*
X112489000Y-72914667D01*
X112489000Y-58905711D01*
X112532937Y-58861774D01*
X112646205Y-58692256D01*
X112724226Y-58503898D01*
X112764000Y-58303939D01*
X112764000Y-58100061D01*
X112724226Y-57900102D01*
X112646205Y-57711744D01*
X112532937Y-57542226D01*
X112418357Y-57427646D01*
X112429723Y-57436974D01*
X112450024Y-57447825D01*
X127544000Y-72541802D01*
X127544001Y-89037197D01*
X127064199Y-89517000D01*
X127002061Y-89517000D01*
X126802102Y-89556774D01*
X126613744Y-89634795D01*
X126444226Y-89748063D01*
X126300063Y-89892226D01*
X126186795Y-90061744D01*
X126108774Y-90250102D01*
X126069000Y-90450061D01*
X126069000Y-90653939D01*
X126108774Y-90853898D01*
X126186795Y-91042256D01*
X126300063Y-91211774D01*
X126444226Y-91355937D01*
X126613744Y-91469205D01*
X126802102Y-91547226D01*
X127002061Y-91587000D01*
X127205939Y-91587000D01*
X127405898Y-91547226D01*
X127594256Y-91469205D01*
X127763774Y-91355937D01*
X127907937Y-91211774D01*
X128021205Y-91042256D01*
X128099226Y-90853898D01*
X128139000Y-90653939D01*
X128139000Y-90591801D01*
X128815003Y-89915799D01*
X128844001Y-89892001D01*
X128938974Y-89776276D01*
X129009546Y-89644247D01*
X129053003Y-89500986D01*
X129064000Y-89389333D01*
X129064000Y-89389324D01*
X129067676Y-89352001D01*
X129064000Y-89314678D01*
X129064000Y-73425392D01*
X137569000Y-81930392D01*
X137569001Y-88698288D01*
X137525063Y-88742226D01*
X137411795Y-88911744D01*
X137333774Y-89100102D01*
X137294000Y-89300061D01*
X137294000Y-89503939D01*
X137333774Y-89703898D01*
X137411795Y-89892256D01*
X137525063Y-90061774D01*
X137669226Y-90205937D01*
X137838744Y-90319205D01*
X138027102Y-90397226D01*
X138227061Y-90437000D01*
X138430939Y-90437000D01*
X138630898Y-90397226D01*
X138819256Y-90319205D01*
X138988774Y-90205937D01*
X139132937Y-90061774D01*
X139246205Y-89892256D01*
X139324226Y-89703898D01*
X139364000Y-89503939D01*
X139364000Y-89300061D01*
X139324226Y-89100102D01*
X139246205Y-88911744D01*
X139132937Y-88742226D01*
X139089000Y-88698289D01*
X139089000Y-82061802D01*
X146894000Y-89866802D01*
X146894000Y-89928939D01*
X146933774Y-90128898D01*
X147011795Y-90317256D01*
X147125063Y-90486774D01*
X147269226Y-90630937D01*
X147438744Y-90744205D01*
X147627102Y-90822226D01*
X147827061Y-90862000D01*
X148030939Y-90862000D01*
X148230898Y-90822226D01*
X148419256Y-90744205D01*
X148588774Y-90630937D01*
X148732937Y-90486774D01*
X148846205Y-90317256D01*
X148924226Y-90128898D01*
X148964000Y-89928939D01*
X148964000Y-89725061D01*
X148924226Y-89525102D01*
X148846205Y-89336744D01*
X148732937Y-89167226D01*
X148588774Y-89023063D01*
X148419256Y-88909795D01*
X148230898Y-88831774D01*
X148030939Y-88792000D01*
X147968802Y-88792000D01*
X129514010Y-70337209D01*
X129514010Y-65439332D01*
X129517686Y-65402009D01*
X129514010Y-65364686D01*
X129514010Y-65364677D01*
X129503013Y-65253024D01*
X129459556Y-65109763D01*
X129388985Y-64977735D01*
X129388984Y-64977733D01*
X129317809Y-64891007D01*
X129294011Y-64862009D01*
X129265014Y-64838212D01*
X125866887Y-61440085D01*
X125977061Y-61462000D01*
X126180939Y-61462000D01*
X126380898Y-61422226D01*
X126569256Y-61344205D01*
X126738774Y-61230937D01*
X126782711Y-61187000D01*
X132298514Y-61187000D01*
X133324516Y-62213003D01*
X133348314Y-62242001D01*
X133464039Y-62336974D01*
X133596068Y-62407546D01*
X133739276Y-62450987D01*
X133794226Y-62505937D01*
X133963744Y-62619205D01*
X134152102Y-62697226D01*
X134352061Y-62737000D01*
X134555939Y-62737000D01*
X134755898Y-62697226D01*
X134944256Y-62619205D01*
X135113774Y-62505937D01*
X135257937Y-62361774D01*
X135371205Y-62192256D01*
X135449226Y-62003898D01*
X135489000Y-61803939D01*
X135489000Y-61600061D01*
X135449226Y-61400102D01*
X135371205Y-61211744D01*
X135257937Y-61042226D01*
X135113774Y-60898063D01*
X134944256Y-60784795D01*
X134755898Y-60706774D01*
X134555939Y-60667000D01*
X134352061Y-60667000D01*
X134152102Y-60706774D01*
X134021845Y-60760729D01*
X133700753Y-60439637D01*
X133713774Y-60430937D01*
X133857937Y-60286774D01*
X133971205Y-60117256D01*
X134049226Y-59928898D01*
X134089000Y-59728939D01*
X134089000Y-59525061D01*
X134049226Y-59325102D01*
X133971205Y-59136744D01*
X133857937Y-58967226D01*
X133713774Y-58823063D01*
X133544256Y-58709795D01*
X133355898Y-58631774D01*
X133155939Y-58592000D01*
X133093802Y-58592000D01*
X132383350Y-57881548D01*
X132555898Y-57847226D01*
X132744256Y-57769205D01*
X132913774Y-57655937D01*
X132968724Y-57600987D01*
X133111932Y-57557546D01*
X133243961Y-57486974D01*
X133359686Y-57392001D01*
X133383489Y-57362997D01*
X137940004Y-52806483D01*
X137969001Y-52782686D01*
X138063974Y-52666961D01*
X138134546Y-52534932D01*
X138178003Y-52391671D01*
X138189000Y-52280018D01*
X138189000Y-52280010D01*
X138192676Y-52242685D01*
X138189000Y-52205360D01*
X138189000Y-44153775D01*
X154780830Y-44153775D01*
X155020976Y-44541018D01*
X155514877Y-44801641D01*
X156050133Y-44960901D01*
X156606174Y-45012678D01*
X157161632Y-44954981D01*
X157695161Y-44790028D01*
X158161024Y-44541018D01*
X158401170Y-44153775D01*
X156591000Y-42343605D01*
X154780830Y-44153775D01*
X138189000Y-44153775D01*
X138189000Y-43404595D01*
X138258014Y-43367706D01*
X138484134Y-43182134D01*
X138669706Y-42956014D01*
X138679000Y-42938626D01*
X138688294Y-42956014D01*
X138873866Y-43182134D01*
X139099987Y-43367706D01*
X139357967Y-43505599D01*
X139637890Y-43590513D01*
X139929000Y-43619185D01*
X140220111Y-43590513D01*
X140500034Y-43505599D01*
X140758014Y-43367706D01*
X140984134Y-43182134D01*
X141169706Y-42956014D01*
X141179000Y-42938626D01*
X141188294Y-42956014D01*
X141373866Y-43182134D01*
X141599987Y-43367706D01*
X141857967Y-43505599D01*
X142137890Y-43590513D01*
X142429000Y-43619185D01*
X142720111Y-43590513D01*
X143000034Y-43505599D01*
X143258014Y-43367706D01*
X143484134Y-43182134D01*
X143669706Y-42956014D01*
X143679000Y-42938626D01*
X143688294Y-42956014D01*
X143873866Y-43182134D01*
X144099987Y-43367706D01*
X144357967Y-43505599D01*
X144637890Y-43590513D01*
X144929000Y-43619185D01*
X145220111Y-43590513D01*
X145500034Y-43505599D01*
X145758014Y-43367706D01*
X145984134Y-43182134D01*
X146169706Y-42956014D01*
X146183462Y-42930278D01*
X146339951Y-43136429D01*
X146557807Y-43329496D01*
X146809142Y-43476352D01*
X147072110Y-43568476D01*
X147302000Y-43447155D01*
X147302000Y-42129000D01*
X147282000Y-42129000D01*
X147282000Y-41875000D01*
X147302000Y-41875000D01*
X147302000Y-40556845D01*
X147556000Y-40556845D01*
X147556000Y-41875000D01*
X147576000Y-41875000D01*
X147576000Y-42129000D01*
X147556000Y-42129000D01*
X147556000Y-43447155D01*
X147785890Y-43568476D01*
X148048858Y-43476352D01*
X148300193Y-43329496D01*
X148518049Y-43136429D01*
X148674538Y-42930278D01*
X148688294Y-42956014D01*
X148873866Y-43182134D01*
X149099987Y-43367706D01*
X149357967Y-43505599D01*
X149637890Y-43590513D01*
X149929000Y-43619185D01*
X150220111Y-43590513D01*
X150500034Y-43505599D01*
X150758014Y-43367706D01*
X150984134Y-43182134D01*
X151169706Y-42956014D01*
X151307599Y-42698033D01*
X151392513Y-42418110D01*
X151414000Y-42199949D01*
X151414000Y-42179174D01*
X153742322Y-42179174D01*
X153800019Y-42734632D01*
X153964972Y-43268161D01*
X154213982Y-43734024D01*
X154601225Y-43974170D01*
X156411395Y-42164000D01*
X156770605Y-42164000D01*
X158580775Y-43974170D01*
X158968018Y-43734024D01*
X159228641Y-43240123D01*
X159387901Y-42704867D01*
X159439678Y-42148826D01*
X159381981Y-41593368D01*
X159217028Y-41059839D01*
X158968018Y-40593976D01*
X158580775Y-40353830D01*
X156770605Y-42164000D01*
X156411395Y-42164000D01*
X154601225Y-40353830D01*
X154213982Y-40593976D01*
X153953359Y-41087877D01*
X153794099Y-41623133D01*
X153742322Y-42179174D01*
X151414000Y-42179174D01*
X151414000Y-41804050D01*
X151392513Y-41585889D01*
X151307599Y-41305966D01*
X151169706Y-41047986D01*
X150984134Y-40821866D01*
X150758013Y-40636294D01*
X150500033Y-40498401D01*
X150220110Y-40413487D01*
X149929000Y-40384815D01*
X149637889Y-40413487D01*
X149357966Y-40498401D01*
X149099986Y-40636294D01*
X148873866Y-40821866D01*
X148688294Y-41047987D01*
X148674538Y-41073722D01*
X148518049Y-40867571D01*
X148300193Y-40674504D01*
X148048858Y-40527648D01*
X147785890Y-40435524D01*
X147556000Y-40556845D01*
X147302000Y-40556845D01*
X147072110Y-40435524D01*
X146809142Y-40527648D01*
X146557807Y-40674504D01*
X146339951Y-40867571D01*
X146183462Y-41073722D01*
X146169706Y-41047986D01*
X145984134Y-40821866D01*
X145758013Y-40636294D01*
X145665518Y-40586854D01*
X145634546Y-40484753D01*
X145563974Y-40352724D01*
X145524254Y-40304325D01*
X145492799Y-40265996D01*
X145492795Y-40265992D01*
X145469001Y-40236999D01*
X145440008Y-40213205D01*
X145401028Y-40174225D01*
X154780830Y-40174225D01*
X156591000Y-41984395D01*
X158401170Y-40174225D01*
X158161024Y-39786982D01*
X157667123Y-39526359D01*
X157131867Y-39367099D01*
X156575826Y-39315322D01*
X156020368Y-39373019D01*
X155486839Y-39537972D01*
X155020976Y-39786982D01*
X154780830Y-40174225D01*
X145401028Y-40174225D01*
X144085803Y-38859002D01*
X144062001Y-38829999D01*
X143946276Y-38735026D01*
X143814247Y-38664454D01*
X143670986Y-38620997D01*
X143559333Y-38610000D01*
X143559322Y-38610000D01*
X143522000Y-38606324D01*
X143484678Y-38610000D01*
X134434711Y-38610000D01*
X134390774Y-38566063D01*
X134221256Y-38452795D01*
X134032898Y-38374774D01*
X133832939Y-38335000D01*
X133629061Y-38335000D01*
X133429102Y-38374774D01*
X133240744Y-38452795D01*
X133071226Y-38566063D01*
X132927063Y-38710226D01*
X132813795Y-38879744D01*
X132735774Y-39068102D01*
X132696000Y-39268061D01*
X132696000Y-39471939D01*
X132735774Y-39671898D01*
X132813795Y-39860256D01*
X132927063Y-40029774D01*
X133071226Y-40173937D01*
X133240744Y-40287205D01*
X133429102Y-40365226D01*
X133629061Y-40405000D01*
X133832939Y-40405000D01*
X134032898Y-40365226D01*
X134221256Y-40287205D01*
X134390774Y-40173937D01*
X134434711Y-40130000D01*
X143207199Y-40130000D01*
X143887706Y-40810508D01*
X143873866Y-40821866D01*
X143688294Y-41047987D01*
X143679000Y-41065374D01*
X143669706Y-41047986D01*
X143484134Y-40821866D01*
X143258013Y-40636294D01*
X143000033Y-40498401D01*
X142720110Y-40413487D01*
X142429000Y-40384815D01*
X142137889Y-40413487D01*
X141857966Y-40498401D01*
X141599986Y-40636294D01*
X141373866Y-40821866D01*
X141188294Y-41047987D01*
X141179000Y-41065374D01*
X141169706Y-41047986D01*
X140984134Y-40821866D01*
X140758013Y-40636294D01*
X140500033Y-40498401D01*
X140220110Y-40413487D01*
X139929000Y-40384815D01*
X139637889Y-40413487D01*
X139357966Y-40498401D01*
X139099986Y-40636294D01*
X138873866Y-40821866D01*
X138688294Y-41047987D01*
X138679000Y-41065374D01*
X138669706Y-41047986D01*
X138484134Y-40821866D01*
X138258013Y-40636294D01*
X138000033Y-40498401D01*
X137720110Y-40413487D01*
X137429000Y-40384815D01*
X137137889Y-40413487D01*
X136857966Y-40498401D01*
X136599986Y-40636294D01*
X136373866Y-40821866D01*
X136188294Y-41047987D01*
X136179000Y-41065374D01*
X136169706Y-41047986D01*
X135984134Y-40821866D01*
X135758013Y-40636294D01*
X135500033Y-40498401D01*
X135220110Y-40413487D01*
X134929000Y-40384815D01*
X134637889Y-40413487D01*
X134357966Y-40498401D01*
X134099986Y-40636294D01*
X133873866Y-40821866D01*
X133688294Y-41047987D01*
X133679000Y-41065374D01*
X133669706Y-41047986D01*
X133484134Y-40821866D01*
X133258013Y-40636294D01*
X133000033Y-40498401D01*
X132720110Y-40413487D01*
X132429000Y-40384815D01*
X132137889Y-40413487D01*
X131857966Y-40498401D01*
X131599986Y-40636294D01*
X131373866Y-40821866D01*
X131188294Y-41047987D01*
X131179000Y-41065374D01*
X131169706Y-41047986D01*
X130984134Y-40821866D01*
X130758013Y-40636294D01*
X130500033Y-40498401D01*
X130220110Y-40413487D01*
X129929000Y-40384815D01*
X129637889Y-40413487D01*
X129357966Y-40498401D01*
X129099986Y-40636294D01*
X128873866Y-40821866D01*
X128688294Y-41047987D01*
X128679000Y-41065374D01*
X128669706Y-41047986D01*
X128484134Y-40821866D01*
X128258013Y-40636294D01*
X128000033Y-40498401D01*
X127720110Y-40413487D01*
X127429000Y-40384815D01*
X127137889Y-40413487D01*
X126857966Y-40498401D01*
X126599986Y-40636294D01*
X126373866Y-40821866D01*
X126188294Y-41047987D01*
X126179000Y-41065374D01*
X126169706Y-41047986D01*
X125984134Y-40821866D01*
X125758013Y-40636294D01*
X125500033Y-40498401D01*
X125220110Y-40413487D01*
X124929000Y-40384815D01*
X124637889Y-40413487D01*
X124357966Y-40498401D01*
X124099986Y-40636294D01*
X123879055Y-40817608D01*
X123868502Y-40782820D01*
X123809537Y-40672506D01*
X123730185Y-40575815D01*
X123633494Y-40496463D01*
X123523180Y-40437498D01*
X123403482Y-40401188D01*
X123279000Y-40388928D01*
X122714750Y-40392000D01*
X122556000Y-40550750D01*
X122556000Y-41875000D01*
X122576000Y-41875000D01*
X122576000Y-42129000D01*
X122556000Y-42129000D01*
X122556000Y-43453250D01*
X122714750Y-43612000D01*
X123279000Y-43615072D01*
X123403482Y-43602812D01*
X123523180Y-43566502D01*
X123633494Y-43507537D01*
X123730185Y-43428185D01*
X123809537Y-43331494D01*
X123868502Y-43221180D01*
X123879055Y-43186392D01*
X124099987Y-43367706D01*
X124169000Y-43404594D01*
X124169001Y-51464668D01*
X124165324Y-51502000D01*
X124169001Y-51539333D01*
X124179998Y-51650986D01*
X124187587Y-51676003D01*
X124223454Y-51794246D01*
X124294026Y-51926276D01*
X124315137Y-51951999D01*
X124389000Y-52042001D01*
X124417998Y-52065799D01*
X132019000Y-59666802D01*
X132019000Y-59667000D01*
X126782711Y-59667000D01*
X126738774Y-59623063D01*
X126569256Y-59509795D01*
X126380898Y-59431774D01*
X126180939Y-59392000D01*
X125977061Y-59392000D01*
X125777102Y-59431774D01*
X125588744Y-59509795D01*
X125419226Y-59623063D01*
X125275063Y-59767226D01*
X125161795Y-59936744D01*
X125083774Y-60125102D01*
X125044000Y-60325061D01*
X125044000Y-60528939D01*
X125065915Y-60639113D01*
X113939000Y-49512199D01*
X113939000Y-49450061D01*
X113899226Y-49250102D01*
X113821205Y-49061744D01*
X113707937Y-48892226D01*
X113563774Y-48748063D01*
X113394256Y-48634795D01*
X113205898Y-48556774D01*
X113005939Y-48517000D01*
X112802061Y-48517000D01*
X112602102Y-48556774D01*
X112413744Y-48634795D01*
X112244226Y-48748063D01*
X112100063Y-48892226D01*
X111986795Y-49061744D01*
X111908774Y-49250102D01*
X111869000Y-49450061D01*
X111869000Y-49653939D01*
X111908774Y-49853898D01*
X111986795Y-50042256D01*
X112100063Y-50211774D01*
X112244226Y-50355937D01*
X112413744Y-50469205D01*
X112602102Y-50547226D01*
X112802061Y-50587000D01*
X112864199Y-50587000D01*
X127994010Y-65716812D01*
X127994011Y-70205799D01*
X119914000Y-62125789D01*
X119914000Y-60505711D01*
X119957937Y-60461774D01*
X120071205Y-60292256D01*
X120149226Y-60103898D01*
X120189000Y-59903939D01*
X120189000Y-59700061D01*
X120149226Y-59500102D01*
X120071205Y-59311744D01*
X119957937Y-59142226D01*
X119813774Y-58998063D01*
X119644256Y-58884795D01*
X119455898Y-58806774D01*
X119255939Y-58767000D01*
X119052061Y-58767000D01*
X118852102Y-58806774D01*
X118663744Y-58884795D01*
X118494226Y-58998063D01*
X118350063Y-59142226D01*
X118236795Y-59311744D01*
X118158774Y-59500102D01*
X118119000Y-59700061D01*
X118119000Y-59903939D01*
X118158774Y-60103898D01*
X118236795Y-60292256D01*
X118350063Y-60461774D01*
X118394000Y-60505711D01*
X118394001Y-61242199D01*
X113442804Y-56291003D01*
X113419001Y-56261999D01*
X113303276Y-56167026D01*
X113282979Y-56156177D01*
X108964000Y-51837199D01*
X108964000Y-49530711D01*
X109007937Y-49486774D01*
X109121205Y-49317256D01*
X109199226Y-49128898D01*
X109239000Y-48928939D01*
X109239000Y-48725061D01*
X109199226Y-48525102D01*
X109121205Y-48336744D01*
X109007937Y-48167226D01*
X108863774Y-48023063D01*
X108694256Y-47909795D01*
X108505898Y-47831774D01*
X108305939Y-47792000D01*
X108102061Y-47792000D01*
X107902102Y-47831774D01*
X107713744Y-47909795D01*
X107544226Y-48023063D01*
X107400063Y-48167226D01*
X107286795Y-48336744D01*
X107208774Y-48525102D01*
X107169000Y-48725061D01*
X107169000Y-48928939D01*
X107208774Y-49128898D01*
X107286795Y-49317256D01*
X107400063Y-49486774D01*
X107444000Y-49530711D01*
X107444001Y-50864658D01*
X107444000Y-50864668D01*
X107444001Y-52114668D01*
X107440324Y-52152000D01*
X107444001Y-52189333D01*
X107450644Y-52256774D01*
X107454998Y-52300985D01*
X107498454Y-52444246D01*
X107569026Y-52576276D01*
X107640201Y-52663002D01*
X107664000Y-52692001D01*
X107692998Y-52715799D01*
X112290200Y-57313002D01*
X112313999Y-57342001D01*
X112342997Y-57365799D01*
X112353992Y-57374823D01*
X112219256Y-57284795D01*
X112030898Y-57206774D01*
X111830939Y-57167000D01*
X111627061Y-57167000D01*
X111427102Y-57206774D01*
X111238744Y-57284795D01*
X111069226Y-57398063D01*
X110925063Y-57542226D01*
X110811795Y-57711744D01*
X110733774Y-57900102D01*
X110694000Y-58100061D01*
X110694000Y-58303939D01*
X110733774Y-58503898D01*
X110811795Y-58692256D01*
X110925063Y-58861774D01*
X110969000Y-58905711D01*
X110969001Y-72637197D01*
X109139199Y-74467000D01*
X109077061Y-74467000D01*
X108877102Y-74506774D01*
X108688744Y-74584795D01*
X108519226Y-74698063D01*
X108375063Y-74842226D01*
X108261795Y-75011744D01*
X108183774Y-75200102D01*
X108144000Y-75400061D01*
X108144000Y-75603939D01*
X108177834Y-75774034D01*
X106586755Y-74182956D01*
X106657937Y-74111774D01*
X106771205Y-73942256D01*
X106849226Y-73753898D01*
X106889000Y-73553939D01*
X106889000Y-73350061D01*
X106849226Y-73150102D01*
X106771205Y-72961744D01*
X106657937Y-72792226D01*
X106614000Y-72748289D01*
X106614000Y-48805711D01*
X106657937Y-48761774D01*
X106771205Y-48592256D01*
X106849226Y-48403898D01*
X106889000Y-48203939D01*
X106889000Y-48000061D01*
X106849226Y-47800102D01*
X106771205Y-47611744D01*
X106657937Y-47442226D01*
X106513774Y-47298063D01*
X106344256Y-47184795D01*
X106155898Y-47106774D01*
X105955939Y-47067000D01*
X105752061Y-47067000D01*
X105552102Y-47106774D01*
X105546853Y-47108948D01*
X108865003Y-43790799D01*
X108894001Y-43767001D01*
X108932749Y-43719787D01*
X108988974Y-43651277D01*
X109059546Y-43519247D01*
X109063686Y-43505599D01*
X109090517Y-43417146D01*
X109183014Y-43367706D01*
X109409134Y-43182134D01*
X109594706Y-42956014D01*
X109604000Y-42938626D01*
X109613294Y-42956014D01*
X109798866Y-43182134D01*
X110024987Y-43367706D01*
X110094000Y-43404594D01*
X110094001Y-50373288D01*
X110050063Y-50417226D01*
X109936795Y-50586744D01*
X109858774Y-50775102D01*
X109819000Y-50975061D01*
X109819000Y-51178939D01*
X109858774Y-51378898D01*
X109936795Y-51567256D01*
X110050063Y-51736774D01*
X110194226Y-51880937D01*
X110363744Y-51994205D01*
X110552102Y-52072226D01*
X110752061Y-52112000D01*
X110955939Y-52112000D01*
X111155898Y-52072226D01*
X111344256Y-51994205D01*
X111513774Y-51880937D01*
X111657937Y-51736774D01*
X111771205Y-51567256D01*
X111849226Y-51378898D01*
X111889000Y-51178939D01*
X111889000Y-50975061D01*
X111849226Y-50775102D01*
X111771205Y-50586744D01*
X111657937Y-50417226D01*
X111614000Y-50373289D01*
X111614000Y-43404595D01*
X111683014Y-43367706D01*
X111909134Y-43182134D01*
X112094706Y-42956014D01*
X112108462Y-42930278D01*
X112264951Y-43136429D01*
X112482807Y-43329496D01*
X112734142Y-43476352D01*
X112997110Y-43568476D01*
X113227000Y-43447155D01*
X113227000Y-42129000D01*
X113207000Y-42129000D01*
X113207000Y-41875000D01*
X113227000Y-41875000D01*
X113227000Y-40556845D01*
X113481000Y-40556845D01*
X113481000Y-41875000D01*
X113501000Y-41875000D01*
X113501000Y-42129000D01*
X113481000Y-42129000D01*
X113481000Y-43447155D01*
X113710890Y-43568476D01*
X113973858Y-43476352D01*
X114225193Y-43329496D01*
X114443049Y-43136429D01*
X114599538Y-42930278D01*
X114613294Y-42956014D01*
X114798866Y-43182134D01*
X115024987Y-43367706D01*
X115282967Y-43505599D01*
X115562890Y-43590513D01*
X115854000Y-43619185D01*
X116145111Y-43590513D01*
X116425034Y-43505599D01*
X116683014Y-43367706D01*
X116909134Y-43182134D01*
X117077483Y-42977000D01*
X120940928Y-42977000D01*
X120953188Y-43101482D01*
X120989498Y-43221180D01*
X121048463Y-43331494D01*
X121127815Y-43428185D01*
X121224506Y-43507537D01*
X121334820Y-43566502D01*
X121454518Y-43602812D01*
X121579000Y-43615072D01*
X122143250Y-43612000D01*
X122302000Y-43453250D01*
X122302000Y-42129000D01*
X121102750Y-42129000D01*
X120944000Y-42287750D01*
X120940928Y-42977000D01*
X117077483Y-42977000D01*
X117094706Y-42956014D01*
X117232599Y-42698033D01*
X117317513Y-42418110D01*
X117339000Y-42199949D01*
X117339000Y-41804050D01*
X117317513Y-41585889D01*
X117232599Y-41305966D01*
X117094706Y-41047986D01*
X117077484Y-41027000D01*
X120940928Y-41027000D01*
X120944000Y-41716250D01*
X121102750Y-41875000D01*
X122302000Y-41875000D01*
X122302000Y-40550750D01*
X122143250Y-40392000D01*
X121579000Y-40388928D01*
X121454518Y-40401188D01*
X121334820Y-40437498D01*
X121224506Y-40496463D01*
X121127815Y-40575815D01*
X121048463Y-40672506D01*
X120989498Y-40782820D01*
X120953188Y-40902518D01*
X120940928Y-41027000D01*
X117077484Y-41027000D01*
X116909134Y-40821866D01*
X116683013Y-40636294D01*
X116425033Y-40498401D01*
X116145110Y-40413487D01*
X115854000Y-40384815D01*
X115562889Y-40413487D01*
X115282966Y-40498401D01*
X115024986Y-40636294D01*
X114798866Y-40821866D01*
X114613294Y-41047987D01*
X114599538Y-41073722D01*
X114443049Y-40867571D01*
X114225193Y-40674504D01*
X113973858Y-40527648D01*
X113710890Y-40435524D01*
X113481000Y-40556845D01*
X113227000Y-40556845D01*
X112997110Y-40435524D01*
X112734142Y-40527648D01*
X112482807Y-40674504D01*
X112264951Y-40867571D01*
X112108462Y-41073722D01*
X112094706Y-41047986D01*
X111909134Y-40821866D01*
X111683013Y-40636294D01*
X111425033Y-40498401D01*
X111145110Y-40413487D01*
X110854000Y-40384815D01*
X110562889Y-40413487D01*
X110282966Y-40498401D01*
X110024986Y-40636294D01*
X109798866Y-40821866D01*
X109613294Y-41047987D01*
X109604000Y-41065374D01*
X109594706Y-41047986D01*
X109409134Y-40821866D01*
X109183013Y-40636294D01*
X108925033Y-40498401D01*
X108645110Y-40413487D01*
X108354000Y-40384815D01*
X108062889Y-40413487D01*
X107782966Y-40498401D01*
X107524986Y-40636294D01*
X107298866Y-40821866D01*
X107113294Y-41047987D01*
X107104000Y-41065374D01*
X107094706Y-41047986D01*
X106909134Y-40821866D01*
X106683013Y-40636294D01*
X106425033Y-40498401D01*
X106145110Y-40413487D01*
X105854000Y-40384815D01*
X105562889Y-40413487D01*
X105282966Y-40498401D01*
X105024986Y-40636294D01*
X104798866Y-40821866D01*
X104613294Y-41047987D01*
X104604000Y-41065374D01*
X104594706Y-41047986D01*
X104409134Y-40821866D01*
X104183013Y-40636294D01*
X103925033Y-40498401D01*
X103645110Y-40413487D01*
X103354000Y-40384815D01*
X103062889Y-40413487D01*
X102782966Y-40498401D01*
X102524986Y-40636294D01*
X102298866Y-40821866D01*
X102113294Y-41047987D01*
X102104000Y-41065374D01*
X102094706Y-41047986D01*
X101909134Y-40821866D01*
X101683013Y-40636294D01*
X101425033Y-40498401D01*
X101145110Y-40413487D01*
X100854000Y-40384815D01*
X100562889Y-40413487D01*
X100282966Y-40498401D01*
X100024986Y-40636294D01*
X99798866Y-40821866D01*
X99613294Y-41047987D01*
X99604000Y-41065374D01*
X99594706Y-41047986D01*
X99409134Y-40821866D01*
X99183013Y-40636294D01*
X98925033Y-40498401D01*
X98645110Y-40413487D01*
X98354000Y-40384815D01*
X98062889Y-40413487D01*
X97782966Y-40498401D01*
X97524986Y-40636294D01*
X97298866Y-40821866D01*
X97113294Y-41047987D01*
X97104000Y-41065374D01*
X97094706Y-41047986D01*
X96909134Y-40821866D01*
X96683013Y-40636294D01*
X96425033Y-40498401D01*
X96145110Y-40413487D01*
X95854000Y-40384815D01*
X95562889Y-40413487D01*
X95282966Y-40498401D01*
X95024986Y-40636294D01*
X94798866Y-40821866D01*
X94613294Y-41047987D01*
X94604000Y-41065374D01*
X94594706Y-41047986D01*
X94409134Y-40821866D01*
X94183013Y-40636294D01*
X93925033Y-40498401D01*
X93645110Y-40413487D01*
X93354000Y-40384815D01*
X93062889Y-40413487D01*
X92782966Y-40498401D01*
X92524986Y-40636294D01*
X92298866Y-40821866D01*
X92113294Y-41047987D01*
X92104000Y-41065374D01*
X92094706Y-41047986D01*
X91909134Y-40821866D01*
X91683013Y-40636294D01*
X91425033Y-40498401D01*
X91145110Y-40413487D01*
X90854000Y-40384815D01*
X90562889Y-40413487D01*
X90282966Y-40498401D01*
X90024986Y-40636294D01*
X89804055Y-40817608D01*
X89793502Y-40782820D01*
X89734537Y-40672506D01*
X89655185Y-40575815D01*
X89558494Y-40496463D01*
X89448180Y-40437498D01*
X89328482Y-40401188D01*
X89204000Y-40388928D01*
X88639750Y-40392000D01*
X88481000Y-40550750D01*
X88227000Y-40550750D01*
X88068250Y-40392000D01*
X87504000Y-40388928D01*
X87379518Y-40401188D01*
X87259820Y-40437498D01*
X87149506Y-40496463D01*
X87052815Y-40575815D01*
X86973463Y-40672506D01*
X86914498Y-40782820D01*
X86878188Y-40902518D01*
X86865928Y-41027000D01*
X84345573Y-41027000D01*
X84268069Y-40800973D01*
X84168579Y-40614839D01*
X83899066Y-40513039D01*
X82907605Y-41504500D01*
X82548395Y-41504500D01*
X81556934Y-40513039D01*
X81287421Y-40614839D01*
X81141537Y-40912977D01*
X81056620Y-41233846D01*
X81035934Y-41565117D01*
X79766186Y-41565117D01*
X79659846Y-41248667D01*
X79540836Y-41026014D01*
X79255980Y-40906126D01*
X78157605Y-42004500D01*
X77798395Y-42004500D01*
X76700020Y-40906126D01*
X76415164Y-41026014D01*
X76254301Y-41349710D01*
X76159678Y-41698569D01*
X76134933Y-42059184D01*
X74824212Y-42059184D01*
X74899380Y-41775154D01*
X74920066Y-41443883D01*
X74875728Y-41114943D01*
X74768069Y-40800973D01*
X74668579Y-40614839D01*
X74399066Y-40513039D01*
X73407605Y-41504500D01*
X73048395Y-41504500D01*
X72056934Y-40513039D01*
X71787421Y-40614839D01*
X71641537Y-40912977D01*
X71556620Y-41233846D01*
X71535934Y-41565117D01*
X70505431Y-41565117D01*
X70481981Y-41339368D01*
X70317028Y-40805839D01*
X70068018Y-40339976D01*
X70057469Y-40333434D01*
X72236539Y-40333434D01*
X73228000Y-41324895D01*
X74219461Y-40333434D01*
X74119242Y-40068105D01*
X76844000Y-40068105D01*
X76969914Y-40358077D01*
X77066076Y-40406086D01*
X76999514Y-40441664D01*
X76879626Y-40726520D01*
X77978000Y-41824895D01*
X79076374Y-40726520D01*
X78956486Y-40441664D01*
X78890788Y-40409015D01*
X78986086Y-40358077D01*
X78996786Y-40333434D01*
X81736539Y-40333434D01*
X82728000Y-41324895D01*
X83719461Y-40333434D01*
X83617661Y-40063921D01*
X83319523Y-39918037D01*
X82998654Y-39833120D01*
X82667383Y-39812434D01*
X82338443Y-39856772D01*
X82024473Y-39964431D01*
X81838339Y-40063921D01*
X81736539Y-40333434D01*
X78996786Y-40333434D01*
X79112000Y-40068105D01*
X77978000Y-38934105D01*
X76844000Y-40068105D01*
X74119242Y-40068105D01*
X74117661Y-40063921D01*
X73819523Y-39918037D01*
X73498654Y-39833120D01*
X73167383Y-39812434D01*
X72838443Y-39856772D01*
X72524473Y-39964431D01*
X72338339Y-40063921D01*
X72236539Y-40333434D01*
X70057469Y-40333434D01*
X69680775Y-40099830D01*
X67870605Y-41910000D01*
X67511395Y-41910000D01*
X65701225Y-40099830D01*
X65313982Y-40339976D01*
X65053359Y-40833877D01*
X64894099Y-41369133D01*
X64842322Y-41925174D01*
X62156493Y-41925174D01*
X62316759Y-41199266D01*
X62672284Y-40260875D01*
X62861497Y-39920225D01*
X65880830Y-39920225D01*
X67691000Y-41730395D01*
X69501170Y-39920225D01*
X69261024Y-39532982D01*
X68767123Y-39272359D01*
X68231867Y-39113099D01*
X67675826Y-39061322D01*
X67120368Y-39119019D01*
X66586839Y-39283972D01*
X66120976Y-39532982D01*
X65880830Y-39920225D01*
X62861497Y-39920225D01*
X63159548Y-39383632D01*
X63599462Y-38807206D01*
X76084611Y-38807206D01*
X76131275Y-39175575D01*
X76248906Y-39527762D01*
X76374423Y-39762586D01*
X76664395Y-39888500D01*
X77798395Y-38754500D01*
X78157605Y-38754500D01*
X79291605Y-39888500D01*
X79581577Y-39762586D01*
X79747433Y-39430374D01*
X79845290Y-39072188D01*
X79871389Y-38701794D01*
X79824725Y-38333425D01*
X79707094Y-37981238D01*
X79581577Y-37746414D01*
X79291605Y-37620500D01*
X78157605Y-38754500D01*
X77798395Y-38754500D01*
X76664395Y-37620500D01*
X76374423Y-37746414D01*
X76208567Y-38078626D01*
X76110710Y-38436812D01*
X76084611Y-38807206D01*
X63599462Y-38807206D01*
X63768340Y-38585924D01*
X64485914Y-37884448D01*
X65095294Y-37440895D01*
X76844000Y-37440895D01*
X77978000Y-38574895D01*
X79112000Y-37440895D01*
X78986086Y-37150923D01*
X78653874Y-36985067D01*
X78295688Y-36887210D01*
X77925294Y-36861111D01*
X77556925Y-36907775D01*
X77204738Y-37025406D01*
X76969914Y-37150923D01*
X76844000Y-37440895D01*
X65095294Y-37440895D01*
X65297233Y-37293909D01*
X66185296Y-36826676D01*
X67131518Y-36492530D01*
X68119888Y-36297724D01*
X68981923Y-36245000D01*
X153645181Y-36245000D01*
X154670848Y-36319420D01*
M02*
