G04 #@! TF.GenerationSoftware,KiCad,Pcbnew,(5.1.5)-3*
G04 #@! TF.CreationDate,2020-03-18T20:22:11+01:00*
G04 #@! TF.ProjectId,motor,6d6f746f-722e-46b6-9963-61645f706362,rev?*
G04 #@! TF.SameCoordinates,Original*
G04 #@! TF.FileFunction,Legend,Top*
G04 #@! TF.FilePolarity,Positive*
%FSLAX46Y46*%
G04 Gerber Fmt 4.6, Leading zero omitted, Abs format (unit mm)*
G04 Created by KiCad (PCBNEW (5.1.5)-3) date 2020-03-18 20:22:11*
%MOMM*%
%LPD*%
G04 APERTURE LIST*
%ADD10C,0.150000*%
%ADD11C,0.254000*%
%ADD12C,0.120000*%
%ADD13C,0.250000*%
%ADD14C,0.200000*%
%ADD15C,0.050000*%
G04 APERTURE END LIST*
D10*
X122674190Y-38885761D02*
X122817047Y-38933380D01*
X123055142Y-38933380D01*
X123150380Y-38885761D01*
X123198000Y-38838142D01*
X123245619Y-38742904D01*
X123245619Y-38647666D01*
X123198000Y-38552428D01*
X123150380Y-38504809D01*
X123055142Y-38457190D01*
X122864666Y-38409571D01*
X122769428Y-38361952D01*
X122721809Y-38314333D01*
X122674190Y-38219095D01*
X122674190Y-38123857D01*
X122721809Y-38028619D01*
X122769428Y-37981000D01*
X122864666Y-37933380D01*
X123102761Y-37933380D01*
X123245619Y-37981000D01*
X123674190Y-38933380D02*
X123674190Y-37933380D01*
X124055142Y-37933380D01*
X124150380Y-37981000D01*
X124198000Y-38028619D01*
X124245619Y-38123857D01*
X124245619Y-38266714D01*
X124198000Y-38361952D01*
X124150380Y-38409571D01*
X124055142Y-38457190D01*
X123674190Y-38457190D01*
X124674190Y-38933380D02*
X124674190Y-37933380D01*
X88892238Y-38933380D02*
X88892238Y-37933380D01*
X89273190Y-37933380D01*
X89368428Y-37981000D01*
X89416047Y-38028619D01*
X89463666Y-38123857D01*
X89463666Y-38266714D01*
X89416047Y-38361952D01*
X89368428Y-38409571D01*
X89273190Y-38457190D01*
X88892238Y-38457190D01*
X89797000Y-37933380D02*
X90035095Y-38933380D01*
X90225571Y-38219095D01*
X90416047Y-38933380D01*
X90654142Y-37933380D01*
X91035095Y-38933380D02*
X91035095Y-37933380D01*
X91368428Y-38647666D01*
X91701761Y-37933380D01*
X91701761Y-38933380D01*
D11*
X78139000Y-49880500D02*
G75*
G03X78139000Y-49880500I-101000J0D01*
G01*
X72978000Y-42843500D02*
X72978000Y-44854500D01*
X82978000Y-42843500D02*
X82978000Y-44854500D01*
X72978000Y-49004500D02*
X76878000Y-49004500D01*
X82978000Y-49004500D02*
X79078000Y-49004500D01*
X72978000Y-36004500D02*
X72978000Y-40104500D01*
X82978000Y-36004500D02*
X82978000Y-40104500D01*
X72978000Y-36004500D02*
X82978000Y-36004500D01*
D12*
X74577000Y-85344000D02*
G75*
G03X74577000Y-85344000I-4120000J0D01*
G01*
X70457000Y-81264000D02*
X70457000Y-89424000D01*
X70497000Y-81264000D02*
X70497000Y-89424000D01*
X70537000Y-81264000D02*
X70537000Y-89424000D01*
X70577000Y-81265000D02*
X70577000Y-89423000D01*
X70617000Y-81267000D02*
X70617000Y-89421000D01*
X70657000Y-81268000D02*
X70657000Y-89420000D01*
X70697000Y-81270000D02*
X70697000Y-89418000D01*
X70737000Y-81273000D02*
X70737000Y-89415000D01*
X70777000Y-81276000D02*
X70777000Y-89412000D01*
X70817000Y-81279000D02*
X70817000Y-89409000D01*
X70857000Y-81283000D02*
X70857000Y-89405000D01*
X70897000Y-81287000D02*
X70897000Y-89401000D01*
X70937000Y-81292000D02*
X70937000Y-89396000D01*
X70977000Y-81296000D02*
X70977000Y-89392000D01*
X71017000Y-81302000D02*
X71017000Y-89386000D01*
X71057000Y-81307000D02*
X71057000Y-89381000D01*
X71097000Y-81314000D02*
X71097000Y-89374000D01*
X71137000Y-81320000D02*
X71137000Y-89368000D01*
X71178000Y-81327000D02*
X71178000Y-84304000D01*
X71178000Y-86384000D02*
X71178000Y-89361000D01*
X71218000Y-81334000D02*
X71218000Y-84304000D01*
X71218000Y-86384000D02*
X71218000Y-89354000D01*
X71258000Y-81342000D02*
X71258000Y-84304000D01*
X71258000Y-86384000D02*
X71258000Y-89346000D01*
X71298000Y-81350000D02*
X71298000Y-84304000D01*
X71298000Y-86384000D02*
X71298000Y-89338000D01*
X71338000Y-81359000D02*
X71338000Y-84304000D01*
X71338000Y-86384000D02*
X71338000Y-89329000D01*
X71378000Y-81368000D02*
X71378000Y-84304000D01*
X71378000Y-86384000D02*
X71378000Y-89320000D01*
X71418000Y-81377000D02*
X71418000Y-84304000D01*
X71418000Y-86384000D02*
X71418000Y-89311000D01*
X71458000Y-81387000D02*
X71458000Y-84304000D01*
X71458000Y-86384000D02*
X71458000Y-89301000D01*
X71498000Y-81397000D02*
X71498000Y-84304000D01*
X71498000Y-86384000D02*
X71498000Y-89291000D01*
X71538000Y-81408000D02*
X71538000Y-84304000D01*
X71538000Y-86384000D02*
X71538000Y-89280000D01*
X71578000Y-81419000D02*
X71578000Y-84304000D01*
X71578000Y-86384000D02*
X71578000Y-89269000D01*
X71618000Y-81430000D02*
X71618000Y-84304000D01*
X71618000Y-86384000D02*
X71618000Y-89258000D01*
X71658000Y-81442000D02*
X71658000Y-84304000D01*
X71658000Y-86384000D02*
X71658000Y-89246000D01*
X71698000Y-81455000D02*
X71698000Y-84304000D01*
X71698000Y-86384000D02*
X71698000Y-89233000D01*
X71738000Y-81467000D02*
X71738000Y-84304000D01*
X71738000Y-86384000D02*
X71738000Y-89221000D01*
X71778000Y-81481000D02*
X71778000Y-84304000D01*
X71778000Y-86384000D02*
X71778000Y-89207000D01*
X71818000Y-81494000D02*
X71818000Y-84304000D01*
X71818000Y-86384000D02*
X71818000Y-89194000D01*
X71858000Y-81509000D02*
X71858000Y-84304000D01*
X71858000Y-86384000D02*
X71858000Y-89179000D01*
X71898000Y-81523000D02*
X71898000Y-84304000D01*
X71898000Y-86384000D02*
X71898000Y-89165000D01*
X71938000Y-81539000D02*
X71938000Y-84304000D01*
X71938000Y-86384000D02*
X71938000Y-89149000D01*
X71978000Y-81554000D02*
X71978000Y-84304000D01*
X71978000Y-86384000D02*
X71978000Y-89134000D01*
X72018000Y-81570000D02*
X72018000Y-84304000D01*
X72018000Y-86384000D02*
X72018000Y-89118000D01*
X72058000Y-81587000D02*
X72058000Y-84304000D01*
X72058000Y-86384000D02*
X72058000Y-89101000D01*
X72098000Y-81604000D02*
X72098000Y-84304000D01*
X72098000Y-86384000D02*
X72098000Y-89084000D01*
X72138000Y-81622000D02*
X72138000Y-84304000D01*
X72138000Y-86384000D02*
X72138000Y-89066000D01*
X72178000Y-81640000D02*
X72178000Y-84304000D01*
X72178000Y-86384000D02*
X72178000Y-89048000D01*
X72218000Y-81658000D02*
X72218000Y-84304000D01*
X72218000Y-86384000D02*
X72218000Y-89030000D01*
X72258000Y-81678000D02*
X72258000Y-84304000D01*
X72258000Y-86384000D02*
X72258000Y-89010000D01*
X72298000Y-81697000D02*
X72298000Y-84304000D01*
X72298000Y-86384000D02*
X72298000Y-88991000D01*
X72338000Y-81717000D02*
X72338000Y-84304000D01*
X72338000Y-86384000D02*
X72338000Y-88971000D01*
X72378000Y-81738000D02*
X72378000Y-84304000D01*
X72378000Y-86384000D02*
X72378000Y-88950000D01*
X72418000Y-81760000D02*
X72418000Y-84304000D01*
X72418000Y-86384000D02*
X72418000Y-88928000D01*
X72458000Y-81782000D02*
X72458000Y-84304000D01*
X72458000Y-86384000D02*
X72458000Y-88906000D01*
X72498000Y-81804000D02*
X72498000Y-84304000D01*
X72498000Y-86384000D02*
X72498000Y-88884000D01*
X72538000Y-81827000D02*
X72538000Y-84304000D01*
X72538000Y-86384000D02*
X72538000Y-88861000D01*
X72578000Y-81851000D02*
X72578000Y-84304000D01*
X72578000Y-86384000D02*
X72578000Y-88837000D01*
X72618000Y-81875000D02*
X72618000Y-84304000D01*
X72618000Y-86384000D02*
X72618000Y-88813000D01*
X72658000Y-81900000D02*
X72658000Y-84304000D01*
X72658000Y-86384000D02*
X72658000Y-88788000D01*
X72698000Y-81926000D02*
X72698000Y-84304000D01*
X72698000Y-86384000D02*
X72698000Y-88762000D01*
X72738000Y-81952000D02*
X72738000Y-84304000D01*
X72738000Y-86384000D02*
X72738000Y-88736000D01*
X72778000Y-81979000D02*
X72778000Y-84304000D01*
X72778000Y-86384000D02*
X72778000Y-88709000D01*
X72818000Y-82006000D02*
X72818000Y-84304000D01*
X72818000Y-86384000D02*
X72818000Y-88682000D01*
X72858000Y-82035000D02*
X72858000Y-84304000D01*
X72858000Y-86384000D02*
X72858000Y-88653000D01*
X72898000Y-82064000D02*
X72898000Y-84304000D01*
X72898000Y-86384000D02*
X72898000Y-88624000D01*
X72938000Y-82094000D02*
X72938000Y-84304000D01*
X72938000Y-86384000D02*
X72938000Y-88594000D01*
X72978000Y-82124000D02*
X72978000Y-84304000D01*
X72978000Y-86384000D02*
X72978000Y-88564000D01*
X73018000Y-82155000D02*
X73018000Y-84304000D01*
X73018000Y-86384000D02*
X73018000Y-88533000D01*
X73058000Y-82188000D02*
X73058000Y-84304000D01*
X73058000Y-86384000D02*
X73058000Y-88500000D01*
X73098000Y-82220000D02*
X73098000Y-84304000D01*
X73098000Y-86384000D02*
X73098000Y-88468000D01*
X73138000Y-82254000D02*
X73138000Y-84304000D01*
X73138000Y-86384000D02*
X73138000Y-88434000D01*
X73178000Y-82289000D02*
X73178000Y-84304000D01*
X73178000Y-86384000D02*
X73178000Y-88399000D01*
X73218000Y-82325000D02*
X73218000Y-84304000D01*
X73218000Y-86384000D02*
X73218000Y-88363000D01*
X73258000Y-82361000D02*
X73258000Y-88327000D01*
X73298000Y-82399000D02*
X73298000Y-88289000D01*
X73338000Y-82437000D02*
X73338000Y-88251000D01*
X73378000Y-82477000D02*
X73378000Y-88211000D01*
X73418000Y-82518000D02*
X73418000Y-88170000D01*
X73458000Y-82560000D02*
X73458000Y-88128000D01*
X73498000Y-82603000D02*
X73498000Y-88085000D01*
X73538000Y-82647000D02*
X73538000Y-88041000D01*
X73578000Y-82693000D02*
X73578000Y-87995000D01*
X73618000Y-82740000D02*
X73618000Y-87948000D01*
X73658000Y-82788000D02*
X73658000Y-87900000D01*
X73698000Y-82839000D02*
X73698000Y-87849000D01*
X73738000Y-82890000D02*
X73738000Y-87798000D01*
X73778000Y-82944000D02*
X73778000Y-87744000D01*
X73818000Y-82999000D02*
X73818000Y-87689000D01*
X73858000Y-83057000D02*
X73858000Y-87631000D01*
X73898000Y-83116000D02*
X73898000Y-87572000D01*
X73938000Y-83178000D02*
X73938000Y-87510000D01*
X73978000Y-83242000D02*
X73978000Y-87446000D01*
X74018000Y-83310000D02*
X74018000Y-87378000D01*
X74058000Y-83380000D02*
X74058000Y-87308000D01*
X74098000Y-83454000D02*
X74098000Y-87234000D01*
X74138000Y-83531000D02*
X74138000Y-87157000D01*
X74178000Y-83613000D02*
X74178000Y-87075000D01*
X74218000Y-83699000D02*
X74218000Y-86989000D01*
X74258000Y-83792000D02*
X74258000Y-86896000D01*
X74298000Y-83891000D02*
X74298000Y-86797000D01*
X74338000Y-83998000D02*
X74338000Y-86690000D01*
X74378000Y-84115000D02*
X74378000Y-86573000D01*
X74418000Y-84246000D02*
X74418000Y-86442000D01*
X74458000Y-84396000D02*
X74458000Y-86292000D01*
X74498000Y-84576000D02*
X74498000Y-86112000D01*
X74538000Y-84811000D02*
X74538000Y-85877000D01*
X66047302Y-83029000D02*
X66847302Y-83029000D01*
X66447302Y-82629000D02*
X66447302Y-83429000D01*
X85523000Y-103252748D02*
X85523000Y-103775252D01*
X86943000Y-103252748D02*
X86943000Y-103775252D01*
X106351000Y-103252748D02*
X106351000Y-103775252D01*
X107771000Y-103252748D02*
X107771000Y-103775252D01*
X127179000Y-103243748D02*
X127179000Y-103766252D01*
X128599000Y-103243748D02*
X128599000Y-103766252D01*
X149173000Y-103624748D02*
X149173000Y-104147252D01*
X147753000Y-103624748D02*
X147753000Y-104147252D01*
X72719000Y-97401748D02*
X72719000Y-97924252D01*
X71299000Y-97401748D02*
X71299000Y-97924252D01*
X75894000Y-103243748D02*
X75894000Y-103766252D01*
X74474000Y-103243748D02*
X74474000Y-103766252D01*
X96722000Y-103243748D02*
X96722000Y-103766252D01*
X95302000Y-103243748D02*
X95302000Y-103766252D01*
X117550000Y-103243748D02*
X117550000Y-103766252D01*
X116130000Y-103243748D02*
X116130000Y-103766252D01*
X138124000Y-103624748D02*
X138124000Y-104147252D01*
X136704000Y-103624748D02*
X136704000Y-104147252D01*
X87529302Y-106505000D02*
X87529302Y-107305000D01*
X87129302Y-106905000D02*
X87929302Y-106905000D01*
X95620000Y-108687000D02*
X95620000Y-109753000D01*
X95580000Y-108452000D02*
X95580000Y-109988000D01*
X95540000Y-108272000D02*
X95540000Y-110168000D01*
X95500000Y-108122000D02*
X95500000Y-110318000D01*
X95460000Y-107991000D02*
X95460000Y-110449000D01*
X95420000Y-107874000D02*
X95420000Y-110566000D01*
X95380000Y-107767000D02*
X95380000Y-110673000D01*
X95340000Y-107668000D02*
X95340000Y-110772000D01*
X95300000Y-107575000D02*
X95300000Y-110865000D01*
X95260000Y-107489000D02*
X95260000Y-110951000D01*
X95220000Y-107407000D02*
X95220000Y-111033000D01*
X95180000Y-107330000D02*
X95180000Y-111110000D01*
X95140000Y-107256000D02*
X95140000Y-111184000D01*
X95100000Y-107186000D02*
X95100000Y-111254000D01*
X95060000Y-107118000D02*
X95060000Y-111322000D01*
X95020000Y-107054000D02*
X95020000Y-111386000D01*
X94980000Y-106992000D02*
X94980000Y-111448000D01*
X94940000Y-106933000D02*
X94940000Y-111507000D01*
X94900000Y-106875000D02*
X94900000Y-111565000D01*
X94860000Y-106820000D02*
X94860000Y-111620000D01*
X94820000Y-106766000D02*
X94820000Y-111674000D01*
X94780000Y-106715000D02*
X94780000Y-111725000D01*
X94740000Y-106664000D02*
X94740000Y-111776000D01*
X94700000Y-106616000D02*
X94700000Y-111824000D01*
X94660000Y-106569000D02*
X94660000Y-111871000D01*
X94620000Y-106523000D02*
X94620000Y-111917000D01*
X94580000Y-106479000D02*
X94580000Y-111961000D01*
X94540000Y-106436000D02*
X94540000Y-112004000D01*
X94500000Y-106394000D02*
X94500000Y-112046000D01*
X94460000Y-106353000D02*
X94460000Y-112087000D01*
X94420000Y-106313000D02*
X94420000Y-112127000D01*
X94380000Y-106275000D02*
X94380000Y-112165000D01*
X94340000Y-106237000D02*
X94340000Y-112203000D01*
X94300000Y-110260000D02*
X94300000Y-112239000D01*
X94300000Y-106201000D02*
X94300000Y-108180000D01*
X94260000Y-110260000D02*
X94260000Y-112275000D01*
X94260000Y-106165000D02*
X94260000Y-108180000D01*
X94220000Y-110260000D02*
X94220000Y-112310000D01*
X94220000Y-106130000D02*
X94220000Y-108180000D01*
X94180000Y-110260000D02*
X94180000Y-112344000D01*
X94180000Y-106096000D02*
X94180000Y-108180000D01*
X94140000Y-110260000D02*
X94140000Y-112376000D01*
X94140000Y-106064000D02*
X94140000Y-108180000D01*
X94100000Y-110260000D02*
X94100000Y-112409000D01*
X94100000Y-106031000D02*
X94100000Y-108180000D01*
X94060000Y-110260000D02*
X94060000Y-112440000D01*
X94060000Y-106000000D02*
X94060000Y-108180000D01*
X94020000Y-110260000D02*
X94020000Y-112470000D01*
X94020000Y-105970000D02*
X94020000Y-108180000D01*
X93980000Y-110260000D02*
X93980000Y-112500000D01*
X93980000Y-105940000D02*
X93980000Y-108180000D01*
X93940000Y-110260000D02*
X93940000Y-112529000D01*
X93940000Y-105911000D02*
X93940000Y-108180000D01*
X93900000Y-110260000D02*
X93900000Y-112558000D01*
X93900000Y-105882000D02*
X93900000Y-108180000D01*
X93860000Y-110260000D02*
X93860000Y-112585000D01*
X93860000Y-105855000D02*
X93860000Y-108180000D01*
X93820000Y-110260000D02*
X93820000Y-112612000D01*
X93820000Y-105828000D02*
X93820000Y-108180000D01*
X93780000Y-110260000D02*
X93780000Y-112638000D01*
X93780000Y-105802000D02*
X93780000Y-108180000D01*
X93740000Y-110260000D02*
X93740000Y-112664000D01*
X93740000Y-105776000D02*
X93740000Y-108180000D01*
X93700000Y-110260000D02*
X93700000Y-112689000D01*
X93700000Y-105751000D02*
X93700000Y-108180000D01*
X93660000Y-110260000D02*
X93660000Y-112713000D01*
X93660000Y-105727000D02*
X93660000Y-108180000D01*
X93620000Y-110260000D02*
X93620000Y-112737000D01*
X93620000Y-105703000D02*
X93620000Y-108180000D01*
X93580000Y-110260000D02*
X93580000Y-112760000D01*
X93580000Y-105680000D02*
X93580000Y-108180000D01*
X93540000Y-110260000D02*
X93540000Y-112782000D01*
X93540000Y-105658000D02*
X93540000Y-108180000D01*
X93500000Y-110260000D02*
X93500000Y-112804000D01*
X93500000Y-105636000D02*
X93500000Y-108180000D01*
X93460000Y-110260000D02*
X93460000Y-112826000D01*
X93460000Y-105614000D02*
X93460000Y-108180000D01*
X93420000Y-110260000D02*
X93420000Y-112847000D01*
X93420000Y-105593000D02*
X93420000Y-108180000D01*
X93380000Y-110260000D02*
X93380000Y-112867000D01*
X93380000Y-105573000D02*
X93380000Y-108180000D01*
X93340000Y-110260000D02*
X93340000Y-112886000D01*
X93340000Y-105554000D02*
X93340000Y-108180000D01*
X93300000Y-110260000D02*
X93300000Y-112906000D01*
X93300000Y-105534000D02*
X93300000Y-108180000D01*
X93260000Y-110260000D02*
X93260000Y-112924000D01*
X93260000Y-105516000D02*
X93260000Y-108180000D01*
X93220000Y-110260000D02*
X93220000Y-112942000D01*
X93220000Y-105498000D02*
X93220000Y-108180000D01*
X93180000Y-110260000D02*
X93180000Y-112960000D01*
X93180000Y-105480000D02*
X93180000Y-108180000D01*
X93140000Y-110260000D02*
X93140000Y-112977000D01*
X93140000Y-105463000D02*
X93140000Y-108180000D01*
X93100000Y-110260000D02*
X93100000Y-112994000D01*
X93100000Y-105446000D02*
X93100000Y-108180000D01*
X93060000Y-110260000D02*
X93060000Y-113010000D01*
X93060000Y-105430000D02*
X93060000Y-108180000D01*
X93020000Y-110260000D02*
X93020000Y-113025000D01*
X93020000Y-105415000D02*
X93020000Y-108180000D01*
X92980000Y-110260000D02*
X92980000Y-113041000D01*
X92980000Y-105399000D02*
X92980000Y-108180000D01*
X92940000Y-110260000D02*
X92940000Y-113055000D01*
X92940000Y-105385000D02*
X92940000Y-108180000D01*
X92900000Y-110260000D02*
X92900000Y-113070000D01*
X92900000Y-105370000D02*
X92900000Y-108180000D01*
X92860000Y-110260000D02*
X92860000Y-113083000D01*
X92860000Y-105357000D02*
X92860000Y-108180000D01*
X92820000Y-110260000D02*
X92820000Y-113097000D01*
X92820000Y-105343000D02*
X92820000Y-108180000D01*
X92780000Y-110260000D02*
X92780000Y-113109000D01*
X92780000Y-105331000D02*
X92780000Y-108180000D01*
X92740000Y-110260000D02*
X92740000Y-113122000D01*
X92740000Y-105318000D02*
X92740000Y-108180000D01*
X92700000Y-110260000D02*
X92700000Y-113134000D01*
X92700000Y-105306000D02*
X92700000Y-108180000D01*
X92660000Y-110260000D02*
X92660000Y-113145000D01*
X92660000Y-105295000D02*
X92660000Y-108180000D01*
X92620000Y-110260000D02*
X92620000Y-113156000D01*
X92620000Y-105284000D02*
X92620000Y-108180000D01*
X92580000Y-110260000D02*
X92580000Y-113167000D01*
X92580000Y-105273000D02*
X92580000Y-108180000D01*
X92540000Y-110260000D02*
X92540000Y-113177000D01*
X92540000Y-105263000D02*
X92540000Y-108180000D01*
X92500000Y-110260000D02*
X92500000Y-113187000D01*
X92500000Y-105253000D02*
X92500000Y-108180000D01*
X92460000Y-110260000D02*
X92460000Y-113196000D01*
X92460000Y-105244000D02*
X92460000Y-108180000D01*
X92420000Y-110260000D02*
X92420000Y-113205000D01*
X92420000Y-105235000D02*
X92420000Y-108180000D01*
X92380000Y-110260000D02*
X92380000Y-113214000D01*
X92380000Y-105226000D02*
X92380000Y-108180000D01*
X92340000Y-110260000D02*
X92340000Y-113222000D01*
X92340000Y-105218000D02*
X92340000Y-108180000D01*
X92300000Y-110260000D02*
X92300000Y-113230000D01*
X92300000Y-105210000D02*
X92300000Y-108180000D01*
X92260000Y-110260000D02*
X92260000Y-113237000D01*
X92260000Y-105203000D02*
X92260000Y-108180000D01*
X92219000Y-105196000D02*
X92219000Y-113244000D01*
X92179000Y-105190000D02*
X92179000Y-113250000D01*
X92139000Y-105183000D02*
X92139000Y-113257000D01*
X92099000Y-105178000D02*
X92099000Y-113262000D01*
X92059000Y-105172000D02*
X92059000Y-113268000D01*
X92019000Y-105168000D02*
X92019000Y-113272000D01*
X91979000Y-105163000D02*
X91979000Y-113277000D01*
X91939000Y-105159000D02*
X91939000Y-113281000D01*
X91899000Y-105155000D02*
X91899000Y-113285000D01*
X91859000Y-105152000D02*
X91859000Y-113288000D01*
X91819000Y-105149000D02*
X91819000Y-113291000D01*
X91779000Y-105146000D02*
X91779000Y-113294000D01*
X91739000Y-105144000D02*
X91739000Y-113296000D01*
X91699000Y-105143000D02*
X91699000Y-113297000D01*
X91659000Y-105141000D02*
X91659000Y-113299000D01*
X91619000Y-105140000D02*
X91619000Y-113300000D01*
X91579000Y-105140000D02*
X91579000Y-113300000D01*
X91539000Y-105140000D02*
X91539000Y-113300000D01*
X95659000Y-109220000D02*
G75*
G03X95659000Y-109220000I-4120000J0D01*
G01*
X93547000Y-95765252D02*
X93547000Y-95242748D01*
X92127000Y-95765252D02*
X92127000Y-95242748D01*
X116233000Y-109220000D02*
G75*
G03X116233000Y-109220000I-4120000J0D01*
G01*
X112113000Y-105140000D02*
X112113000Y-113300000D01*
X112153000Y-105140000D02*
X112153000Y-113300000D01*
X112193000Y-105140000D02*
X112193000Y-113300000D01*
X112233000Y-105141000D02*
X112233000Y-113299000D01*
X112273000Y-105143000D02*
X112273000Y-113297000D01*
X112313000Y-105144000D02*
X112313000Y-113296000D01*
X112353000Y-105146000D02*
X112353000Y-113294000D01*
X112393000Y-105149000D02*
X112393000Y-113291000D01*
X112433000Y-105152000D02*
X112433000Y-113288000D01*
X112473000Y-105155000D02*
X112473000Y-113285000D01*
X112513000Y-105159000D02*
X112513000Y-113281000D01*
X112553000Y-105163000D02*
X112553000Y-113277000D01*
X112593000Y-105168000D02*
X112593000Y-113272000D01*
X112633000Y-105172000D02*
X112633000Y-113268000D01*
X112673000Y-105178000D02*
X112673000Y-113262000D01*
X112713000Y-105183000D02*
X112713000Y-113257000D01*
X112753000Y-105190000D02*
X112753000Y-113250000D01*
X112793000Y-105196000D02*
X112793000Y-113244000D01*
X112834000Y-105203000D02*
X112834000Y-108180000D01*
X112834000Y-110260000D02*
X112834000Y-113237000D01*
X112874000Y-105210000D02*
X112874000Y-108180000D01*
X112874000Y-110260000D02*
X112874000Y-113230000D01*
X112914000Y-105218000D02*
X112914000Y-108180000D01*
X112914000Y-110260000D02*
X112914000Y-113222000D01*
X112954000Y-105226000D02*
X112954000Y-108180000D01*
X112954000Y-110260000D02*
X112954000Y-113214000D01*
X112994000Y-105235000D02*
X112994000Y-108180000D01*
X112994000Y-110260000D02*
X112994000Y-113205000D01*
X113034000Y-105244000D02*
X113034000Y-108180000D01*
X113034000Y-110260000D02*
X113034000Y-113196000D01*
X113074000Y-105253000D02*
X113074000Y-108180000D01*
X113074000Y-110260000D02*
X113074000Y-113187000D01*
X113114000Y-105263000D02*
X113114000Y-108180000D01*
X113114000Y-110260000D02*
X113114000Y-113177000D01*
X113154000Y-105273000D02*
X113154000Y-108180000D01*
X113154000Y-110260000D02*
X113154000Y-113167000D01*
X113194000Y-105284000D02*
X113194000Y-108180000D01*
X113194000Y-110260000D02*
X113194000Y-113156000D01*
X113234000Y-105295000D02*
X113234000Y-108180000D01*
X113234000Y-110260000D02*
X113234000Y-113145000D01*
X113274000Y-105306000D02*
X113274000Y-108180000D01*
X113274000Y-110260000D02*
X113274000Y-113134000D01*
X113314000Y-105318000D02*
X113314000Y-108180000D01*
X113314000Y-110260000D02*
X113314000Y-113122000D01*
X113354000Y-105331000D02*
X113354000Y-108180000D01*
X113354000Y-110260000D02*
X113354000Y-113109000D01*
X113394000Y-105343000D02*
X113394000Y-108180000D01*
X113394000Y-110260000D02*
X113394000Y-113097000D01*
X113434000Y-105357000D02*
X113434000Y-108180000D01*
X113434000Y-110260000D02*
X113434000Y-113083000D01*
X113474000Y-105370000D02*
X113474000Y-108180000D01*
X113474000Y-110260000D02*
X113474000Y-113070000D01*
X113514000Y-105385000D02*
X113514000Y-108180000D01*
X113514000Y-110260000D02*
X113514000Y-113055000D01*
X113554000Y-105399000D02*
X113554000Y-108180000D01*
X113554000Y-110260000D02*
X113554000Y-113041000D01*
X113594000Y-105415000D02*
X113594000Y-108180000D01*
X113594000Y-110260000D02*
X113594000Y-113025000D01*
X113634000Y-105430000D02*
X113634000Y-108180000D01*
X113634000Y-110260000D02*
X113634000Y-113010000D01*
X113674000Y-105446000D02*
X113674000Y-108180000D01*
X113674000Y-110260000D02*
X113674000Y-112994000D01*
X113714000Y-105463000D02*
X113714000Y-108180000D01*
X113714000Y-110260000D02*
X113714000Y-112977000D01*
X113754000Y-105480000D02*
X113754000Y-108180000D01*
X113754000Y-110260000D02*
X113754000Y-112960000D01*
X113794000Y-105498000D02*
X113794000Y-108180000D01*
X113794000Y-110260000D02*
X113794000Y-112942000D01*
X113834000Y-105516000D02*
X113834000Y-108180000D01*
X113834000Y-110260000D02*
X113834000Y-112924000D01*
X113874000Y-105534000D02*
X113874000Y-108180000D01*
X113874000Y-110260000D02*
X113874000Y-112906000D01*
X113914000Y-105554000D02*
X113914000Y-108180000D01*
X113914000Y-110260000D02*
X113914000Y-112886000D01*
X113954000Y-105573000D02*
X113954000Y-108180000D01*
X113954000Y-110260000D02*
X113954000Y-112867000D01*
X113994000Y-105593000D02*
X113994000Y-108180000D01*
X113994000Y-110260000D02*
X113994000Y-112847000D01*
X114034000Y-105614000D02*
X114034000Y-108180000D01*
X114034000Y-110260000D02*
X114034000Y-112826000D01*
X114074000Y-105636000D02*
X114074000Y-108180000D01*
X114074000Y-110260000D02*
X114074000Y-112804000D01*
X114114000Y-105658000D02*
X114114000Y-108180000D01*
X114114000Y-110260000D02*
X114114000Y-112782000D01*
X114154000Y-105680000D02*
X114154000Y-108180000D01*
X114154000Y-110260000D02*
X114154000Y-112760000D01*
X114194000Y-105703000D02*
X114194000Y-108180000D01*
X114194000Y-110260000D02*
X114194000Y-112737000D01*
X114234000Y-105727000D02*
X114234000Y-108180000D01*
X114234000Y-110260000D02*
X114234000Y-112713000D01*
X114274000Y-105751000D02*
X114274000Y-108180000D01*
X114274000Y-110260000D02*
X114274000Y-112689000D01*
X114314000Y-105776000D02*
X114314000Y-108180000D01*
X114314000Y-110260000D02*
X114314000Y-112664000D01*
X114354000Y-105802000D02*
X114354000Y-108180000D01*
X114354000Y-110260000D02*
X114354000Y-112638000D01*
X114394000Y-105828000D02*
X114394000Y-108180000D01*
X114394000Y-110260000D02*
X114394000Y-112612000D01*
X114434000Y-105855000D02*
X114434000Y-108180000D01*
X114434000Y-110260000D02*
X114434000Y-112585000D01*
X114474000Y-105882000D02*
X114474000Y-108180000D01*
X114474000Y-110260000D02*
X114474000Y-112558000D01*
X114514000Y-105911000D02*
X114514000Y-108180000D01*
X114514000Y-110260000D02*
X114514000Y-112529000D01*
X114554000Y-105940000D02*
X114554000Y-108180000D01*
X114554000Y-110260000D02*
X114554000Y-112500000D01*
X114594000Y-105970000D02*
X114594000Y-108180000D01*
X114594000Y-110260000D02*
X114594000Y-112470000D01*
X114634000Y-106000000D02*
X114634000Y-108180000D01*
X114634000Y-110260000D02*
X114634000Y-112440000D01*
X114674000Y-106031000D02*
X114674000Y-108180000D01*
X114674000Y-110260000D02*
X114674000Y-112409000D01*
X114714000Y-106064000D02*
X114714000Y-108180000D01*
X114714000Y-110260000D02*
X114714000Y-112376000D01*
X114754000Y-106096000D02*
X114754000Y-108180000D01*
X114754000Y-110260000D02*
X114754000Y-112344000D01*
X114794000Y-106130000D02*
X114794000Y-108180000D01*
X114794000Y-110260000D02*
X114794000Y-112310000D01*
X114834000Y-106165000D02*
X114834000Y-108180000D01*
X114834000Y-110260000D02*
X114834000Y-112275000D01*
X114874000Y-106201000D02*
X114874000Y-108180000D01*
X114874000Y-110260000D02*
X114874000Y-112239000D01*
X114914000Y-106237000D02*
X114914000Y-112203000D01*
X114954000Y-106275000D02*
X114954000Y-112165000D01*
X114994000Y-106313000D02*
X114994000Y-112127000D01*
X115034000Y-106353000D02*
X115034000Y-112087000D01*
X115074000Y-106394000D02*
X115074000Y-112046000D01*
X115114000Y-106436000D02*
X115114000Y-112004000D01*
X115154000Y-106479000D02*
X115154000Y-111961000D01*
X115194000Y-106523000D02*
X115194000Y-111917000D01*
X115234000Y-106569000D02*
X115234000Y-111871000D01*
X115274000Y-106616000D02*
X115274000Y-111824000D01*
X115314000Y-106664000D02*
X115314000Y-111776000D01*
X115354000Y-106715000D02*
X115354000Y-111725000D01*
X115394000Y-106766000D02*
X115394000Y-111674000D01*
X115434000Y-106820000D02*
X115434000Y-111620000D01*
X115474000Y-106875000D02*
X115474000Y-111565000D01*
X115514000Y-106933000D02*
X115514000Y-111507000D01*
X115554000Y-106992000D02*
X115554000Y-111448000D01*
X115594000Y-107054000D02*
X115594000Y-111386000D01*
X115634000Y-107118000D02*
X115634000Y-111322000D01*
X115674000Y-107186000D02*
X115674000Y-111254000D01*
X115714000Y-107256000D02*
X115714000Y-111184000D01*
X115754000Y-107330000D02*
X115754000Y-111110000D01*
X115794000Y-107407000D02*
X115794000Y-111033000D01*
X115834000Y-107489000D02*
X115834000Y-110951000D01*
X115874000Y-107575000D02*
X115874000Y-110865000D01*
X115914000Y-107668000D02*
X115914000Y-110772000D01*
X115954000Y-107767000D02*
X115954000Y-110673000D01*
X115994000Y-107874000D02*
X115994000Y-110566000D01*
X116034000Y-107991000D02*
X116034000Y-110449000D01*
X116074000Y-108122000D02*
X116074000Y-110318000D01*
X116114000Y-108272000D02*
X116114000Y-110168000D01*
X116154000Y-108452000D02*
X116154000Y-109988000D01*
X116194000Y-108687000D02*
X116194000Y-109753000D01*
X107703302Y-106905000D02*
X108503302Y-106905000D01*
X108103302Y-106505000D02*
X108103302Y-107305000D01*
X112955000Y-95765252D02*
X112955000Y-95242748D01*
X114375000Y-95765252D02*
X114375000Y-95242748D01*
X128677302Y-106251000D02*
X128677302Y-107051000D01*
X128277302Y-106651000D02*
X129077302Y-106651000D01*
X136768000Y-108433000D02*
X136768000Y-109499000D01*
X136728000Y-108198000D02*
X136728000Y-109734000D01*
X136688000Y-108018000D02*
X136688000Y-109914000D01*
X136648000Y-107868000D02*
X136648000Y-110064000D01*
X136608000Y-107737000D02*
X136608000Y-110195000D01*
X136568000Y-107620000D02*
X136568000Y-110312000D01*
X136528000Y-107513000D02*
X136528000Y-110419000D01*
X136488000Y-107414000D02*
X136488000Y-110518000D01*
X136448000Y-107321000D02*
X136448000Y-110611000D01*
X136408000Y-107235000D02*
X136408000Y-110697000D01*
X136368000Y-107153000D02*
X136368000Y-110779000D01*
X136328000Y-107076000D02*
X136328000Y-110856000D01*
X136288000Y-107002000D02*
X136288000Y-110930000D01*
X136248000Y-106932000D02*
X136248000Y-111000000D01*
X136208000Y-106864000D02*
X136208000Y-111068000D01*
X136168000Y-106800000D02*
X136168000Y-111132000D01*
X136128000Y-106738000D02*
X136128000Y-111194000D01*
X136088000Y-106679000D02*
X136088000Y-111253000D01*
X136048000Y-106621000D02*
X136048000Y-111311000D01*
X136008000Y-106566000D02*
X136008000Y-111366000D01*
X135968000Y-106512000D02*
X135968000Y-111420000D01*
X135928000Y-106461000D02*
X135928000Y-111471000D01*
X135888000Y-106410000D02*
X135888000Y-111522000D01*
X135848000Y-106362000D02*
X135848000Y-111570000D01*
X135808000Y-106315000D02*
X135808000Y-111617000D01*
X135768000Y-106269000D02*
X135768000Y-111663000D01*
X135728000Y-106225000D02*
X135728000Y-111707000D01*
X135688000Y-106182000D02*
X135688000Y-111750000D01*
X135648000Y-106140000D02*
X135648000Y-111792000D01*
X135608000Y-106099000D02*
X135608000Y-111833000D01*
X135568000Y-106059000D02*
X135568000Y-111873000D01*
X135528000Y-106021000D02*
X135528000Y-111911000D01*
X135488000Y-105983000D02*
X135488000Y-111949000D01*
X135448000Y-110006000D02*
X135448000Y-111985000D01*
X135448000Y-105947000D02*
X135448000Y-107926000D01*
X135408000Y-110006000D02*
X135408000Y-112021000D01*
X135408000Y-105911000D02*
X135408000Y-107926000D01*
X135368000Y-110006000D02*
X135368000Y-112056000D01*
X135368000Y-105876000D02*
X135368000Y-107926000D01*
X135328000Y-110006000D02*
X135328000Y-112090000D01*
X135328000Y-105842000D02*
X135328000Y-107926000D01*
X135288000Y-110006000D02*
X135288000Y-112122000D01*
X135288000Y-105810000D02*
X135288000Y-107926000D01*
X135248000Y-110006000D02*
X135248000Y-112155000D01*
X135248000Y-105777000D02*
X135248000Y-107926000D01*
X135208000Y-110006000D02*
X135208000Y-112186000D01*
X135208000Y-105746000D02*
X135208000Y-107926000D01*
X135168000Y-110006000D02*
X135168000Y-112216000D01*
X135168000Y-105716000D02*
X135168000Y-107926000D01*
X135128000Y-110006000D02*
X135128000Y-112246000D01*
X135128000Y-105686000D02*
X135128000Y-107926000D01*
X135088000Y-110006000D02*
X135088000Y-112275000D01*
X135088000Y-105657000D02*
X135088000Y-107926000D01*
X135048000Y-110006000D02*
X135048000Y-112304000D01*
X135048000Y-105628000D02*
X135048000Y-107926000D01*
X135008000Y-110006000D02*
X135008000Y-112331000D01*
X135008000Y-105601000D02*
X135008000Y-107926000D01*
X134968000Y-110006000D02*
X134968000Y-112358000D01*
X134968000Y-105574000D02*
X134968000Y-107926000D01*
X134928000Y-110006000D02*
X134928000Y-112384000D01*
X134928000Y-105548000D02*
X134928000Y-107926000D01*
X134888000Y-110006000D02*
X134888000Y-112410000D01*
X134888000Y-105522000D02*
X134888000Y-107926000D01*
X134848000Y-110006000D02*
X134848000Y-112435000D01*
X134848000Y-105497000D02*
X134848000Y-107926000D01*
X134808000Y-110006000D02*
X134808000Y-112459000D01*
X134808000Y-105473000D02*
X134808000Y-107926000D01*
X134768000Y-110006000D02*
X134768000Y-112483000D01*
X134768000Y-105449000D02*
X134768000Y-107926000D01*
X134728000Y-110006000D02*
X134728000Y-112506000D01*
X134728000Y-105426000D02*
X134728000Y-107926000D01*
X134688000Y-110006000D02*
X134688000Y-112528000D01*
X134688000Y-105404000D02*
X134688000Y-107926000D01*
X134648000Y-110006000D02*
X134648000Y-112550000D01*
X134648000Y-105382000D02*
X134648000Y-107926000D01*
X134608000Y-110006000D02*
X134608000Y-112572000D01*
X134608000Y-105360000D02*
X134608000Y-107926000D01*
X134568000Y-110006000D02*
X134568000Y-112593000D01*
X134568000Y-105339000D02*
X134568000Y-107926000D01*
X134528000Y-110006000D02*
X134528000Y-112613000D01*
X134528000Y-105319000D02*
X134528000Y-107926000D01*
X134488000Y-110006000D02*
X134488000Y-112632000D01*
X134488000Y-105300000D02*
X134488000Y-107926000D01*
X134448000Y-110006000D02*
X134448000Y-112652000D01*
X134448000Y-105280000D02*
X134448000Y-107926000D01*
X134408000Y-110006000D02*
X134408000Y-112670000D01*
X134408000Y-105262000D02*
X134408000Y-107926000D01*
X134368000Y-110006000D02*
X134368000Y-112688000D01*
X134368000Y-105244000D02*
X134368000Y-107926000D01*
X134328000Y-110006000D02*
X134328000Y-112706000D01*
X134328000Y-105226000D02*
X134328000Y-107926000D01*
X134288000Y-110006000D02*
X134288000Y-112723000D01*
X134288000Y-105209000D02*
X134288000Y-107926000D01*
X134248000Y-110006000D02*
X134248000Y-112740000D01*
X134248000Y-105192000D02*
X134248000Y-107926000D01*
X134208000Y-110006000D02*
X134208000Y-112756000D01*
X134208000Y-105176000D02*
X134208000Y-107926000D01*
X134168000Y-110006000D02*
X134168000Y-112771000D01*
X134168000Y-105161000D02*
X134168000Y-107926000D01*
X134128000Y-110006000D02*
X134128000Y-112787000D01*
X134128000Y-105145000D02*
X134128000Y-107926000D01*
X134088000Y-110006000D02*
X134088000Y-112801000D01*
X134088000Y-105131000D02*
X134088000Y-107926000D01*
X134048000Y-110006000D02*
X134048000Y-112816000D01*
X134048000Y-105116000D02*
X134048000Y-107926000D01*
X134008000Y-110006000D02*
X134008000Y-112829000D01*
X134008000Y-105103000D02*
X134008000Y-107926000D01*
X133968000Y-110006000D02*
X133968000Y-112843000D01*
X133968000Y-105089000D02*
X133968000Y-107926000D01*
X133928000Y-110006000D02*
X133928000Y-112855000D01*
X133928000Y-105077000D02*
X133928000Y-107926000D01*
X133888000Y-110006000D02*
X133888000Y-112868000D01*
X133888000Y-105064000D02*
X133888000Y-107926000D01*
X133848000Y-110006000D02*
X133848000Y-112880000D01*
X133848000Y-105052000D02*
X133848000Y-107926000D01*
X133808000Y-110006000D02*
X133808000Y-112891000D01*
X133808000Y-105041000D02*
X133808000Y-107926000D01*
X133768000Y-110006000D02*
X133768000Y-112902000D01*
X133768000Y-105030000D02*
X133768000Y-107926000D01*
X133728000Y-110006000D02*
X133728000Y-112913000D01*
X133728000Y-105019000D02*
X133728000Y-107926000D01*
X133688000Y-110006000D02*
X133688000Y-112923000D01*
X133688000Y-105009000D02*
X133688000Y-107926000D01*
X133648000Y-110006000D02*
X133648000Y-112933000D01*
X133648000Y-104999000D02*
X133648000Y-107926000D01*
X133608000Y-110006000D02*
X133608000Y-112942000D01*
X133608000Y-104990000D02*
X133608000Y-107926000D01*
X133568000Y-110006000D02*
X133568000Y-112951000D01*
X133568000Y-104981000D02*
X133568000Y-107926000D01*
X133528000Y-110006000D02*
X133528000Y-112960000D01*
X133528000Y-104972000D02*
X133528000Y-107926000D01*
X133488000Y-110006000D02*
X133488000Y-112968000D01*
X133488000Y-104964000D02*
X133488000Y-107926000D01*
X133448000Y-110006000D02*
X133448000Y-112976000D01*
X133448000Y-104956000D02*
X133448000Y-107926000D01*
X133408000Y-110006000D02*
X133408000Y-112983000D01*
X133408000Y-104949000D02*
X133408000Y-107926000D01*
X133367000Y-104942000D02*
X133367000Y-112990000D01*
X133327000Y-104936000D02*
X133327000Y-112996000D01*
X133287000Y-104929000D02*
X133287000Y-113003000D01*
X133247000Y-104924000D02*
X133247000Y-113008000D01*
X133207000Y-104918000D02*
X133207000Y-113014000D01*
X133167000Y-104914000D02*
X133167000Y-113018000D01*
X133127000Y-104909000D02*
X133127000Y-113023000D01*
X133087000Y-104905000D02*
X133087000Y-113027000D01*
X133047000Y-104901000D02*
X133047000Y-113031000D01*
X133007000Y-104898000D02*
X133007000Y-113034000D01*
X132967000Y-104895000D02*
X132967000Y-113037000D01*
X132927000Y-104892000D02*
X132927000Y-113040000D01*
X132887000Y-104890000D02*
X132887000Y-113042000D01*
X132847000Y-104889000D02*
X132847000Y-113043000D01*
X132807000Y-104887000D02*
X132807000Y-113045000D01*
X132767000Y-104886000D02*
X132767000Y-113046000D01*
X132727000Y-104886000D02*
X132727000Y-113046000D01*
X132687000Y-104886000D02*
X132687000Y-113046000D01*
X136807000Y-108966000D02*
G75*
G03X136807000Y-108966000I-4120000J0D01*
G01*
X135203000Y-95765252D02*
X135203000Y-95242748D01*
X133783000Y-95765252D02*
X133783000Y-95242748D01*
X78828000Y-52773500D02*
X77128000Y-52773500D01*
X77128000Y-52773500D02*
X77128000Y-55923500D01*
X78828000Y-52773500D02*
X78828000Y-55923500D01*
X78795000Y-102733447D02*
X78295000Y-102733447D01*
X78545000Y-103087000D02*
X78795000Y-102733447D01*
X78295000Y-102733447D02*
X78545000Y-103087000D01*
X83355000Y-105642000D02*
X83355000Y-108022000D01*
X77935000Y-105642000D02*
X77935000Y-108022000D01*
X79130000Y-109942000D02*
X82160000Y-109942000D01*
X79330000Y-103822000D02*
X81960000Y-103822000D01*
X100158000Y-104076000D02*
X102788000Y-104076000D01*
X99958000Y-110196000D02*
X102988000Y-110196000D01*
X98763000Y-105896000D02*
X98763000Y-108276000D01*
X104183000Y-105896000D02*
X104183000Y-108276000D01*
X99123000Y-102987447D02*
X99373000Y-103341000D01*
X99373000Y-103341000D02*
X99623000Y-102987447D01*
X99623000Y-102987447D02*
X99123000Y-102987447D01*
X120451000Y-103495447D02*
X119951000Y-103495447D01*
X120201000Y-103849000D02*
X120451000Y-103495447D01*
X119951000Y-103495447D02*
X120201000Y-103849000D01*
X125011000Y-106404000D02*
X125011000Y-108784000D01*
X119591000Y-106404000D02*
X119591000Y-108784000D01*
X120786000Y-110704000D02*
X123816000Y-110704000D01*
X120986000Y-104584000D02*
X123616000Y-104584000D01*
X141560000Y-105092000D02*
X144190000Y-105092000D01*
X141360000Y-111212000D02*
X144390000Y-111212000D01*
X140165000Y-106912000D02*
X140165000Y-109292000D01*
X145585000Y-106912000D02*
X145585000Y-109292000D01*
X140525000Y-104003447D02*
X140775000Y-104357000D01*
X140775000Y-104357000D02*
X141025000Y-104003447D01*
X141025000Y-104003447D02*
X140525000Y-104003447D01*
X85794000Y-39542000D02*
X85794000Y-45512000D01*
X85794000Y-45512000D02*
X118414000Y-45512000D01*
X118414000Y-45512000D02*
X118414000Y-39542000D01*
X118414000Y-39542000D02*
X85794000Y-39542000D01*
X89104000Y-39552000D02*
X89104000Y-40302000D01*
X89104000Y-40302000D02*
X115104000Y-40302000D01*
X115104000Y-40302000D02*
X115104000Y-39552000D01*
X115104000Y-39552000D02*
X89104000Y-39552000D01*
X85804000Y-39552000D02*
X85804000Y-40302000D01*
X85804000Y-40302000D02*
X87604000Y-40302000D01*
X87604000Y-40302000D02*
X87604000Y-39552000D01*
X87604000Y-39552000D02*
X85804000Y-39552000D01*
X116604000Y-39552000D02*
X116604000Y-40302000D01*
X116604000Y-40302000D02*
X118404000Y-40302000D01*
X118404000Y-40302000D02*
X118404000Y-39552000D01*
X118404000Y-39552000D02*
X116604000Y-39552000D01*
X85804000Y-41802000D02*
X86554000Y-41802000D01*
X86554000Y-41802000D02*
X86554000Y-44752000D01*
X86554000Y-44752000D02*
X102104000Y-44752000D01*
X118404000Y-41802000D02*
X117654000Y-41802000D01*
X117654000Y-41802000D02*
X117654000Y-44752000D01*
X117654000Y-44752000D02*
X102104000Y-44752000D01*
X86754000Y-39252000D02*
X85504000Y-39252000D01*
X85504000Y-39252000D02*
X85504000Y-40502000D01*
X119579000Y-39252000D02*
X119579000Y-40502000D01*
X120829000Y-39252000D02*
X119579000Y-39252000D01*
X151729000Y-44752000D02*
X136179000Y-44752000D01*
X151729000Y-41802000D02*
X151729000Y-44752000D01*
X152479000Y-41802000D02*
X151729000Y-41802000D01*
X120629000Y-44752000D02*
X136179000Y-44752000D01*
X120629000Y-41802000D02*
X120629000Y-44752000D01*
X119879000Y-41802000D02*
X120629000Y-41802000D01*
X152479000Y-39552000D02*
X150679000Y-39552000D01*
X152479000Y-40302000D02*
X152479000Y-39552000D01*
X150679000Y-40302000D02*
X152479000Y-40302000D01*
X150679000Y-39552000D02*
X150679000Y-40302000D01*
X121679000Y-39552000D02*
X119879000Y-39552000D01*
X121679000Y-40302000D02*
X121679000Y-39552000D01*
X119879000Y-40302000D02*
X121679000Y-40302000D01*
X119879000Y-39552000D02*
X119879000Y-40302000D01*
X149179000Y-39552000D02*
X123179000Y-39552000D01*
X149179000Y-40302000D02*
X149179000Y-39552000D01*
X123179000Y-40302000D02*
X149179000Y-40302000D01*
X123179000Y-39552000D02*
X123179000Y-40302000D01*
X152489000Y-39542000D02*
X119869000Y-39542000D01*
X152489000Y-45512000D02*
X152489000Y-39542000D01*
X119869000Y-45512000D02*
X152489000Y-45512000D01*
X119869000Y-39542000D02*
X119869000Y-45512000D01*
D13*
X75970000Y-92639000D02*
G75*
G03X75970000Y-92639000I-125000J0D01*
G01*
D14*
X84395000Y-99339000D02*
X83245000Y-99339000D01*
X84395000Y-92939000D02*
X84395000Y-99339000D01*
X83245000Y-92939000D02*
X84395000Y-92939000D01*
X76895000Y-92939000D02*
X78045000Y-92939000D01*
X76895000Y-99339000D02*
X76895000Y-92939000D01*
X78045000Y-99339000D02*
X76895000Y-99339000D01*
X98873000Y-99339000D02*
X97723000Y-99339000D01*
X97723000Y-99339000D02*
X97723000Y-92939000D01*
X97723000Y-92939000D02*
X98873000Y-92939000D01*
X104073000Y-92939000D02*
X105223000Y-92939000D01*
X105223000Y-92939000D02*
X105223000Y-99339000D01*
X105223000Y-99339000D02*
X104073000Y-99339000D01*
D13*
X96798000Y-92639000D02*
G75*
G03X96798000Y-92639000I-125000J0D01*
G01*
X117626000Y-92639000D02*
G75*
G03X117626000Y-92639000I-125000J0D01*
G01*
D14*
X126051000Y-99339000D02*
X124901000Y-99339000D01*
X126051000Y-92939000D02*
X126051000Y-99339000D01*
X124901000Y-92939000D02*
X126051000Y-92939000D01*
X118551000Y-92939000D02*
X119701000Y-92939000D01*
X118551000Y-99339000D02*
X118551000Y-92939000D01*
X119701000Y-99339000D02*
X118551000Y-99339000D01*
X140529000Y-99339000D02*
X139379000Y-99339000D01*
X139379000Y-99339000D02*
X139379000Y-92939000D01*
X139379000Y-92939000D02*
X140529000Y-92939000D01*
X145729000Y-92939000D02*
X146879000Y-92939000D01*
X146879000Y-92939000D02*
X146879000Y-99339000D01*
X146879000Y-99339000D02*
X145729000Y-99339000D01*
D13*
X138454000Y-92639000D02*
G75*
G03X138454000Y-92639000I-125000J0D01*
G01*
D15*
X70191255Y-49768210D02*
X70905705Y-49768210D01*
X71048595Y-49815840D01*
X71143855Y-49911100D01*
X71191485Y-50053990D01*
X71191485Y-50149250D01*
X71191485Y-48767980D02*
X71191485Y-49339540D01*
X71191485Y-49053760D02*
X70191255Y-49053760D01*
X70334145Y-49149020D01*
X70429405Y-49244280D01*
X70477035Y-49339540D01*
X70286515Y-48386940D02*
X70238885Y-48339310D01*
X70191255Y-48244050D01*
X70191255Y-48005900D01*
X70238885Y-47910640D01*
X70286515Y-47863010D01*
X70381775Y-47815380D01*
X70477035Y-47815380D01*
X70619925Y-47863010D01*
X71191485Y-48434570D01*
X71191485Y-47815380D01*
X70603986Y-45843043D02*
X70651662Y-45700016D01*
X70699337Y-45652340D01*
X70794689Y-45604665D01*
X70937716Y-45604665D01*
X71033067Y-45652340D01*
X71080743Y-45700016D01*
X71128419Y-45795367D01*
X71128419Y-46176773D01*
X70127229Y-46176773D01*
X70127229Y-45843043D01*
X70174905Y-45747692D01*
X70222580Y-45700016D01*
X70317932Y-45652340D01*
X70413283Y-45652340D01*
X70508635Y-45700016D01*
X70556310Y-45747692D01*
X70603986Y-45843043D01*
X70603986Y-46176773D01*
X71128419Y-44746502D02*
X70603986Y-44746502D01*
X70508635Y-44794177D01*
X70460959Y-44889529D01*
X70460959Y-45080232D01*
X70508635Y-45175583D01*
X71080743Y-44746502D02*
X71128419Y-44841853D01*
X71128419Y-45080232D01*
X71080743Y-45175583D01*
X70985392Y-45223259D01*
X70890040Y-45223259D01*
X70794689Y-45175583D01*
X70747013Y-45080232D01*
X70747013Y-44841853D01*
X70699337Y-44746502D01*
X71128419Y-44269745D02*
X70460959Y-44269745D01*
X70651662Y-44269745D02*
X70556310Y-44222069D01*
X70508635Y-44174393D01*
X70460959Y-44079042D01*
X70460959Y-43983690D01*
X71128419Y-43649960D02*
X70460959Y-43649960D01*
X70651662Y-43649960D02*
X70556310Y-43602285D01*
X70508635Y-43554609D01*
X70460959Y-43459257D01*
X70460959Y-43363906D01*
X71080743Y-42648770D02*
X71128419Y-42744122D01*
X71128419Y-42934825D01*
X71080743Y-43030176D01*
X70985392Y-43077852D01*
X70603986Y-43077852D01*
X70508635Y-43030176D01*
X70460959Y-42934825D01*
X70460959Y-42744122D01*
X70508635Y-42648770D01*
X70603986Y-42601095D01*
X70699337Y-42601095D01*
X70794689Y-43077852D01*
X71128419Y-42028986D02*
X71080743Y-42124337D01*
X70985392Y-42172013D01*
X70127229Y-42172013D01*
X71223770Y-41885959D02*
X71223770Y-41123147D01*
X70127229Y-40598715D02*
X70842365Y-40598715D01*
X70985392Y-40646390D01*
X71080743Y-40741742D01*
X71128419Y-40884769D01*
X71128419Y-40980120D01*
X71128419Y-39692876D02*
X70603986Y-39692876D01*
X70508635Y-39740552D01*
X70460959Y-39835903D01*
X70460959Y-40026606D01*
X70508635Y-40121957D01*
X71080743Y-39692876D02*
X71128419Y-39788227D01*
X71128419Y-40026606D01*
X71080743Y-40121957D01*
X70985392Y-40169633D01*
X70890040Y-40169633D01*
X70794689Y-40121957D01*
X70747013Y-40026606D01*
X70747013Y-39788227D01*
X70699337Y-39692876D01*
X71080743Y-38787037D02*
X71128419Y-38882389D01*
X71128419Y-39073092D01*
X71080743Y-39168443D01*
X71033067Y-39216119D01*
X70937716Y-39263795D01*
X70651662Y-39263795D01*
X70556310Y-39216119D01*
X70508635Y-39168443D01*
X70460959Y-39073092D01*
X70460959Y-38882389D01*
X70508635Y-38787037D01*
X71128419Y-38357956D02*
X70127229Y-38357956D01*
X70747013Y-38262605D02*
X71128419Y-37976550D01*
X70460959Y-37976550D02*
X70842365Y-38357956D01*
D10*
X70290333Y-80451142D02*
X70242714Y-80498761D01*
X70099857Y-80546380D01*
X70004619Y-80546380D01*
X69861761Y-80498761D01*
X69766523Y-80403523D01*
X69718904Y-80308285D01*
X69671285Y-80117809D01*
X69671285Y-79974952D01*
X69718904Y-79784476D01*
X69766523Y-79689238D01*
X69861761Y-79594000D01*
X70004619Y-79546380D01*
X70099857Y-79546380D01*
X70242714Y-79594000D01*
X70290333Y-79641619D01*
X70766523Y-80546380D02*
X70957000Y-80546380D01*
X71052238Y-80498761D01*
X71099857Y-80451142D01*
X71195095Y-80308285D01*
X71242714Y-80117809D01*
X71242714Y-79736857D01*
X71195095Y-79641619D01*
X71147476Y-79594000D01*
X71052238Y-79546380D01*
X70861761Y-79546380D01*
X70766523Y-79594000D01*
X70718904Y-79641619D01*
X70671285Y-79736857D01*
X70671285Y-79974952D01*
X70718904Y-80070190D01*
X70766523Y-80117809D01*
X70861761Y-80165428D01*
X71052238Y-80165428D01*
X71147476Y-80117809D01*
X71195095Y-80070190D01*
X71242714Y-79974952D01*
X88240142Y-104156857D02*
X88287761Y-104204476D01*
X88335380Y-104347333D01*
X88335380Y-104442571D01*
X88287761Y-104585428D01*
X88192523Y-104680666D01*
X88097285Y-104728285D01*
X87906809Y-104775904D01*
X87763952Y-104775904D01*
X87573476Y-104728285D01*
X87478238Y-104680666D01*
X87383000Y-104585428D01*
X87335380Y-104442571D01*
X87335380Y-104347333D01*
X87383000Y-104204476D01*
X87430619Y-104156857D01*
X88335380Y-103204476D02*
X88335380Y-103775904D01*
X88335380Y-103490190D02*
X87335380Y-103490190D01*
X87478238Y-103585428D01*
X87573476Y-103680666D01*
X87621095Y-103775904D01*
X87335380Y-102585428D02*
X87335380Y-102490190D01*
X87383000Y-102394952D01*
X87430619Y-102347333D01*
X87525857Y-102299714D01*
X87716333Y-102252095D01*
X87954428Y-102252095D01*
X88144904Y-102299714D01*
X88240142Y-102347333D01*
X88287761Y-102394952D01*
X88335380Y-102490190D01*
X88335380Y-102585428D01*
X88287761Y-102680666D01*
X88240142Y-102728285D01*
X88144904Y-102775904D01*
X87954428Y-102823523D01*
X87716333Y-102823523D01*
X87525857Y-102775904D01*
X87430619Y-102728285D01*
X87383000Y-102680666D01*
X87335380Y-102585428D01*
X109068142Y-104156857D02*
X109115761Y-104204476D01*
X109163380Y-104347333D01*
X109163380Y-104442571D01*
X109115761Y-104585428D01*
X109020523Y-104680666D01*
X108925285Y-104728285D01*
X108734809Y-104775904D01*
X108591952Y-104775904D01*
X108401476Y-104728285D01*
X108306238Y-104680666D01*
X108211000Y-104585428D01*
X108163380Y-104442571D01*
X108163380Y-104347333D01*
X108211000Y-104204476D01*
X108258619Y-104156857D01*
X109163380Y-103204476D02*
X109163380Y-103775904D01*
X109163380Y-103490190D02*
X108163380Y-103490190D01*
X108306238Y-103585428D01*
X108401476Y-103680666D01*
X108449095Y-103775904D01*
X109163380Y-102252095D02*
X109163380Y-102823523D01*
X109163380Y-102537809D02*
X108163380Y-102537809D01*
X108306238Y-102633047D01*
X108401476Y-102728285D01*
X108449095Y-102823523D01*
X129896142Y-104147857D02*
X129943761Y-104195476D01*
X129991380Y-104338333D01*
X129991380Y-104433571D01*
X129943761Y-104576428D01*
X129848523Y-104671666D01*
X129753285Y-104719285D01*
X129562809Y-104766904D01*
X129419952Y-104766904D01*
X129229476Y-104719285D01*
X129134238Y-104671666D01*
X129039000Y-104576428D01*
X128991380Y-104433571D01*
X128991380Y-104338333D01*
X129039000Y-104195476D01*
X129086619Y-104147857D01*
X129991380Y-103195476D02*
X129991380Y-103766904D01*
X129991380Y-103481190D02*
X128991380Y-103481190D01*
X129134238Y-103576428D01*
X129229476Y-103671666D01*
X129277095Y-103766904D01*
X129086619Y-102814523D02*
X129039000Y-102766904D01*
X128991380Y-102671666D01*
X128991380Y-102433571D01*
X129039000Y-102338333D01*
X129086619Y-102290714D01*
X129181857Y-102243095D01*
X129277095Y-102243095D01*
X129419952Y-102290714D01*
X129991380Y-102862142D01*
X129991380Y-102243095D01*
X150470142Y-104528857D02*
X150517761Y-104576476D01*
X150565380Y-104719333D01*
X150565380Y-104814571D01*
X150517761Y-104957428D01*
X150422523Y-105052666D01*
X150327285Y-105100285D01*
X150136809Y-105147904D01*
X149993952Y-105147904D01*
X149803476Y-105100285D01*
X149708238Y-105052666D01*
X149613000Y-104957428D01*
X149565380Y-104814571D01*
X149565380Y-104719333D01*
X149613000Y-104576476D01*
X149660619Y-104528857D01*
X150565380Y-103576476D02*
X150565380Y-104147904D01*
X150565380Y-103862190D02*
X149565380Y-103862190D01*
X149708238Y-103957428D01*
X149803476Y-104052666D01*
X149851095Y-104147904D01*
X149565380Y-103243142D02*
X149565380Y-102624095D01*
X149946333Y-102957428D01*
X149946333Y-102814571D01*
X149993952Y-102719333D01*
X150041571Y-102671714D01*
X150136809Y-102624095D01*
X150374904Y-102624095D01*
X150470142Y-102671714D01*
X150517761Y-102719333D01*
X150565380Y-102814571D01*
X150565380Y-103100285D01*
X150517761Y-103195523D01*
X150470142Y-103243142D01*
X74016142Y-98305857D02*
X74063761Y-98353476D01*
X74111380Y-98496333D01*
X74111380Y-98591571D01*
X74063761Y-98734428D01*
X73968523Y-98829666D01*
X73873285Y-98877285D01*
X73682809Y-98924904D01*
X73539952Y-98924904D01*
X73349476Y-98877285D01*
X73254238Y-98829666D01*
X73159000Y-98734428D01*
X73111380Y-98591571D01*
X73111380Y-98496333D01*
X73159000Y-98353476D01*
X73206619Y-98305857D01*
X74111380Y-97353476D02*
X74111380Y-97924904D01*
X74111380Y-97639190D02*
X73111380Y-97639190D01*
X73254238Y-97734428D01*
X73349476Y-97829666D01*
X73397095Y-97924904D01*
X73444714Y-96496333D02*
X74111380Y-96496333D01*
X73063761Y-96734428D02*
X73778047Y-96972523D01*
X73778047Y-96353476D01*
X77191142Y-104147857D02*
X77238761Y-104195476D01*
X77286380Y-104338333D01*
X77286380Y-104433571D01*
X77238761Y-104576428D01*
X77143523Y-104671666D01*
X77048285Y-104719285D01*
X76857809Y-104766904D01*
X76714952Y-104766904D01*
X76524476Y-104719285D01*
X76429238Y-104671666D01*
X76334000Y-104576428D01*
X76286380Y-104433571D01*
X76286380Y-104338333D01*
X76334000Y-104195476D01*
X76381619Y-104147857D01*
X77286380Y-103195476D02*
X77286380Y-103766904D01*
X77286380Y-103481190D02*
X76286380Y-103481190D01*
X76429238Y-103576428D01*
X76524476Y-103671666D01*
X76572095Y-103766904D01*
X76286380Y-102290714D02*
X76286380Y-102766904D01*
X76762571Y-102814523D01*
X76714952Y-102766904D01*
X76667333Y-102671666D01*
X76667333Y-102433571D01*
X76714952Y-102338333D01*
X76762571Y-102290714D01*
X76857809Y-102243095D01*
X77095904Y-102243095D01*
X77191142Y-102290714D01*
X77238761Y-102338333D01*
X77286380Y-102433571D01*
X77286380Y-102671666D01*
X77238761Y-102766904D01*
X77191142Y-102814523D01*
X98019142Y-104147857D02*
X98066761Y-104195476D01*
X98114380Y-104338333D01*
X98114380Y-104433571D01*
X98066761Y-104576428D01*
X97971523Y-104671666D01*
X97876285Y-104719285D01*
X97685809Y-104766904D01*
X97542952Y-104766904D01*
X97352476Y-104719285D01*
X97257238Y-104671666D01*
X97162000Y-104576428D01*
X97114380Y-104433571D01*
X97114380Y-104338333D01*
X97162000Y-104195476D01*
X97209619Y-104147857D01*
X98114380Y-103195476D02*
X98114380Y-103766904D01*
X98114380Y-103481190D02*
X97114380Y-103481190D01*
X97257238Y-103576428D01*
X97352476Y-103671666D01*
X97400095Y-103766904D01*
X97114380Y-102338333D02*
X97114380Y-102528809D01*
X97162000Y-102624047D01*
X97209619Y-102671666D01*
X97352476Y-102766904D01*
X97542952Y-102814523D01*
X97923904Y-102814523D01*
X98019142Y-102766904D01*
X98066761Y-102719285D01*
X98114380Y-102624047D01*
X98114380Y-102433571D01*
X98066761Y-102338333D01*
X98019142Y-102290714D01*
X97923904Y-102243095D01*
X97685809Y-102243095D01*
X97590571Y-102290714D01*
X97542952Y-102338333D01*
X97495333Y-102433571D01*
X97495333Y-102624047D01*
X97542952Y-102719285D01*
X97590571Y-102766904D01*
X97685809Y-102814523D01*
X118847142Y-104147857D02*
X118894761Y-104195476D01*
X118942380Y-104338333D01*
X118942380Y-104433571D01*
X118894761Y-104576428D01*
X118799523Y-104671666D01*
X118704285Y-104719285D01*
X118513809Y-104766904D01*
X118370952Y-104766904D01*
X118180476Y-104719285D01*
X118085238Y-104671666D01*
X117990000Y-104576428D01*
X117942380Y-104433571D01*
X117942380Y-104338333D01*
X117990000Y-104195476D01*
X118037619Y-104147857D01*
X118942380Y-103195476D02*
X118942380Y-103766904D01*
X118942380Y-103481190D02*
X117942380Y-103481190D01*
X118085238Y-103576428D01*
X118180476Y-103671666D01*
X118228095Y-103766904D01*
X117942380Y-102862142D02*
X117942380Y-102195476D01*
X118942380Y-102624047D01*
X139421142Y-104528857D02*
X139468761Y-104576476D01*
X139516380Y-104719333D01*
X139516380Y-104814571D01*
X139468761Y-104957428D01*
X139373523Y-105052666D01*
X139278285Y-105100285D01*
X139087809Y-105147904D01*
X138944952Y-105147904D01*
X138754476Y-105100285D01*
X138659238Y-105052666D01*
X138564000Y-104957428D01*
X138516380Y-104814571D01*
X138516380Y-104719333D01*
X138564000Y-104576476D01*
X138611619Y-104528857D01*
X139516380Y-103576476D02*
X139516380Y-104147904D01*
X139516380Y-103862190D02*
X138516380Y-103862190D01*
X138659238Y-103957428D01*
X138754476Y-104052666D01*
X138802095Y-104147904D01*
X138944952Y-103005047D02*
X138897333Y-103100285D01*
X138849714Y-103147904D01*
X138754476Y-103195523D01*
X138706857Y-103195523D01*
X138611619Y-103147904D01*
X138564000Y-103100285D01*
X138516380Y-103005047D01*
X138516380Y-102814571D01*
X138564000Y-102719333D01*
X138611619Y-102671714D01*
X138706857Y-102624095D01*
X138754476Y-102624095D01*
X138849714Y-102671714D01*
X138897333Y-102719333D01*
X138944952Y-102814571D01*
X138944952Y-103005047D01*
X138992571Y-103100285D01*
X139040190Y-103147904D01*
X139135428Y-103195523D01*
X139325904Y-103195523D01*
X139421142Y-103147904D01*
X139468761Y-103100285D01*
X139516380Y-103005047D01*
X139516380Y-102814571D01*
X139468761Y-102719333D01*
X139421142Y-102671714D01*
X139325904Y-102624095D01*
X139135428Y-102624095D01*
X139040190Y-102671714D01*
X138992571Y-102719333D01*
X138944952Y-102814571D01*
X90896142Y-104327142D02*
X90848523Y-104374761D01*
X90705666Y-104422380D01*
X90610428Y-104422380D01*
X90467571Y-104374761D01*
X90372333Y-104279523D01*
X90324714Y-104184285D01*
X90277095Y-103993809D01*
X90277095Y-103850952D01*
X90324714Y-103660476D01*
X90372333Y-103565238D01*
X90467571Y-103470000D01*
X90610428Y-103422380D01*
X90705666Y-103422380D01*
X90848523Y-103470000D01*
X90896142Y-103517619D01*
X91848523Y-104422380D02*
X91277095Y-104422380D01*
X91562809Y-104422380D02*
X91562809Y-103422380D01*
X91467571Y-103565238D01*
X91372333Y-103660476D01*
X91277095Y-103708095D01*
X92324714Y-104422380D02*
X92515190Y-104422380D01*
X92610428Y-104374761D01*
X92658047Y-104327142D01*
X92753285Y-104184285D01*
X92800904Y-103993809D01*
X92800904Y-103612857D01*
X92753285Y-103517619D01*
X92705666Y-103470000D01*
X92610428Y-103422380D01*
X92419952Y-103422380D01*
X92324714Y-103470000D01*
X92277095Y-103517619D01*
X92229476Y-103612857D01*
X92229476Y-103850952D01*
X92277095Y-103946190D01*
X92324714Y-103993809D01*
X92419952Y-104041428D01*
X92610428Y-104041428D01*
X92705666Y-103993809D01*
X92753285Y-103946190D01*
X92800904Y-103850952D01*
X91544142Y-96146857D02*
X91591761Y-96194476D01*
X91639380Y-96337333D01*
X91639380Y-96432571D01*
X91591761Y-96575428D01*
X91496523Y-96670666D01*
X91401285Y-96718285D01*
X91210809Y-96765904D01*
X91067952Y-96765904D01*
X90877476Y-96718285D01*
X90782238Y-96670666D01*
X90687000Y-96575428D01*
X90639380Y-96432571D01*
X90639380Y-96337333D01*
X90687000Y-96194476D01*
X90734619Y-96146857D01*
X90734619Y-95765904D02*
X90687000Y-95718285D01*
X90639380Y-95623047D01*
X90639380Y-95384952D01*
X90687000Y-95289714D01*
X90734619Y-95242095D01*
X90829857Y-95194476D01*
X90925095Y-95194476D01*
X91067952Y-95242095D01*
X91639380Y-95813523D01*
X91639380Y-95194476D01*
X90639380Y-94575428D02*
X90639380Y-94480190D01*
X90687000Y-94384952D01*
X90734619Y-94337333D01*
X90829857Y-94289714D01*
X91020333Y-94242095D01*
X91258428Y-94242095D01*
X91448904Y-94289714D01*
X91544142Y-94337333D01*
X91591761Y-94384952D01*
X91639380Y-94480190D01*
X91639380Y-94575428D01*
X91591761Y-94670666D01*
X91544142Y-94718285D01*
X91448904Y-94765904D01*
X91258428Y-94813523D01*
X91020333Y-94813523D01*
X90829857Y-94765904D01*
X90734619Y-94718285D01*
X90687000Y-94670666D01*
X90639380Y-94575428D01*
X111470142Y-104327142D02*
X111422523Y-104374761D01*
X111279666Y-104422380D01*
X111184428Y-104422380D01*
X111041571Y-104374761D01*
X110946333Y-104279523D01*
X110898714Y-104184285D01*
X110851095Y-103993809D01*
X110851095Y-103850952D01*
X110898714Y-103660476D01*
X110946333Y-103565238D01*
X111041571Y-103470000D01*
X111184428Y-103422380D01*
X111279666Y-103422380D01*
X111422523Y-103470000D01*
X111470142Y-103517619D01*
X111851095Y-103517619D02*
X111898714Y-103470000D01*
X111993952Y-103422380D01*
X112232047Y-103422380D01*
X112327285Y-103470000D01*
X112374904Y-103517619D01*
X112422523Y-103612857D01*
X112422523Y-103708095D01*
X112374904Y-103850952D01*
X111803476Y-104422380D01*
X112422523Y-104422380D01*
X113374904Y-104422380D02*
X112803476Y-104422380D01*
X113089190Y-104422380D02*
X113089190Y-103422380D01*
X112993952Y-103565238D01*
X112898714Y-103660476D01*
X112803476Y-103708095D01*
X112372142Y-96146857D02*
X112419761Y-96194476D01*
X112467380Y-96337333D01*
X112467380Y-96432571D01*
X112419761Y-96575428D01*
X112324523Y-96670666D01*
X112229285Y-96718285D01*
X112038809Y-96765904D01*
X111895952Y-96765904D01*
X111705476Y-96718285D01*
X111610238Y-96670666D01*
X111515000Y-96575428D01*
X111467380Y-96432571D01*
X111467380Y-96337333D01*
X111515000Y-96194476D01*
X111562619Y-96146857D01*
X111562619Y-95765904D02*
X111515000Y-95718285D01*
X111467380Y-95623047D01*
X111467380Y-95384952D01*
X111515000Y-95289714D01*
X111562619Y-95242095D01*
X111657857Y-95194476D01*
X111753095Y-95194476D01*
X111895952Y-95242095D01*
X112467380Y-95813523D01*
X112467380Y-95194476D01*
X111562619Y-94813523D02*
X111515000Y-94765904D01*
X111467380Y-94670666D01*
X111467380Y-94432571D01*
X111515000Y-94337333D01*
X111562619Y-94289714D01*
X111657857Y-94242095D01*
X111753095Y-94242095D01*
X111895952Y-94289714D01*
X112467380Y-94861142D01*
X112467380Y-94242095D01*
X132044142Y-104073142D02*
X131996523Y-104120761D01*
X131853666Y-104168380D01*
X131758428Y-104168380D01*
X131615571Y-104120761D01*
X131520333Y-104025523D01*
X131472714Y-103930285D01*
X131425095Y-103739809D01*
X131425095Y-103596952D01*
X131472714Y-103406476D01*
X131520333Y-103311238D01*
X131615571Y-103216000D01*
X131758428Y-103168380D01*
X131853666Y-103168380D01*
X131996523Y-103216000D01*
X132044142Y-103263619D01*
X132425095Y-103263619D02*
X132472714Y-103216000D01*
X132567952Y-103168380D01*
X132806047Y-103168380D01*
X132901285Y-103216000D01*
X132948904Y-103263619D01*
X132996523Y-103358857D01*
X132996523Y-103454095D01*
X132948904Y-103596952D01*
X132377476Y-104168380D01*
X132996523Y-104168380D01*
X133329857Y-103168380D02*
X133948904Y-103168380D01*
X133615571Y-103549333D01*
X133758428Y-103549333D01*
X133853666Y-103596952D01*
X133901285Y-103644571D01*
X133948904Y-103739809D01*
X133948904Y-103977904D01*
X133901285Y-104073142D01*
X133853666Y-104120761D01*
X133758428Y-104168380D01*
X133472714Y-104168380D01*
X133377476Y-104120761D01*
X133329857Y-104073142D01*
X133200142Y-96146857D02*
X133247761Y-96194476D01*
X133295380Y-96337333D01*
X133295380Y-96432571D01*
X133247761Y-96575428D01*
X133152523Y-96670666D01*
X133057285Y-96718285D01*
X132866809Y-96765904D01*
X132723952Y-96765904D01*
X132533476Y-96718285D01*
X132438238Y-96670666D01*
X132343000Y-96575428D01*
X132295380Y-96432571D01*
X132295380Y-96337333D01*
X132343000Y-96194476D01*
X132390619Y-96146857D01*
X132390619Y-95765904D02*
X132343000Y-95718285D01*
X132295380Y-95623047D01*
X132295380Y-95384952D01*
X132343000Y-95289714D01*
X132390619Y-95242095D01*
X132485857Y-95194476D01*
X132581095Y-95194476D01*
X132723952Y-95242095D01*
X133295380Y-95813523D01*
X133295380Y-95194476D01*
X132628714Y-94337333D02*
X133295380Y-94337333D01*
X132247761Y-94575428D02*
X132962047Y-94813523D01*
X132962047Y-94194476D01*
X80280380Y-55411595D02*
X79280380Y-55411595D01*
X79280380Y-55173500D01*
X79328000Y-55030642D01*
X79423238Y-54935404D01*
X79518476Y-54887785D01*
X79708952Y-54840166D01*
X79851809Y-54840166D01*
X80042285Y-54887785D01*
X80137523Y-54935404D01*
X80232761Y-55030642D01*
X80280380Y-55173500D01*
X80280380Y-55411595D01*
X80280380Y-53887785D02*
X80280380Y-54459214D01*
X80280380Y-54173500D02*
X79280380Y-54173500D01*
X79423238Y-54268738D01*
X79518476Y-54363976D01*
X79566095Y-54459214D01*
X80311666Y-101839380D02*
X80311666Y-102553666D01*
X80264047Y-102696523D01*
X80168809Y-102791761D01*
X80025952Y-102839380D01*
X79930714Y-102839380D01*
X80930714Y-102267952D02*
X80835476Y-102220333D01*
X80787857Y-102172714D01*
X80740238Y-102077476D01*
X80740238Y-102029857D01*
X80787857Y-101934619D01*
X80835476Y-101887000D01*
X80930714Y-101839380D01*
X81121190Y-101839380D01*
X81216428Y-101887000D01*
X81264047Y-101934619D01*
X81311666Y-102029857D01*
X81311666Y-102077476D01*
X81264047Y-102172714D01*
X81216428Y-102220333D01*
X81121190Y-102267952D01*
X80930714Y-102267952D01*
X80835476Y-102315571D01*
X80787857Y-102363190D01*
X80740238Y-102458428D01*
X80740238Y-102648904D01*
X80787857Y-102744142D01*
X80835476Y-102791761D01*
X80930714Y-102839380D01*
X81121190Y-102839380D01*
X81216428Y-102791761D01*
X81264047Y-102744142D01*
X81311666Y-102648904D01*
X81311666Y-102458428D01*
X81264047Y-102363190D01*
X81216428Y-102315571D01*
X81121190Y-102267952D01*
X101139666Y-102093380D02*
X101139666Y-102807666D01*
X101092047Y-102950523D01*
X100996809Y-103045761D01*
X100853952Y-103093380D01*
X100758714Y-103093380D01*
X101663476Y-103093380D02*
X101853952Y-103093380D01*
X101949190Y-103045761D01*
X101996809Y-102998142D01*
X102092047Y-102855285D01*
X102139666Y-102664809D01*
X102139666Y-102283857D01*
X102092047Y-102188619D01*
X102044428Y-102141000D01*
X101949190Y-102093380D01*
X101758714Y-102093380D01*
X101663476Y-102141000D01*
X101615857Y-102188619D01*
X101568238Y-102283857D01*
X101568238Y-102521952D01*
X101615857Y-102617190D01*
X101663476Y-102664809D01*
X101758714Y-102712428D01*
X101949190Y-102712428D01*
X102044428Y-102664809D01*
X102092047Y-102617190D01*
X102139666Y-102521952D01*
X121491476Y-102601380D02*
X121491476Y-103315666D01*
X121443857Y-103458523D01*
X121348619Y-103553761D01*
X121205761Y-103601380D01*
X121110523Y-103601380D01*
X122491476Y-103601380D02*
X121920047Y-103601380D01*
X122205761Y-103601380D02*
X122205761Y-102601380D01*
X122110523Y-102744238D01*
X122015285Y-102839476D01*
X121920047Y-102887095D01*
X123110523Y-102601380D02*
X123205761Y-102601380D01*
X123301000Y-102649000D01*
X123348619Y-102696619D01*
X123396238Y-102791857D01*
X123443857Y-102982333D01*
X123443857Y-103220428D01*
X123396238Y-103410904D01*
X123348619Y-103506142D01*
X123301000Y-103553761D01*
X123205761Y-103601380D01*
X123110523Y-103601380D01*
X123015285Y-103553761D01*
X122967666Y-103506142D01*
X122920047Y-103410904D01*
X122872428Y-103220428D01*
X122872428Y-102982333D01*
X122920047Y-102791857D01*
X122967666Y-102696619D01*
X123015285Y-102649000D01*
X123110523Y-102601380D01*
X142065476Y-103109380D02*
X142065476Y-103823666D01*
X142017857Y-103966523D01*
X141922619Y-104061761D01*
X141779761Y-104109380D01*
X141684523Y-104109380D01*
X143065476Y-104109380D02*
X142494047Y-104109380D01*
X142779761Y-104109380D02*
X142779761Y-103109380D01*
X142684523Y-103252238D01*
X142589285Y-103347476D01*
X142494047Y-103395095D01*
X144017857Y-104109380D02*
X143446428Y-104109380D01*
X143732142Y-104109380D02*
X143732142Y-103109380D01*
X143636904Y-103252238D01*
X143541666Y-103347476D01*
X143446428Y-103395095D01*
X101294476Y-37904380D02*
X101294476Y-38618666D01*
X101246857Y-38761523D01*
X101151619Y-38856761D01*
X101008761Y-38904380D01*
X100913523Y-38904380D01*
X102294476Y-38904380D02*
X101723047Y-38904380D01*
X102008761Y-38904380D02*
X102008761Y-37904380D01*
X101913523Y-38047238D01*
X101818285Y-38142476D01*
X101723047Y-38190095D01*
X102627809Y-37904380D02*
X103246857Y-37904380D01*
X102913523Y-38285333D01*
X103056380Y-38285333D01*
X103151619Y-38332952D01*
X103199238Y-38380571D01*
X103246857Y-38475809D01*
X103246857Y-38713904D01*
X103199238Y-38809142D01*
X103151619Y-38856761D01*
X103056380Y-38904380D01*
X102770666Y-38904380D01*
X102675428Y-38856761D01*
X102627809Y-38809142D01*
X135369476Y-37904380D02*
X135369476Y-38618666D01*
X135321857Y-38761523D01*
X135226619Y-38856761D01*
X135083761Y-38904380D01*
X134988523Y-38904380D01*
X136369476Y-38904380D02*
X135798047Y-38904380D01*
X136083761Y-38904380D02*
X136083761Y-37904380D01*
X135988523Y-38047238D01*
X135893285Y-38142476D01*
X135798047Y-38190095D01*
X137226619Y-38237714D02*
X137226619Y-38904380D01*
X136988523Y-37856761D02*
X136750428Y-38571047D01*
X137369476Y-38571047D01*
D11*
X73835380Y-91125523D02*
X73835380Y-92153619D01*
X73895857Y-92274571D01*
X73956333Y-92335047D01*
X74077285Y-92395523D01*
X74319190Y-92395523D01*
X74440142Y-92335047D01*
X74500619Y-92274571D01*
X74561095Y-92153619D01*
X74561095Y-91125523D01*
X75710142Y-91548857D02*
X75710142Y-92395523D01*
X75407761Y-91065047D02*
X75105380Y-91972190D01*
X75891571Y-91972190D01*
X94663380Y-91125523D02*
X94663380Y-92153619D01*
X94723857Y-92274571D01*
X94784333Y-92335047D01*
X94905285Y-92395523D01*
X95147190Y-92395523D01*
X95268142Y-92335047D01*
X95328619Y-92274571D01*
X95389095Y-92153619D01*
X95389095Y-91125523D01*
X96598619Y-91125523D02*
X95993857Y-91125523D01*
X95933380Y-91730285D01*
X95993857Y-91669809D01*
X96114809Y-91609333D01*
X96417190Y-91609333D01*
X96538142Y-91669809D01*
X96598619Y-91730285D01*
X96659095Y-91851238D01*
X96659095Y-92153619D01*
X96598619Y-92274571D01*
X96538142Y-92335047D01*
X96417190Y-92395523D01*
X96114809Y-92395523D01*
X95993857Y-92335047D01*
X95933380Y-92274571D01*
X115491380Y-91125523D02*
X115491380Y-92153619D01*
X115551857Y-92274571D01*
X115612333Y-92335047D01*
X115733285Y-92395523D01*
X115975190Y-92395523D01*
X116096142Y-92335047D01*
X116156619Y-92274571D01*
X116217095Y-92153619D01*
X116217095Y-91125523D01*
X117366142Y-91125523D02*
X117124238Y-91125523D01*
X117003285Y-91186000D01*
X116942809Y-91246476D01*
X116821857Y-91427904D01*
X116761380Y-91669809D01*
X116761380Y-92153619D01*
X116821857Y-92274571D01*
X116882333Y-92335047D01*
X117003285Y-92395523D01*
X117245190Y-92395523D01*
X117366142Y-92335047D01*
X117426619Y-92274571D01*
X117487095Y-92153619D01*
X117487095Y-91851238D01*
X117426619Y-91730285D01*
X117366142Y-91669809D01*
X117245190Y-91609333D01*
X117003285Y-91609333D01*
X116882333Y-91669809D01*
X116821857Y-91730285D01*
X116761380Y-91851238D01*
X136319380Y-91125523D02*
X136319380Y-92153619D01*
X136379857Y-92274571D01*
X136440333Y-92335047D01*
X136561285Y-92395523D01*
X136803190Y-92395523D01*
X136924142Y-92335047D01*
X136984619Y-92274571D01*
X137045095Y-92153619D01*
X137045095Y-91125523D01*
X137528904Y-91125523D02*
X138375571Y-91125523D01*
X137831285Y-92395523D01*
D10*
X66929095Y-39162380D02*
X66929095Y-38162380D01*
X66929095Y-38638571D02*
X67500523Y-38638571D01*
X67500523Y-39162380D02*
X67500523Y-38162380D01*
X68452904Y-38162380D02*
X67976714Y-38162380D01*
X67929095Y-38638571D01*
X67976714Y-38590952D01*
X68071952Y-38543333D01*
X68310047Y-38543333D01*
X68405285Y-38590952D01*
X68452904Y-38638571D01*
X68500523Y-38733809D01*
X68500523Y-38971904D01*
X68452904Y-39067142D01*
X68405285Y-39114761D01*
X68310047Y-39162380D01*
X68071952Y-39162380D01*
X67976714Y-39114761D01*
X67929095Y-39067142D01*
X66929095Y-105202380D02*
X66929095Y-104202380D01*
X66929095Y-104678571D02*
X67500523Y-104678571D01*
X67500523Y-105202380D02*
X67500523Y-104202380D01*
X68405285Y-104202380D02*
X68214809Y-104202380D01*
X68119571Y-104250000D01*
X68071952Y-104297619D01*
X67976714Y-104440476D01*
X67929095Y-104630952D01*
X67929095Y-105011904D01*
X67976714Y-105107142D01*
X68024333Y-105154761D01*
X68119571Y-105202380D01*
X68310047Y-105202380D01*
X68405285Y-105154761D01*
X68452904Y-105107142D01*
X68500523Y-105011904D01*
X68500523Y-104773809D01*
X68452904Y-104678571D01*
X68405285Y-104630952D01*
X68310047Y-104583333D01*
X68119571Y-104583333D01*
X68024333Y-104630952D01*
X67976714Y-104678571D01*
X67929095Y-104773809D01*
X155829095Y-39416380D02*
X155829095Y-38416380D01*
X155829095Y-38892571D02*
X156400523Y-38892571D01*
X156400523Y-39416380D02*
X156400523Y-38416380D01*
X156781476Y-38416380D02*
X157448142Y-38416380D01*
X157019571Y-39416380D01*
X155829095Y-105202380D02*
X155829095Y-104202380D01*
X155829095Y-104678571D02*
X156400523Y-104678571D01*
X156400523Y-105202380D02*
X156400523Y-104202380D01*
X157019571Y-104630952D02*
X156924333Y-104583333D01*
X156876714Y-104535714D01*
X156829095Y-104440476D01*
X156829095Y-104392857D01*
X156876714Y-104297619D01*
X156924333Y-104250000D01*
X157019571Y-104202380D01*
X157210047Y-104202380D01*
X157305285Y-104250000D01*
X157352904Y-104297619D01*
X157400523Y-104392857D01*
X157400523Y-104440476D01*
X157352904Y-104535714D01*
X157305285Y-104583333D01*
X157210047Y-104630952D01*
X157019571Y-104630952D01*
X156924333Y-104678571D01*
X156876714Y-104726190D01*
X156829095Y-104821428D01*
X156829095Y-105011904D01*
X156876714Y-105107142D01*
X156924333Y-105154761D01*
X157019571Y-105202380D01*
X157210047Y-105202380D01*
X157305285Y-105154761D01*
X157352904Y-105107142D01*
X157400523Y-105011904D01*
X157400523Y-104821428D01*
X157352904Y-104726190D01*
X157305285Y-104678571D01*
X157210047Y-104630952D01*
M02*
