M48
INCH,TZ
T1C0.0157
T2C0.0315
T3C0.0374
T4C0.0531
T5C0.0591
T6C0.0634
T7C0.0669
T8C0.0866
%
G90
G05
T1
X28350Y-39400
X28968Y-37265
X28978Y-37658
X29950Y-39300
X30250Y-39800
X30250Y-40400
X30550Y-39300
X30850Y-39800
X30850Y-40400
X31050Y-34600
X31050Y-35200
X31050Y-35800
X31450Y-39800
X31450Y-40400
X31750Y-34600
X31750Y-35200
X31750Y-35800
X32050Y-39800
X32050Y-40400
X32450Y-34600
X32450Y-35200
X32450Y-35800
X32650Y-39800
X32650Y-40400
X33250Y-39300
X33250Y-39800
X33250Y-40400
X34381Y-38446
X34559Y-36871
X35189Y-38003
X35287Y-19519
X36550Y-36200
X37256Y-37265
X37265Y-37658
X37738Y-19528
X38023Y-20965
X38063Y-35247
X38150Y-39300
X38450Y-39800
X38450Y-40400
X38750Y-39300
X39050Y-39800
X39050Y-40400
X39135Y-21654
X39350Y-34700
X39350Y-35300
X39350Y-35900
X39650Y-39800
X39650Y-40400
X40011Y-19519
X40050Y-34700
X40050Y-35300
X40050Y-35900
X40250Y-39800
X40250Y-40400
X40691Y-20965
X40750Y-34700
X40750Y-35300
X40750Y-35900
X40850Y-39800
X40850Y-40400
X41450Y-39300
X41450Y-39800
X41450Y-40400
X41675Y-18938
X41675Y-28918
X42600Y-19223
X42610Y-38446
X42787Y-36881
X42984Y-29725
X42984Y-32078
X43309Y-38003
X43643Y-20109
X43988Y-22914
X44450Y-19509
X44750Y-36200
X45484Y-35467
X45484Y-37265
X45484Y-37658
X46232Y-35080
X46350Y-39400
X46650Y-39900
X46650Y-40500
X46911Y-23544
X46950Y-39400
X47250Y-39900
X47250Y-40500
X47450Y-34800
X47450Y-35400
X47450Y-36000
X47850Y-39900
X47850Y-40500
X48150Y-34800
X48150Y-35400
X48150Y-36000
X48450Y-39900
X48450Y-40500
X48850Y-34800
X48850Y-35400
X48850Y-36000
X49050Y-39900
X49050Y-40500
X49637Y-20158
X49637Y-23790
X49650Y-39400
X49650Y-39900
X49650Y-40500
X50041Y-35650
X50759Y-38446
X50937Y-36881
X51527Y-38003
X51626Y-20454
X52069Y-22383
X52383Y-23475
X52650Y-15500
X52935Y-24292
X52950Y-36200
X53279Y-20828
X53712Y-37265
X53712Y-37658
X54460Y-35198
X54550Y-39400
X54850Y-39900
X54850Y-40500
X55150Y-39400
X55450Y-39900
X55450Y-40500
X55550Y-34900
X55550Y-35500
X55550Y-36100
X56050Y-39900
X56050Y-40500
X56250Y-34900
X56250Y-35500
X56250Y-36100
X56650Y-39900
X56650Y-40500
X56950Y-34900
X56950Y-35500
X56950Y-36100
X57250Y-39900
X57250Y-40500
X57850Y-39400
X57850Y-39900
X57850Y-40500
X58240Y-35365
X58998Y-38446
X59194Y-36871
X59608Y-38003
T2
X43450Y-43000
X44828Y-43000
X51550Y-42900
X52928Y-42900
X35350Y-43000
X36728Y-43000
X27050Y-33600
X28428Y-33600
T3
X48200Y-16536
X49185Y-16536
X50169Y-16536
X51153Y-16536
X52137Y-16536
X53122Y-16536
X54106Y-16536
X55090Y-16536
X56074Y-16536
X57059Y-16536
X58043Y-16536
X59027Y-16536
X34785Y-16536
X35769Y-16536
X36754Y-16536
X37738Y-16536
X38722Y-16536
X39706Y-16536
X40691Y-16536
X41675Y-16536
X42659Y-16536
X43643Y-16536
X44628Y-16536
X45612Y-16536
T4
X28830Y-16340
X28830Y-18191
X32570Y-16340
X32570Y-18191
T5
X30700Y-18899
T6
X30700Y-16537
T7
X30700Y-15258
T8
X26650Y-16500
X26650Y-42500
X61650Y-16600
X61650Y-42500
T0
M30
