M48
METRIC,TZ
T1C0.400
T2C0.800
T3C0.950
T4C1.350
T5C1.500
T6C1.610
T7C1.700
T8C2.200
%
G90
G05
T1
X72009Y-100076
X73579Y-94652
X73604Y-95652
X76073Y-99822
X76835Y-101092
X76835Y-102616
X77597Y-99822
X78359Y-101092
X78359Y-102616
X78867Y-87884
X78867Y-89408
X78867Y-90932
X79883Y-101092
X79883Y-102616
X80645Y-87884
X80645Y-89408
X80645Y-90932
X81407Y-101092
X81407Y-102616
X82423Y-87884
X82423Y-89408
X82423Y-90932
X82931Y-101092
X82931Y-102616
X84455Y-99822
X84455Y-101092
X84455Y-102616
X87329Y-97652
X87779Y-93652
X89379Y-96527
X89629Y-49577
X92837Y-91948
X94629Y-94652
X94654Y-95652
X95854Y-49602
X96579Y-53252
X96679Y-89527
X96901Y-99822
X97663Y-101092
X97663Y-102616
X98425Y-99822
X99187Y-101092
X99187Y-102616
X99402Y-55002
X99949Y-88138
X99949Y-89662
X99949Y-91186
X100711Y-101092
X100711Y-102616
X101629Y-49577
X101727Y-88138
X101727Y-89662
X101727Y-91186
X102235Y-101092
X102235Y-102616
X103354Y-53252
X103505Y-88138
X103505Y-89662
X103505Y-91186
X103759Y-101092
X103759Y-102616
X105283Y-99822
X105283Y-101092
X105283Y-102616
X105854Y-48102
X105854Y-73452
X108204Y-48827
X108229Y-97652
X108679Y-93677
X109179Y-75502
X109179Y-81477
X110004Y-96527
X110854Y-51077
X111729Y-58202
X112904Y-49552
X113665Y-91948
X115529Y-90087
X115529Y-94652
X115529Y-95652
X117429Y-89102
X117729Y-100076
X118491Y-101346
X118491Y-102870
X119154Y-59802
X119253Y-100076
X120015Y-101346
X120015Y-102870
X120523Y-88392
X120523Y-89916
X120523Y-91440
X121539Y-101346
X121539Y-102870
X122301Y-88392
X122301Y-89916
X122301Y-91440
X123063Y-101346
X123063Y-102870
X124079Y-88392
X124079Y-89916
X124079Y-91440
X124587Y-101346
X124587Y-102870
X126079Y-51202
X126079Y-60427
X126111Y-100076
X126111Y-101346
X126111Y-102870
X127104Y-90552
X128929Y-97652
X129379Y-93677
X130879Y-96527
X131129Y-51952
X132254Y-56852
X133054Y-59627
X133731Y-39370
X134454Y-61702
X134493Y-91948
X135329Y-52902
X136429Y-94652
X136429Y-95652
X138329Y-89402
X138557Y-100076
X139319Y-101346
X139319Y-102870
X140081Y-100076
X140843Y-101346
X140843Y-102870
X141097Y-88646
X141097Y-90170
X141097Y-91694
X142367Y-101346
X142367Y-102870
X142875Y-88646
X142875Y-90170
X142875Y-91694
X143891Y-101346
X143891Y-102870
X144653Y-88646
X144653Y-90170
X144653Y-91694
X145415Y-101346
X145415Y-102870
X146939Y-100076
X146939Y-101346
X146939Y-102870
X147929Y-89827
X149854Y-97652
X150354Y-93652
X151404Y-96527
T2
X130937Y-108966
X134437Y-108966
X68707Y-85344
X72207Y-85344
X89789Y-109220
X93289Y-109220
X110363Y-109220
X113863Y-109220
T3
X122429Y-42002
X124929Y-42002
X127429Y-42002
X129929Y-42002
X132429Y-42002
X134929Y-42002
X137429Y-42002
X139929Y-42002
X142429Y-42002
X144929Y-42002
X147429Y-42002
X149929Y-42002
X88354Y-42002
X90854Y-42002
X93354Y-42002
X95854Y-42002
X98354Y-42002
X100854Y-42002
X103354Y-42002
X105854Y-42002
X108354Y-42002
X110854Y-42002
X113354Y-42002
X115854Y-42002
T4
X73228Y-41505
X73228Y-46205
X82728Y-41505
X82728Y-46205
T5
X77978Y-48005
T6
X77978Y-42005
T7
X77978Y-38755
T8
X67691Y-41910
X156591Y-42164
X67691Y-107950
X156591Y-107950
T0
M30
