M48
INCH,TZ
T1C0.0118
T2C0.0157
T3C0.0374
T4C0.0394
T5C0.0866
%
G90
G05
T1
X85250Y-40303
X85250Y-40697
T2
X73382Y-27189
X75906Y-30047
X77764Y-30024
X77776Y-28642
X79051Y-28402
X79500Y-27000
X79500Y-28500
X79500Y-30300
X79900Y-27100
X79900Y-28500
X79900Y-30300
X79933Y-24906
X80000Y-31900
X80100Y-31500
X80300Y-29900
X80500Y-33700
X80617Y-27517
X80800Y-33400
X81000Y-29800
X81300Y-30100
X81600Y-30400
X82300Y-30900
X83827Y-35161
X84250Y-40250
X84250Y-42000
X86750Y-42000
X87250Y-31750
X87700Y-39480
T3
X67310Y-27860
X67310Y-28844
X67310Y-29829
X67310Y-38360
X67310Y-39344
X67310Y-40329
X83460Y-21270
X84444Y-21270
X85429Y-21270
X86413Y-21270
X67310Y-33110
X67310Y-34094
X67310Y-35079
X77910Y-21270
X78894Y-21270
X79879Y-21270
X80863Y-21270
X89260Y-24070
X89260Y-25054
X89260Y-26039
X89260Y-27023
X89260Y-28007
X89260Y-28991
X89260Y-29976
X89260Y-30960
X89260Y-31944
X89260Y-32928
X89260Y-33913
X89260Y-34897
X67310Y-22610
X67310Y-23594
X67310Y-24579
T4
X76216Y-42920
X77200Y-42920
X72716Y-42920
X73700Y-42920
X89000Y-37500
X89000Y-38500
X89000Y-39500
T5
X89500Y-43250
X66500Y-19750
X89500Y-19750
X66500Y-43500
T0
M30
