G04 #@! TF.GenerationSoftware,KiCad,Pcbnew,(5.1.5)-3*
G04 #@! TF.CreationDate,2020-03-16T21:34:29+01:00*
G04 #@! TF.ProjectId,ent,656e742e-6b69-4636-9164-5f7063625858,rev?*
G04 #@! TF.SameCoordinates,Original*
G04 #@! TF.FileFunction,Soldermask,Bot*
G04 #@! TF.FilePolarity,Negative*
%FSLAX46Y46*%
G04 Gerber Fmt 4.6, Leading zero omitted, Abs format (unit mm)*
G04 Created by KiCad (PCBNEW (5.1.5)-3) date 2020-03-16 21:34:29*
%MOMM*%
%LPD*%
G04 APERTURE LIST*
%ADD10O,1.700000X2.000000*%
%ADD11C,0.100000*%
%ADD12O,1.700000X1.950000*%
%ADD13O,1.950000X1.700000*%
%ADD14R,1.700000X1.700000*%
%ADD15O,1.700000X1.700000*%
%ADD16C,4.400000*%
G04 APERTURE END LIST*
D10*
X193588000Y-109016800D03*
D11*
G36*
X196712504Y-108018004D02*
G01*
X196736773Y-108021604D01*
X196760571Y-108027565D01*
X196783671Y-108035830D01*
X196805849Y-108046320D01*
X196826893Y-108058933D01*
X196846598Y-108073547D01*
X196864777Y-108090023D01*
X196881253Y-108108202D01*
X196895867Y-108127907D01*
X196908480Y-108148951D01*
X196918970Y-108171129D01*
X196927235Y-108194229D01*
X196933196Y-108218027D01*
X196936796Y-108242296D01*
X196938000Y-108266800D01*
X196938000Y-109766800D01*
X196936796Y-109791304D01*
X196933196Y-109815573D01*
X196927235Y-109839371D01*
X196918970Y-109862471D01*
X196908480Y-109884649D01*
X196895867Y-109905693D01*
X196881253Y-109925398D01*
X196864777Y-109943577D01*
X196846598Y-109960053D01*
X196826893Y-109974667D01*
X196805849Y-109987280D01*
X196783671Y-109997770D01*
X196760571Y-110006035D01*
X196736773Y-110011996D01*
X196712504Y-110015596D01*
X196688000Y-110016800D01*
X195488000Y-110016800D01*
X195463496Y-110015596D01*
X195439227Y-110011996D01*
X195415429Y-110006035D01*
X195392329Y-109997770D01*
X195370151Y-109987280D01*
X195349107Y-109974667D01*
X195329402Y-109960053D01*
X195311223Y-109943577D01*
X195294747Y-109925398D01*
X195280133Y-109905693D01*
X195267520Y-109884649D01*
X195257030Y-109862471D01*
X195248765Y-109839371D01*
X195242804Y-109815573D01*
X195239204Y-109791304D01*
X195238000Y-109766800D01*
X195238000Y-108266800D01*
X195239204Y-108242296D01*
X195242804Y-108218027D01*
X195248765Y-108194229D01*
X195257030Y-108171129D01*
X195267520Y-108148951D01*
X195280133Y-108127907D01*
X195294747Y-108108202D01*
X195311223Y-108090023D01*
X195329402Y-108073547D01*
X195349107Y-108058933D01*
X195370151Y-108046320D01*
X195392329Y-108035830D01*
X195415429Y-108027565D01*
X195439227Y-108021604D01*
X195463496Y-108018004D01*
X195488000Y-108016800D01*
X196688000Y-108016800D01*
X196712504Y-108018004D01*
G37*
D10*
X184698000Y-109016800D03*
D11*
G36*
X187822504Y-108018004D02*
G01*
X187846773Y-108021604D01*
X187870571Y-108027565D01*
X187893671Y-108035830D01*
X187915849Y-108046320D01*
X187936893Y-108058933D01*
X187956598Y-108073547D01*
X187974777Y-108090023D01*
X187991253Y-108108202D01*
X188005867Y-108127907D01*
X188018480Y-108148951D01*
X188028970Y-108171129D01*
X188037235Y-108194229D01*
X188043196Y-108218027D01*
X188046796Y-108242296D01*
X188048000Y-108266800D01*
X188048000Y-109766800D01*
X188046796Y-109791304D01*
X188043196Y-109815573D01*
X188037235Y-109839371D01*
X188028970Y-109862471D01*
X188018480Y-109884649D01*
X188005867Y-109905693D01*
X187991253Y-109925398D01*
X187974777Y-109943577D01*
X187956598Y-109960053D01*
X187936893Y-109974667D01*
X187915849Y-109987280D01*
X187893671Y-109997770D01*
X187870571Y-110006035D01*
X187846773Y-110011996D01*
X187822504Y-110015596D01*
X187798000Y-110016800D01*
X186598000Y-110016800D01*
X186573496Y-110015596D01*
X186549227Y-110011996D01*
X186525429Y-110006035D01*
X186502329Y-109997770D01*
X186480151Y-109987280D01*
X186459107Y-109974667D01*
X186439402Y-109960053D01*
X186421223Y-109943577D01*
X186404747Y-109925398D01*
X186390133Y-109905693D01*
X186377520Y-109884649D01*
X186367030Y-109862471D01*
X186358765Y-109839371D01*
X186352804Y-109815573D01*
X186349204Y-109791304D01*
X186348000Y-109766800D01*
X186348000Y-108266800D01*
X186349204Y-108242296D01*
X186352804Y-108218027D01*
X186358765Y-108194229D01*
X186367030Y-108171129D01*
X186377520Y-108148951D01*
X186390133Y-108127907D01*
X186404747Y-108108202D01*
X186421223Y-108090023D01*
X186439402Y-108073547D01*
X186459107Y-108058933D01*
X186480151Y-108046320D01*
X186502329Y-108035830D01*
X186525429Y-108027565D01*
X186549227Y-108021604D01*
X186573496Y-108018004D01*
X186598000Y-108016800D01*
X187798000Y-108016800D01*
X187822504Y-108018004D01*
G37*
D12*
X205391400Y-54025800D03*
X202891400Y-54025800D03*
X200391400Y-54025800D03*
D11*
G36*
X198515904Y-53052004D02*
G01*
X198540173Y-53055604D01*
X198563971Y-53061565D01*
X198587071Y-53069830D01*
X198609249Y-53080320D01*
X198630293Y-53092933D01*
X198649998Y-53107547D01*
X198668177Y-53124023D01*
X198684653Y-53142202D01*
X198699267Y-53161907D01*
X198711880Y-53182951D01*
X198722370Y-53205129D01*
X198730635Y-53228229D01*
X198736596Y-53252027D01*
X198740196Y-53276296D01*
X198741400Y-53300800D01*
X198741400Y-54750800D01*
X198740196Y-54775304D01*
X198736596Y-54799573D01*
X198730635Y-54823371D01*
X198722370Y-54846471D01*
X198711880Y-54868649D01*
X198699267Y-54889693D01*
X198684653Y-54909398D01*
X198668177Y-54927577D01*
X198649998Y-54944053D01*
X198630293Y-54958667D01*
X198609249Y-54971280D01*
X198587071Y-54981770D01*
X198563971Y-54990035D01*
X198540173Y-54995996D01*
X198515904Y-54999596D01*
X198491400Y-55000800D01*
X197291400Y-55000800D01*
X197266896Y-54999596D01*
X197242627Y-54995996D01*
X197218829Y-54990035D01*
X197195729Y-54981770D01*
X197173551Y-54971280D01*
X197152507Y-54958667D01*
X197132802Y-54944053D01*
X197114623Y-54927577D01*
X197098147Y-54909398D01*
X197083533Y-54889693D01*
X197070920Y-54868649D01*
X197060430Y-54846471D01*
X197052165Y-54823371D01*
X197046204Y-54799573D01*
X197042604Y-54775304D01*
X197041400Y-54750800D01*
X197041400Y-53300800D01*
X197042604Y-53276296D01*
X197046204Y-53252027D01*
X197052165Y-53228229D01*
X197060430Y-53205129D01*
X197070920Y-53182951D01*
X197083533Y-53161907D01*
X197098147Y-53142202D01*
X197114623Y-53124023D01*
X197132802Y-53107547D01*
X197152507Y-53092933D01*
X197173551Y-53080320D01*
X197195729Y-53069830D01*
X197218829Y-53061565D01*
X197242627Y-53055604D01*
X197266896Y-53052004D01*
X197291400Y-53050800D01*
X198491400Y-53050800D01*
X198515904Y-53052004D01*
G37*
G36*
X171716904Y-56580604D02*
G01*
X171741173Y-56584204D01*
X171764971Y-56590165D01*
X171788071Y-56598430D01*
X171810249Y-56608920D01*
X171831293Y-56621533D01*
X171850998Y-56636147D01*
X171869177Y-56652623D01*
X171885653Y-56670802D01*
X171900267Y-56690507D01*
X171912880Y-56711551D01*
X171923370Y-56733729D01*
X171931635Y-56756829D01*
X171937596Y-56780627D01*
X171941196Y-56804896D01*
X171942400Y-56829400D01*
X171942400Y-58029400D01*
X171941196Y-58053904D01*
X171937596Y-58078173D01*
X171931635Y-58101971D01*
X171923370Y-58125071D01*
X171912880Y-58147249D01*
X171900267Y-58168293D01*
X171885653Y-58187998D01*
X171869177Y-58206177D01*
X171850998Y-58222653D01*
X171831293Y-58237267D01*
X171810249Y-58249880D01*
X171788071Y-58260370D01*
X171764971Y-58268635D01*
X171741173Y-58274596D01*
X171716904Y-58278196D01*
X171692400Y-58279400D01*
X170242400Y-58279400D01*
X170217896Y-58278196D01*
X170193627Y-58274596D01*
X170169829Y-58268635D01*
X170146729Y-58260370D01*
X170124551Y-58249880D01*
X170103507Y-58237267D01*
X170083802Y-58222653D01*
X170065623Y-58206177D01*
X170049147Y-58187998D01*
X170034533Y-58168293D01*
X170021920Y-58147249D01*
X170011430Y-58125071D01*
X170003165Y-58101971D01*
X169997204Y-58078173D01*
X169993604Y-58053904D01*
X169992400Y-58029400D01*
X169992400Y-56829400D01*
X169993604Y-56804896D01*
X169997204Y-56780627D01*
X170003165Y-56756829D01*
X170011430Y-56733729D01*
X170021920Y-56711551D01*
X170034533Y-56690507D01*
X170049147Y-56670802D01*
X170065623Y-56652623D01*
X170083802Y-56636147D01*
X170103507Y-56621533D01*
X170124551Y-56608920D01*
X170146729Y-56598430D01*
X170169829Y-56590165D01*
X170193627Y-56584204D01*
X170217896Y-56580604D01*
X170242400Y-56579400D01*
X171692400Y-56579400D01*
X171716904Y-56580604D01*
G37*
D13*
X170967400Y-59929400D03*
X170967400Y-62429400D03*
X170967400Y-89099400D03*
X170967400Y-86599400D03*
D11*
G36*
X171716904Y-83250604D02*
G01*
X171741173Y-83254204D01*
X171764971Y-83260165D01*
X171788071Y-83268430D01*
X171810249Y-83278920D01*
X171831293Y-83291533D01*
X171850998Y-83306147D01*
X171869177Y-83322623D01*
X171885653Y-83340802D01*
X171900267Y-83360507D01*
X171912880Y-83381551D01*
X171923370Y-83403729D01*
X171931635Y-83426829D01*
X171937596Y-83450627D01*
X171941196Y-83474896D01*
X171942400Y-83499400D01*
X171942400Y-84699400D01*
X171941196Y-84723904D01*
X171937596Y-84748173D01*
X171931635Y-84771971D01*
X171923370Y-84795071D01*
X171912880Y-84817249D01*
X171900267Y-84838293D01*
X171885653Y-84857998D01*
X171869177Y-84876177D01*
X171850998Y-84892653D01*
X171831293Y-84907267D01*
X171810249Y-84919880D01*
X171788071Y-84930370D01*
X171764971Y-84938635D01*
X171741173Y-84944596D01*
X171716904Y-84948196D01*
X171692400Y-84949400D01*
X170242400Y-84949400D01*
X170217896Y-84948196D01*
X170193627Y-84944596D01*
X170169829Y-84938635D01*
X170146729Y-84930370D01*
X170124551Y-84919880D01*
X170103507Y-84907267D01*
X170083802Y-84892653D01*
X170065623Y-84876177D01*
X170049147Y-84857998D01*
X170034533Y-84838293D01*
X170021920Y-84817249D01*
X170011430Y-84795071D01*
X170003165Y-84771971D01*
X169997204Y-84748173D01*
X169993604Y-84723904D01*
X169992400Y-84699400D01*
X169992400Y-83499400D01*
X169993604Y-83474896D01*
X169997204Y-83450627D01*
X170003165Y-83426829D01*
X170011430Y-83403729D01*
X170021920Y-83381551D01*
X170034533Y-83360507D01*
X170049147Y-83340802D01*
X170065623Y-83322623D01*
X170083802Y-83306147D01*
X170103507Y-83291533D01*
X170124551Y-83278920D01*
X170146729Y-83268430D01*
X170169829Y-83260165D01*
X170193627Y-83254204D01*
X170217896Y-83250604D01*
X170242400Y-83249400D01*
X171692400Y-83249400D01*
X171716904Y-83250604D01*
G37*
G36*
X227469904Y-60289004D02*
G01*
X227494173Y-60292604D01*
X227517971Y-60298565D01*
X227541071Y-60306830D01*
X227563249Y-60317320D01*
X227584293Y-60329933D01*
X227603998Y-60344547D01*
X227622177Y-60361023D01*
X227638653Y-60379202D01*
X227653267Y-60398907D01*
X227665880Y-60419951D01*
X227676370Y-60442129D01*
X227684635Y-60465229D01*
X227690596Y-60489027D01*
X227694196Y-60513296D01*
X227695400Y-60537800D01*
X227695400Y-61737800D01*
X227694196Y-61762304D01*
X227690596Y-61786573D01*
X227684635Y-61810371D01*
X227676370Y-61833471D01*
X227665880Y-61855649D01*
X227653267Y-61876693D01*
X227638653Y-61896398D01*
X227622177Y-61914577D01*
X227603998Y-61931053D01*
X227584293Y-61945667D01*
X227563249Y-61958280D01*
X227541071Y-61968770D01*
X227517971Y-61977035D01*
X227494173Y-61982996D01*
X227469904Y-61986596D01*
X227445400Y-61987800D01*
X225995400Y-61987800D01*
X225970896Y-61986596D01*
X225946627Y-61982996D01*
X225922829Y-61977035D01*
X225899729Y-61968770D01*
X225877551Y-61958280D01*
X225856507Y-61945667D01*
X225836802Y-61931053D01*
X225818623Y-61914577D01*
X225802147Y-61896398D01*
X225787533Y-61876693D01*
X225774920Y-61855649D01*
X225764430Y-61833471D01*
X225756165Y-61810371D01*
X225750204Y-61786573D01*
X225746604Y-61762304D01*
X225745400Y-61737800D01*
X225745400Y-60537800D01*
X225746604Y-60513296D01*
X225750204Y-60489027D01*
X225756165Y-60465229D01*
X225764430Y-60442129D01*
X225774920Y-60419951D01*
X225787533Y-60398907D01*
X225802147Y-60379202D01*
X225818623Y-60361023D01*
X225836802Y-60344547D01*
X225856507Y-60329933D01*
X225877551Y-60317320D01*
X225899729Y-60306830D01*
X225922829Y-60298565D01*
X225946627Y-60292604D01*
X225970896Y-60289004D01*
X225995400Y-60287800D01*
X227445400Y-60287800D01*
X227469904Y-60289004D01*
G37*
D13*
X226720400Y-63637800D03*
X226720400Y-66137800D03*
X226720400Y-68637800D03*
X226720400Y-71137800D03*
X226720400Y-73637800D03*
X226720400Y-76137800D03*
X226720400Y-78637800D03*
X226720400Y-81137800D03*
X226720400Y-83637800D03*
X226720400Y-86137800D03*
X226720400Y-88637800D03*
D11*
G36*
X212612904Y-53052004D02*
G01*
X212637173Y-53055604D01*
X212660971Y-53061565D01*
X212684071Y-53069830D01*
X212706249Y-53080320D01*
X212727293Y-53092933D01*
X212746998Y-53107547D01*
X212765177Y-53124023D01*
X212781653Y-53142202D01*
X212796267Y-53161907D01*
X212808880Y-53182951D01*
X212819370Y-53205129D01*
X212827635Y-53228229D01*
X212833596Y-53252027D01*
X212837196Y-53276296D01*
X212838400Y-53300800D01*
X212838400Y-54750800D01*
X212837196Y-54775304D01*
X212833596Y-54799573D01*
X212827635Y-54823371D01*
X212819370Y-54846471D01*
X212808880Y-54868649D01*
X212796267Y-54889693D01*
X212781653Y-54909398D01*
X212765177Y-54927577D01*
X212746998Y-54944053D01*
X212727293Y-54958667D01*
X212706249Y-54971280D01*
X212684071Y-54981770D01*
X212660971Y-54990035D01*
X212637173Y-54995996D01*
X212612904Y-54999596D01*
X212588400Y-55000800D01*
X211388400Y-55000800D01*
X211363896Y-54999596D01*
X211339627Y-54995996D01*
X211315829Y-54990035D01*
X211292729Y-54981770D01*
X211270551Y-54971280D01*
X211249507Y-54958667D01*
X211229802Y-54944053D01*
X211211623Y-54927577D01*
X211195147Y-54909398D01*
X211180533Y-54889693D01*
X211167920Y-54868649D01*
X211157430Y-54846471D01*
X211149165Y-54823371D01*
X211143204Y-54799573D01*
X211139604Y-54775304D01*
X211138400Y-54750800D01*
X211138400Y-53300800D01*
X211139604Y-53276296D01*
X211143204Y-53252027D01*
X211149165Y-53228229D01*
X211157430Y-53205129D01*
X211167920Y-53182951D01*
X211180533Y-53161907D01*
X211195147Y-53142202D01*
X211211623Y-53124023D01*
X211229802Y-53107547D01*
X211249507Y-53092933D01*
X211270551Y-53080320D01*
X211292729Y-53069830D01*
X211315829Y-53061565D01*
X211339627Y-53055604D01*
X211363896Y-53052004D01*
X211388400Y-53050800D01*
X212588400Y-53050800D01*
X212612904Y-53052004D01*
G37*
D12*
X214488400Y-54025800D03*
X216988400Y-54025800D03*
X219488400Y-54025800D03*
D11*
G36*
X171716904Y-69915604D02*
G01*
X171741173Y-69919204D01*
X171764971Y-69925165D01*
X171788071Y-69933430D01*
X171810249Y-69943920D01*
X171831293Y-69956533D01*
X171850998Y-69971147D01*
X171869177Y-69987623D01*
X171885653Y-70005802D01*
X171900267Y-70025507D01*
X171912880Y-70046551D01*
X171923370Y-70068729D01*
X171931635Y-70091829D01*
X171937596Y-70115627D01*
X171941196Y-70139896D01*
X171942400Y-70164400D01*
X171942400Y-71364400D01*
X171941196Y-71388904D01*
X171937596Y-71413173D01*
X171931635Y-71436971D01*
X171923370Y-71460071D01*
X171912880Y-71482249D01*
X171900267Y-71503293D01*
X171885653Y-71522998D01*
X171869177Y-71541177D01*
X171850998Y-71557653D01*
X171831293Y-71572267D01*
X171810249Y-71584880D01*
X171788071Y-71595370D01*
X171764971Y-71603635D01*
X171741173Y-71609596D01*
X171716904Y-71613196D01*
X171692400Y-71614400D01*
X170242400Y-71614400D01*
X170217896Y-71613196D01*
X170193627Y-71609596D01*
X170169829Y-71603635D01*
X170146729Y-71595370D01*
X170124551Y-71584880D01*
X170103507Y-71572267D01*
X170083802Y-71557653D01*
X170065623Y-71541177D01*
X170049147Y-71522998D01*
X170034533Y-71503293D01*
X170021920Y-71482249D01*
X170011430Y-71460071D01*
X170003165Y-71436971D01*
X169997204Y-71413173D01*
X169993604Y-71388904D01*
X169992400Y-71364400D01*
X169992400Y-70164400D01*
X169993604Y-70139896D01*
X169997204Y-70115627D01*
X170003165Y-70091829D01*
X170011430Y-70068729D01*
X170021920Y-70046551D01*
X170034533Y-70025507D01*
X170049147Y-70005802D01*
X170065623Y-69987623D01*
X170083802Y-69971147D01*
X170103507Y-69956533D01*
X170124551Y-69943920D01*
X170146729Y-69933430D01*
X170169829Y-69925165D01*
X170193627Y-69919204D01*
X170217896Y-69915604D01*
X170242400Y-69914400D01*
X171692400Y-69914400D01*
X171716904Y-69915604D01*
G37*
D13*
X170967400Y-73264400D03*
X170967400Y-75764400D03*
X170967400Y-102434400D03*
X170967400Y-99934400D03*
D11*
G36*
X171716904Y-96585604D02*
G01*
X171741173Y-96589204D01*
X171764971Y-96595165D01*
X171788071Y-96603430D01*
X171810249Y-96613920D01*
X171831293Y-96626533D01*
X171850998Y-96641147D01*
X171869177Y-96657623D01*
X171885653Y-96675802D01*
X171900267Y-96695507D01*
X171912880Y-96716551D01*
X171923370Y-96738729D01*
X171931635Y-96761829D01*
X171937596Y-96785627D01*
X171941196Y-96809896D01*
X171942400Y-96834400D01*
X171942400Y-98034400D01*
X171941196Y-98058904D01*
X171937596Y-98083173D01*
X171931635Y-98106971D01*
X171923370Y-98130071D01*
X171912880Y-98152249D01*
X171900267Y-98173293D01*
X171885653Y-98192998D01*
X171869177Y-98211177D01*
X171850998Y-98227653D01*
X171831293Y-98242267D01*
X171810249Y-98254880D01*
X171788071Y-98265370D01*
X171764971Y-98273635D01*
X171741173Y-98279596D01*
X171716904Y-98283196D01*
X171692400Y-98284400D01*
X170242400Y-98284400D01*
X170217896Y-98283196D01*
X170193627Y-98279596D01*
X170169829Y-98273635D01*
X170146729Y-98265370D01*
X170124551Y-98254880D01*
X170103507Y-98242267D01*
X170083802Y-98227653D01*
X170065623Y-98211177D01*
X170049147Y-98192998D01*
X170034533Y-98173293D01*
X170021920Y-98152249D01*
X170011430Y-98130071D01*
X170003165Y-98106971D01*
X169997204Y-98083173D01*
X169993604Y-98058904D01*
X169992400Y-98034400D01*
X169992400Y-96834400D01*
X169993604Y-96809896D01*
X169997204Y-96785627D01*
X170003165Y-96761829D01*
X170011430Y-96738729D01*
X170021920Y-96716551D01*
X170034533Y-96695507D01*
X170049147Y-96675802D01*
X170065623Y-96657623D01*
X170083802Y-96641147D01*
X170103507Y-96626533D01*
X170124551Y-96613920D01*
X170146729Y-96603430D01*
X170169829Y-96595165D01*
X170193627Y-96589204D01*
X170217896Y-96585604D01*
X170242400Y-96584400D01*
X171692400Y-96584400D01*
X171716904Y-96585604D01*
G37*
D14*
X226060000Y-100330000D03*
D15*
X226060000Y-97790000D03*
X226060000Y-95250000D03*
D16*
X169545000Y-110490000D03*
X227330000Y-109855000D03*
X227330000Y-50165000D03*
X170180000Y-50165000D03*
M02*
