G04 #@! TF.GenerationSoftware,KiCad,Pcbnew,(5.1.5)-3*
G04 #@! TF.CreationDate,2020-03-18T20:16:45+01:00*
G04 #@! TF.ProjectId,ent,656e742e-6b69-4636-9164-5f7063625858,rev?*
G04 #@! TF.SameCoordinates,Original*
G04 #@! TF.FileFunction,Legend,Top*
G04 #@! TF.FilePolarity,Positive*
%FSLAX46Y46*%
G04 Gerber Fmt 4.6, Leading zero omitted, Abs format (unit mm)*
G04 Created by KiCad (PCBNEW (5.1.5)-3) date 2020-03-18 20:16:45*
%MOMM*%
%LPD*%
G04 APERTURE LIST*
%ADD10C,0.120000*%
%ADD11C,0.150000*%
G04 APERTURE END LIST*
D10*
X216035000Y-101750000D02*
X217035000Y-101750000D01*
X218035000Y-103990000D02*
X216035000Y-103990000D01*
X201270800Y-71722000D02*
X200870800Y-71722000D01*
X200870800Y-71722000D02*
X200870800Y-71497000D01*
X202690800Y-69502000D02*
X203090800Y-69502000D01*
X203090800Y-69502000D02*
X203090800Y-69727000D01*
X201270800Y-69502000D02*
X200870800Y-69502000D01*
X200870800Y-69502000D02*
X200870800Y-69727000D01*
X202690800Y-71722000D02*
X203090800Y-71722000D01*
X214154652Y-67715200D02*
X213632148Y-67715200D01*
X214154652Y-66295200D02*
X213632148Y-66295200D01*
X198938000Y-111766800D02*
X198938000Y-110516800D01*
X197688000Y-111766800D02*
X198938000Y-111766800D01*
X191788000Y-106266800D02*
X194838000Y-106266800D01*
X191788000Y-109216800D02*
X191788000Y-106266800D01*
X191038000Y-109216800D02*
X191788000Y-109216800D01*
X197888000Y-106266800D02*
X194838000Y-106266800D01*
X197888000Y-109216800D02*
X197888000Y-106266800D01*
X198638000Y-109216800D02*
X197888000Y-109216800D01*
X191038000Y-111466800D02*
X192838000Y-111466800D01*
X191038000Y-110716800D02*
X191038000Y-111466800D01*
X192838000Y-110716800D02*
X191038000Y-110716800D01*
X192838000Y-111466800D02*
X192838000Y-110716800D01*
X196838000Y-111466800D02*
X198638000Y-111466800D01*
X196838000Y-110716800D02*
X196838000Y-111466800D01*
X198638000Y-110716800D02*
X196838000Y-110716800D01*
X198638000Y-111466800D02*
X198638000Y-110716800D01*
X194338000Y-111466800D02*
X195338000Y-111466800D01*
X194338000Y-110716800D02*
X194338000Y-111466800D01*
X195338000Y-110716800D02*
X194338000Y-110716800D01*
X195338000Y-111466800D02*
X195338000Y-110716800D01*
X191028000Y-111476800D02*
X198648000Y-111476800D01*
X191028000Y-105506800D02*
X191028000Y-111476800D01*
X198648000Y-105506800D02*
X191028000Y-105506800D01*
X198648000Y-111476800D02*
X198648000Y-105506800D01*
X190048000Y-111766800D02*
X190048000Y-110516800D01*
X188798000Y-111766800D02*
X190048000Y-111766800D01*
X182898000Y-106266800D02*
X185948000Y-106266800D01*
X182898000Y-109216800D02*
X182898000Y-106266800D01*
X182148000Y-109216800D02*
X182898000Y-109216800D01*
X188998000Y-106266800D02*
X185948000Y-106266800D01*
X188998000Y-109216800D02*
X188998000Y-106266800D01*
X189748000Y-109216800D02*
X188998000Y-109216800D01*
X182148000Y-111466800D02*
X183948000Y-111466800D01*
X182148000Y-110716800D02*
X182148000Y-111466800D01*
X183948000Y-110716800D02*
X182148000Y-110716800D01*
X183948000Y-111466800D02*
X183948000Y-110716800D01*
X187948000Y-111466800D02*
X189748000Y-111466800D01*
X187948000Y-110716800D02*
X187948000Y-111466800D01*
X189748000Y-110716800D02*
X187948000Y-110716800D01*
X189748000Y-111466800D02*
X189748000Y-110716800D01*
X185448000Y-111466800D02*
X186448000Y-111466800D01*
X185448000Y-110716800D02*
X185448000Y-111466800D01*
X186448000Y-110716800D02*
X185448000Y-110716800D01*
X186448000Y-111466800D02*
X186448000Y-110716800D01*
X182138000Y-111476800D02*
X189758000Y-111476800D01*
X182138000Y-105506800D02*
X182138000Y-111476800D01*
X189758000Y-105506800D02*
X182138000Y-105506800D01*
X189758000Y-111476800D02*
X189758000Y-105506800D01*
X195079252Y-100686800D02*
X194556748Y-100686800D01*
X195079252Y-102106800D02*
X194556748Y-102106800D01*
X186189252Y-100686800D02*
X185666748Y-100686800D01*
X186189252Y-102106800D02*
X185666748Y-102106800D01*
X219635000Y-103243748D02*
X219635000Y-103766252D01*
X221055000Y-103243748D02*
X221055000Y-103766252D01*
X216273748Y-105970000D02*
X216796252Y-105970000D01*
X216273748Y-107390000D02*
X216796252Y-107390000D01*
X203656000Y-66453652D02*
X203656000Y-65931148D01*
X202236000Y-66453652D02*
X202236000Y-65931148D01*
X200303200Y-66453652D02*
X200303200Y-65931148D01*
X198883200Y-66453652D02*
X198883200Y-65931148D01*
X185649800Y-71417548D02*
X185649800Y-71940052D01*
X187069800Y-71417548D02*
X187069800Y-71940052D01*
X192025200Y-79306052D02*
X192025200Y-78783548D01*
X193445200Y-79306052D02*
X193445200Y-78783548D01*
X212167400Y-86428948D02*
X212167400Y-86951452D01*
X213587400Y-86428948D02*
X213587400Y-86951452D01*
X196800400Y-79306052D02*
X196800400Y-78783548D01*
X198220400Y-79306052D02*
X198220400Y-78783548D01*
X195041400Y-51275800D02*
X195041400Y-52525800D01*
X196291400Y-51275800D02*
X195041400Y-51275800D01*
X207191400Y-56775800D02*
X201641400Y-56775800D01*
X207191400Y-53825800D02*
X207191400Y-56775800D01*
X207941400Y-53825800D02*
X207191400Y-53825800D01*
X196091400Y-56775800D02*
X201641400Y-56775800D01*
X196091400Y-53825800D02*
X196091400Y-56775800D01*
X195341400Y-53825800D02*
X196091400Y-53825800D01*
X207941400Y-51575800D02*
X206141400Y-51575800D01*
X207941400Y-52325800D02*
X207941400Y-51575800D01*
X206141400Y-52325800D02*
X207941400Y-52325800D01*
X206141400Y-51575800D02*
X206141400Y-52325800D01*
X197141400Y-51575800D02*
X195341400Y-51575800D01*
X197141400Y-52325800D02*
X197141400Y-51575800D01*
X195341400Y-52325800D02*
X197141400Y-52325800D01*
X195341400Y-51575800D02*
X195341400Y-52325800D01*
X204641400Y-51575800D02*
X198641400Y-51575800D01*
X204641400Y-52325800D02*
X204641400Y-51575800D01*
X198641400Y-52325800D02*
X204641400Y-52325800D01*
X198641400Y-51575800D02*
X198641400Y-52325800D01*
X207951400Y-51565800D02*
X195331400Y-51565800D01*
X207951400Y-57535800D02*
X207951400Y-51565800D01*
X195331400Y-57535800D02*
X207951400Y-57535800D01*
X195331400Y-51565800D02*
X195331400Y-57535800D01*
X173427400Y-54869400D02*
X167457400Y-54869400D01*
X167457400Y-54869400D02*
X167457400Y-64989400D01*
X167457400Y-64989400D02*
X173427400Y-64989400D01*
X173427400Y-64989400D02*
X173427400Y-54869400D01*
X173417400Y-58179400D02*
X172667400Y-58179400D01*
X172667400Y-58179400D02*
X172667400Y-61679400D01*
X172667400Y-61679400D02*
X173417400Y-61679400D01*
X173417400Y-61679400D02*
X173417400Y-58179400D01*
X173417400Y-54879400D02*
X172667400Y-54879400D01*
X172667400Y-54879400D02*
X172667400Y-56679400D01*
X172667400Y-56679400D02*
X173417400Y-56679400D01*
X173417400Y-56679400D02*
X173417400Y-54879400D01*
X173417400Y-63179400D02*
X172667400Y-63179400D01*
X172667400Y-63179400D02*
X172667400Y-64979400D01*
X172667400Y-64979400D02*
X173417400Y-64979400D01*
X173417400Y-64979400D02*
X173417400Y-63179400D01*
X171167400Y-54879400D02*
X171167400Y-55629400D01*
X171167400Y-55629400D02*
X168217400Y-55629400D01*
X168217400Y-55629400D02*
X168217400Y-59929400D01*
X171167400Y-64979400D02*
X171167400Y-64229400D01*
X171167400Y-64229400D02*
X168217400Y-64229400D01*
X168217400Y-64229400D02*
X168217400Y-59929400D01*
X173717400Y-55829400D02*
X173717400Y-54579400D01*
X173717400Y-54579400D02*
X172467400Y-54579400D01*
X173717400Y-81249400D02*
X172467400Y-81249400D01*
X173717400Y-82499400D02*
X173717400Y-81249400D01*
X168217400Y-90899400D02*
X168217400Y-86599400D01*
X171167400Y-90899400D02*
X168217400Y-90899400D01*
X171167400Y-91649400D02*
X171167400Y-90899400D01*
X168217400Y-82299400D02*
X168217400Y-86599400D01*
X171167400Y-82299400D02*
X168217400Y-82299400D01*
X171167400Y-81549400D02*
X171167400Y-82299400D01*
X173417400Y-91649400D02*
X173417400Y-89849400D01*
X172667400Y-91649400D02*
X173417400Y-91649400D01*
X172667400Y-89849400D02*
X172667400Y-91649400D01*
X173417400Y-89849400D02*
X172667400Y-89849400D01*
X173417400Y-83349400D02*
X173417400Y-81549400D01*
X172667400Y-83349400D02*
X173417400Y-83349400D01*
X172667400Y-81549400D02*
X172667400Y-83349400D01*
X173417400Y-81549400D02*
X172667400Y-81549400D01*
X173417400Y-88349400D02*
X173417400Y-84849400D01*
X172667400Y-88349400D02*
X173417400Y-88349400D01*
X172667400Y-84849400D02*
X172667400Y-88349400D01*
X173417400Y-84849400D02*
X172667400Y-84849400D01*
X173427400Y-91659400D02*
X173427400Y-81539400D01*
X167457400Y-91659400D02*
X173427400Y-91659400D01*
X167457400Y-81539400D02*
X167457400Y-91659400D01*
X173427400Y-81539400D02*
X167457400Y-81539400D01*
X229180400Y-58577800D02*
X223210400Y-58577800D01*
X223210400Y-58577800D02*
X223210400Y-91197800D01*
X223210400Y-91197800D02*
X229180400Y-91197800D01*
X229180400Y-91197800D02*
X229180400Y-58577800D01*
X229170400Y-61887800D02*
X228420400Y-61887800D01*
X228420400Y-61887800D02*
X228420400Y-87887800D01*
X228420400Y-87887800D02*
X229170400Y-87887800D01*
X229170400Y-87887800D02*
X229170400Y-61887800D01*
X229170400Y-58587800D02*
X228420400Y-58587800D01*
X228420400Y-58587800D02*
X228420400Y-60387800D01*
X228420400Y-60387800D02*
X229170400Y-60387800D01*
X229170400Y-60387800D02*
X229170400Y-58587800D01*
X229170400Y-89387800D02*
X228420400Y-89387800D01*
X228420400Y-89387800D02*
X228420400Y-91187800D01*
X228420400Y-91187800D02*
X229170400Y-91187800D01*
X229170400Y-91187800D02*
X229170400Y-89387800D01*
X226920400Y-58587800D02*
X226920400Y-59337800D01*
X226920400Y-59337800D02*
X223970400Y-59337800D01*
X223970400Y-59337800D02*
X223970400Y-74887800D01*
X226920400Y-91187800D02*
X226920400Y-90437800D01*
X226920400Y-90437800D02*
X223970400Y-90437800D01*
X223970400Y-90437800D02*
X223970400Y-74887800D01*
X229470400Y-59537800D02*
X229470400Y-58287800D01*
X229470400Y-58287800D02*
X228220400Y-58287800D01*
X209428400Y-51565800D02*
X209428400Y-57535800D01*
X209428400Y-57535800D02*
X222048400Y-57535800D01*
X222048400Y-57535800D02*
X222048400Y-51565800D01*
X222048400Y-51565800D02*
X209428400Y-51565800D01*
X212738400Y-51575800D02*
X212738400Y-52325800D01*
X212738400Y-52325800D02*
X218738400Y-52325800D01*
X218738400Y-52325800D02*
X218738400Y-51575800D01*
X218738400Y-51575800D02*
X212738400Y-51575800D01*
X209438400Y-51575800D02*
X209438400Y-52325800D01*
X209438400Y-52325800D02*
X211238400Y-52325800D01*
X211238400Y-52325800D02*
X211238400Y-51575800D01*
X211238400Y-51575800D02*
X209438400Y-51575800D01*
X220238400Y-51575800D02*
X220238400Y-52325800D01*
X220238400Y-52325800D02*
X222038400Y-52325800D01*
X222038400Y-52325800D02*
X222038400Y-51575800D01*
X222038400Y-51575800D02*
X220238400Y-51575800D01*
X209438400Y-53825800D02*
X210188400Y-53825800D01*
X210188400Y-53825800D02*
X210188400Y-56775800D01*
X210188400Y-56775800D02*
X215738400Y-56775800D01*
X222038400Y-53825800D02*
X221288400Y-53825800D01*
X221288400Y-53825800D02*
X221288400Y-56775800D01*
X221288400Y-56775800D02*
X215738400Y-56775800D01*
X210388400Y-51275800D02*
X209138400Y-51275800D01*
X209138400Y-51275800D02*
X209138400Y-52525800D01*
X173427400Y-68204400D02*
X167457400Y-68204400D01*
X167457400Y-68204400D02*
X167457400Y-78324400D01*
X167457400Y-78324400D02*
X173427400Y-78324400D01*
X173427400Y-78324400D02*
X173427400Y-68204400D01*
X173417400Y-71514400D02*
X172667400Y-71514400D01*
X172667400Y-71514400D02*
X172667400Y-75014400D01*
X172667400Y-75014400D02*
X173417400Y-75014400D01*
X173417400Y-75014400D02*
X173417400Y-71514400D01*
X173417400Y-68214400D02*
X172667400Y-68214400D01*
X172667400Y-68214400D02*
X172667400Y-70014400D01*
X172667400Y-70014400D02*
X173417400Y-70014400D01*
X173417400Y-70014400D02*
X173417400Y-68214400D01*
X173417400Y-76514400D02*
X172667400Y-76514400D01*
X172667400Y-76514400D02*
X172667400Y-78314400D01*
X172667400Y-78314400D02*
X173417400Y-78314400D01*
X173417400Y-78314400D02*
X173417400Y-76514400D01*
X171167400Y-68214400D02*
X171167400Y-68964400D01*
X171167400Y-68964400D02*
X168217400Y-68964400D01*
X168217400Y-68964400D02*
X168217400Y-73264400D01*
X171167400Y-78314400D02*
X171167400Y-77564400D01*
X171167400Y-77564400D02*
X168217400Y-77564400D01*
X168217400Y-77564400D02*
X168217400Y-73264400D01*
X173717400Y-69164400D02*
X173717400Y-67914400D01*
X173717400Y-67914400D02*
X172467400Y-67914400D01*
X173717400Y-94584400D02*
X172467400Y-94584400D01*
X173717400Y-95834400D02*
X173717400Y-94584400D01*
X168217400Y-104234400D02*
X168217400Y-99934400D01*
X171167400Y-104234400D02*
X168217400Y-104234400D01*
X171167400Y-104984400D02*
X171167400Y-104234400D01*
X168217400Y-95634400D02*
X168217400Y-99934400D01*
X171167400Y-95634400D02*
X168217400Y-95634400D01*
X171167400Y-94884400D02*
X171167400Y-95634400D01*
X173417400Y-104984400D02*
X173417400Y-103184400D01*
X172667400Y-104984400D02*
X173417400Y-104984400D01*
X172667400Y-103184400D02*
X172667400Y-104984400D01*
X173417400Y-103184400D02*
X172667400Y-103184400D01*
X173417400Y-96684400D02*
X173417400Y-94884400D01*
X172667400Y-96684400D02*
X173417400Y-96684400D01*
X172667400Y-94884400D02*
X172667400Y-96684400D01*
X173417400Y-94884400D02*
X172667400Y-94884400D01*
X173417400Y-101684400D02*
X173417400Y-98184400D01*
X172667400Y-101684400D02*
X173417400Y-101684400D01*
X172667400Y-98184400D02*
X172667400Y-101684400D01*
X173417400Y-98184400D02*
X172667400Y-98184400D01*
X173427400Y-104994400D02*
X173427400Y-94874400D01*
X167457400Y-104994400D02*
X173427400Y-104994400D01*
X167457400Y-94874400D02*
X167457400Y-104994400D01*
X173427400Y-94874400D02*
X167457400Y-94874400D01*
X212800000Y-103878748D02*
X212800000Y-104401252D01*
X211380000Y-103878748D02*
X211380000Y-104401252D01*
X208205000Y-103878748D02*
X208205000Y-104401252D01*
X209625000Y-103878748D02*
X209625000Y-104401252D01*
X206983400Y-64574052D02*
X206983400Y-64051548D01*
X205563400Y-64574052D02*
X205563400Y-64051548D01*
X213628349Y-61662001D02*
X214150853Y-61662001D01*
X213628349Y-63082001D02*
X214150853Y-63082001D01*
X227390000Y-93920000D02*
X224730000Y-93920000D01*
X227390000Y-99060000D02*
X227390000Y-93920000D01*
X224730000Y-99060000D02*
X224730000Y-93920000D01*
X227390000Y-99060000D02*
X224730000Y-99060000D01*
X227390000Y-100330000D02*
X227390000Y-101660000D01*
X227390000Y-101660000D02*
X226060000Y-101660000D01*
X196676400Y-71962400D02*
X196646400Y-71962400D01*
X190216400Y-71962400D02*
X190246400Y-71962400D01*
X190216400Y-65502400D02*
X190246400Y-65502400D01*
X196646400Y-65502400D02*
X196676400Y-65502400D01*
X194746400Y-71962400D02*
X192146400Y-71962400D01*
X196676400Y-65502400D02*
X196676400Y-71962400D01*
X194746400Y-65502400D02*
X192146400Y-65502400D01*
X190216400Y-65502400D02*
X190216400Y-71962400D01*
X210115000Y-99491800D02*
G75*
G03X210115000Y-99491800I-1200000J0D01*
G01*
X205720800Y-105968800D02*
G75*
G03X205720800Y-105968800I-1200000J0D01*
G01*
X215931600Y-97129600D02*
G75*
G03X215931600Y-97129600I-1200000J0D01*
G01*
X208338800Y-86464800D02*
X208638800Y-86464800D01*
X208638800Y-86464800D02*
X208638800Y-86164800D01*
X201718800Y-86464800D02*
X201418800Y-86464800D01*
X201418800Y-86464800D02*
X201418800Y-86164800D01*
X208338800Y-79244800D02*
X208638800Y-79244800D01*
X208638800Y-79244800D02*
X208638800Y-79544800D01*
X201718800Y-79244800D02*
X201418800Y-79244800D01*
X201418800Y-79244800D02*
X201418800Y-79544800D01*
X201418800Y-79544800D02*
X200103800Y-79544800D01*
X217769999Y-81999999D02*
X220629999Y-81999999D01*
X220629999Y-81999999D02*
X220629999Y-80079999D01*
X220629999Y-80079999D02*
X217769999Y-80079999D01*
X214286251Y-81794999D02*
X213763747Y-81794999D01*
X214286251Y-80374999D02*
X213763747Y-80374999D01*
D11*
X215773095Y-99782380D02*
X215773095Y-100591904D01*
X215820714Y-100687142D01*
X215868333Y-100734761D01*
X215963571Y-100782380D01*
X216154047Y-100782380D01*
X216249285Y-100734761D01*
X216296904Y-100687142D01*
X216344523Y-100591904D01*
X216344523Y-99782380D01*
X217344523Y-100782380D02*
X216773095Y-100782380D01*
X217058809Y-100782380D02*
X217058809Y-99782380D01*
X216963571Y-99925238D01*
X216868333Y-100020476D01*
X216773095Y-100068095D01*
X201218895Y-71864380D02*
X201218895Y-72673904D01*
X201266514Y-72769142D01*
X201314133Y-72816761D01*
X201409371Y-72864380D01*
X201599847Y-72864380D01*
X201695085Y-72816761D01*
X201742704Y-72769142D01*
X201790323Y-72673904D01*
X201790323Y-71864380D01*
X202218895Y-71959619D02*
X202266514Y-71912000D01*
X202361752Y-71864380D01*
X202599847Y-71864380D01*
X202695085Y-71912000D01*
X202742704Y-71959619D01*
X202790323Y-72054857D01*
X202790323Y-72150095D01*
X202742704Y-72292952D01*
X202171276Y-72864380D01*
X202790323Y-72864380D01*
X213726733Y-69107580D02*
X213393400Y-68631390D01*
X213155304Y-69107580D02*
X213155304Y-68107580D01*
X213536257Y-68107580D01*
X213631495Y-68155200D01*
X213679114Y-68202819D01*
X213726733Y-68298057D01*
X213726733Y-68440914D01*
X213679114Y-68536152D01*
X213631495Y-68583771D01*
X213536257Y-68631390D01*
X213155304Y-68631390D01*
X214060066Y-68107580D02*
X214679114Y-68107580D01*
X214345780Y-68488533D01*
X214488638Y-68488533D01*
X214583876Y-68536152D01*
X214631495Y-68583771D01*
X214679114Y-68679009D01*
X214679114Y-68917104D01*
X214631495Y-69012342D01*
X214583876Y-69059961D01*
X214488638Y-69107580D01*
X214202923Y-69107580D01*
X214107685Y-69059961D01*
X214060066Y-69012342D01*
X193504666Y-112971561D02*
X193647523Y-113019180D01*
X193885619Y-113019180D01*
X193980857Y-112971561D01*
X194028476Y-112923942D01*
X194076095Y-112828704D01*
X194076095Y-112733466D01*
X194028476Y-112638228D01*
X193980857Y-112590609D01*
X193885619Y-112542990D01*
X193695142Y-112495371D01*
X193599904Y-112447752D01*
X193552285Y-112400133D01*
X193504666Y-112304895D01*
X193504666Y-112209657D01*
X193552285Y-112114419D01*
X193599904Y-112066800D01*
X193695142Y-112019180D01*
X193933238Y-112019180D01*
X194076095Y-112066800D01*
X194409428Y-112019180D02*
X194647523Y-113019180D01*
X194838000Y-112304895D01*
X195028476Y-113019180D01*
X195266571Y-112019180D01*
X196076095Y-112352514D02*
X196076095Y-113019180D01*
X195838000Y-111971561D02*
X195599904Y-112685847D01*
X196218952Y-112685847D01*
X184614666Y-112971561D02*
X184757523Y-113019180D01*
X184995619Y-113019180D01*
X185090857Y-112971561D01*
X185138476Y-112923942D01*
X185186095Y-112828704D01*
X185186095Y-112733466D01*
X185138476Y-112638228D01*
X185090857Y-112590609D01*
X184995619Y-112542990D01*
X184805142Y-112495371D01*
X184709904Y-112447752D01*
X184662285Y-112400133D01*
X184614666Y-112304895D01*
X184614666Y-112209657D01*
X184662285Y-112114419D01*
X184709904Y-112066800D01*
X184805142Y-112019180D01*
X185043238Y-112019180D01*
X185186095Y-112066800D01*
X185519428Y-112019180D02*
X185757523Y-113019180D01*
X185948000Y-112304895D01*
X186138476Y-113019180D01*
X186376571Y-112019180D01*
X186662285Y-112019180D02*
X187281333Y-112019180D01*
X186948000Y-112400133D01*
X187090857Y-112400133D01*
X187186095Y-112447752D01*
X187233714Y-112495371D01*
X187281333Y-112590609D01*
X187281333Y-112828704D01*
X187233714Y-112923942D01*
X187186095Y-112971561D01*
X187090857Y-113019180D01*
X186805142Y-113019180D01*
X186709904Y-112971561D01*
X186662285Y-112923942D01*
X194651333Y-103499180D02*
X194318000Y-103022990D01*
X194079904Y-103499180D02*
X194079904Y-102499180D01*
X194460857Y-102499180D01*
X194556095Y-102546800D01*
X194603714Y-102594419D01*
X194651333Y-102689657D01*
X194651333Y-102832514D01*
X194603714Y-102927752D01*
X194556095Y-102975371D01*
X194460857Y-103022990D01*
X194079904Y-103022990D01*
X195508476Y-102499180D02*
X195318000Y-102499180D01*
X195222761Y-102546800D01*
X195175142Y-102594419D01*
X195079904Y-102737276D01*
X195032285Y-102927752D01*
X195032285Y-103308704D01*
X195079904Y-103403942D01*
X195127523Y-103451561D01*
X195222761Y-103499180D01*
X195413238Y-103499180D01*
X195508476Y-103451561D01*
X195556095Y-103403942D01*
X195603714Y-103308704D01*
X195603714Y-103070609D01*
X195556095Y-102975371D01*
X195508476Y-102927752D01*
X195413238Y-102880133D01*
X195222761Y-102880133D01*
X195127523Y-102927752D01*
X195079904Y-102975371D01*
X195032285Y-103070609D01*
X185761333Y-103499180D02*
X185428000Y-103022990D01*
X185189904Y-103499180D02*
X185189904Y-102499180D01*
X185570857Y-102499180D01*
X185666095Y-102546800D01*
X185713714Y-102594419D01*
X185761333Y-102689657D01*
X185761333Y-102832514D01*
X185713714Y-102927752D01*
X185666095Y-102975371D01*
X185570857Y-103022990D01*
X185189904Y-103022990D01*
X186666095Y-102499180D02*
X186189904Y-102499180D01*
X186142285Y-102975371D01*
X186189904Y-102927752D01*
X186285142Y-102880133D01*
X186523238Y-102880133D01*
X186618476Y-102927752D01*
X186666095Y-102975371D01*
X186713714Y-103070609D01*
X186713714Y-103308704D01*
X186666095Y-103403942D01*
X186618476Y-103451561D01*
X186523238Y-103499180D01*
X186285142Y-103499180D01*
X186189904Y-103451561D01*
X186142285Y-103403942D01*
X222352142Y-103671666D02*
X222399761Y-103719285D01*
X222447380Y-103862142D01*
X222447380Y-103957380D01*
X222399761Y-104100238D01*
X222304523Y-104195476D01*
X222209285Y-104243095D01*
X222018809Y-104290714D01*
X221875952Y-104290714D01*
X221685476Y-104243095D01*
X221590238Y-104195476D01*
X221495000Y-104100238D01*
X221447380Y-103957380D01*
X221447380Y-103862142D01*
X221495000Y-103719285D01*
X221542619Y-103671666D01*
X222447380Y-102719285D02*
X222447380Y-103290714D01*
X222447380Y-103005000D02*
X221447380Y-103005000D01*
X221590238Y-103100238D01*
X221685476Y-103195476D01*
X221733095Y-103290714D01*
X216368333Y-105387142D02*
X216320714Y-105434761D01*
X216177857Y-105482380D01*
X216082619Y-105482380D01*
X215939761Y-105434761D01*
X215844523Y-105339523D01*
X215796904Y-105244285D01*
X215749285Y-105053809D01*
X215749285Y-104910952D01*
X215796904Y-104720476D01*
X215844523Y-104625238D01*
X215939761Y-104530000D01*
X216082619Y-104482380D01*
X216177857Y-104482380D01*
X216320714Y-104530000D01*
X216368333Y-104577619D01*
X216749285Y-104577619D02*
X216796904Y-104530000D01*
X216892142Y-104482380D01*
X217130238Y-104482380D01*
X217225476Y-104530000D01*
X217273095Y-104577619D01*
X217320714Y-104672857D01*
X217320714Y-104768095D01*
X217273095Y-104910952D01*
X216701666Y-105482380D01*
X217320714Y-105482380D01*
X201653142Y-66359066D02*
X201700761Y-66406685D01*
X201748380Y-66549542D01*
X201748380Y-66644780D01*
X201700761Y-66787638D01*
X201605523Y-66882876D01*
X201510285Y-66930495D01*
X201319809Y-66978114D01*
X201176952Y-66978114D01*
X200986476Y-66930495D01*
X200891238Y-66882876D01*
X200796000Y-66787638D01*
X200748380Y-66644780D01*
X200748380Y-66549542D01*
X200796000Y-66406685D01*
X200843619Y-66359066D01*
X200748380Y-66025733D02*
X200748380Y-65406685D01*
X201129333Y-65740019D01*
X201129333Y-65597161D01*
X201176952Y-65501923D01*
X201224571Y-65454304D01*
X201319809Y-65406685D01*
X201557904Y-65406685D01*
X201653142Y-65454304D01*
X201700761Y-65501923D01*
X201748380Y-65597161D01*
X201748380Y-65882876D01*
X201700761Y-65978114D01*
X201653142Y-66025733D01*
X198300342Y-66359066D02*
X198347961Y-66406685D01*
X198395580Y-66549542D01*
X198395580Y-66644780D01*
X198347961Y-66787638D01*
X198252723Y-66882876D01*
X198157485Y-66930495D01*
X197967009Y-66978114D01*
X197824152Y-66978114D01*
X197633676Y-66930495D01*
X197538438Y-66882876D01*
X197443200Y-66787638D01*
X197395580Y-66644780D01*
X197395580Y-66549542D01*
X197443200Y-66406685D01*
X197490819Y-66359066D01*
X197728914Y-65501923D02*
X198395580Y-65501923D01*
X197347961Y-65740019D02*
X198062247Y-65978114D01*
X198062247Y-65359066D01*
X188366942Y-71845466D02*
X188414561Y-71893085D01*
X188462180Y-72035942D01*
X188462180Y-72131180D01*
X188414561Y-72274038D01*
X188319323Y-72369276D01*
X188224085Y-72416895D01*
X188033609Y-72464514D01*
X187890752Y-72464514D01*
X187700276Y-72416895D01*
X187605038Y-72369276D01*
X187509800Y-72274038D01*
X187462180Y-72131180D01*
X187462180Y-72035942D01*
X187509800Y-71893085D01*
X187557419Y-71845466D01*
X187462180Y-70940704D02*
X187462180Y-71416895D01*
X187938371Y-71464514D01*
X187890752Y-71416895D01*
X187843133Y-71321657D01*
X187843133Y-71083561D01*
X187890752Y-70988323D01*
X187938371Y-70940704D01*
X188033609Y-70893085D01*
X188271704Y-70893085D01*
X188366942Y-70940704D01*
X188414561Y-70988323D01*
X188462180Y-71083561D01*
X188462180Y-71321657D01*
X188414561Y-71416895D01*
X188366942Y-71464514D01*
X191442342Y-79211466D02*
X191489961Y-79259085D01*
X191537580Y-79401942D01*
X191537580Y-79497180D01*
X191489961Y-79640038D01*
X191394723Y-79735276D01*
X191299485Y-79782895D01*
X191109009Y-79830514D01*
X190966152Y-79830514D01*
X190775676Y-79782895D01*
X190680438Y-79735276D01*
X190585200Y-79640038D01*
X190537580Y-79497180D01*
X190537580Y-79401942D01*
X190585200Y-79259085D01*
X190632819Y-79211466D01*
X190537580Y-78354323D02*
X190537580Y-78544800D01*
X190585200Y-78640038D01*
X190632819Y-78687657D01*
X190775676Y-78782895D01*
X190966152Y-78830514D01*
X191347104Y-78830514D01*
X191442342Y-78782895D01*
X191489961Y-78735276D01*
X191537580Y-78640038D01*
X191537580Y-78449561D01*
X191489961Y-78354323D01*
X191442342Y-78306704D01*
X191347104Y-78259085D01*
X191109009Y-78259085D01*
X191013771Y-78306704D01*
X190966152Y-78354323D01*
X190918533Y-78449561D01*
X190918533Y-78640038D01*
X190966152Y-78735276D01*
X191013771Y-78782895D01*
X191109009Y-78830514D01*
X214884542Y-86856866D02*
X214932161Y-86904485D01*
X214979780Y-87047342D01*
X214979780Y-87142580D01*
X214932161Y-87285438D01*
X214836923Y-87380676D01*
X214741685Y-87428295D01*
X214551209Y-87475914D01*
X214408352Y-87475914D01*
X214217876Y-87428295D01*
X214122638Y-87380676D01*
X214027400Y-87285438D01*
X213979780Y-87142580D01*
X213979780Y-87047342D01*
X214027400Y-86904485D01*
X214075019Y-86856866D01*
X213979780Y-86523533D02*
X213979780Y-85856866D01*
X214979780Y-86285438D01*
X196217542Y-79211466D02*
X196265161Y-79259085D01*
X196312780Y-79401942D01*
X196312780Y-79497180D01*
X196265161Y-79640038D01*
X196169923Y-79735276D01*
X196074685Y-79782895D01*
X195884209Y-79830514D01*
X195741352Y-79830514D01*
X195550876Y-79782895D01*
X195455638Y-79735276D01*
X195360400Y-79640038D01*
X195312780Y-79497180D01*
X195312780Y-79401942D01*
X195360400Y-79259085D01*
X195408019Y-79211466D01*
X195741352Y-78640038D02*
X195693733Y-78735276D01*
X195646114Y-78782895D01*
X195550876Y-78830514D01*
X195503257Y-78830514D01*
X195408019Y-78782895D01*
X195360400Y-78735276D01*
X195312780Y-78640038D01*
X195312780Y-78449561D01*
X195360400Y-78354323D01*
X195408019Y-78306704D01*
X195503257Y-78259085D01*
X195550876Y-78259085D01*
X195646114Y-78306704D01*
X195693733Y-78354323D01*
X195741352Y-78449561D01*
X195741352Y-78640038D01*
X195788971Y-78735276D01*
X195836590Y-78782895D01*
X195931828Y-78830514D01*
X196122304Y-78830514D01*
X196217542Y-78782895D01*
X196265161Y-78735276D01*
X196312780Y-78640038D01*
X196312780Y-78449561D01*
X196265161Y-78354323D01*
X196217542Y-78306704D01*
X196122304Y-78259085D01*
X195931828Y-78259085D01*
X195836590Y-78306704D01*
X195788971Y-78354323D01*
X195741352Y-78449561D01*
X201308066Y-49928180D02*
X201308066Y-50642466D01*
X201260447Y-50785323D01*
X201165209Y-50880561D01*
X201022352Y-50928180D01*
X200927114Y-50928180D01*
X202308066Y-50928180D02*
X201736638Y-50928180D01*
X202022352Y-50928180D02*
X202022352Y-49928180D01*
X201927114Y-50071038D01*
X201831876Y-50166276D01*
X201736638Y-50213895D01*
X173969780Y-60262733D02*
X174684066Y-60262733D01*
X174826923Y-60310352D01*
X174922161Y-60405590D01*
X174969780Y-60548447D01*
X174969780Y-60643685D01*
X174065019Y-59834161D02*
X174017400Y-59786542D01*
X173969780Y-59691304D01*
X173969780Y-59453209D01*
X174017400Y-59357971D01*
X174065019Y-59310352D01*
X174160257Y-59262733D01*
X174255495Y-59262733D01*
X174398352Y-59310352D01*
X174969780Y-59881780D01*
X174969780Y-59262733D01*
X173969780Y-86932733D02*
X174684066Y-86932733D01*
X174826923Y-86980352D01*
X174922161Y-87075590D01*
X174969780Y-87218447D01*
X174969780Y-87313685D01*
X173969780Y-86551780D02*
X173969780Y-85932733D01*
X174350733Y-86266066D01*
X174350733Y-86123209D01*
X174398352Y-86027971D01*
X174445971Y-85980352D01*
X174541209Y-85932733D01*
X174779304Y-85932733D01*
X174874542Y-85980352D01*
X174922161Y-86027971D01*
X174969780Y-86123209D01*
X174969780Y-86408923D01*
X174922161Y-86504161D01*
X174874542Y-86551780D01*
X229722780Y-75221133D02*
X230437066Y-75221133D01*
X230579923Y-75268752D01*
X230675161Y-75363990D01*
X230722780Y-75506847D01*
X230722780Y-75602085D01*
X230056114Y-74316371D02*
X230722780Y-74316371D01*
X229675161Y-74554466D02*
X230389447Y-74792561D01*
X230389447Y-74173514D01*
X215405066Y-49928180D02*
X215405066Y-50642466D01*
X215357447Y-50785323D01*
X215262209Y-50880561D01*
X215119352Y-50928180D01*
X215024114Y-50928180D01*
X216357447Y-49928180D02*
X215881257Y-49928180D01*
X215833638Y-50404371D01*
X215881257Y-50356752D01*
X215976495Y-50309133D01*
X216214590Y-50309133D01*
X216309828Y-50356752D01*
X216357447Y-50404371D01*
X216405066Y-50499609D01*
X216405066Y-50737704D01*
X216357447Y-50832942D01*
X216309828Y-50880561D01*
X216214590Y-50928180D01*
X215976495Y-50928180D01*
X215881257Y-50880561D01*
X215833638Y-50832942D01*
X173969780Y-73597733D02*
X174684066Y-73597733D01*
X174826923Y-73645352D01*
X174922161Y-73740590D01*
X174969780Y-73883447D01*
X174969780Y-73978685D01*
X173969780Y-72692971D02*
X173969780Y-72883447D01*
X174017400Y-72978685D01*
X174065019Y-73026304D01*
X174207876Y-73121542D01*
X174398352Y-73169161D01*
X174779304Y-73169161D01*
X174874542Y-73121542D01*
X174922161Y-73073923D01*
X174969780Y-72978685D01*
X174969780Y-72788209D01*
X174922161Y-72692971D01*
X174874542Y-72645352D01*
X174779304Y-72597733D01*
X174541209Y-72597733D01*
X174445971Y-72645352D01*
X174398352Y-72692971D01*
X174350733Y-72788209D01*
X174350733Y-72978685D01*
X174398352Y-73073923D01*
X174445971Y-73121542D01*
X174541209Y-73169161D01*
X173969780Y-100267733D02*
X174684066Y-100267733D01*
X174826923Y-100315352D01*
X174922161Y-100410590D01*
X174969780Y-100553447D01*
X174969780Y-100648685D01*
X173969780Y-99886780D02*
X173969780Y-99220114D01*
X174969780Y-99648685D01*
X214192380Y-104306666D02*
X214192380Y-104782857D01*
X213192380Y-104782857D01*
X214192380Y-103449523D02*
X214192380Y-104020952D01*
X214192380Y-103735238D02*
X213192380Y-103735238D01*
X213335238Y-103830476D01*
X213430476Y-103925714D01*
X213478095Y-104020952D01*
X211017380Y-104306666D02*
X210541190Y-104640000D01*
X211017380Y-104878095D02*
X210017380Y-104878095D01*
X210017380Y-104497142D01*
X210065000Y-104401904D01*
X210112619Y-104354285D01*
X210207857Y-104306666D01*
X210350714Y-104306666D01*
X210445952Y-104354285D01*
X210493571Y-104401904D01*
X210541190Y-104497142D01*
X210541190Y-104878095D01*
X211017380Y-103354285D02*
X211017380Y-103925714D01*
X211017380Y-103640000D02*
X210017380Y-103640000D01*
X210160238Y-103735238D01*
X210255476Y-103830476D01*
X210303095Y-103925714D01*
X205075780Y-64479466D02*
X204599590Y-64812800D01*
X205075780Y-65050895D02*
X204075780Y-65050895D01*
X204075780Y-64669942D01*
X204123400Y-64574704D01*
X204171019Y-64527085D01*
X204266257Y-64479466D01*
X204409114Y-64479466D01*
X204504352Y-64527085D01*
X204551971Y-64574704D01*
X204599590Y-64669942D01*
X204599590Y-65050895D01*
X204171019Y-64098514D02*
X204123400Y-64050895D01*
X204075780Y-63955657D01*
X204075780Y-63717561D01*
X204123400Y-63622323D01*
X204171019Y-63574704D01*
X204266257Y-63527085D01*
X204361495Y-63527085D01*
X204504352Y-63574704D01*
X205075780Y-64146133D01*
X205075780Y-63527085D01*
X213722934Y-61174381D02*
X213389601Y-60698191D01*
X213151505Y-61174381D02*
X213151505Y-60174381D01*
X213532458Y-60174381D01*
X213627696Y-60222001D01*
X213675315Y-60269620D01*
X213722934Y-60364858D01*
X213722934Y-60507715D01*
X213675315Y-60602953D01*
X213627696Y-60650572D01*
X213532458Y-60698191D01*
X213151505Y-60698191D01*
X214580077Y-60507715D02*
X214580077Y-61174381D01*
X214341981Y-60126762D02*
X214103886Y-60841048D01*
X214722934Y-60841048D01*
X224726666Y-103064761D02*
X224869523Y-103112380D01*
X225107619Y-103112380D01*
X225202857Y-103064761D01*
X225250476Y-103017142D01*
X225298095Y-102921904D01*
X225298095Y-102826666D01*
X225250476Y-102731428D01*
X225202857Y-102683809D01*
X225107619Y-102636190D01*
X224917142Y-102588571D01*
X224821904Y-102540952D01*
X224774285Y-102493333D01*
X224726666Y-102398095D01*
X224726666Y-102302857D01*
X224774285Y-102207619D01*
X224821904Y-102160000D01*
X224917142Y-102112380D01*
X225155238Y-102112380D01*
X225298095Y-102160000D01*
X225631428Y-102112380D02*
X225869523Y-103112380D01*
X226060000Y-102398095D01*
X226250476Y-103112380D01*
X226488571Y-102112380D01*
X227393333Y-103112380D02*
X226821904Y-103112380D01*
X227107619Y-103112380D02*
X227107619Y-102112380D01*
X227012380Y-102255238D01*
X226917142Y-102350476D01*
X226821904Y-102398095D01*
X197901161Y-70065733D02*
X197948780Y-69922876D01*
X197948780Y-69684780D01*
X197901161Y-69589542D01*
X197853542Y-69541923D01*
X197758304Y-69494304D01*
X197663066Y-69494304D01*
X197567828Y-69541923D01*
X197520209Y-69589542D01*
X197472590Y-69684780D01*
X197424971Y-69875257D01*
X197377352Y-69970495D01*
X197329733Y-70018114D01*
X197234495Y-70065733D01*
X197139257Y-70065733D01*
X197044019Y-70018114D01*
X196996400Y-69970495D01*
X196948780Y-69875257D01*
X196948780Y-69637161D01*
X196996400Y-69494304D01*
X196948780Y-69160971D02*
X197948780Y-68922876D01*
X197234495Y-68732400D01*
X197948780Y-68541923D01*
X196948780Y-68303828D01*
X197044019Y-67970495D02*
X196996400Y-67922876D01*
X196948780Y-67827638D01*
X196948780Y-67589542D01*
X196996400Y-67494304D01*
X197044019Y-67446685D01*
X197139257Y-67399066D01*
X197234495Y-67399066D01*
X197377352Y-67446685D01*
X197948780Y-68018114D01*
X197948780Y-67399066D01*
X207653095Y-96946180D02*
X208224523Y-96946180D01*
X207938809Y-97946180D02*
X207938809Y-96946180D01*
X208557857Y-97946180D02*
X208557857Y-96946180D01*
X208938809Y-96946180D01*
X209034047Y-96993800D01*
X209081666Y-97041419D01*
X209129285Y-97136657D01*
X209129285Y-97279514D01*
X209081666Y-97374752D01*
X209034047Y-97422371D01*
X208938809Y-97469990D01*
X208557857Y-97469990D01*
X210081666Y-97946180D02*
X209510238Y-97946180D01*
X209795952Y-97946180D02*
X209795952Y-96946180D01*
X209700714Y-97089038D01*
X209605476Y-97184276D01*
X209510238Y-97231895D01*
X203258895Y-103423180D02*
X203830323Y-103423180D01*
X203544609Y-104423180D02*
X203544609Y-103423180D01*
X204163657Y-104423180D02*
X204163657Y-103423180D01*
X204544609Y-103423180D01*
X204639847Y-103470800D01*
X204687466Y-103518419D01*
X204735085Y-103613657D01*
X204735085Y-103756514D01*
X204687466Y-103851752D01*
X204639847Y-103899371D01*
X204544609Y-103946990D01*
X204163657Y-103946990D01*
X205116038Y-103518419D02*
X205163657Y-103470800D01*
X205258895Y-103423180D01*
X205496990Y-103423180D01*
X205592228Y-103470800D01*
X205639847Y-103518419D01*
X205687466Y-103613657D01*
X205687466Y-103708895D01*
X205639847Y-103851752D01*
X205068419Y-104423180D01*
X205687466Y-104423180D01*
X213469695Y-94583980D02*
X214041123Y-94583980D01*
X213755409Y-95583980D02*
X213755409Y-94583980D01*
X214374457Y-95583980D02*
X214374457Y-94583980D01*
X214755409Y-94583980D01*
X214850647Y-94631600D01*
X214898266Y-94679219D01*
X214945885Y-94774457D01*
X214945885Y-94917314D01*
X214898266Y-95012552D01*
X214850647Y-95060171D01*
X214755409Y-95107790D01*
X214374457Y-95107790D01*
X215279219Y-94583980D02*
X215898266Y-94583980D01*
X215564933Y-94964933D01*
X215707790Y-94964933D01*
X215803028Y-95012552D01*
X215850647Y-95060171D01*
X215898266Y-95155409D01*
X215898266Y-95393504D01*
X215850647Y-95488742D01*
X215803028Y-95536361D01*
X215707790Y-95583980D01*
X215422076Y-95583980D01*
X215326838Y-95536361D01*
X215279219Y-95488742D01*
X204266895Y-76427180D02*
X204266895Y-77236704D01*
X204314514Y-77331942D01*
X204362133Y-77379561D01*
X204457371Y-77427180D01*
X204647847Y-77427180D01*
X204743085Y-77379561D01*
X204790704Y-77331942D01*
X204838323Y-77236704D01*
X204838323Y-76427180D01*
X205219276Y-76427180D02*
X205838323Y-76427180D01*
X205504990Y-76808133D01*
X205647847Y-76808133D01*
X205743085Y-76855752D01*
X205790704Y-76903371D01*
X205838323Y-76998609D01*
X205838323Y-77236704D01*
X205790704Y-77331942D01*
X205743085Y-77379561D01*
X205647847Y-77427180D01*
X205362133Y-77427180D01*
X205266895Y-77379561D01*
X205219276Y-77331942D01*
X218031903Y-83142379D02*
X218031903Y-82142379D01*
X218269999Y-82142379D01*
X218412856Y-82189999D01*
X218508094Y-82285237D01*
X218555713Y-82380475D01*
X218603332Y-82570951D01*
X218603332Y-82713808D01*
X218555713Y-82904284D01*
X218508094Y-82999522D01*
X218412856Y-83094760D01*
X218269999Y-83142379D01*
X218031903Y-83142379D01*
X218984284Y-82237618D02*
X219031903Y-82189999D01*
X219127141Y-82142379D01*
X219365237Y-82142379D01*
X219460475Y-82189999D01*
X219508094Y-82237618D01*
X219555713Y-82332856D01*
X219555713Y-82428094D01*
X219508094Y-82570951D01*
X218936665Y-83142379D01*
X219555713Y-83142379D01*
X168148095Y-107742380D02*
X168148095Y-106742380D01*
X168148095Y-107218571D02*
X168719523Y-107218571D01*
X168719523Y-107742380D02*
X168719523Y-106742380D01*
X169719523Y-107742380D02*
X169148095Y-107742380D01*
X169433809Y-107742380D02*
X169433809Y-106742380D01*
X169338571Y-106885238D01*
X169243333Y-106980476D01*
X169148095Y-107028095D01*
X226568095Y-107107380D02*
X226568095Y-106107380D01*
X226568095Y-106583571D02*
X227139523Y-106583571D01*
X227139523Y-107107380D02*
X227139523Y-106107380D01*
X227568095Y-106202619D02*
X227615714Y-106155000D01*
X227710952Y-106107380D01*
X227949047Y-106107380D01*
X228044285Y-106155000D01*
X228091904Y-106202619D01*
X228139523Y-106297857D01*
X228139523Y-106393095D01*
X228091904Y-106535952D01*
X227520476Y-107107380D01*
X228139523Y-107107380D01*
X226568095Y-47417380D02*
X226568095Y-46417380D01*
X226568095Y-46893571D02*
X227139523Y-46893571D01*
X227139523Y-47417380D02*
X227139523Y-46417380D01*
X227520476Y-46417380D02*
X228139523Y-46417380D01*
X227806190Y-46798333D01*
X227949047Y-46798333D01*
X228044285Y-46845952D01*
X228091904Y-46893571D01*
X228139523Y-46988809D01*
X228139523Y-47226904D01*
X228091904Y-47322142D01*
X228044285Y-47369761D01*
X227949047Y-47417380D01*
X227663333Y-47417380D01*
X227568095Y-47369761D01*
X227520476Y-47322142D01*
X168148095Y-47417380D02*
X168148095Y-46417380D01*
X168148095Y-46893571D02*
X168719523Y-46893571D01*
X168719523Y-47417380D02*
X168719523Y-46417380D01*
X169624285Y-46750714D02*
X169624285Y-47417380D01*
X169386190Y-46369761D02*
X169148095Y-47084047D01*
X169767142Y-47084047D01*
X213858332Y-83187379D02*
X213524999Y-82711189D01*
X213286903Y-83187379D02*
X213286903Y-82187379D01*
X213667856Y-82187379D01*
X213763094Y-82234999D01*
X213810713Y-82282618D01*
X213858332Y-82377856D01*
X213858332Y-82520713D01*
X213810713Y-82615951D01*
X213763094Y-82663570D01*
X213667856Y-82711189D01*
X213286903Y-82711189D01*
X214191665Y-82187379D02*
X214858332Y-82187379D01*
X214429760Y-83187379D01*
M02*
