M48
METRIC,TZ
T1C0.300
T2C0.400
T3C0.950
T4C1.000
T5C2.200
%
G90
G05
T1
X216535Y-102370
X216535Y-103370
T2
X186390Y-69060
X192800Y-76320
X197520Y-76260
X197550Y-72750
X200790Y-72140
X201930Y-68580
X201930Y-72390
X201930Y-76962
X202946Y-68834
X202946Y-72390
X202946Y-76962
X203030Y-63260
X203200Y-81026
X203454Y-80010
X203962Y-75946
X204470Y-85598
X204768Y-69894
X205232Y-84836
X205740Y-75692
X206502Y-76454
X207264Y-77216
X209042Y-78486
X212920Y-89310
X213995Y-102235
X213995Y-106680
X220345Y-106680
X221615Y-80645
X222758Y-100279
T3
X170967Y-70764
X170967Y-73264
X170967Y-75764
X170967Y-57429
X170967Y-59929
X170967Y-62429
X170967Y-97434
X170967Y-99934
X170967Y-102434
X170967Y-84099
X170967Y-86599
X170967Y-89099
X197891Y-54026
X200391Y-54026
X202891Y-54026
X205391Y-54026
X211988Y-54026
X214488Y-54026
X216988Y-54026
X219488Y-54026
X226720Y-61138
X226720Y-63638
X226720Y-66138
X226720Y-68638
X226720Y-71138
X226720Y-73638
X226720Y-76138
X226720Y-78638
X226720Y-81138
X226720Y-83638
X226720Y-86138
X226720Y-88638
T4
X193588Y-109017
X196088Y-109017
X184698Y-109017
X187198Y-109017
X226060Y-95250
X226060Y-97790
X226060Y-100330
T5
X170180Y-50165
X169545Y-110490
X227330Y-50165
X227330Y-109855
T0
M30
