G04 #@! TF.GenerationSoftware,KiCad,Pcbnew,(5.1.5)-3*
G04 #@! TF.CreationDate,2020-03-18T20:16:45+01:00*
G04 #@! TF.ProjectId,ent,656e742e-6b69-4636-9164-5f7063625858,rev?*
G04 #@! TF.SameCoordinates,Original*
G04 #@! TF.FileFunction,Copper,L2,Bot*
G04 #@! TF.FilePolarity,Positive*
%FSLAX46Y46*%
G04 Gerber Fmt 4.6, Leading zero omitted, Abs format (unit mm)*
G04 Created by KiCad (PCBNEW (5.1.5)-3) date 2020-03-18 20:16:45*
%MOMM*%
%LPD*%
G04 APERTURE LIST*
%ADD10C,0.600000*%
%ADD11R,0.900000X1.600000*%
%ADD12O,1.700000X2.000000*%
%ADD13C,0.100000*%
%ADD14O,1.700000X1.950000*%
%ADD15O,1.950000X1.700000*%
%ADD16R,1.700000X1.700000*%
%ADD17O,1.700000X1.700000*%
%ADD18C,4.400000*%
%ADD19C,0.800000*%
%ADD20C,0.900000*%
%ADD21C,0.153000*%
%ADD22C,0.500000*%
%ADD23C,0.250000*%
G04 APERTURE END LIST*
D10*
X216535000Y-103370000D03*
X216535000Y-102370000D03*
D11*
X216535000Y-102870000D03*
D12*
X193588000Y-109016800D03*
G04 #@! TA.AperFunction,ComponentPad*
D13*
G36*
X196712504Y-108018004D02*
G01*
X196736773Y-108021604D01*
X196760571Y-108027565D01*
X196783671Y-108035830D01*
X196805849Y-108046320D01*
X196826893Y-108058933D01*
X196846598Y-108073547D01*
X196864777Y-108090023D01*
X196881253Y-108108202D01*
X196895867Y-108127907D01*
X196908480Y-108148951D01*
X196918970Y-108171129D01*
X196927235Y-108194229D01*
X196933196Y-108218027D01*
X196936796Y-108242296D01*
X196938000Y-108266800D01*
X196938000Y-109766800D01*
X196936796Y-109791304D01*
X196933196Y-109815573D01*
X196927235Y-109839371D01*
X196918970Y-109862471D01*
X196908480Y-109884649D01*
X196895867Y-109905693D01*
X196881253Y-109925398D01*
X196864777Y-109943577D01*
X196846598Y-109960053D01*
X196826893Y-109974667D01*
X196805849Y-109987280D01*
X196783671Y-109997770D01*
X196760571Y-110006035D01*
X196736773Y-110011996D01*
X196712504Y-110015596D01*
X196688000Y-110016800D01*
X195488000Y-110016800D01*
X195463496Y-110015596D01*
X195439227Y-110011996D01*
X195415429Y-110006035D01*
X195392329Y-109997770D01*
X195370151Y-109987280D01*
X195349107Y-109974667D01*
X195329402Y-109960053D01*
X195311223Y-109943577D01*
X195294747Y-109925398D01*
X195280133Y-109905693D01*
X195267520Y-109884649D01*
X195257030Y-109862471D01*
X195248765Y-109839371D01*
X195242804Y-109815573D01*
X195239204Y-109791304D01*
X195238000Y-109766800D01*
X195238000Y-108266800D01*
X195239204Y-108242296D01*
X195242804Y-108218027D01*
X195248765Y-108194229D01*
X195257030Y-108171129D01*
X195267520Y-108148951D01*
X195280133Y-108127907D01*
X195294747Y-108108202D01*
X195311223Y-108090023D01*
X195329402Y-108073547D01*
X195349107Y-108058933D01*
X195370151Y-108046320D01*
X195392329Y-108035830D01*
X195415429Y-108027565D01*
X195439227Y-108021604D01*
X195463496Y-108018004D01*
X195488000Y-108016800D01*
X196688000Y-108016800D01*
X196712504Y-108018004D01*
G37*
G04 #@! TD.AperFunction*
D12*
X184698000Y-109016800D03*
G04 #@! TA.AperFunction,ComponentPad*
D13*
G36*
X187822504Y-108018004D02*
G01*
X187846773Y-108021604D01*
X187870571Y-108027565D01*
X187893671Y-108035830D01*
X187915849Y-108046320D01*
X187936893Y-108058933D01*
X187956598Y-108073547D01*
X187974777Y-108090023D01*
X187991253Y-108108202D01*
X188005867Y-108127907D01*
X188018480Y-108148951D01*
X188028970Y-108171129D01*
X188037235Y-108194229D01*
X188043196Y-108218027D01*
X188046796Y-108242296D01*
X188048000Y-108266800D01*
X188048000Y-109766800D01*
X188046796Y-109791304D01*
X188043196Y-109815573D01*
X188037235Y-109839371D01*
X188028970Y-109862471D01*
X188018480Y-109884649D01*
X188005867Y-109905693D01*
X187991253Y-109925398D01*
X187974777Y-109943577D01*
X187956598Y-109960053D01*
X187936893Y-109974667D01*
X187915849Y-109987280D01*
X187893671Y-109997770D01*
X187870571Y-110006035D01*
X187846773Y-110011996D01*
X187822504Y-110015596D01*
X187798000Y-110016800D01*
X186598000Y-110016800D01*
X186573496Y-110015596D01*
X186549227Y-110011996D01*
X186525429Y-110006035D01*
X186502329Y-109997770D01*
X186480151Y-109987280D01*
X186459107Y-109974667D01*
X186439402Y-109960053D01*
X186421223Y-109943577D01*
X186404747Y-109925398D01*
X186390133Y-109905693D01*
X186377520Y-109884649D01*
X186367030Y-109862471D01*
X186358765Y-109839371D01*
X186352804Y-109815573D01*
X186349204Y-109791304D01*
X186348000Y-109766800D01*
X186348000Y-108266800D01*
X186349204Y-108242296D01*
X186352804Y-108218027D01*
X186358765Y-108194229D01*
X186367030Y-108171129D01*
X186377520Y-108148951D01*
X186390133Y-108127907D01*
X186404747Y-108108202D01*
X186421223Y-108090023D01*
X186439402Y-108073547D01*
X186459107Y-108058933D01*
X186480151Y-108046320D01*
X186502329Y-108035830D01*
X186525429Y-108027565D01*
X186549227Y-108021604D01*
X186573496Y-108018004D01*
X186598000Y-108016800D01*
X187798000Y-108016800D01*
X187822504Y-108018004D01*
G37*
G04 #@! TD.AperFunction*
D14*
X205391400Y-54025800D03*
X202891400Y-54025800D03*
X200391400Y-54025800D03*
G04 #@! TA.AperFunction,ComponentPad*
D13*
G36*
X198515904Y-53052004D02*
G01*
X198540173Y-53055604D01*
X198563971Y-53061565D01*
X198587071Y-53069830D01*
X198609249Y-53080320D01*
X198630293Y-53092933D01*
X198649998Y-53107547D01*
X198668177Y-53124023D01*
X198684653Y-53142202D01*
X198699267Y-53161907D01*
X198711880Y-53182951D01*
X198722370Y-53205129D01*
X198730635Y-53228229D01*
X198736596Y-53252027D01*
X198740196Y-53276296D01*
X198741400Y-53300800D01*
X198741400Y-54750800D01*
X198740196Y-54775304D01*
X198736596Y-54799573D01*
X198730635Y-54823371D01*
X198722370Y-54846471D01*
X198711880Y-54868649D01*
X198699267Y-54889693D01*
X198684653Y-54909398D01*
X198668177Y-54927577D01*
X198649998Y-54944053D01*
X198630293Y-54958667D01*
X198609249Y-54971280D01*
X198587071Y-54981770D01*
X198563971Y-54990035D01*
X198540173Y-54995996D01*
X198515904Y-54999596D01*
X198491400Y-55000800D01*
X197291400Y-55000800D01*
X197266896Y-54999596D01*
X197242627Y-54995996D01*
X197218829Y-54990035D01*
X197195729Y-54981770D01*
X197173551Y-54971280D01*
X197152507Y-54958667D01*
X197132802Y-54944053D01*
X197114623Y-54927577D01*
X197098147Y-54909398D01*
X197083533Y-54889693D01*
X197070920Y-54868649D01*
X197060430Y-54846471D01*
X197052165Y-54823371D01*
X197046204Y-54799573D01*
X197042604Y-54775304D01*
X197041400Y-54750800D01*
X197041400Y-53300800D01*
X197042604Y-53276296D01*
X197046204Y-53252027D01*
X197052165Y-53228229D01*
X197060430Y-53205129D01*
X197070920Y-53182951D01*
X197083533Y-53161907D01*
X197098147Y-53142202D01*
X197114623Y-53124023D01*
X197132802Y-53107547D01*
X197152507Y-53092933D01*
X197173551Y-53080320D01*
X197195729Y-53069830D01*
X197218829Y-53061565D01*
X197242627Y-53055604D01*
X197266896Y-53052004D01*
X197291400Y-53050800D01*
X198491400Y-53050800D01*
X198515904Y-53052004D01*
G37*
G04 #@! TD.AperFunction*
G04 #@! TA.AperFunction,ComponentPad*
G36*
X171716904Y-56580604D02*
G01*
X171741173Y-56584204D01*
X171764971Y-56590165D01*
X171788071Y-56598430D01*
X171810249Y-56608920D01*
X171831293Y-56621533D01*
X171850998Y-56636147D01*
X171869177Y-56652623D01*
X171885653Y-56670802D01*
X171900267Y-56690507D01*
X171912880Y-56711551D01*
X171923370Y-56733729D01*
X171931635Y-56756829D01*
X171937596Y-56780627D01*
X171941196Y-56804896D01*
X171942400Y-56829400D01*
X171942400Y-58029400D01*
X171941196Y-58053904D01*
X171937596Y-58078173D01*
X171931635Y-58101971D01*
X171923370Y-58125071D01*
X171912880Y-58147249D01*
X171900267Y-58168293D01*
X171885653Y-58187998D01*
X171869177Y-58206177D01*
X171850998Y-58222653D01*
X171831293Y-58237267D01*
X171810249Y-58249880D01*
X171788071Y-58260370D01*
X171764971Y-58268635D01*
X171741173Y-58274596D01*
X171716904Y-58278196D01*
X171692400Y-58279400D01*
X170242400Y-58279400D01*
X170217896Y-58278196D01*
X170193627Y-58274596D01*
X170169829Y-58268635D01*
X170146729Y-58260370D01*
X170124551Y-58249880D01*
X170103507Y-58237267D01*
X170083802Y-58222653D01*
X170065623Y-58206177D01*
X170049147Y-58187998D01*
X170034533Y-58168293D01*
X170021920Y-58147249D01*
X170011430Y-58125071D01*
X170003165Y-58101971D01*
X169997204Y-58078173D01*
X169993604Y-58053904D01*
X169992400Y-58029400D01*
X169992400Y-56829400D01*
X169993604Y-56804896D01*
X169997204Y-56780627D01*
X170003165Y-56756829D01*
X170011430Y-56733729D01*
X170021920Y-56711551D01*
X170034533Y-56690507D01*
X170049147Y-56670802D01*
X170065623Y-56652623D01*
X170083802Y-56636147D01*
X170103507Y-56621533D01*
X170124551Y-56608920D01*
X170146729Y-56598430D01*
X170169829Y-56590165D01*
X170193627Y-56584204D01*
X170217896Y-56580604D01*
X170242400Y-56579400D01*
X171692400Y-56579400D01*
X171716904Y-56580604D01*
G37*
G04 #@! TD.AperFunction*
D15*
X170967400Y-59929400D03*
X170967400Y-62429400D03*
X170967400Y-89099400D03*
X170967400Y-86599400D03*
G04 #@! TA.AperFunction,ComponentPad*
D13*
G36*
X171716904Y-83250604D02*
G01*
X171741173Y-83254204D01*
X171764971Y-83260165D01*
X171788071Y-83268430D01*
X171810249Y-83278920D01*
X171831293Y-83291533D01*
X171850998Y-83306147D01*
X171869177Y-83322623D01*
X171885653Y-83340802D01*
X171900267Y-83360507D01*
X171912880Y-83381551D01*
X171923370Y-83403729D01*
X171931635Y-83426829D01*
X171937596Y-83450627D01*
X171941196Y-83474896D01*
X171942400Y-83499400D01*
X171942400Y-84699400D01*
X171941196Y-84723904D01*
X171937596Y-84748173D01*
X171931635Y-84771971D01*
X171923370Y-84795071D01*
X171912880Y-84817249D01*
X171900267Y-84838293D01*
X171885653Y-84857998D01*
X171869177Y-84876177D01*
X171850998Y-84892653D01*
X171831293Y-84907267D01*
X171810249Y-84919880D01*
X171788071Y-84930370D01*
X171764971Y-84938635D01*
X171741173Y-84944596D01*
X171716904Y-84948196D01*
X171692400Y-84949400D01*
X170242400Y-84949400D01*
X170217896Y-84948196D01*
X170193627Y-84944596D01*
X170169829Y-84938635D01*
X170146729Y-84930370D01*
X170124551Y-84919880D01*
X170103507Y-84907267D01*
X170083802Y-84892653D01*
X170065623Y-84876177D01*
X170049147Y-84857998D01*
X170034533Y-84838293D01*
X170021920Y-84817249D01*
X170011430Y-84795071D01*
X170003165Y-84771971D01*
X169997204Y-84748173D01*
X169993604Y-84723904D01*
X169992400Y-84699400D01*
X169992400Y-83499400D01*
X169993604Y-83474896D01*
X169997204Y-83450627D01*
X170003165Y-83426829D01*
X170011430Y-83403729D01*
X170021920Y-83381551D01*
X170034533Y-83360507D01*
X170049147Y-83340802D01*
X170065623Y-83322623D01*
X170083802Y-83306147D01*
X170103507Y-83291533D01*
X170124551Y-83278920D01*
X170146729Y-83268430D01*
X170169829Y-83260165D01*
X170193627Y-83254204D01*
X170217896Y-83250604D01*
X170242400Y-83249400D01*
X171692400Y-83249400D01*
X171716904Y-83250604D01*
G37*
G04 #@! TD.AperFunction*
G04 #@! TA.AperFunction,ComponentPad*
G36*
X227469904Y-60289004D02*
G01*
X227494173Y-60292604D01*
X227517971Y-60298565D01*
X227541071Y-60306830D01*
X227563249Y-60317320D01*
X227584293Y-60329933D01*
X227603998Y-60344547D01*
X227622177Y-60361023D01*
X227638653Y-60379202D01*
X227653267Y-60398907D01*
X227665880Y-60419951D01*
X227676370Y-60442129D01*
X227684635Y-60465229D01*
X227690596Y-60489027D01*
X227694196Y-60513296D01*
X227695400Y-60537800D01*
X227695400Y-61737800D01*
X227694196Y-61762304D01*
X227690596Y-61786573D01*
X227684635Y-61810371D01*
X227676370Y-61833471D01*
X227665880Y-61855649D01*
X227653267Y-61876693D01*
X227638653Y-61896398D01*
X227622177Y-61914577D01*
X227603998Y-61931053D01*
X227584293Y-61945667D01*
X227563249Y-61958280D01*
X227541071Y-61968770D01*
X227517971Y-61977035D01*
X227494173Y-61982996D01*
X227469904Y-61986596D01*
X227445400Y-61987800D01*
X225995400Y-61987800D01*
X225970896Y-61986596D01*
X225946627Y-61982996D01*
X225922829Y-61977035D01*
X225899729Y-61968770D01*
X225877551Y-61958280D01*
X225856507Y-61945667D01*
X225836802Y-61931053D01*
X225818623Y-61914577D01*
X225802147Y-61896398D01*
X225787533Y-61876693D01*
X225774920Y-61855649D01*
X225764430Y-61833471D01*
X225756165Y-61810371D01*
X225750204Y-61786573D01*
X225746604Y-61762304D01*
X225745400Y-61737800D01*
X225745400Y-60537800D01*
X225746604Y-60513296D01*
X225750204Y-60489027D01*
X225756165Y-60465229D01*
X225764430Y-60442129D01*
X225774920Y-60419951D01*
X225787533Y-60398907D01*
X225802147Y-60379202D01*
X225818623Y-60361023D01*
X225836802Y-60344547D01*
X225856507Y-60329933D01*
X225877551Y-60317320D01*
X225899729Y-60306830D01*
X225922829Y-60298565D01*
X225946627Y-60292604D01*
X225970896Y-60289004D01*
X225995400Y-60287800D01*
X227445400Y-60287800D01*
X227469904Y-60289004D01*
G37*
G04 #@! TD.AperFunction*
D15*
X226720400Y-63637800D03*
X226720400Y-66137800D03*
X226720400Y-68637800D03*
X226720400Y-71137800D03*
X226720400Y-73637800D03*
X226720400Y-76137800D03*
X226720400Y-78637800D03*
X226720400Y-81137800D03*
X226720400Y-83637800D03*
X226720400Y-86137800D03*
X226720400Y-88637800D03*
G04 #@! TA.AperFunction,ComponentPad*
D13*
G36*
X212612904Y-53052004D02*
G01*
X212637173Y-53055604D01*
X212660971Y-53061565D01*
X212684071Y-53069830D01*
X212706249Y-53080320D01*
X212727293Y-53092933D01*
X212746998Y-53107547D01*
X212765177Y-53124023D01*
X212781653Y-53142202D01*
X212796267Y-53161907D01*
X212808880Y-53182951D01*
X212819370Y-53205129D01*
X212827635Y-53228229D01*
X212833596Y-53252027D01*
X212837196Y-53276296D01*
X212838400Y-53300800D01*
X212838400Y-54750800D01*
X212837196Y-54775304D01*
X212833596Y-54799573D01*
X212827635Y-54823371D01*
X212819370Y-54846471D01*
X212808880Y-54868649D01*
X212796267Y-54889693D01*
X212781653Y-54909398D01*
X212765177Y-54927577D01*
X212746998Y-54944053D01*
X212727293Y-54958667D01*
X212706249Y-54971280D01*
X212684071Y-54981770D01*
X212660971Y-54990035D01*
X212637173Y-54995996D01*
X212612904Y-54999596D01*
X212588400Y-55000800D01*
X211388400Y-55000800D01*
X211363896Y-54999596D01*
X211339627Y-54995996D01*
X211315829Y-54990035D01*
X211292729Y-54981770D01*
X211270551Y-54971280D01*
X211249507Y-54958667D01*
X211229802Y-54944053D01*
X211211623Y-54927577D01*
X211195147Y-54909398D01*
X211180533Y-54889693D01*
X211167920Y-54868649D01*
X211157430Y-54846471D01*
X211149165Y-54823371D01*
X211143204Y-54799573D01*
X211139604Y-54775304D01*
X211138400Y-54750800D01*
X211138400Y-53300800D01*
X211139604Y-53276296D01*
X211143204Y-53252027D01*
X211149165Y-53228229D01*
X211157430Y-53205129D01*
X211167920Y-53182951D01*
X211180533Y-53161907D01*
X211195147Y-53142202D01*
X211211623Y-53124023D01*
X211229802Y-53107547D01*
X211249507Y-53092933D01*
X211270551Y-53080320D01*
X211292729Y-53069830D01*
X211315829Y-53061565D01*
X211339627Y-53055604D01*
X211363896Y-53052004D01*
X211388400Y-53050800D01*
X212588400Y-53050800D01*
X212612904Y-53052004D01*
G37*
G04 #@! TD.AperFunction*
D14*
X214488400Y-54025800D03*
X216988400Y-54025800D03*
X219488400Y-54025800D03*
G04 #@! TA.AperFunction,ComponentPad*
D13*
G36*
X171716904Y-69915604D02*
G01*
X171741173Y-69919204D01*
X171764971Y-69925165D01*
X171788071Y-69933430D01*
X171810249Y-69943920D01*
X171831293Y-69956533D01*
X171850998Y-69971147D01*
X171869177Y-69987623D01*
X171885653Y-70005802D01*
X171900267Y-70025507D01*
X171912880Y-70046551D01*
X171923370Y-70068729D01*
X171931635Y-70091829D01*
X171937596Y-70115627D01*
X171941196Y-70139896D01*
X171942400Y-70164400D01*
X171942400Y-71364400D01*
X171941196Y-71388904D01*
X171937596Y-71413173D01*
X171931635Y-71436971D01*
X171923370Y-71460071D01*
X171912880Y-71482249D01*
X171900267Y-71503293D01*
X171885653Y-71522998D01*
X171869177Y-71541177D01*
X171850998Y-71557653D01*
X171831293Y-71572267D01*
X171810249Y-71584880D01*
X171788071Y-71595370D01*
X171764971Y-71603635D01*
X171741173Y-71609596D01*
X171716904Y-71613196D01*
X171692400Y-71614400D01*
X170242400Y-71614400D01*
X170217896Y-71613196D01*
X170193627Y-71609596D01*
X170169829Y-71603635D01*
X170146729Y-71595370D01*
X170124551Y-71584880D01*
X170103507Y-71572267D01*
X170083802Y-71557653D01*
X170065623Y-71541177D01*
X170049147Y-71522998D01*
X170034533Y-71503293D01*
X170021920Y-71482249D01*
X170011430Y-71460071D01*
X170003165Y-71436971D01*
X169997204Y-71413173D01*
X169993604Y-71388904D01*
X169992400Y-71364400D01*
X169992400Y-70164400D01*
X169993604Y-70139896D01*
X169997204Y-70115627D01*
X170003165Y-70091829D01*
X170011430Y-70068729D01*
X170021920Y-70046551D01*
X170034533Y-70025507D01*
X170049147Y-70005802D01*
X170065623Y-69987623D01*
X170083802Y-69971147D01*
X170103507Y-69956533D01*
X170124551Y-69943920D01*
X170146729Y-69933430D01*
X170169829Y-69925165D01*
X170193627Y-69919204D01*
X170217896Y-69915604D01*
X170242400Y-69914400D01*
X171692400Y-69914400D01*
X171716904Y-69915604D01*
G37*
G04 #@! TD.AperFunction*
D15*
X170967400Y-73264400D03*
X170967400Y-75764400D03*
X170967400Y-102434400D03*
X170967400Y-99934400D03*
G04 #@! TA.AperFunction,ComponentPad*
D13*
G36*
X171716904Y-96585604D02*
G01*
X171741173Y-96589204D01*
X171764971Y-96595165D01*
X171788071Y-96603430D01*
X171810249Y-96613920D01*
X171831293Y-96626533D01*
X171850998Y-96641147D01*
X171869177Y-96657623D01*
X171885653Y-96675802D01*
X171900267Y-96695507D01*
X171912880Y-96716551D01*
X171923370Y-96738729D01*
X171931635Y-96761829D01*
X171937596Y-96785627D01*
X171941196Y-96809896D01*
X171942400Y-96834400D01*
X171942400Y-98034400D01*
X171941196Y-98058904D01*
X171937596Y-98083173D01*
X171931635Y-98106971D01*
X171923370Y-98130071D01*
X171912880Y-98152249D01*
X171900267Y-98173293D01*
X171885653Y-98192998D01*
X171869177Y-98211177D01*
X171850998Y-98227653D01*
X171831293Y-98242267D01*
X171810249Y-98254880D01*
X171788071Y-98265370D01*
X171764971Y-98273635D01*
X171741173Y-98279596D01*
X171716904Y-98283196D01*
X171692400Y-98284400D01*
X170242400Y-98284400D01*
X170217896Y-98283196D01*
X170193627Y-98279596D01*
X170169829Y-98273635D01*
X170146729Y-98265370D01*
X170124551Y-98254880D01*
X170103507Y-98242267D01*
X170083802Y-98227653D01*
X170065623Y-98211177D01*
X170049147Y-98192998D01*
X170034533Y-98173293D01*
X170021920Y-98152249D01*
X170011430Y-98130071D01*
X170003165Y-98106971D01*
X169997204Y-98083173D01*
X169993604Y-98058904D01*
X169992400Y-98034400D01*
X169992400Y-96834400D01*
X169993604Y-96809896D01*
X169997204Y-96785627D01*
X170003165Y-96761829D01*
X170011430Y-96738729D01*
X170021920Y-96716551D01*
X170034533Y-96695507D01*
X170049147Y-96675802D01*
X170065623Y-96657623D01*
X170083802Y-96641147D01*
X170103507Y-96626533D01*
X170124551Y-96613920D01*
X170146729Y-96603430D01*
X170169829Y-96595165D01*
X170193627Y-96589204D01*
X170217896Y-96585604D01*
X170242400Y-96584400D01*
X171692400Y-96584400D01*
X171716904Y-96585604D01*
G37*
G04 #@! TD.AperFunction*
D16*
X226060000Y-100330000D03*
D17*
X226060000Y-97790000D03*
X226060000Y-95250000D03*
D18*
X168910000Y-110490000D03*
X227330000Y-109855000D03*
X227330000Y-50165000D03*
X168910000Y-50165000D03*
D19*
X212920000Y-89310000D03*
X186390000Y-69060000D03*
X192800000Y-76320000D03*
X197520000Y-76260000D03*
X197550000Y-72750000D03*
X200790000Y-72140000D03*
X203030000Y-63260000D03*
X221615000Y-80645000D03*
X220345000Y-106680000D03*
X222758000Y-100279200D03*
X213995000Y-106680000D03*
X213995000Y-102235000D03*
X204767801Y-69893801D03*
X203962000Y-75946000D03*
X205740000Y-75692000D03*
X206502000Y-76454000D03*
X207264000Y-77216000D03*
X209042000Y-78486000D03*
X205232000Y-84836000D03*
X204470000Y-85598000D03*
X202946000Y-72390000D03*
X202946000Y-68834000D03*
X202946000Y-76962000D03*
X203454000Y-80010000D03*
X201930000Y-72390000D03*
X201930000Y-68580000D03*
X201930000Y-76962000D03*
X203200000Y-81026000D03*
D20*
X216535000Y-102370000D02*
X216535000Y-100905000D01*
D21*
X216535000Y-103794264D02*
X216530000Y-103799264D01*
D20*
X216535000Y-103370000D02*
X216535000Y-103794264D01*
X216530000Y-103799264D02*
X216530000Y-104880000D01*
D22*
X213995000Y-102235000D02*
X213995000Y-106680000D01*
D21*
X204767801Y-69893801D02*
X204767801Y-75140199D01*
X204767801Y-75140199D02*
X203962000Y-75946000D01*
D23*
X205740000Y-75692000D02*
X209926770Y-75692000D01*
X221980970Y-63637800D02*
X226720400Y-63637800D01*
X209926770Y-75692000D02*
X221980970Y-63637800D01*
X225495400Y-66137800D02*
X226720400Y-66137800D01*
X206502000Y-76454000D02*
X207389590Y-76454000D01*
X207389590Y-76454000D02*
X207477599Y-76365991D01*
X207477599Y-76365991D02*
X209889189Y-76365991D01*
X209889189Y-76365991D02*
X220117380Y-66137800D01*
X220117380Y-66137800D02*
X225495400Y-66137800D01*
X225495400Y-68637800D02*
X226720400Y-68637800D01*
X218253790Y-68637800D02*
X225495400Y-68637800D01*
X210075589Y-76816001D02*
X218253790Y-68637800D01*
X207663999Y-76816001D02*
X210075589Y-76816001D01*
X207264000Y-77216000D02*
X207663999Y-76816001D01*
X216390200Y-71137800D02*
X226720400Y-71137800D01*
X209042000Y-78486000D02*
X216390200Y-71137800D01*
X205232000Y-84836000D02*
X214122000Y-84836000D01*
X225320200Y-73637800D02*
X226720400Y-73637800D01*
X214122000Y-84836000D02*
X225320200Y-73637800D01*
X204470000Y-85598000D02*
X215138000Y-85598000D01*
X224598200Y-76137800D02*
X226720400Y-76137800D01*
X215138000Y-85598000D02*
X224598200Y-76137800D01*
X202946000Y-68834000D02*
X202946000Y-72390000D01*
X202546001Y-77361999D02*
X202546001Y-79356001D01*
X202946000Y-76962000D02*
X202546001Y-77361999D01*
X202546001Y-79356001D02*
X203200000Y-80010000D01*
X203200000Y-80010000D02*
X203257002Y-80010000D01*
X203257002Y-80010000D02*
X203454000Y-80010000D01*
X201930000Y-68580000D02*
X201930000Y-72390000D01*
X201930000Y-76962000D02*
X201930000Y-79756000D01*
X201930000Y-79756000D02*
X203200000Y-81026000D01*
D13*
G36*
X227951371Y-46391841D02*
G01*
X228549077Y-46572300D01*
X229100345Y-46865413D01*
X229584183Y-47260022D01*
X229982162Y-47741096D01*
X230279118Y-48290303D01*
X230463744Y-48886734D01*
X230532001Y-49536156D01*
X230532000Y-110460266D01*
X230468158Y-111111371D01*
X230287700Y-111709076D01*
X229994586Y-112260345D01*
X229599978Y-112744183D01*
X229118905Y-113142161D01*
X228569694Y-113439119D01*
X227973264Y-113623745D01*
X227323854Y-113692000D01*
X168939734Y-113692000D01*
X168288629Y-113628158D01*
X167690924Y-113447700D01*
X167139655Y-113154586D01*
X166655817Y-112759978D01*
X166432180Y-112489646D01*
X167198853Y-112489646D01*
X167450503Y-112845891D01*
X167938157Y-113085357D01*
X168463160Y-113225085D01*
X169005335Y-113259706D01*
X169543846Y-113187888D01*
X170057999Y-113012391D01*
X170369497Y-112845891D01*
X170621147Y-112489646D01*
X168910000Y-110778500D01*
X167198853Y-112489646D01*
X166432180Y-112489646D01*
X166257839Y-112278905D01*
X165960881Y-111729694D01*
X165776255Y-111133264D01*
X165718666Y-110585335D01*
X166140294Y-110585335D01*
X166212112Y-111123846D01*
X166387609Y-111637999D01*
X166554109Y-111949497D01*
X166910354Y-112201147D01*
X168621500Y-110490000D01*
X169198500Y-110490000D01*
X170909646Y-112201147D01*
X171265891Y-111949497D01*
X171312468Y-111854646D01*
X225618853Y-111854646D01*
X225870503Y-112210891D01*
X226358157Y-112450357D01*
X226883160Y-112590085D01*
X227425335Y-112624706D01*
X227963846Y-112552888D01*
X228477999Y-112377391D01*
X228789497Y-112210891D01*
X229041147Y-111854646D01*
X227330000Y-110143500D01*
X225618853Y-111854646D01*
X171312468Y-111854646D01*
X171505357Y-111461843D01*
X171645085Y-110936840D01*
X171679706Y-110394665D01*
X171607888Y-109856154D01*
X171432391Y-109342001D01*
X171265891Y-109030503D01*
X170936236Y-108797636D01*
X183290000Y-108797636D01*
X183290000Y-109235963D01*
X183310373Y-109442815D01*
X183390884Y-109708224D01*
X183521627Y-109952826D01*
X183697577Y-110167222D01*
X183911973Y-110343173D01*
X184156575Y-110473916D01*
X184421984Y-110554427D01*
X184698000Y-110581612D01*
X184974015Y-110554427D01*
X185239424Y-110473916D01*
X185484026Y-110343173D01*
X185698422Y-110167223D01*
X185791005Y-110054411D01*
X185798074Y-110126187D01*
X185829981Y-110231371D01*
X185881795Y-110328308D01*
X185951525Y-110413275D01*
X186036492Y-110483005D01*
X186133429Y-110534819D01*
X186238613Y-110566726D01*
X186348000Y-110577500D01*
X186854500Y-110574800D01*
X186994000Y-110435300D01*
X186994000Y-109220800D01*
X187402000Y-109220800D01*
X187402000Y-110435300D01*
X187541500Y-110574800D01*
X188048000Y-110577500D01*
X188157387Y-110566726D01*
X188262571Y-110534819D01*
X188359508Y-110483005D01*
X188444475Y-110413275D01*
X188514205Y-110328308D01*
X188566019Y-110231371D01*
X188597926Y-110126187D01*
X188608700Y-110016800D01*
X188606000Y-109360300D01*
X188466500Y-109220800D01*
X187402000Y-109220800D01*
X186994000Y-109220800D01*
X186974000Y-109220800D01*
X186974000Y-108812800D01*
X186994000Y-108812800D01*
X186994000Y-107598300D01*
X187402000Y-107598300D01*
X187402000Y-108812800D01*
X188466500Y-108812800D01*
X188481664Y-108797636D01*
X192180000Y-108797636D01*
X192180000Y-109235963D01*
X192200373Y-109442815D01*
X192280884Y-109708224D01*
X192411627Y-109952826D01*
X192587577Y-110167222D01*
X192801973Y-110343173D01*
X193046575Y-110473916D01*
X193311984Y-110554427D01*
X193588000Y-110581612D01*
X193864015Y-110554427D01*
X194129424Y-110473916D01*
X194374026Y-110343173D01*
X194588422Y-110167223D01*
X194681005Y-110054411D01*
X194688074Y-110126187D01*
X194719981Y-110231371D01*
X194771795Y-110328308D01*
X194841525Y-110413275D01*
X194926492Y-110483005D01*
X195023429Y-110534819D01*
X195128613Y-110566726D01*
X195238000Y-110577500D01*
X195744500Y-110574800D01*
X195884000Y-110435300D01*
X195884000Y-109220800D01*
X196292000Y-109220800D01*
X196292000Y-110435300D01*
X196431500Y-110574800D01*
X196938000Y-110577500D01*
X197047387Y-110566726D01*
X197152571Y-110534819D01*
X197249508Y-110483005D01*
X197334475Y-110413275D01*
X197404205Y-110328308D01*
X197456019Y-110231371D01*
X197487926Y-110126187D01*
X197498700Y-110016800D01*
X197498427Y-109950335D01*
X224560294Y-109950335D01*
X224632112Y-110488846D01*
X224807609Y-111002999D01*
X224974109Y-111314497D01*
X225330354Y-111566147D01*
X227041500Y-109855000D01*
X227618500Y-109855000D01*
X229329646Y-111566147D01*
X229685891Y-111314497D01*
X229925357Y-110826843D01*
X230065085Y-110301840D01*
X230099706Y-109759665D01*
X230027888Y-109221154D01*
X229852391Y-108707001D01*
X229685891Y-108395503D01*
X229329646Y-108143853D01*
X227618500Y-109855000D01*
X227041500Y-109855000D01*
X225330354Y-108143853D01*
X224974109Y-108395503D01*
X224734643Y-108883157D01*
X224594915Y-109408160D01*
X224560294Y-109950335D01*
X197498427Y-109950335D01*
X197496000Y-109360300D01*
X197356500Y-109220800D01*
X196292000Y-109220800D01*
X195884000Y-109220800D01*
X195864000Y-109220800D01*
X195864000Y-108812800D01*
X195884000Y-108812800D01*
X195884000Y-107598300D01*
X196292000Y-107598300D01*
X196292000Y-108812800D01*
X197356500Y-108812800D01*
X197496000Y-108673300D01*
X197498700Y-108016800D01*
X197487926Y-107907413D01*
X197472135Y-107855354D01*
X225618853Y-107855354D01*
X227330000Y-109566500D01*
X229041147Y-107855354D01*
X228789497Y-107499109D01*
X228301843Y-107259643D01*
X227776840Y-107119915D01*
X227234665Y-107085294D01*
X226696154Y-107157112D01*
X226182001Y-107332609D01*
X225870503Y-107499109D01*
X225618853Y-107855354D01*
X197472135Y-107855354D01*
X197456019Y-107802229D01*
X197404205Y-107705292D01*
X197334475Y-107620325D01*
X197249508Y-107550595D01*
X197152571Y-107498781D01*
X197047387Y-107466874D01*
X196938000Y-107456100D01*
X196431500Y-107458800D01*
X196292000Y-107598300D01*
X195884000Y-107598300D01*
X195744500Y-107458800D01*
X195238000Y-107456100D01*
X195128613Y-107466874D01*
X195023429Y-107498781D01*
X194926492Y-107550595D01*
X194841525Y-107620325D01*
X194771795Y-107705292D01*
X194719981Y-107802229D01*
X194688074Y-107907413D01*
X194681005Y-107979188D01*
X194588423Y-107866377D01*
X194374027Y-107690427D01*
X194129425Y-107559684D01*
X193864016Y-107479173D01*
X193588000Y-107451988D01*
X193311985Y-107479173D01*
X193046576Y-107559684D01*
X192801974Y-107690427D01*
X192587578Y-107866377D01*
X192411627Y-108080773D01*
X192280884Y-108325375D01*
X192200373Y-108590784D01*
X192180000Y-108797636D01*
X188481664Y-108797636D01*
X188606000Y-108673300D01*
X188608700Y-108016800D01*
X188597926Y-107907413D01*
X188566019Y-107802229D01*
X188514205Y-107705292D01*
X188444475Y-107620325D01*
X188359508Y-107550595D01*
X188262571Y-107498781D01*
X188157387Y-107466874D01*
X188048000Y-107456100D01*
X187541500Y-107458800D01*
X187402000Y-107598300D01*
X186994000Y-107598300D01*
X186854500Y-107458800D01*
X186348000Y-107456100D01*
X186238613Y-107466874D01*
X186133429Y-107498781D01*
X186036492Y-107550595D01*
X185951525Y-107620325D01*
X185881795Y-107705292D01*
X185829981Y-107802229D01*
X185798074Y-107907413D01*
X185791005Y-107979188D01*
X185698423Y-107866377D01*
X185484027Y-107690427D01*
X185239425Y-107559684D01*
X184974016Y-107479173D01*
X184698000Y-107451988D01*
X184421985Y-107479173D01*
X184156576Y-107559684D01*
X183911974Y-107690427D01*
X183697578Y-107866377D01*
X183521627Y-108080773D01*
X183390884Y-108325375D01*
X183310373Y-108590784D01*
X183290000Y-108797636D01*
X170936236Y-108797636D01*
X170909646Y-108778853D01*
X169198500Y-110490000D01*
X168621500Y-110490000D01*
X166910354Y-108778853D01*
X166554109Y-109030503D01*
X166314643Y-109518157D01*
X166174915Y-110043160D01*
X166140294Y-110585335D01*
X165718666Y-110585335D01*
X165708000Y-110483854D01*
X165708000Y-108490354D01*
X167198853Y-108490354D01*
X168910000Y-110201500D01*
X170621147Y-108490354D01*
X170369497Y-108134109D01*
X169881843Y-107894643D01*
X169356840Y-107754915D01*
X168814665Y-107720294D01*
X168276154Y-107792112D01*
X167762001Y-107967609D01*
X167450503Y-108134109D01*
X167198853Y-108490354D01*
X165708000Y-108490354D01*
X165708000Y-99934400D01*
X169427588Y-99934400D01*
X169454773Y-100210416D01*
X169535284Y-100475825D01*
X169666027Y-100720427D01*
X169841977Y-100934823D01*
X170056373Y-101110773D01*
X170194119Y-101184400D01*
X170056373Y-101258027D01*
X169841977Y-101433977D01*
X169666027Y-101648373D01*
X169535284Y-101892975D01*
X169454773Y-102158384D01*
X169427588Y-102434400D01*
X169454773Y-102710416D01*
X169535284Y-102975825D01*
X169666027Y-103220427D01*
X169841977Y-103434823D01*
X170056373Y-103610773D01*
X170300975Y-103741516D01*
X170566384Y-103822027D01*
X170773236Y-103842400D01*
X171161564Y-103842400D01*
X171368416Y-103822027D01*
X171633825Y-103741516D01*
X171878427Y-103610773D01*
X172092823Y-103434823D01*
X172268773Y-103220427D01*
X172399516Y-102975825D01*
X172480027Y-102710416D01*
X172507212Y-102434400D01*
X172480027Y-102158384D01*
X172474646Y-102140645D01*
X213037000Y-102140645D01*
X213037000Y-102329355D01*
X213073816Y-102514438D01*
X213146032Y-102688783D01*
X213187000Y-102750096D01*
X213187001Y-106164903D01*
X213146032Y-106226217D01*
X213073816Y-106400562D01*
X213037000Y-106585645D01*
X213037000Y-106774355D01*
X213073816Y-106959438D01*
X213146032Y-107133783D01*
X213250873Y-107290689D01*
X213384311Y-107424127D01*
X213541217Y-107528968D01*
X213715562Y-107601184D01*
X213900645Y-107638000D01*
X214089355Y-107638000D01*
X214274438Y-107601184D01*
X214448783Y-107528968D01*
X214605689Y-107424127D01*
X214739127Y-107290689D01*
X214843968Y-107133783D01*
X214916184Y-106959438D01*
X214953000Y-106774355D01*
X214953000Y-106585645D01*
X214916184Y-106400562D01*
X214843968Y-106226217D01*
X214803000Y-106164904D01*
X214803000Y-102750096D01*
X214843968Y-102688783D01*
X214916184Y-102514438D01*
X214953000Y-102329355D01*
X214953000Y-102140645D01*
X214938948Y-102070000D01*
X215524300Y-102070000D01*
X215527000Y-102526500D01*
X215666500Y-102666000D01*
X215727900Y-102666000D01*
X215737404Y-102697329D01*
X215900542Y-102715958D01*
X215950500Y-102666000D01*
X216196983Y-102666000D01*
X216189042Y-102735542D01*
X216323500Y-102870000D01*
X216189042Y-103004458D01*
X216196983Y-103074000D01*
X215950500Y-103074000D01*
X215900542Y-103024042D01*
X215737404Y-103042671D01*
X215728012Y-103074000D01*
X215666500Y-103074000D01*
X215527000Y-103213500D01*
X215524300Y-103670000D01*
X215535074Y-103779387D01*
X215566981Y-103884571D01*
X215618795Y-103981508D01*
X215688525Y-104066475D01*
X215773492Y-104136205D01*
X215870429Y-104188019D01*
X215975613Y-104219926D01*
X216085000Y-104230700D01*
X216191500Y-104228000D01*
X216241702Y-104177798D01*
X216330998Y-104204568D01*
X216330998Y-104228000D01*
X216494252Y-104228000D01*
X216537814Y-104232147D01*
X216578555Y-104228000D01*
X216739002Y-104228000D01*
X216739002Y-104205008D01*
X216828391Y-104177891D01*
X216878500Y-104228000D01*
X216985000Y-104230700D01*
X217094387Y-104219926D01*
X217199571Y-104188019D01*
X217296508Y-104136205D01*
X217381475Y-104066475D01*
X217451205Y-103981508D01*
X217503019Y-103884571D01*
X217534926Y-103779387D01*
X217545700Y-103670000D01*
X217543000Y-103213500D01*
X217403500Y-103074000D01*
X217342100Y-103074000D01*
X217332596Y-103042671D01*
X217169458Y-103024042D01*
X217119500Y-103074000D01*
X216873017Y-103074000D01*
X216880958Y-103004458D01*
X216746500Y-102870000D01*
X216880958Y-102735542D01*
X216873017Y-102666000D01*
X217119500Y-102666000D01*
X217169458Y-102715958D01*
X217332596Y-102697329D01*
X217341988Y-102666000D01*
X217403500Y-102666000D01*
X217543000Y-102526500D01*
X217545700Y-102070000D01*
X217534926Y-101960613D01*
X217503019Y-101855429D01*
X217451205Y-101758492D01*
X217381475Y-101673525D01*
X217296508Y-101603795D01*
X217199571Y-101551981D01*
X217094387Y-101520074D01*
X216985000Y-101509300D01*
X216878500Y-101512000D01*
X216828298Y-101562202D01*
X216739002Y-101535432D01*
X216739002Y-101512000D01*
X216575748Y-101512000D01*
X216532186Y-101507853D01*
X216491445Y-101512000D01*
X216330998Y-101512000D01*
X216330998Y-101534992D01*
X216241609Y-101562109D01*
X216191500Y-101512000D01*
X216085000Y-101509300D01*
X215975613Y-101520074D01*
X215870429Y-101551981D01*
X215773492Y-101603795D01*
X215688525Y-101673525D01*
X215618795Y-101758492D01*
X215566981Y-101855429D01*
X215535074Y-101960613D01*
X215524300Y-102070000D01*
X214938948Y-102070000D01*
X214916184Y-101955562D01*
X214843968Y-101781217D01*
X214739127Y-101624311D01*
X214605689Y-101490873D01*
X214448783Y-101386032D01*
X214274438Y-101313816D01*
X214089355Y-101277000D01*
X213900645Y-101277000D01*
X213715562Y-101313816D01*
X213541217Y-101386032D01*
X213384311Y-101490873D01*
X213250873Y-101624311D01*
X213146032Y-101781217D01*
X213073816Y-101955562D01*
X213037000Y-102140645D01*
X172474646Y-102140645D01*
X172399516Y-101892975D01*
X172268773Y-101648373D01*
X172092823Y-101433977D01*
X171878427Y-101258027D01*
X171740681Y-101184400D01*
X171878427Y-101110773D01*
X172092823Y-100934823D01*
X172268773Y-100720427D01*
X172399516Y-100475825D01*
X172480027Y-100210416D01*
X172482545Y-100184845D01*
X221800000Y-100184845D01*
X221800000Y-100373555D01*
X221836816Y-100558638D01*
X221909032Y-100732983D01*
X222013873Y-100889889D01*
X222147311Y-101023327D01*
X222304217Y-101128168D01*
X222478562Y-101200384D01*
X222663645Y-101237200D01*
X222852355Y-101237200D01*
X223037438Y-101200384D01*
X223211783Y-101128168D01*
X223368689Y-101023327D01*
X223502127Y-100889889D01*
X223606968Y-100732983D01*
X223679184Y-100558638D01*
X223716000Y-100373555D01*
X223716000Y-100184845D01*
X223679184Y-99999762D01*
X223606968Y-99825417D01*
X223502127Y-99668511D01*
X223368689Y-99535073D01*
X223286267Y-99480000D01*
X224649301Y-99480000D01*
X224649301Y-101180000D01*
X224660075Y-101289387D01*
X224691982Y-101394570D01*
X224743796Y-101491508D01*
X224813526Y-101576474D01*
X224898492Y-101646204D01*
X224995430Y-101698018D01*
X225100613Y-101729925D01*
X225210000Y-101740699D01*
X226910000Y-101740699D01*
X227019387Y-101729925D01*
X227124570Y-101698018D01*
X227221508Y-101646204D01*
X227306474Y-101576474D01*
X227376204Y-101491508D01*
X227428018Y-101394570D01*
X227459925Y-101289387D01*
X227470699Y-101180000D01*
X227470699Y-99480000D01*
X227459925Y-99370613D01*
X227428018Y-99265430D01*
X227376204Y-99168492D01*
X227306474Y-99083526D01*
X227221508Y-99013796D01*
X227124570Y-98961982D01*
X227019387Y-98930075D01*
X226910000Y-98919301D01*
X226904215Y-98919301D01*
X226957548Y-98883665D01*
X227153665Y-98687548D01*
X227307754Y-98456938D01*
X227413892Y-98200699D01*
X227468000Y-97928676D01*
X227468000Y-97651324D01*
X227413892Y-97379301D01*
X227307754Y-97123062D01*
X227153665Y-96892452D01*
X226957548Y-96696335D01*
X226726938Y-96542246D01*
X226663679Y-96516043D01*
X226733584Y-96486434D01*
X226961858Y-96331267D01*
X227155474Y-96134547D01*
X227306991Y-95903834D01*
X227404078Y-95669424D01*
X227311989Y-95454000D01*
X226264000Y-95454000D01*
X226264000Y-95474000D01*
X225856000Y-95474000D01*
X225856000Y-95454000D01*
X224808011Y-95454000D01*
X224715922Y-95669424D01*
X224813009Y-95903834D01*
X224964526Y-96134547D01*
X225158142Y-96331267D01*
X225386416Y-96486434D01*
X225456321Y-96516043D01*
X225393062Y-96542246D01*
X225162452Y-96696335D01*
X224966335Y-96892452D01*
X224812246Y-97123062D01*
X224706108Y-97379301D01*
X224652000Y-97651324D01*
X224652000Y-97928676D01*
X224706108Y-98200699D01*
X224812246Y-98456938D01*
X224966335Y-98687548D01*
X225162452Y-98883665D01*
X225215785Y-98919301D01*
X225210000Y-98919301D01*
X225100613Y-98930075D01*
X224995430Y-98961982D01*
X224898492Y-99013796D01*
X224813526Y-99083526D01*
X224743796Y-99168492D01*
X224691982Y-99265430D01*
X224660075Y-99370613D01*
X224649301Y-99480000D01*
X223286267Y-99480000D01*
X223211783Y-99430232D01*
X223037438Y-99358016D01*
X222852355Y-99321200D01*
X222663645Y-99321200D01*
X222478562Y-99358016D01*
X222304217Y-99430232D01*
X222147311Y-99535073D01*
X222013873Y-99668511D01*
X221909032Y-99825417D01*
X221836816Y-99999762D01*
X221800000Y-100184845D01*
X172482545Y-100184845D01*
X172507212Y-99934400D01*
X172480027Y-99658384D01*
X172399516Y-99392975D01*
X172268773Y-99148373D01*
X172092823Y-98933977D01*
X171980012Y-98841395D01*
X172051787Y-98834326D01*
X172156971Y-98802419D01*
X172253908Y-98750605D01*
X172338875Y-98680875D01*
X172408605Y-98595908D01*
X172460419Y-98498971D01*
X172492326Y-98393787D01*
X172503100Y-98284400D01*
X172500400Y-97777900D01*
X172360900Y-97638400D01*
X171171400Y-97638400D01*
X171171400Y-97658400D01*
X170763400Y-97658400D01*
X170763400Y-97638400D01*
X169573900Y-97638400D01*
X169434400Y-97777900D01*
X169431700Y-98284400D01*
X169442474Y-98393787D01*
X169474381Y-98498971D01*
X169526195Y-98595908D01*
X169595925Y-98680875D01*
X169680892Y-98750605D01*
X169777829Y-98802419D01*
X169883013Y-98834326D01*
X169954788Y-98841395D01*
X169841977Y-98933977D01*
X169666027Y-99148373D01*
X169535284Y-99392975D01*
X169454773Y-99658384D01*
X169427588Y-99934400D01*
X165708000Y-99934400D01*
X165708000Y-96584400D01*
X169431700Y-96584400D01*
X169434400Y-97090900D01*
X169573900Y-97230400D01*
X170763400Y-97230400D01*
X170763400Y-96165900D01*
X171171400Y-96165900D01*
X171171400Y-97230400D01*
X172360900Y-97230400D01*
X172500400Y-97090900D01*
X172503100Y-96584400D01*
X172492326Y-96475013D01*
X172460419Y-96369829D01*
X172408605Y-96272892D01*
X172338875Y-96187925D01*
X172253908Y-96118195D01*
X172156971Y-96066381D01*
X172051787Y-96034474D01*
X171942400Y-96023700D01*
X171310900Y-96026400D01*
X171171400Y-96165900D01*
X170763400Y-96165900D01*
X170623900Y-96026400D01*
X169992400Y-96023700D01*
X169883013Y-96034474D01*
X169777829Y-96066381D01*
X169680892Y-96118195D01*
X169595925Y-96187925D01*
X169526195Y-96272892D01*
X169474381Y-96369829D01*
X169442474Y-96475013D01*
X169431700Y-96584400D01*
X165708000Y-96584400D01*
X165708000Y-94830576D01*
X224715922Y-94830576D01*
X224808011Y-95046000D01*
X225856000Y-95046000D01*
X225856000Y-93996349D01*
X226264000Y-93996349D01*
X226264000Y-95046000D01*
X227311989Y-95046000D01*
X227404078Y-94830576D01*
X227306991Y-94596166D01*
X227155474Y-94365453D01*
X226961858Y-94168733D01*
X226733584Y-94013566D01*
X226479425Y-93905914D01*
X226264000Y-93996349D01*
X225856000Y-93996349D01*
X225640575Y-93905914D01*
X225386416Y-94013566D01*
X225158142Y-94168733D01*
X224964526Y-94365453D01*
X224813009Y-94596166D01*
X224715922Y-94830576D01*
X165708000Y-94830576D01*
X165708000Y-86599400D01*
X169427588Y-86599400D01*
X169454773Y-86875416D01*
X169535284Y-87140825D01*
X169666027Y-87385427D01*
X169841977Y-87599823D01*
X170056373Y-87775773D01*
X170194119Y-87849400D01*
X170056373Y-87923027D01*
X169841977Y-88098977D01*
X169666027Y-88313373D01*
X169535284Y-88557975D01*
X169454773Y-88823384D01*
X169427588Y-89099400D01*
X169454773Y-89375416D01*
X169535284Y-89640825D01*
X169666027Y-89885427D01*
X169841977Y-90099823D01*
X170056373Y-90275773D01*
X170300975Y-90406516D01*
X170566384Y-90487027D01*
X170773236Y-90507400D01*
X171161564Y-90507400D01*
X171368416Y-90487027D01*
X171633825Y-90406516D01*
X171878427Y-90275773D01*
X172092823Y-90099823D01*
X172268773Y-89885427D01*
X172399516Y-89640825D01*
X172480027Y-89375416D01*
X172507212Y-89099400D01*
X172480027Y-88823384D01*
X172423731Y-88637800D01*
X225180588Y-88637800D01*
X225207773Y-88913816D01*
X225288284Y-89179225D01*
X225419027Y-89423827D01*
X225594977Y-89638223D01*
X225809373Y-89814173D01*
X226053975Y-89944916D01*
X226319384Y-90025427D01*
X226526236Y-90045800D01*
X226914564Y-90045800D01*
X227121416Y-90025427D01*
X227386825Y-89944916D01*
X227631427Y-89814173D01*
X227845823Y-89638223D01*
X228021773Y-89423827D01*
X228152516Y-89179225D01*
X228233027Y-88913816D01*
X228260212Y-88637800D01*
X228233027Y-88361784D01*
X228152516Y-88096375D01*
X228021773Y-87851773D01*
X227845823Y-87637377D01*
X227631427Y-87461427D01*
X227483433Y-87382322D01*
X227645441Y-87292152D01*
X227855271Y-87113891D01*
X228026293Y-86898120D01*
X228151934Y-86653130D01*
X228189478Y-86557224D01*
X228097389Y-86341800D01*
X226924400Y-86341800D01*
X226924400Y-86361800D01*
X226516400Y-86361800D01*
X226516400Y-86341800D01*
X225343411Y-86341800D01*
X225251322Y-86557224D01*
X225288866Y-86653130D01*
X225414507Y-86898120D01*
X225585529Y-87113891D01*
X225795359Y-87292152D01*
X225957367Y-87382322D01*
X225809373Y-87461427D01*
X225594977Y-87637377D01*
X225419027Y-87851773D01*
X225288284Y-88096375D01*
X225207773Y-88361784D01*
X225180588Y-88637800D01*
X172423731Y-88637800D01*
X172399516Y-88557975D01*
X172268773Y-88313373D01*
X172092823Y-88098977D01*
X171878427Y-87923027D01*
X171740681Y-87849400D01*
X171878427Y-87775773D01*
X172092823Y-87599823D01*
X172268773Y-87385427D01*
X172399516Y-87140825D01*
X172480027Y-86875416D01*
X172507212Y-86599400D01*
X172480027Y-86323384D01*
X172399516Y-86057975D01*
X172268773Y-85813373D01*
X172092823Y-85598977D01*
X171980012Y-85506395D01*
X172051787Y-85499326D01*
X172156971Y-85467419D01*
X172253908Y-85415605D01*
X172338875Y-85345875D01*
X172408605Y-85260908D01*
X172460419Y-85163971D01*
X172492326Y-85058787D01*
X172503100Y-84949400D01*
X172500400Y-84442900D01*
X172360900Y-84303400D01*
X171171400Y-84303400D01*
X171171400Y-84323400D01*
X170763400Y-84323400D01*
X170763400Y-84303400D01*
X169573900Y-84303400D01*
X169434400Y-84442900D01*
X169431700Y-84949400D01*
X169442474Y-85058787D01*
X169474381Y-85163971D01*
X169526195Y-85260908D01*
X169595925Y-85345875D01*
X169680892Y-85415605D01*
X169777829Y-85467419D01*
X169883013Y-85499326D01*
X169954788Y-85506395D01*
X169841977Y-85598977D01*
X169666027Y-85813373D01*
X169535284Y-86057975D01*
X169454773Y-86323384D01*
X169427588Y-86599400D01*
X165708000Y-86599400D01*
X165708000Y-83249400D01*
X169431700Y-83249400D01*
X169434400Y-83755900D01*
X169573900Y-83895400D01*
X170763400Y-83895400D01*
X170763400Y-82830900D01*
X171171400Y-82830900D01*
X171171400Y-83895400D01*
X172360900Y-83895400D01*
X172500400Y-83755900D01*
X172503100Y-83249400D01*
X172492326Y-83140013D01*
X172460419Y-83034829D01*
X172408605Y-82937892D01*
X172338875Y-82852925D01*
X172253908Y-82783195D01*
X172156971Y-82731381D01*
X172051787Y-82699474D01*
X171942400Y-82688700D01*
X171310900Y-82691400D01*
X171171400Y-82830900D01*
X170763400Y-82830900D01*
X170623900Y-82691400D01*
X169992400Y-82688700D01*
X169883013Y-82699474D01*
X169777829Y-82731381D01*
X169680892Y-82783195D01*
X169595925Y-82852925D01*
X169526195Y-82937892D01*
X169474381Y-83034829D01*
X169442474Y-83140013D01*
X169431700Y-83249400D01*
X165708000Y-83249400D01*
X165708000Y-73264400D01*
X169427588Y-73264400D01*
X169454773Y-73540416D01*
X169535284Y-73805825D01*
X169666027Y-74050427D01*
X169841977Y-74264823D01*
X170056373Y-74440773D01*
X170194119Y-74514400D01*
X170056373Y-74588027D01*
X169841977Y-74763977D01*
X169666027Y-74978373D01*
X169535284Y-75222975D01*
X169454773Y-75488384D01*
X169427588Y-75764400D01*
X169454773Y-76040416D01*
X169535284Y-76305825D01*
X169666027Y-76550427D01*
X169841977Y-76764823D01*
X170056373Y-76940773D01*
X170300975Y-77071516D01*
X170566384Y-77152027D01*
X170773236Y-77172400D01*
X171161564Y-77172400D01*
X171368416Y-77152027D01*
X171633825Y-77071516D01*
X171878427Y-76940773D01*
X171967533Y-76867645D01*
X200972000Y-76867645D01*
X200972000Y-77056355D01*
X201008816Y-77241438D01*
X201081032Y-77415783D01*
X201185873Y-77572689D01*
X201247000Y-77633816D01*
X201247001Y-79722454D01*
X201243697Y-79756000D01*
X201256884Y-79889891D01*
X201295939Y-80018637D01*
X201359360Y-80137290D01*
X201391976Y-80177032D01*
X201444711Y-80241290D01*
X201470765Y-80262672D01*
X202242000Y-81033908D01*
X202242000Y-81120355D01*
X202278816Y-81305438D01*
X202351032Y-81479783D01*
X202455873Y-81636689D01*
X202589311Y-81770127D01*
X202746217Y-81874968D01*
X202920562Y-81947184D01*
X203105645Y-81984000D01*
X203294355Y-81984000D01*
X203479438Y-81947184D01*
X203653783Y-81874968D01*
X203810689Y-81770127D01*
X203944127Y-81636689D01*
X204048968Y-81479783D01*
X204121184Y-81305438D01*
X204158000Y-81120355D01*
X204158000Y-80931645D01*
X204121184Y-80746562D01*
X204106853Y-80711963D01*
X204198127Y-80620689D01*
X204302968Y-80463783D01*
X204375184Y-80289438D01*
X204412000Y-80104355D01*
X204412000Y-79915645D01*
X204375184Y-79730562D01*
X204302968Y-79556217D01*
X204198127Y-79399311D01*
X204064689Y-79265873D01*
X203907783Y-79161032D01*
X203733438Y-79088816D01*
X203548355Y-79052000D01*
X203359645Y-79052000D01*
X203233083Y-79077175D01*
X203229001Y-79073094D01*
X203229001Y-77881708D01*
X203399783Y-77810968D01*
X203556689Y-77706127D01*
X203690127Y-77572689D01*
X203794968Y-77415783D01*
X203867184Y-77241438D01*
X203904000Y-77056355D01*
X203904000Y-76904000D01*
X204056355Y-76904000D01*
X204241438Y-76867184D01*
X204415783Y-76794968D01*
X204572689Y-76690127D01*
X204706127Y-76556689D01*
X204810968Y-76399783D01*
X204883184Y-76225438D01*
X204897194Y-76155005D01*
X204995873Y-76302689D01*
X205129311Y-76436127D01*
X205286217Y-76540968D01*
X205460562Y-76613184D01*
X205560864Y-76633136D01*
X205580816Y-76733438D01*
X205653032Y-76907783D01*
X205757873Y-77064689D01*
X205891311Y-77198127D01*
X206048217Y-77302968D01*
X206222562Y-77375184D01*
X206322864Y-77395136D01*
X206342816Y-77495438D01*
X206415032Y-77669783D01*
X206519873Y-77826689D01*
X206653311Y-77960127D01*
X206810217Y-78064968D01*
X206984562Y-78137184D01*
X207169645Y-78174000D01*
X207358355Y-78174000D01*
X207543438Y-78137184D01*
X207717783Y-78064968D01*
X207874689Y-77960127D01*
X208008127Y-77826689D01*
X208112968Y-77669783D01*
X208183708Y-77499001D01*
X209063092Y-77499001D01*
X209034093Y-77528000D01*
X208947645Y-77528000D01*
X208762562Y-77564816D01*
X208588217Y-77637032D01*
X208431311Y-77741873D01*
X208297873Y-77875311D01*
X208193032Y-78032217D01*
X208120816Y-78206562D01*
X208084000Y-78391645D01*
X208084000Y-78580355D01*
X208120816Y-78765438D01*
X208193032Y-78939783D01*
X208297873Y-79096689D01*
X208431311Y-79230127D01*
X208588217Y-79334968D01*
X208762562Y-79407184D01*
X208947645Y-79444000D01*
X209136355Y-79444000D01*
X209321438Y-79407184D01*
X209495783Y-79334968D01*
X209652689Y-79230127D01*
X209786127Y-79096689D01*
X209890968Y-78939783D01*
X209963184Y-78765438D01*
X210000000Y-78580355D01*
X210000000Y-78493907D01*
X216673108Y-71820800D01*
X225363958Y-71820800D01*
X225419027Y-71923827D01*
X225594977Y-72138223D01*
X225809373Y-72314173D01*
X225947119Y-72387800D01*
X225809373Y-72461427D01*
X225594977Y-72637377D01*
X225419027Y-72851773D01*
X225363958Y-72954800D01*
X225353735Y-72954800D01*
X225320199Y-72951497D01*
X225286663Y-72954800D01*
X225286654Y-72954800D01*
X225186309Y-72964683D01*
X225057563Y-73003738D01*
X224938910Y-73067159D01*
X224834910Y-73152510D01*
X224813528Y-73178564D01*
X213839093Y-84153000D01*
X205903816Y-84153000D01*
X205842689Y-84091873D01*
X205685783Y-83987032D01*
X205511438Y-83914816D01*
X205326355Y-83878000D01*
X205137645Y-83878000D01*
X204952562Y-83914816D01*
X204778217Y-83987032D01*
X204621311Y-84091873D01*
X204487873Y-84225311D01*
X204383032Y-84382217D01*
X204310816Y-84556562D01*
X204290864Y-84656864D01*
X204190562Y-84676816D01*
X204016217Y-84749032D01*
X203859311Y-84853873D01*
X203725873Y-84987311D01*
X203621032Y-85144217D01*
X203548816Y-85318562D01*
X203512000Y-85503645D01*
X203512000Y-85692355D01*
X203548816Y-85877438D01*
X203621032Y-86051783D01*
X203725873Y-86208689D01*
X203859311Y-86342127D01*
X204016217Y-86446968D01*
X204190562Y-86519184D01*
X204375645Y-86556000D01*
X204564355Y-86556000D01*
X204749438Y-86519184D01*
X204923783Y-86446968D01*
X205080689Y-86342127D01*
X205141816Y-86281000D01*
X215104464Y-86281000D01*
X215138000Y-86284303D01*
X215171536Y-86281000D01*
X215171546Y-86281000D01*
X215271891Y-86271117D01*
X215400637Y-86232062D01*
X215519290Y-86168641D01*
X215623290Y-86083290D01*
X215644677Y-86057230D01*
X224881108Y-76820800D01*
X225363958Y-76820800D01*
X225419027Y-76923827D01*
X225594977Y-77138223D01*
X225809373Y-77314173D01*
X225947119Y-77387800D01*
X225809373Y-77461427D01*
X225594977Y-77637377D01*
X225419027Y-77851773D01*
X225288284Y-78096375D01*
X225207773Y-78361784D01*
X225180588Y-78637800D01*
X225207773Y-78913816D01*
X225288284Y-79179225D01*
X225419027Y-79423827D01*
X225594977Y-79638223D01*
X225809373Y-79814173D01*
X225947119Y-79887800D01*
X225809373Y-79961427D01*
X225594977Y-80137377D01*
X225419027Y-80351773D01*
X225288284Y-80596375D01*
X225207773Y-80861784D01*
X225180588Y-81137800D01*
X225207773Y-81413816D01*
X225288284Y-81679225D01*
X225419027Y-81923827D01*
X225594977Y-82138223D01*
X225809373Y-82314173D01*
X225947119Y-82387800D01*
X225809373Y-82461427D01*
X225594977Y-82637377D01*
X225419027Y-82851773D01*
X225288284Y-83096375D01*
X225207773Y-83361784D01*
X225180588Y-83637800D01*
X225207773Y-83913816D01*
X225288284Y-84179225D01*
X225419027Y-84423827D01*
X225594977Y-84638223D01*
X225809373Y-84814173D01*
X225957367Y-84893278D01*
X225795359Y-84983448D01*
X225585529Y-85161709D01*
X225414507Y-85377480D01*
X225288866Y-85622470D01*
X225251322Y-85718376D01*
X225343411Y-85933800D01*
X226516400Y-85933800D01*
X226516400Y-85913800D01*
X226924400Y-85913800D01*
X226924400Y-85933800D01*
X228097389Y-85933800D01*
X228189478Y-85718376D01*
X228151934Y-85622470D01*
X228026293Y-85377480D01*
X227855271Y-85161709D01*
X227645441Y-84983448D01*
X227483433Y-84893278D01*
X227631427Y-84814173D01*
X227845823Y-84638223D01*
X228021773Y-84423827D01*
X228152516Y-84179225D01*
X228233027Y-83913816D01*
X228260212Y-83637800D01*
X228233027Y-83361784D01*
X228152516Y-83096375D01*
X228021773Y-82851773D01*
X227845823Y-82637377D01*
X227631427Y-82461427D01*
X227493681Y-82387800D01*
X227631427Y-82314173D01*
X227845823Y-82138223D01*
X228021773Y-81923827D01*
X228152516Y-81679225D01*
X228233027Y-81413816D01*
X228260212Y-81137800D01*
X228233027Y-80861784D01*
X228152516Y-80596375D01*
X228021773Y-80351773D01*
X227845823Y-80137377D01*
X227631427Y-79961427D01*
X227493681Y-79887800D01*
X227631427Y-79814173D01*
X227845823Y-79638223D01*
X228021773Y-79423827D01*
X228152516Y-79179225D01*
X228233027Y-78913816D01*
X228260212Y-78637800D01*
X228233027Y-78361784D01*
X228152516Y-78096375D01*
X228021773Y-77851773D01*
X227845823Y-77637377D01*
X227631427Y-77461427D01*
X227493681Y-77387800D01*
X227631427Y-77314173D01*
X227845823Y-77138223D01*
X228021773Y-76923827D01*
X228152516Y-76679225D01*
X228233027Y-76413816D01*
X228260212Y-76137800D01*
X228233027Y-75861784D01*
X228152516Y-75596375D01*
X228021773Y-75351773D01*
X227845823Y-75137377D01*
X227631427Y-74961427D01*
X227493681Y-74887800D01*
X227631427Y-74814173D01*
X227845823Y-74638223D01*
X228021773Y-74423827D01*
X228152516Y-74179225D01*
X228233027Y-73913816D01*
X228260212Y-73637800D01*
X228233027Y-73361784D01*
X228152516Y-73096375D01*
X228021773Y-72851773D01*
X227845823Y-72637377D01*
X227631427Y-72461427D01*
X227493681Y-72387800D01*
X227631427Y-72314173D01*
X227845823Y-72138223D01*
X228021773Y-71923827D01*
X228152516Y-71679225D01*
X228233027Y-71413816D01*
X228260212Y-71137800D01*
X228233027Y-70861784D01*
X228152516Y-70596375D01*
X228021773Y-70351773D01*
X227845823Y-70137377D01*
X227631427Y-69961427D01*
X227493681Y-69887800D01*
X227631427Y-69814173D01*
X227845823Y-69638223D01*
X228021773Y-69423827D01*
X228152516Y-69179225D01*
X228233027Y-68913816D01*
X228260212Y-68637800D01*
X228233027Y-68361784D01*
X228152516Y-68096375D01*
X228021773Y-67851773D01*
X227845823Y-67637377D01*
X227631427Y-67461427D01*
X227493681Y-67387800D01*
X227631427Y-67314173D01*
X227845823Y-67138223D01*
X228021773Y-66923827D01*
X228152516Y-66679225D01*
X228233027Y-66413816D01*
X228260212Y-66137800D01*
X228233027Y-65861784D01*
X228152516Y-65596375D01*
X228021773Y-65351773D01*
X227845823Y-65137377D01*
X227631427Y-64961427D01*
X227493681Y-64887800D01*
X227631427Y-64814173D01*
X227845823Y-64638223D01*
X228021773Y-64423827D01*
X228152516Y-64179225D01*
X228233027Y-63913816D01*
X228260212Y-63637800D01*
X228233027Y-63361784D01*
X228152516Y-63096375D01*
X228021773Y-62851773D01*
X227845823Y-62637377D01*
X227733012Y-62544795D01*
X227804787Y-62537726D01*
X227909971Y-62505819D01*
X228006908Y-62454005D01*
X228091875Y-62384275D01*
X228161605Y-62299308D01*
X228213419Y-62202371D01*
X228245326Y-62097187D01*
X228256100Y-61987800D01*
X228253400Y-61481300D01*
X228113900Y-61341800D01*
X226924400Y-61341800D01*
X226924400Y-61361800D01*
X226516400Y-61361800D01*
X226516400Y-61341800D01*
X225326900Y-61341800D01*
X225187400Y-61481300D01*
X225184700Y-61987800D01*
X225195474Y-62097187D01*
X225227381Y-62202371D01*
X225279195Y-62299308D01*
X225348925Y-62384275D01*
X225433892Y-62454005D01*
X225530829Y-62505819D01*
X225636013Y-62537726D01*
X225707788Y-62544795D01*
X225594977Y-62637377D01*
X225419027Y-62851773D01*
X225363958Y-62954800D01*
X222014505Y-62954800D01*
X221980969Y-62951497D01*
X221947433Y-62954800D01*
X221947424Y-62954800D01*
X221847079Y-62964683D01*
X221718333Y-63003738D01*
X221599680Y-63067159D01*
X221495680Y-63152510D01*
X221474298Y-63178564D01*
X209643863Y-75009000D01*
X206411816Y-75009000D01*
X206350689Y-74947873D01*
X206193783Y-74843032D01*
X206019438Y-74770816D01*
X205834355Y-74734000D01*
X205645645Y-74734000D01*
X205460562Y-74770816D01*
X205402301Y-74794948D01*
X205402301Y-70614117D01*
X205511928Y-70504490D01*
X205616769Y-70347584D01*
X205688985Y-70173239D01*
X205725801Y-69988156D01*
X205725801Y-69799446D01*
X205688985Y-69614363D01*
X205616769Y-69440018D01*
X205511928Y-69283112D01*
X205378490Y-69149674D01*
X205221584Y-69044833D01*
X205047239Y-68972617D01*
X204862156Y-68935801D01*
X204673446Y-68935801D01*
X204488363Y-68972617D01*
X204314018Y-69044833D01*
X204157112Y-69149674D01*
X204023674Y-69283112D01*
X203918833Y-69440018D01*
X203846617Y-69614363D01*
X203809801Y-69799446D01*
X203809801Y-69988156D01*
X203846617Y-70173239D01*
X203918833Y-70347584D01*
X204023674Y-70504490D01*
X204133301Y-70614117D01*
X204133302Y-74877380D01*
X204022682Y-74988000D01*
X203867645Y-74988000D01*
X203682562Y-75024816D01*
X203508217Y-75097032D01*
X203351311Y-75201873D01*
X203217873Y-75335311D01*
X203113032Y-75492217D01*
X203040816Y-75666562D01*
X203004000Y-75851645D01*
X203004000Y-76004000D01*
X202851645Y-76004000D01*
X202666562Y-76040816D01*
X202492217Y-76113032D01*
X202438000Y-76149259D01*
X202383783Y-76113032D01*
X202209438Y-76040816D01*
X202024355Y-76004000D01*
X201835645Y-76004000D01*
X201650562Y-76040816D01*
X201476217Y-76113032D01*
X201319311Y-76217873D01*
X201185873Y-76351311D01*
X201081032Y-76508217D01*
X201008816Y-76682562D01*
X200972000Y-76867645D01*
X171967533Y-76867645D01*
X172092823Y-76764823D01*
X172268773Y-76550427D01*
X172399516Y-76305825D01*
X172480027Y-76040416D01*
X172507212Y-75764400D01*
X172480027Y-75488384D01*
X172399516Y-75222975D01*
X172268773Y-74978373D01*
X172092823Y-74763977D01*
X171878427Y-74588027D01*
X171740681Y-74514400D01*
X171878427Y-74440773D01*
X172092823Y-74264823D01*
X172268773Y-74050427D01*
X172399516Y-73805825D01*
X172480027Y-73540416D01*
X172507212Y-73264400D01*
X172480027Y-72988384D01*
X172399516Y-72722975D01*
X172268773Y-72478373D01*
X172092823Y-72263977D01*
X171980012Y-72171395D01*
X172051787Y-72164326D01*
X172156971Y-72132419D01*
X172253908Y-72080605D01*
X172338875Y-72010875D01*
X172408605Y-71925908D01*
X172460419Y-71828971D01*
X172492326Y-71723787D01*
X172503100Y-71614400D01*
X172500400Y-71107900D01*
X172360900Y-70968400D01*
X171171400Y-70968400D01*
X171171400Y-70988400D01*
X170763400Y-70988400D01*
X170763400Y-70968400D01*
X169573900Y-70968400D01*
X169434400Y-71107900D01*
X169431700Y-71614400D01*
X169442474Y-71723787D01*
X169474381Y-71828971D01*
X169526195Y-71925908D01*
X169595925Y-72010875D01*
X169680892Y-72080605D01*
X169777829Y-72132419D01*
X169883013Y-72164326D01*
X169954788Y-72171395D01*
X169841977Y-72263977D01*
X169666027Y-72478373D01*
X169535284Y-72722975D01*
X169454773Y-72988384D01*
X169427588Y-73264400D01*
X165708000Y-73264400D01*
X165708000Y-69914400D01*
X169431700Y-69914400D01*
X169434400Y-70420900D01*
X169573900Y-70560400D01*
X170763400Y-70560400D01*
X170763400Y-69495900D01*
X171171400Y-69495900D01*
X171171400Y-70560400D01*
X172360900Y-70560400D01*
X172500400Y-70420900D01*
X172503100Y-69914400D01*
X172492326Y-69805013D01*
X172460419Y-69699829D01*
X172408605Y-69602892D01*
X172338875Y-69517925D01*
X172253908Y-69448195D01*
X172156971Y-69396381D01*
X172051787Y-69364474D01*
X171942400Y-69353700D01*
X171310900Y-69356400D01*
X171171400Y-69495900D01*
X170763400Y-69495900D01*
X170623900Y-69356400D01*
X169992400Y-69353700D01*
X169883013Y-69364474D01*
X169777829Y-69396381D01*
X169680892Y-69448195D01*
X169595925Y-69517925D01*
X169526195Y-69602892D01*
X169474381Y-69699829D01*
X169442474Y-69805013D01*
X169431700Y-69914400D01*
X165708000Y-69914400D01*
X165708000Y-68485645D01*
X200972000Y-68485645D01*
X200972000Y-68674355D01*
X201008816Y-68859438D01*
X201081032Y-69033783D01*
X201185873Y-69190689D01*
X201247000Y-69251816D01*
X201247001Y-71718183D01*
X201185873Y-71779311D01*
X201081032Y-71936217D01*
X201008816Y-72110562D01*
X200972000Y-72295645D01*
X200972000Y-72484355D01*
X201008816Y-72669438D01*
X201081032Y-72843783D01*
X201185873Y-73000689D01*
X201319311Y-73134127D01*
X201476217Y-73238968D01*
X201650562Y-73311184D01*
X201835645Y-73348000D01*
X202024355Y-73348000D01*
X202209438Y-73311184D01*
X202383783Y-73238968D01*
X202438000Y-73202741D01*
X202492217Y-73238968D01*
X202666562Y-73311184D01*
X202851645Y-73348000D01*
X203040355Y-73348000D01*
X203225438Y-73311184D01*
X203399783Y-73238968D01*
X203556689Y-73134127D01*
X203690127Y-73000689D01*
X203794968Y-72843783D01*
X203867184Y-72669438D01*
X203904000Y-72484355D01*
X203904000Y-72295645D01*
X203867184Y-72110562D01*
X203794968Y-71936217D01*
X203690127Y-71779311D01*
X203629000Y-71718184D01*
X203629000Y-69505816D01*
X203690127Y-69444689D01*
X203794968Y-69287783D01*
X203867184Y-69113438D01*
X203904000Y-68928355D01*
X203904000Y-68739645D01*
X203867184Y-68554562D01*
X203794968Y-68380217D01*
X203690127Y-68223311D01*
X203556689Y-68089873D01*
X203399783Y-67985032D01*
X203225438Y-67912816D01*
X203040355Y-67876000D01*
X202851645Y-67876000D01*
X202666562Y-67912816D01*
X202631963Y-67927147D01*
X202540689Y-67835873D01*
X202383783Y-67731032D01*
X202209438Y-67658816D01*
X202024355Y-67622000D01*
X201835645Y-67622000D01*
X201650562Y-67658816D01*
X201476217Y-67731032D01*
X201319311Y-67835873D01*
X201185873Y-67969311D01*
X201081032Y-68126217D01*
X201008816Y-68300562D01*
X200972000Y-68485645D01*
X165708000Y-68485645D01*
X165708000Y-59929400D01*
X169427588Y-59929400D01*
X169454773Y-60205416D01*
X169535284Y-60470825D01*
X169666027Y-60715427D01*
X169841977Y-60929823D01*
X170056373Y-61105773D01*
X170194119Y-61179400D01*
X170056373Y-61253027D01*
X169841977Y-61428977D01*
X169666027Y-61643373D01*
X169535284Y-61887975D01*
X169454773Y-62153384D01*
X169427588Y-62429400D01*
X169454773Y-62705416D01*
X169535284Y-62970825D01*
X169666027Y-63215427D01*
X169841977Y-63429823D01*
X170056373Y-63605773D01*
X170300975Y-63736516D01*
X170566384Y-63817027D01*
X170773236Y-63837400D01*
X171161564Y-63837400D01*
X171368416Y-63817027D01*
X171633825Y-63736516D01*
X171878427Y-63605773D01*
X172092823Y-63429823D01*
X172268773Y-63215427D01*
X172399516Y-62970825D01*
X172480027Y-62705416D01*
X172507212Y-62429400D01*
X172480027Y-62153384D01*
X172399516Y-61887975D01*
X172268773Y-61643373D01*
X172092823Y-61428977D01*
X171878427Y-61253027D01*
X171740681Y-61179400D01*
X171878427Y-61105773D01*
X172092823Y-60929823D01*
X172268773Y-60715427D01*
X172399516Y-60470825D01*
X172455036Y-60287800D01*
X225184700Y-60287800D01*
X225187400Y-60794300D01*
X225326900Y-60933800D01*
X226516400Y-60933800D01*
X226516400Y-59869300D01*
X226924400Y-59869300D01*
X226924400Y-60933800D01*
X228113900Y-60933800D01*
X228253400Y-60794300D01*
X228256100Y-60287800D01*
X228245326Y-60178413D01*
X228213419Y-60073229D01*
X228161605Y-59976292D01*
X228091875Y-59891325D01*
X228006908Y-59821595D01*
X227909971Y-59769781D01*
X227804787Y-59737874D01*
X227695400Y-59727100D01*
X227063900Y-59729800D01*
X226924400Y-59869300D01*
X226516400Y-59869300D01*
X226376900Y-59729800D01*
X225745400Y-59727100D01*
X225636013Y-59737874D01*
X225530829Y-59769781D01*
X225433892Y-59821595D01*
X225348925Y-59891325D01*
X225279195Y-59976292D01*
X225227381Y-60073229D01*
X225195474Y-60178413D01*
X225184700Y-60287800D01*
X172455036Y-60287800D01*
X172480027Y-60205416D01*
X172507212Y-59929400D01*
X172480027Y-59653384D01*
X172399516Y-59387975D01*
X172268773Y-59143373D01*
X172092823Y-58928977D01*
X171980012Y-58836395D01*
X172051787Y-58829326D01*
X172156971Y-58797419D01*
X172253908Y-58745605D01*
X172338875Y-58675875D01*
X172408605Y-58590908D01*
X172460419Y-58493971D01*
X172492326Y-58388787D01*
X172503100Y-58279400D01*
X172500400Y-57772900D01*
X172360900Y-57633400D01*
X171171400Y-57633400D01*
X171171400Y-57653400D01*
X170763400Y-57653400D01*
X170763400Y-57633400D01*
X169573900Y-57633400D01*
X169434400Y-57772900D01*
X169431700Y-58279400D01*
X169442474Y-58388787D01*
X169474381Y-58493971D01*
X169526195Y-58590908D01*
X169595925Y-58675875D01*
X169680892Y-58745605D01*
X169777829Y-58797419D01*
X169883013Y-58829326D01*
X169954788Y-58836395D01*
X169841977Y-58928977D01*
X169666027Y-59143373D01*
X169535284Y-59387975D01*
X169454773Y-59653384D01*
X169427588Y-59929400D01*
X165708000Y-59929400D01*
X165708000Y-56579400D01*
X169431700Y-56579400D01*
X169434400Y-57085900D01*
X169573900Y-57225400D01*
X170763400Y-57225400D01*
X170763400Y-56160900D01*
X171171400Y-56160900D01*
X171171400Y-57225400D01*
X172360900Y-57225400D01*
X172500400Y-57085900D01*
X172503100Y-56579400D01*
X172492326Y-56470013D01*
X172460419Y-56364829D01*
X172408605Y-56267892D01*
X172338875Y-56182925D01*
X172253908Y-56113195D01*
X172156971Y-56061381D01*
X172051787Y-56029474D01*
X171942400Y-56018700D01*
X171310900Y-56021400D01*
X171171400Y-56160900D01*
X170763400Y-56160900D01*
X170623900Y-56021400D01*
X169992400Y-56018700D01*
X169883013Y-56029474D01*
X169777829Y-56061381D01*
X169680892Y-56113195D01*
X169595925Y-56182925D01*
X169526195Y-56267892D01*
X169474381Y-56364829D01*
X169442474Y-56470013D01*
X169431700Y-56579400D01*
X165708000Y-56579400D01*
X165708000Y-55000800D01*
X196480700Y-55000800D01*
X196491474Y-55110187D01*
X196523381Y-55215371D01*
X196575195Y-55312308D01*
X196644925Y-55397275D01*
X196729892Y-55467005D01*
X196826829Y-55518819D01*
X196932013Y-55550726D01*
X197041400Y-55561500D01*
X197547900Y-55558800D01*
X197687400Y-55419300D01*
X197687400Y-54229800D01*
X196622900Y-54229800D01*
X196483400Y-54369300D01*
X196480700Y-55000800D01*
X165708000Y-55000800D01*
X165708000Y-53050800D01*
X196480700Y-53050800D01*
X196483400Y-53682300D01*
X196622900Y-53821800D01*
X197687400Y-53821800D01*
X197687400Y-52632300D01*
X198095400Y-52632300D01*
X198095400Y-53821800D01*
X198115400Y-53821800D01*
X198115400Y-54229800D01*
X198095400Y-54229800D01*
X198095400Y-55419300D01*
X198234900Y-55558800D01*
X198741400Y-55561500D01*
X198850787Y-55550726D01*
X198955971Y-55518819D01*
X199052908Y-55467005D01*
X199137875Y-55397275D01*
X199207605Y-55312308D01*
X199259419Y-55215371D01*
X199291326Y-55110187D01*
X199298395Y-55038411D01*
X199390978Y-55151223D01*
X199605374Y-55327173D01*
X199849976Y-55457916D01*
X200115385Y-55538427D01*
X200391400Y-55565612D01*
X200667416Y-55538427D01*
X200932825Y-55457916D01*
X201177427Y-55327173D01*
X201391823Y-55151223D01*
X201567773Y-54936826D01*
X201641400Y-54799081D01*
X201715027Y-54936827D01*
X201890978Y-55151223D01*
X202105374Y-55327173D01*
X202349976Y-55457916D01*
X202615385Y-55538427D01*
X202891400Y-55565612D01*
X203167416Y-55538427D01*
X203432825Y-55457916D01*
X203677427Y-55327173D01*
X203891823Y-55151223D01*
X204067773Y-54936826D01*
X204141400Y-54799081D01*
X204215027Y-54936827D01*
X204390978Y-55151223D01*
X204605374Y-55327173D01*
X204849976Y-55457916D01*
X205115385Y-55538427D01*
X205391400Y-55565612D01*
X205667416Y-55538427D01*
X205932825Y-55457916D01*
X206177427Y-55327173D01*
X206391823Y-55151223D01*
X206515271Y-55000800D01*
X210577700Y-55000800D01*
X210588474Y-55110187D01*
X210620381Y-55215371D01*
X210672195Y-55312308D01*
X210741925Y-55397275D01*
X210826892Y-55467005D01*
X210923829Y-55518819D01*
X211029013Y-55550726D01*
X211138400Y-55561500D01*
X211644900Y-55558800D01*
X211784400Y-55419300D01*
X211784400Y-54229800D01*
X210719900Y-54229800D01*
X210580400Y-54369300D01*
X210577700Y-55000800D01*
X206515271Y-55000800D01*
X206567773Y-54936826D01*
X206698516Y-54692224D01*
X206779027Y-54426815D01*
X206799400Y-54219963D01*
X206799400Y-53831636D01*
X206779027Y-53624784D01*
X206698516Y-53359375D01*
X206567773Y-53114773D01*
X206515272Y-53050800D01*
X210577700Y-53050800D01*
X210580400Y-53682300D01*
X210719900Y-53821800D01*
X211784400Y-53821800D01*
X211784400Y-52632300D01*
X212192400Y-52632300D01*
X212192400Y-53821800D01*
X212212400Y-53821800D01*
X212212400Y-54229800D01*
X212192400Y-54229800D01*
X212192400Y-55419300D01*
X212331900Y-55558800D01*
X212838400Y-55561500D01*
X212947787Y-55550726D01*
X213052971Y-55518819D01*
X213149908Y-55467005D01*
X213234875Y-55397275D01*
X213304605Y-55312308D01*
X213356419Y-55215371D01*
X213388326Y-55110187D01*
X213395395Y-55038411D01*
X213487978Y-55151223D01*
X213702374Y-55327173D01*
X213946976Y-55457916D01*
X214212385Y-55538427D01*
X214488400Y-55565612D01*
X214764416Y-55538427D01*
X215029825Y-55457916D01*
X215274427Y-55327173D01*
X215488823Y-55151223D01*
X215664773Y-54936826D01*
X215738400Y-54799081D01*
X215812027Y-54936827D01*
X215987978Y-55151223D01*
X216202374Y-55327173D01*
X216446976Y-55457916D01*
X216712385Y-55538427D01*
X216988400Y-55565612D01*
X217264416Y-55538427D01*
X217529825Y-55457916D01*
X217774427Y-55327173D01*
X217988823Y-55151223D01*
X218164773Y-54936826D01*
X218238400Y-54799081D01*
X218312027Y-54936827D01*
X218487978Y-55151223D01*
X218702374Y-55327173D01*
X218946976Y-55457916D01*
X219212385Y-55538427D01*
X219488400Y-55565612D01*
X219764416Y-55538427D01*
X220029825Y-55457916D01*
X220274427Y-55327173D01*
X220488823Y-55151223D01*
X220664773Y-54936826D01*
X220795516Y-54692224D01*
X220876027Y-54426815D01*
X220896400Y-54219963D01*
X220896400Y-53831636D01*
X220876027Y-53624784D01*
X220795516Y-53359375D01*
X220664773Y-53114773D01*
X220488822Y-52900377D01*
X220274426Y-52724427D01*
X220029824Y-52593684D01*
X219764415Y-52513173D01*
X219488400Y-52485988D01*
X219212384Y-52513173D01*
X218946975Y-52593684D01*
X218702373Y-52724427D01*
X218487977Y-52900378D01*
X218312027Y-53114774D01*
X218238400Y-53252519D01*
X218164773Y-53114773D01*
X217988822Y-52900377D01*
X217774426Y-52724427D01*
X217529824Y-52593684D01*
X217264415Y-52513173D01*
X216988400Y-52485988D01*
X216712384Y-52513173D01*
X216446975Y-52593684D01*
X216202373Y-52724427D01*
X215987977Y-52900378D01*
X215812027Y-53114774D01*
X215738400Y-53252519D01*
X215664773Y-53114773D01*
X215488822Y-52900377D01*
X215274426Y-52724427D01*
X215029824Y-52593684D01*
X214764415Y-52513173D01*
X214488400Y-52485988D01*
X214212384Y-52513173D01*
X213946975Y-52593684D01*
X213702373Y-52724427D01*
X213487977Y-52900378D01*
X213395396Y-53013189D01*
X213388326Y-52941413D01*
X213356419Y-52836229D01*
X213304605Y-52739292D01*
X213234875Y-52654325D01*
X213149908Y-52584595D01*
X213052971Y-52532781D01*
X212947787Y-52500874D01*
X212838400Y-52490100D01*
X212331900Y-52492800D01*
X212192400Y-52632300D01*
X211784400Y-52632300D01*
X211644900Y-52492800D01*
X211138400Y-52490100D01*
X211029013Y-52500874D01*
X210923829Y-52532781D01*
X210826892Y-52584595D01*
X210741925Y-52654325D01*
X210672195Y-52739292D01*
X210620381Y-52836229D01*
X210588474Y-52941413D01*
X210577700Y-53050800D01*
X206515272Y-53050800D01*
X206391822Y-52900377D01*
X206177426Y-52724427D01*
X205932824Y-52593684D01*
X205667415Y-52513173D01*
X205391400Y-52485988D01*
X205115384Y-52513173D01*
X204849975Y-52593684D01*
X204605373Y-52724427D01*
X204390977Y-52900378D01*
X204215027Y-53114774D01*
X204141400Y-53252519D01*
X204067773Y-53114773D01*
X203891822Y-52900377D01*
X203677426Y-52724427D01*
X203432824Y-52593684D01*
X203167415Y-52513173D01*
X202891400Y-52485988D01*
X202615384Y-52513173D01*
X202349975Y-52593684D01*
X202105373Y-52724427D01*
X201890977Y-52900378D01*
X201715027Y-53114774D01*
X201641400Y-53252519D01*
X201567773Y-53114773D01*
X201391822Y-52900377D01*
X201177426Y-52724427D01*
X200932824Y-52593684D01*
X200667415Y-52513173D01*
X200391400Y-52485988D01*
X200115384Y-52513173D01*
X199849975Y-52593684D01*
X199605373Y-52724427D01*
X199390977Y-52900378D01*
X199298396Y-53013189D01*
X199291326Y-52941413D01*
X199259419Y-52836229D01*
X199207605Y-52739292D01*
X199137875Y-52654325D01*
X199052908Y-52584595D01*
X198955971Y-52532781D01*
X198850787Y-52500874D01*
X198741400Y-52490100D01*
X198234900Y-52492800D01*
X198095400Y-52632300D01*
X197687400Y-52632300D01*
X197547900Y-52492800D01*
X197041400Y-52490100D01*
X196932013Y-52500874D01*
X196826829Y-52532781D01*
X196729892Y-52584595D01*
X196644925Y-52654325D01*
X196575195Y-52739292D01*
X196523381Y-52836229D01*
X196491474Y-52941413D01*
X196480700Y-53050800D01*
X165708000Y-53050800D01*
X165708000Y-52164646D01*
X167198853Y-52164646D01*
X167450503Y-52520891D01*
X167938157Y-52760357D01*
X168463160Y-52900085D01*
X169005335Y-52934706D01*
X169543846Y-52862888D01*
X170057999Y-52687391D01*
X170369497Y-52520891D01*
X170621147Y-52164646D01*
X225618853Y-52164646D01*
X225870503Y-52520891D01*
X226358157Y-52760357D01*
X226883160Y-52900085D01*
X227425335Y-52934706D01*
X227963846Y-52862888D01*
X228477999Y-52687391D01*
X228789497Y-52520891D01*
X229041147Y-52164646D01*
X227330000Y-50453500D01*
X225618853Y-52164646D01*
X170621147Y-52164646D01*
X168910000Y-50453500D01*
X167198853Y-52164646D01*
X165708000Y-52164646D01*
X165708000Y-50260335D01*
X166140294Y-50260335D01*
X166212112Y-50798846D01*
X166387609Y-51312999D01*
X166554109Y-51624497D01*
X166910354Y-51876147D01*
X168621500Y-50165000D01*
X169198500Y-50165000D01*
X170909646Y-51876147D01*
X171265891Y-51624497D01*
X171505357Y-51136843D01*
X171645085Y-50611840D01*
X171667530Y-50260335D01*
X224560294Y-50260335D01*
X224632112Y-50798846D01*
X224807609Y-51312999D01*
X224974109Y-51624497D01*
X225330354Y-51876147D01*
X227041500Y-50165000D01*
X227618500Y-50165000D01*
X229329646Y-51876147D01*
X229685891Y-51624497D01*
X229925357Y-51136843D01*
X230065085Y-50611840D01*
X230099706Y-50069665D01*
X230027888Y-49531154D01*
X229852391Y-49017001D01*
X229685891Y-48705503D01*
X229329646Y-48453853D01*
X227618500Y-50165000D01*
X227041500Y-50165000D01*
X225330354Y-48453853D01*
X224974109Y-48705503D01*
X224734643Y-49193157D01*
X224594915Y-49718160D01*
X224560294Y-50260335D01*
X171667530Y-50260335D01*
X171679706Y-50069665D01*
X171607888Y-49531154D01*
X171432391Y-49017001D01*
X171265891Y-48705503D01*
X170909646Y-48453853D01*
X169198500Y-50165000D01*
X168621500Y-50165000D01*
X166910354Y-48453853D01*
X166554109Y-48705503D01*
X166314643Y-49193157D01*
X166174915Y-49718160D01*
X166140294Y-50260335D01*
X165708000Y-50260335D01*
X165708000Y-49559734D01*
X165771841Y-48908629D01*
X165952300Y-48310923D01*
X166029700Y-48165354D01*
X167198853Y-48165354D01*
X168910000Y-49876500D01*
X170621147Y-48165354D01*
X225618853Y-48165354D01*
X227330000Y-49876500D01*
X229041147Y-48165354D01*
X228789497Y-47809109D01*
X228301843Y-47569643D01*
X227776840Y-47429915D01*
X227234665Y-47395294D01*
X226696154Y-47467112D01*
X226182001Y-47642609D01*
X225870503Y-47809109D01*
X225618853Y-48165354D01*
X170621147Y-48165354D01*
X170369497Y-47809109D01*
X169881843Y-47569643D01*
X169356840Y-47429915D01*
X168814665Y-47395294D01*
X168276154Y-47467112D01*
X167762001Y-47642609D01*
X167450503Y-47809109D01*
X167198853Y-48165354D01*
X166029700Y-48165354D01*
X166245413Y-47759655D01*
X166640022Y-47275817D01*
X167121096Y-46877838D01*
X167670303Y-46580882D01*
X168266734Y-46396256D01*
X168916146Y-46328000D01*
X227300266Y-46328000D01*
X227951371Y-46391841D01*
G37*
X227951371Y-46391841D02*
X228549077Y-46572300D01*
X229100345Y-46865413D01*
X229584183Y-47260022D01*
X229982162Y-47741096D01*
X230279118Y-48290303D01*
X230463744Y-48886734D01*
X230532001Y-49536156D01*
X230532000Y-110460266D01*
X230468158Y-111111371D01*
X230287700Y-111709076D01*
X229994586Y-112260345D01*
X229599978Y-112744183D01*
X229118905Y-113142161D01*
X228569694Y-113439119D01*
X227973264Y-113623745D01*
X227323854Y-113692000D01*
X168939734Y-113692000D01*
X168288629Y-113628158D01*
X167690924Y-113447700D01*
X167139655Y-113154586D01*
X166655817Y-112759978D01*
X166432180Y-112489646D01*
X167198853Y-112489646D01*
X167450503Y-112845891D01*
X167938157Y-113085357D01*
X168463160Y-113225085D01*
X169005335Y-113259706D01*
X169543846Y-113187888D01*
X170057999Y-113012391D01*
X170369497Y-112845891D01*
X170621147Y-112489646D01*
X168910000Y-110778500D01*
X167198853Y-112489646D01*
X166432180Y-112489646D01*
X166257839Y-112278905D01*
X165960881Y-111729694D01*
X165776255Y-111133264D01*
X165718666Y-110585335D01*
X166140294Y-110585335D01*
X166212112Y-111123846D01*
X166387609Y-111637999D01*
X166554109Y-111949497D01*
X166910354Y-112201147D01*
X168621500Y-110490000D01*
X169198500Y-110490000D01*
X170909646Y-112201147D01*
X171265891Y-111949497D01*
X171312468Y-111854646D01*
X225618853Y-111854646D01*
X225870503Y-112210891D01*
X226358157Y-112450357D01*
X226883160Y-112590085D01*
X227425335Y-112624706D01*
X227963846Y-112552888D01*
X228477999Y-112377391D01*
X228789497Y-112210891D01*
X229041147Y-111854646D01*
X227330000Y-110143500D01*
X225618853Y-111854646D01*
X171312468Y-111854646D01*
X171505357Y-111461843D01*
X171645085Y-110936840D01*
X171679706Y-110394665D01*
X171607888Y-109856154D01*
X171432391Y-109342001D01*
X171265891Y-109030503D01*
X170936236Y-108797636D01*
X183290000Y-108797636D01*
X183290000Y-109235963D01*
X183310373Y-109442815D01*
X183390884Y-109708224D01*
X183521627Y-109952826D01*
X183697577Y-110167222D01*
X183911973Y-110343173D01*
X184156575Y-110473916D01*
X184421984Y-110554427D01*
X184698000Y-110581612D01*
X184974015Y-110554427D01*
X185239424Y-110473916D01*
X185484026Y-110343173D01*
X185698422Y-110167223D01*
X185791005Y-110054411D01*
X185798074Y-110126187D01*
X185829981Y-110231371D01*
X185881795Y-110328308D01*
X185951525Y-110413275D01*
X186036492Y-110483005D01*
X186133429Y-110534819D01*
X186238613Y-110566726D01*
X186348000Y-110577500D01*
X186854500Y-110574800D01*
X186994000Y-110435300D01*
X186994000Y-109220800D01*
X187402000Y-109220800D01*
X187402000Y-110435300D01*
X187541500Y-110574800D01*
X188048000Y-110577500D01*
X188157387Y-110566726D01*
X188262571Y-110534819D01*
X188359508Y-110483005D01*
X188444475Y-110413275D01*
X188514205Y-110328308D01*
X188566019Y-110231371D01*
X188597926Y-110126187D01*
X188608700Y-110016800D01*
X188606000Y-109360300D01*
X188466500Y-109220800D01*
X187402000Y-109220800D01*
X186994000Y-109220800D01*
X186974000Y-109220800D01*
X186974000Y-108812800D01*
X186994000Y-108812800D01*
X186994000Y-107598300D01*
X187402000Y-107598300D01*
X187402000Y-108812800D01*
X188466500Y-108812800D01*
X188481664Y-108797636D01*
X192180000Y-108797636D01*
X192180000Y-109235963D01*
X192200373Y-109442815D01*
X192280884Y-109708224D01*
X192411627Y-109952826D01*
X192587577Y-110167222D01*
X192801973Y-110343173D01*
X193046575Y-110473916D01*
X193311984Y-110554427D01*
X193588000Y-110581612D01*
X193864015Y-110554427D01*
X194129424Y-110473916D01*
X194374026Y-110343173D01*
X194588422Y-110167223D01*
X194681005Y-110054411D01*
X194688074Y-110126187D01*
X194719981Y-110231371D01*
X194771795Y-110328308D01*
X194841525Y-110413275D01*
X194926492Y-110483005D01*
X195023429Y-110534819D01*
X195128613Y-110566726D01*
X195238000Y-110577500D01*
X195744500Y-110574800D01*
X195884000Y-110435300D01*
X195884000Y-109220800D01*
X196292000Y-109220800D01*
X196292000Y-110435300D01*
X196431500Y-110574800D01*
X196938000Y-110577500D01*
X197047387Y-110566726D01*
X197152571Y-110534819D01*
X197249508Y-110483005D01*
X197334475Y-110413275D01*
X197404205Y-110328308D01*
X197456019Y-110231371D01*
X197487926Y-110126187D01*
X197498700Y-110016800D01*
X197498427Y-109950335D01*
X224560294Y-109950335D01*
X224632112Y-110488846D01*
X224807609Y-111002999D01*
X224974109Y-111314497D01*
X225330354Y-111566147D01*
X227041500Y-109855000D01*
X227618500Y-109855000D01*
X229329646Y-111566147D01*
X229685891Y-111314497D01*
X229925357Y-110826843D01*
X230065085Y-110301840D01*
X230099706Y-109759665D01*
X230027888Y-109221154D01*
X229852391Y-108707001D01*
X229685891Y-108395503D01*
X229329646Y-108143853D01*
X227618500Y-109855000D01*
X227041500Y-109855000D01*
X225330354Y-108143853D01*
X224974109Y-108395503D01*
X224734643Y-108883157D01*
X224594915Y-109408160D01*
X224560294Y-109950335D01*
X197498427Y-109950335D01*
X197496000Y-109360300D01*
X197356500Y-109220800D01*
X196292000Y-109220800D01*
X195884000Y-109220800D01*
X195864000Y-109220800D01*
X195864000Y-108812800D01*
X195884000Y-108812800D01*
X195884000Y-107598300D01*
X196292000Y-107598300D01*
X196292000Y-108812800D01*
X197356500Y-108812800D01*
X197496000Y-108673300D01*
X197498700Y-108016800D01*
X197487926Y-107907413D01*
X197472135Y-107855354D01*
X225618853Y-107855354D01*
X227330000Y-109566500D01*
X229041147Y-107855354D01*
X228789497Y-107499109D01*
X228301843Y-107259643D01*
X227776840Y-107119915D01*
X227234665Y-107085294D01*
X226696154Y-107157112D01*
X226182001Y-107332609D01*
X225870503Y-107499109D01*
X225618853Y-107855354D01*
X197472135Y-107855354D01*
X197456019Y-107802229D01*
X197404205Y-107705292D01*
X197334475Y-107620325D01*
X197249508Y-107550595D01*
X197152571Y-107498781D01*
X197047387Y-107466874D01*
X196938000Y-107456100D01*
X196431500Y-107458800D01*
X196292000Y-107598300D01*
X195884000Y-107598300D01*
X195744500Y-107458800D01*
X195238000Y-107456100D01*
X195128613Y-107466874D01*
X195023429Y-107498781D01*
X194926492Y-107550595D01*
X194841525Y-107620325D01*
X194771795Y-107705292D01*
X194719981Y-107802229D01*
X194688074Y-107907413D01*
X194681005Y-107979188D01*
X194588423Y-107866377D01*
X194374027Y-107690427D01*
X194129425Y-107559684D01*
X193864016Y-107479173D01*
X193588000Y-107451988D01*
X193311985Y-107479173D01*
X193046576Y-107559684D01*
X192801974Y-107690427D01*
X192587578Y-107866377D01*
X192411627Y-108080773D01*
X192280884Y-108325375D01*
X192200373Y-108590784D01*
X192180000Y-108797636D01*
X188481664Y-108797636D01*
X188606000Y-108673300D01*
X188608700Y-108016800D01*
X188597926Y-107907413D01*
X188566019Y-107802229D01*
X188514205Y-107705292D01*
X188444475Y-107620325D01*
X188359508Y-107550595D01*
X188262571Y-107498781D01*
X188157387Y-107466874D01*
X188048000Y-107456100D01*
X187541500Y-107458800D01*
X187402000Y-107598300D01*
X186994000Y-107598300D01*
X186854500Y-107458800D01*
X186348000Y-107456100D01*
X186238613Y-107466874D01*
X186133429Y-107498781D01*
X186036492Y-107550595D01*
X185951525Y-107620325D01*
X185881795Y-107705292D01*
X185829981Y-107802229D01*
X185798074Y-107907413D01*
X185791005Y-107979188D01*
X185698423Y-107866377D01*
X185484027Y-107690427D01*
X185239425Y-107559684D01*
X184974016Y-107479173D01*
X184698000Y-107451988D01*
X184421985Y-107479173D01*
X184156576Y-107559684D01*
X183911974Y-107690427D01*
X183697578Y-107866377D01*
X183521627Y-108080773D01*
X183390884Y-108325375D01*
X183310373Y-108590784D01*
X183290000Y-108797636D01*
X170936236Y-108797636D01*
X170909646Y-108778853D01*
X169198500Y-110490000D01*
X168621500Y-110490000D01*
X166910354Y-108778853D01*
X166554109Y-109030503D01*
X166314643Y-109518157D01*
X166174915Y-110043160D01*
X166140294Y-110585335D01*
X165718666Y-110585335D01*
X165708000Y-110483854D01*
X165708000Y-108490354D01*
X167198853Y-108490354D01*
X168910000Y-110201500D01*
X170621147Y-108490354D01*
X170369497Y-108134109D01*
X169881843Y-107894643D01*
X169356840Y-107754915D01*
X168814665Y-107720294D01*
X168276154Y-107792112D01*
X167762001Y-107967609D01*
X167450503Y-108134109D01*
X167198853Y-108490354D01*
X165708000Y-108490354D01*
X165708000Y-99934400D01*
X169427588Y-99934400D01*
X169454773Y-100210416D01*
X169535284Y-100475825D01*
X169666027Y-100720427D01*
X169841977Y-100934823D01*
X170056373Y-101110773D01*
X170194119Y-101184400D01*
X170056373Y-101258027D01*
X169841977Y-101433977D01*
X169666027Y-101648373D01*
X169535284Y-101892975D01*
X169454773Y-102158384D01*
X169427588Y-102434400D01*
X169454773Y-102710416D01*
X169535284Y-102975825D01*
X169666027Y-103220427D01*
X169841977Y-103434823D01*
X170056373Y-103610773D01*
X170300975Y-103741516D01*
X170566384Y-103822027D01*
X170773236Y-103842400D01*
X171161564Y-103842400D01*
X171368416Y-103822027D01*
X171633825Y-103741516D01*
X171878427Y-103610773D01*
X172092823Y-103434823D01*
X172268773Y-103220427D01*
X172399516Y-102975825D01*
X172480027Y-102710416D01*
X172507212Y-102434400D01*
X172480027Y-102158384D01*
X172474646Y-102140645D01*
X213037000Y-102140645D01*
X213037000Y-102329355D01*
X213073816Y-102514438D01*
X213146032Y-102688783D01*
X213187000Y-102750096D01*
X213187001Y-106164903D01*
X213146032Y-106226217D01*
X213073816Y-106400562D01*
X213037000Y-106585645D01*
X213037000Y-106774355D01*
X213073816Y-106959438D01*
X213146032Y-107133783D01*
X213250873Y-107290689D01*
X213384311Y-107424127D01*
X213541217Y-107528968D01*
X213715562Y-107601184D01*
X213900645Y-107638000D01*
X214089355Y-107638000D01*
X214274438Y-107601184D01*
X214448783Y-107528968D01*
X214605689Y-107424127D01*
X214739127Y-107290689D01*
X214843968Y-107133783D01*
X214916184Y-106959438D01*
X214953000Y-106774355D01*
X214953000Y-106585645D01*
X214916184Y-106400562D01*
X214843968Y-106226217D01*
X214803000Y-106164904D01*
X214803000Y-102750096D01*
X214843968Y-102688783D01*
X214916184Y-102514438D01*
X214953000Y-102329355D01*
X214953000Y-102140645D01*
X214938948Y-102070000D01*
X215524300Y-102070000D01*
X215527000Y-102526500D01*
X215666500Y-102666000D01*
X215727900Y-102666000D01*
X215737404Y-102697329D01*
X215900542Y-102715958D01*
X215950500Y-102666000D01*
X216196983Y-102666000D01*
X216189042Y-102735542D01*
X216323500Y-102870000D01*
X216189042Y-103004458D01*
X216196983Y-103074000D01*
X215950500Y-103074000D01*
X215900542Y-103024042D01*
X215737404Y-103042671D01*
X215728012Y-103074000D01*
X215666500Y-103074000D01*
X215527000Y-103213500D01*
X215524300Y-103670000D01*
X215535074Y-103779387D01*
X215566981Y-103884571D01*
X215618795Y-103981508D01*
X215688525Y-104066475D01*
X215773492Y-104136205D01*
X215870429Y-104188019D01*
X215975613Y-104219926D01*
X216085000Y-104230700D01*
X216191500Y-104228000D01*
X216241702Y-104177798D01*
X216330998Y-104204568D01*
X216330998Y-104228000D01*
X216494252Y-104228000D01*
X216537814Y-104232147D01*
X216578555Y-104228000D01*
X216739002Y-104228000D01*
X216739002Y-104205008D01*
X216828391Y-104177891D01*
X216878500Y-104228000D01*
X216985000Y-104230700D01*
X217094387Y-104219926D01*
X217199571Y-104188019D01*
X217296508Y-104136205D01*
X217381475Y-104066475D01*
X217451205Y-103981508D01*
X217503019Y-103884571D01*
X217534926Y-103779387D01*
X217545700Y-103670000D01*
X217543000Y-103213500D01*
X217403500Y-103074000D01*
X217342100Y-103074000D01*
X217332596Y-103042671D01*
X217169458Y-103024042D01*
X217119500Y-103074000D01*
X216873017Y-103074000D01*
X216880958Y-103004458D01*
X216746500Y-102870000D01*
X216880958Y-102735542D01*
X216873017Y-102666000D01*
X217119500Y-102666000D01*
X217169458Y-102715958D01*
X217332596Y-102697329D01*
X217341988Y-102666000D01*
X217403500Y-102666000D01*
X217543000Y-102526500D01*
X217545700Y-102070000D01*
X217534926Y-101960613D01*
X217503019Y-101855429D01*
X217451205Y-101758492D01*
X217381475Y-101673525D01*
X217296508Y-101603795D01*
X217199571Y-101551981D01*
X217094387Y-101520074D01*
X216985000Y-101509300D01*
X216878500Y-101512000D01*
X216828298Y-101562202D01*
X216739002Y-101535432D01*
X216739002Y-101512000D01*
X216575748Y-101512000D01*
X216532186Y-101507853D01*
X216491445Y-101512000D01*
X216330998Y-101512000D01*
X216330998Y-101534992D01*
X216241609Y-101562109D01*
X216191500Y-101512000D01*
X216085000Y-101509300D01*
X215975613Y-101520074D01*
X215870429Y-101551981D01*
X215773492Y-101603795D01*
X215688525Y-101673525D01*
X215618795Y-101758492D01*
X215566981Y-101855429D01*
X215535074Y-101960613D01*
X215524300Y-102070000D01*
X214938948Y-102070000D01*
X214916184Y-101955562D01*
X214843968Y-101781217D01*
X214739127Y-101624311D01*
X214605689Y-101490873D01*
X214448783Y-101386032D01*
X214274438Y-101313816D01*
X214089355Y-101277000D01*
X213900645Y-101277000D01*
X213715562Y-101313816D01*
X213541217Y-101386032D01*
X213384311Y-101490873D01*
X213250873Y-101624311D01*
X213146032Y-101781217D01*
X213073816Y-101955562D01*
X213037000Y-102140645D01*
X172474646Y-102140645D01*
X172399516Y-101892975D01*
X172268773Y-101648373D01*
X172092823Y-101433977D01*
X171878427Y-101258027D01*
X171740681Y-101184400D01*
X171878427Y-101110773D01*
X172092823Y-100934823D01*
X172268773Y-100720427D01*
X172399516Y-100475825D01*
X172480027Y-100210416D01*
X172482545Y-100184845D01*
X221800000Y-100184845D01*
X221800000Y-100373555D01*
X221836816Y-100558638D01*
X221909032Y-100732983D01*
X222013873Y-100889889D01*
X222147311Y-101023327D01*
X222304217Y-101128168D01*
X222478562Y-101200384D01*
X222663645Y-101237200D01*
X222852355Y-101237200D01*
X223037438Y-101200384D01*
X223211783Y-101128168D01*
X223368689Y-101023327D01*
X223502127Y-100889889D01*
X223606968Y-100732983D01*
X223679184Y-100558638D01*
X223716000Y-100373555D01*
X223716000Y-100184845D01*
X223679184Y-99999762D01*
X223606968Y-99825417D01*
X223502127Y-99668511D01*
X223368689Y-99535073D01*
X223286267Y-99480000D01*
X224649301Y-99480000D01*
X224649301Y-101180000D01*
X224660075Y-101289387D01*
X224691982Y-101394570D01*
X224743796Y-101491508D01*
X224813526Y-101576474D01*
X224898492Y-101646204D01*
X224995430Y-101698018D01*
X225100613Y-101729925D01*
X225210000Y-101740699D01*
X226910000Y-101740699D01*
X227019387Y-101729925D01*
X227124570Y-101698018D01*
X227221508Y-101646204D01*
X227306474Y-101576474D01*
X227376204Y-101491508D01*
X227428018Y-101394570D01*
X227459925Y-101289387D01*
X227470699Y-101180000D01*
X227470699Y-99480000D01*
X227459925Y-99370613D01*
X227428018Y-99265430D01*
X227376204Y-99168492D01*
X227306474Y-99083526D01*
X227221508Y-99013796D01*
X227124570Y-98961982D01*
X227019387Y-98930075D01*
X226910000Y-98919301D01*
X226904215Y-98919301D01*
X226957548Y-98883665D01*
X227153665Y-98687548D01*
X227307754Y-98456938D01*
X227413892Y-98200699D01*
X227468000Y-97928676D01*
X227468000Y-97651324D01*
X227413892Y-97379301D01*
X227307754Y-97123062D01*
X227153665Y-96892452D01*
X226957548Y-96696335D01*
X226726938Y-96542246D01*
X226663679Y-96516043D01*
X226733584Y-96486434D01*
X226961858Y-96331267D01*
X227155474Y-96134547D01*
X227306991Y-95903834D01*
X227404078Y-95669424D01*
X227311989Y-95454000D01*
X226264000Y-95454000D01*
X226264000Y-95474000D01*
X225856000Y-95474000D01*
X225856000Y-95454000D01*
X224808011Y-95454000D01*
X224715922Y-95669424D01*
X224813009Y-95903834D01*
X224964526Y-96134547D01*
X225158142Y-96331267D01*
X225386416Y-96486434D01*
X225456321Y-96516043D01*
X225393062Y-96542246D01*
X225162452Y-96696335D01*
X224966335Y-96892452D01*
X224812246Y-97123062D01*
X224706108Y-97379301D01*
X224652000Y-97651324D01*
X224652000Y-97928676D01*
X224706108Y-98200699D01*
X224812246Y-98456938D01*
X224966335Y-98687548D01*
X225162452Y-98883665D01*
X225215785Y-98919301D01*
X225210000Y-98919301D01*
X225100613Y-98930075D01*
X224995430Y-98961982D01*
X224898492Y-99013796D01*
X224813526Y-99083526D01*
X224743796Y-99168492D01*
X224691982Y-99265430D01*
X224660075Y-99370613D01*
X224649301Y-99480000D01*
X223286267Y-99480000D01*
X223211783Y-99430232D01*
X223037438Y-99358016D01*
X222852355Y-99321200D01*
X222663645Y-99321200D01*
X222478562Y-99358016D01*
X222304217Y-99430232D01*
X222147311Y-99535073D01*
X222013873Y-99668511D01*
X221909032Y-99825417D01*
X221836816Y-99999762D01*
X221800000Y-100184845D01*
X172482545Y-100184845D01*
X172507212Y-99934400D01*
X172480027Y-99658384D01*
X172399516Y-99392975D01*
X172268773Y-99148373D01*
X172092823Y-98933977D01*
X171980012Y-98841395D01*
X172051787Y-98834326D01*
X172156971Y-98802419D01*
X172253908Y-98750605D01*
X172338875Y-98680875D01*
X172408605Y-98595908D01*
X172460419Y-98498971D01*
X172492326Y-98393787D01*
X172503100Y-98284400D01*
X172500400Y-97777900D01*
X172360900Y-97638400D01*
X171171400Y-97638400D01*
X171171400Y-97658400D01*
X170763400Y-97658400D01*
X170763400Y-97638400D01*
X169573900Y-97638400D01*
X169434400Y-97777900D01*
X169431700Y-98284400D01*
X169442474Y-98393787D01*
X169474381Y-98498971D01*
X169526195Y-98595908D01*
X169595925Y-98680875D01*
X169680892Y-98750605D01*
X169777829Y-98802419D01*
X169883013Y-98834326D01*
X169954788Y-98841395D01*
X169841977Y-98933977D01*
X169666027Y-99148373D01*
X169535284Y-99392975D01*
X169454773Y-99658384D01*
X169427588Y-99934400D01*
X165708000Y-99934400D01*
X165708000Y-96584400D01*
X169431700Y-96584400D01*
X169434400Y-97090900D01*
X169573900Y-97230400D01*
X170763400Y-97230400D01*
X170763400Y-96165900D01*
X171171400Y-96165900D01*
X171171400Y-97230400D01*
X172360900Y-97230400D01*
X172500400Y-97090900D01*
X172503100Y-96584400D01*
X172492326Y-96475013D01*
X172460419Y-96369829D01*
X172408605Y-96272892D01*
X172338875Y-96187925D01*
X172253908Y-96118195D01*
X172156971Y-96066381D01*
X172051787Y-96034474D01*
X171942400Y-96023700D01*
X171310900Y-96026400D01*
X171171400Y-96165900D01*
X170763400Y-96165900D01*
X170623900Y-96026400D01*
X169992400Y-96023700D01*
X169883013Y-96034474D01*
X169777829Y-96066381D01*
X169680892Y-96118195D01*
X169595925Y-96187925D01*
X169526195Y-96272892D01*
X169474381Y-96369829D01*
X169442474Y-96475013D01*
X169431700Y-96584400D01*
X165708000Y-96584400D01*
X165708000Y-94830576D01*
X224715922Y-94830576D01*
X224808011Y-95046000D01*
X225856000Y-95046000D01*
X225856000Y-93996349D01*
X226264000Y-93996349D01*
X226264000Y-95046000D01*
X227311989Y-95046000D01*
X227404078Y-94830576D01*
X227306991Y-94596166D01*
X227155474Y-94365453D01*
X226961858Y-94168733D01*
X226733584Y-94013566D01*
X226479425Y-93905914D01*
X226264000Y-93996349D01*
X225856000Y-93996349D01*
X225640575Y-93905914D01*
X225386416Y-94013566D01*
X225158142Y-94168733D01*
X224964526Y-94365453D01*
X224813009Y-94596166D01*
X224715922Y-94830576D01*
X165708000Y-94830576D01*
X165708000Y-86599400D01*
X169427588Y-86599400D01*
X169454773Y-86875416D01*
X169535284Y-87140825D01*
X169666027Y-87385427D01*
X169841977Y-87599823D01*
X170056373Y-87775773D01*
X170194119Y-87849400D01*
X170056373Y-87923027D01*
X169841977Y-88098977D01*
X169666027Y-88313373D01*
X169535284Y-88557975D01*
X169454773Y-88823384D01*
X169427588Y-89099400D01*
X169454773Y-89375416D01*
X169535284Y-89640825D01*
X169666027Y-89885427D01*
X169841977Y-90099823D01*
X170056373Y-90275773D01*
X170300975Y-90406516D01*
X170566384Y-90487027D01*
X170773236Y-90507400D01*
X171161564Y-90507400D01*
X171368416Y-90487027D01*
X171633825Y-90406516D01*
X171878427Y-90275773D01*
X172092823Y-90099823D01*
X172268773Y-89885427D01*
X172399516Y-89640825D01*
X172480027Y-89375416D01*
X172507212Y-89099400D01*
X172480027Y-88823384D01*
X172423731Y-88637800D01*
X225180588Y-88637800D01*
X225207773Y-88913816D01*
X225288284Y-89179225D01*
X225419027Y-89423827D01*
X225594977Y-89638223D01*
X225809373Y-89814173D01*
X226053975Y-89944916D01*
X226319384Y-90025427D01*
X226526236Y-90045800D01*
X226914564Y-90045800D01*
X227121416Y-90025427D01*
X227386825Y-89944916D01*
X227631427Y-89814173D01*
X227845823Y-89638223D01*
X228021773Y-89423827D01*
X228152516Y-89179225D01*
X228233027Y-88913816D01*
X228260212Y-88637800D01*
X228233027Y-88361784D01*
X228152516Y-88096375D01*
X228021773Y-87851773D01*
X227845823Y-87637377D01*
X227631427Y-87461427D01*
X227483433Y-87382322D01*
X227645441Y-87292152D01*
X227855271Y-87113891D01*
X228026293Y-86898120D01*
X228151934Y-86653130D01*
X228189478Y-86557224D01*
X228097389Y-86341800D01*
X226924400Y-86341800D01*
X226924400Y-86361800D01*
X226516400Y-86361800D01*
X226516400Y-86341800D01*
X225343411Y-86341800D01*
X225251322Y-86557224D01*
X225288866Y-86653130D01*
X225414507Y-86898120D01*
X225585529Y-87113891D01*
X225795359Y-87292152D01*
X225957367Y-87382322D01*
X225809373Y-87461427D01*
X225594977Y-87637377D01*
X225419027Y-87851773D01*
X225288284Y-88096375D01*
X225207773Y-88361784D01*
X225180588Y-88637800D01*
X172423731Y-88637800D01*
X172399516Y-88557975D01*
X172268773Y-88313373D01*
X172092823Y-88098977D01*
X171878427Y-87923027D01*
X171740681Y-87849400D01*
X171878427Y-87775773D01*
X172092823Y-87599823D01*
X172268773Y-87385427D01*
X172399516Y-87140825D01*
X172480027Y-86875416D01*
X172507212Y-86599400D01*
X172480027Y-86323384D01*
X172399516Y-86057975D01*
X172268773Y-85813373D01*
X172092823Y-85598977D01*
X171980012Y-85506395D01*
X172051787Y-85499326D01*
X172156971Y-85467419D01*
X172253908Y-85415605D01*
X172338875Y-85345875D01*
X172408605Y-85260908D01*
X172460419Y-85163971D01*
X172492326Y-85058787D01*
X172503100Y-84949400D01*
X172500400Y-84442900D01*
X172360900Y-84303400D01*
X171171400Y-84303400D01*
X171171400Y-84323400D01*
X170763400Y-84323400D01*
X170763400Y-84303400D01*
X169573900Y-84303400D01*
X169434400Y-84442900D01*
X169431700Y-84949400D01*
X169442474Y-85058787D01*
X169474381Y-85163971D01*
X169526195Y-85260908D01*
X169595925Y-85345875D01*
X169680892Y-85415605D01*
X169777829Y-85467419D01*
X169883013Y-85499326D01*
X169954788Y-85506395D01*
X169841977Y-85598977D01*
X169666027Y-85813373D01*
X169535284Y-86057975D01*
X169454773Y-86323384D01*
X169427588Y-86599400D01*
X165708000Y-86599400D01*
X165708000Y-83249400D01*
X169431700Y-83249400D01*
X169434400Y-83755900D01*
X169573900Y-83895400D01*
X170763400Y-83895400D01*
X170763400Y-82830900D01*
X171171400Y-82830900D01*
X171171400Y-83895400D01*
X172360900Y-83895400D01*
X172500400Y-83755900D01*
X172503100Y-83249400D01*
X172492326Y-83140013D01*
X172460419Y-83034829D01*
X172408605Y-82937892D01*
X172338875Y-82852925D01*
X172253908Y-82783195D01*
X172156971Y-82731381D01*
X172051787Y-82699474D01*
X171942400Y-82688700D01*
X171310900Y-82691400D01*
X171171400Y-82830900D01*
X170763400Y-82830900D01*
X170623900Y-82691400D01*
X169992400Y-82688700D01*
X169883013Y-82699474D01*
X169777829Y-82731381D01*
X169680892Y-82783195D01*
X169595925Y-82852925D01*
X169526195Y-82937892D01*
X169474381Y-83034829D01*
X169442474Y-83140013D01*
X169431700Y-83249400D01*
X165708000Y-83249400D01*
X165708000Y-73264400D01*
X169427588Y-73264400D01*
X169454773Y-73540416D01*
X169535284Y-73805825D01*
X169666027Y-74050427D01*
X169841977Y-74264823D01*
X170056373Y-74440773D01*
X170194119Y-74514400D01*
X170056373Y-74588027D01*
X169841977Y-74763977D01*
X169666027Y-74978373D01*
X169535284Y-75222975D01*
X169454773Y-75488384D01*
X169427588Y-75764400D01*
X169454773Y-76040416D01*
X169535284Y-76305825D01*
X169666027Y-76550427D01*
X169841977Y-76764823D01*
X170056373Y-76940773D01*
X170300975Y-77071516D01*
X170566384Y-77152027D01*
X170773236Y-77172400D01*
X171161564Y-77172400D01*
X171368416Y-77152027D01*
X171633825Y-77071516D01*
X171878427Y-76940773D01*
X171967533Y-76867645D01*
X200972000Y-76867645D01*
X200972000Y-77056355D01*
X201008816Y-77241438D01*
X201081032Y-77415783D01*
X201185873Y-77572689D01*
X201247000Y-77633816D01*
X201247001Y-79722454D01*
X201243697Y-79756000D01*
X201256884Y-79889891D01*
X201295939Y-80018637D01*
X201359360Y-80137290D01*
X201391976Y-80177032D01*
X201444711Y-80241290D01*
X201470765Y-80262672D01*
X202242000Y-81033908D01*
X202242000Y-81120355D01*
X202278816Y-81305438D01*
X202351032Y-81479783D01*
X202455873Y-81636689D01*
X202589311Y-81770127D01*
X202746217Y-81874968D01*
X202920562Y-81947184D01*
X203105645Y-81984000D01*
X203294355Y-81984000D01*
X203479438Y-81947184D01*
X203653783Y-81874968D01*
X203810689Y-81770127D01*
X203944127Y-81636689D01*
X204048968Y-81479783D01*
X204121184Y-81305438D01*
X204158000Y-81120355D01*
X204158000Y-80931645D01*
X204121184Y-80746562D01*
X204106853Y-80711963D01*
X204198127Y-80620689D01*
X204302968Y-80463783D01*
X204375184Y-80289438D01*
X204412000Y-80104355D01*
X204412000Y-79915645D01*
X204375184Y-79730562D01*
X204302968Y-79556217D01*
X204198127Y-79399311D01*
X204064689Y-79265873D01*
X203907783Y-79161032D01*
X203733438Y-79088816D01*
X203548355Y-79052000D01*
X203359645Y-79052000D01*
X203233083Y-79077175D01*
X203229001Y-79073094D01*
X203229001Y-77881708D01*
X203399783Y-77810968D01*
X203556689Y-77706127D01*
X203690127Y-77572689D01*
X203794968Y-77415783D01*
X203867184Y-77241438D01*
X203904000Y-77056355D01*
X203904000Y-76904000D01*
X204056355Y-76904000D01*
X204241438Y-76867184D01*
X204415783Y-76794968D01*
X204572689Y-76690127D01*
X204706127Y-76556689D01*
X204810968Y-76399783D01*
X204883184Y-76225438D01*
X204897194Y-76155005D01*
X204995873Y-76302689D01*
X205129311Y-76436127D01*
X205286217Y-76540968D01*
X205460562Y-76613184D01*
X205560864Y-76633136D01*
X205580816Y-76733438D01*
X205653032Y-76907783D01*
X205757873Y-77064689D01*
X205891311Y-77198127D01*
X206048217Y-77302968D01*
X206222562Y-77375184D01*
X206322864Y-77395136D01*
X206342816Y-77495438D01*
X206415032Y-77669783D01*
X206519873Y-77826689D01*
X206653311Y-77960127D01*
X206810217Y-78064968D01*
X206984562Y-78137184D01*
X207169645Y-78174000D01*
X207358355Y-78174000D01*
X207543438Y-78137184D01*
X207717783Y-78064968D01*
X207874689Y-77960127D01*
X208008127Y-77826689D01*
X208112968Y-77669783D01*
X208183708Y-77499001D01*
X209063092Y-77499001D01*
X209034093Y-77528000D01*
X208947645Y-77528000D01*
X208762562Y-77564816D01*
X208588217Y-77637032D01*
X208431311Y-77741873D01*
X208297873Y-77875311D01*
X208193032Y-78032217D01*
X208120816Y-78206562D01*
X208084000Y-78391645D01*
X208084000Y-78580355D01*
X208120816Y-78765438D01*
X208193032Y-78939783D01*
X208297873Y-79096689D01*
X208431311Y-79230127D01*
X208588217Y-79334968D01*
X208762562Y-79407184D01*
X208947645Y-79444000D01*
X209136355Y-79444000D01*
X209321438Y-79407184D01*
X209495783Y-79334968D01*
X209652689Y-79230127D01*
X209786127Y-79096689D01*
X209890968Y-78939783D01*
X209963184Y-78765438D01*
X210000000Y-78580355D01*
X210000000Y-78493907D01*
X216673108Y-71820800D01*
X225363958Y-71820800D01*
X225419027Y-71923827D01*
X225594977Y-72138223D01*
X225809373Y-72314173D01*
X225947119Y-72387800D01*
X225809373Y-72461427D01*
X225594977Y-72637377D01*
X225419027Y-72851773D01*
X225363958Y-72954800D01*
X225353735Y-72954800D01*
X225320199Y-72951497D01*
X225286663Y-72954800D01*
X225286654Y-72954800D01*
X225186309Y-72964683D01*
X225057563Y-73003738D01*
X224938910Y-73067159D01*
X224834910Y-73152510D01*
X224813528Y-73178564D01*
X213839093Y-84153000D01*
X205903816Y-84153000D01*
X205842689Y-84091873D01*
X205685783Y-83987032D01*
X205511438Y-83914816D01*
X205326355Y-83878000D01*
X205137645Y-83878000D01*
X204952562Y-83914816D01*
X204778217Y-83987032D01*
X204621311Y-84091873D01*
X204487873Y-84225311D01*
X204383032Y-84382217D01*
X204310816Y-84556562D01*
X204290864Y-84656864D01*
X204190562Y-84676816D01*
X204016217Y-84749032D01*
X203859311Y-84853873D01*
X203725873Y-84987311D01*
X203621032Y-85144217D01*
X203548816Y-85318562D01*
X203512000Y-85503645D01*
X203512000Y-85692355D01*
X203548816Y-85877438D01*
X203621032Y-86051783D01*
X203725873Y-86208689D01*
X203859311Y-86342127D01*
X204016217Y-86446968D01*
X204190562Y-86519184D01*
X204375645Y-86556000D01*
X204564355Y-86556000D01*
X204749438Y-86519184D01*
X204923783Y-86446968D01*
X205080689Y-86342127D01*
X205141816Y-86281000D01*
X215104464Y-86281000D01*
X215138000Y-86284303D01*
X215171536Y-86281000D01*
X215171546Y-86281000D01*
X215271891Y-86271117D01*
X215400637Y-86232062D01*
X215519290Y-86168641D01*
X215623290Y-86083290D01*
X215644677Y-86057230D01*
X224881108Y-76820800D01*
X225363958Y-76820800D01*
X225419027Y-76923827D01*
X225594977Y-77138223D01*
X225809373Y-77314173D01*
X225947119Y-77387800D01*
X225809373Y-77461427D01*
X225594977Y-77637377D01*
X225419027Y-77851773D01*
X225288284Y-78096375D01*
X225207773Y-78361784D01*
X225180588Y-78637800D01*
X225207773Y-78913816D01*
X225288284Y-79179225D01*
X225419027Y-79423827D01*
X225594977Y-79638223D01*
X225809373Y-79814173D01*
X225947119Y-79887800D01*
X225809373Y-79961427D01*
X225594977Y-80137377D01*
X225419027Y-80351773D01*
X225288284Y-80596375D01*
X225207773Y-80861784D01*
X225180588Y-81137800D01*
X225207773Y-81413816D01*
X225288284Y-81679225D01*
X225419027Y-81923827D01*
X225594977Y-82138223D01*
X225809373Y-82314173D01*
X225947119Y-82387800D01*
X225809373Y-82461427D01*
X225594977Y-82637377D01*
X225419027Y-82851773D01*
X225288284Y-83096375D01*
X225207773Y-83361784D01*
X225180588Y-83637800D01*
X225207773Y-83913816D01*
X225288284Y-84179225D01*
X225419027Y-84423827D01*
X225594977Y-84638223D01*
X225809373Y-84814173D01*
X225957367Y-84893278D01*
X225795359Y-84983448D01*
X225585529Y-85161709D01*
X225414507Y-85377480D01*
X225288866Y-85622470D01*
X225251322Y-85718376D01*
X225343411Y-85933800D01*
X226516400Y-85933800D01*
X226516400Y-85913800D01*
X226924400Y-85913800D01*
X226924400Y-85933800D01*
X228097389Y-85933800D01*
X228189478Y-85718376D01*
X228151934Y-85622470D01*
X228026293Y-85377480D01*
X227855271Y-85161709D01*
X227645441Y-84983448D01*
X227483433Y-84893278D01*
X227631427Y-84814173D01*
X227845823Y-84638223D01*
X228021773Y-84423827D01*
X228152516Y-84179225D01*
X228233027Y-83913816D01*
X228260212Y-83637800D01*
X228233027Y-83361784D01*
X228152516Y-83096375D01*
X228021773Y-82851773D01*
X227845823Y-82637377D01*
X227631427Y-82461427D01*
X227493681Y-82387800D01*
X227631427Y-82314173D01*
X227845823Y-82138223D01*
X228021773Y-81923827D01*
X228152516Y-81679225D01*
X228233027Y-81413816D01*
X228260212Y-81137800D01*
X228233027Y-80861784D01*
X228152516Y-80596375D01*
X228021773Y-80351773D01*
X227845823Y-80137377D01*
X227631427Y-79961427D01*
X227493681Y-79887800D01*
X227631427Y-79814173D01*
X227845823Y-79638223D01*
X228021773Y-79423827D01*
X228152516Y-79179225D01*
X228233027Y-78913816D01*
X228260212Y-78637800D01*
X228233027Y-78361784D01*
X228152516Y-78096375D01*
X228021773Y-77851773D01*
X227845823Y-77637377D01*
X227631427Y-77461427D01*
X227493681Y-77387800D01*
X227631427Y-77314173D01*
X227845823Y-77138223D01*
X228021773Y-76923827D01*
X228152516Y-76679225D01*
X228233027Y-76413816D01*
X228260212Y-76137800D01*
X228233027Y-75861784D01*
X228152516Y-75596375D01*
X228021773Y-75351773D01*
X227845823Y-75137377D01*
X227631427Y-74961427D01*
X227493681Y-74887800D01*
X227631427Y-74814173D01*
X227845823Y-74638223D01*
X228021773Y-74423827D01*
X228152516Y-74179225D01*
X228233027Y-73913816D01*
X228260212Y-73637800D01*
X228233027Y-73361784D01*
X228152516Y-73096375D01*
X228021773Y-72851773D01*
X227845823Y-72637377D01*
X227631427Y-72461427D01*
X227493681Y-72387800D01*
X227631427Y-72314173D01*
X227845823Y-72138223D01*
X228021773Y-71923827D01*
X228152516Y-71679225D01*
X228233027Y-71413816D01*
X228260212Y-71137800D01*
X228233027Y-70861784D01*
X228152516Y-70596375D01*
X228021773Y-70351773D01*
X227845823Y-70137377D01*
X227631427Y-69961427D01*
X227493681Y-69887800D01*
X227631427Y-69814173D01*
X227845823Y-69638223D01*
X228021773Y-69423827D01*
X228152516Y-69179225D01*
X228233027Y-68913816D01*
X228260212Y-68637800D01*
X228233027Y-68361784D01*
X228152516Y-68096375D01*
X228021773Y-67851773D01*
X227845823Y-67637377D01*
X227631427Y-67461427D01*
X227493681Y-67387800D01*
X227631427Y-67314173D01*
X227845823Y-67138223D01*
X228021773Y-66923827D01*
X228152516Y-66679225D01*
X228233027Y-66413816D01*
X228260212Y-66137800D01*
X228233027Y-65861784D01*
X228152516Y-65596375D01*
X228021773Y-65351773D01*
X227845823Y-65137377D01*
X227631427Y-64961427D01*
X227493681Y-64887800D01*
X227631427Y-64814173D01*
X227845823Y-64638223D01*
X228021773Y-64423827D01*
X228152516Y-64179225D01*
X228233027Y-63913816D01*
X228260212Y-63637800D01*
X228233027Y-63361784D01*
X228152516Y-63096375D01*
X228021773Y-62851773D01*
X227845823Y-62637377D01*
X227733012Y-62544795D01*
X227804787Y-62537726D01*
X227909971Y-62505819D01*
X228006908Y-62454005D01*
X228091875Y-62384275D01*
X228161605Y-62299308D01*
X228213419Y-62202371D01*
X228245326Y-62097187D01*
X228256100Y-61987800D01*
X228253400Y-61481300D01*
X228113900Y-61341800D01*
X226924400Y-61341800D01*
X226924400Y-61361800D01*
X226516400Y-61361800D01*
X226516400Y-61341800D01*
X225326900Y-61341800D01*
X225187400Y-61481300D01*
X225184700Y-61987800D01*
X225195474Y-62097187D01*
X225227381Y-62202371D01*
X225279195Y-62299308D01*
X225348925Y-62384275D01*
X225433892Y-62454005D01*
X225530829Y-62505819D01*
X225636013Y-62537726D01*
X225707788Y-62544795D01*
X225594977Y-62637377D01*
X225419027Y-62851773D01*
X225363958Y-62954800D01*
X222014505Y-62954800D01*
X221980969Y-62951497D01*
X221947433Y-62954800D01*
X221947424Y-62954800D01*
X221847079Y-62964683D01*
X221718333Y-63003738D01*
X221599680Y-63067159D01*
X221495680Y-63152510D01*
X221474298Y-63178564D01*
X209643863Y-75009000D01*
X206411816Y-75009000D01*
X206350689Y-74947873D01*
X206193783Y-74843032D01*
X206019438Y-74770816D01*
X205834355Y-74734000D01*
X205645645Y-74734000D01*
X205460562Y-74770816D01*
X205402301Y-74794948D01*
X205402301Y-70614117D01*
X205511928Y-70504490D01*
X205616769Y-70347584D01*
X205688985Y-70173239D01*
X205725801Y-69988156D01*
X205725801Y-69799446D01*
X205688985Y-69614363D01*
X205616769Y-69440018D01*
X205511928Y-69283112D01*
X205378490Y-69149674D01*
X205221584Y-69044833D01*
X205047239Y-68972617D01*
X204862156Y-68935801D01*
X204673446Y-68935801D01*
X204488363Y-68972617D01*
X204314018Y-69044833D01*
X204157112Y-69149674D01*
X204023674Y-69283112D01*
X203918833Y-69440018D01*
X203846617Y-69614363D01*
X203809801Y-69799446D01*
X203809801Y-69988156D01*
X203846617Y-70173239D01*
X203918833Y-70347584D01*
X204023674Y-70504490D01*
X204133301Y-70614117D01*
X204133302Y-74877380D01*
X204022682Y-74988000D01*
X203867645Y-74988000D01*
X203682562Y-75024816D01*
X203508217Y-75097032D01*
X203351311Y-75201873D01*
X203217873Y-75335311D01*
X203113032Y-75492217D01*
X203040816Y-75666562D01*
X203004000Y-75851645D01*
X203004000Y-76004000D01*
X202851645Y-76004000D01*
X202666562Y-76040816D01*
X202492217Y-76113032D01*
X202438000Y-76149259D01*
X202383783Y-76113032D01*
X202209438Y-76040816D01*
X202024355Y-76004000D01*
X201835645Y-76004000D01*
X201650562Y-76040816D01*
X201476217Y-76113032D01*
X201319311Y-76217873D01*
X201185873Y-76351311D01*
X201081032Y-76508217D01*
X201008816Y-76682562D01*
X200972000Y-76867645D01*
X171967533Y-76867645D01*
X172092823Y-76764823D01*
X172268773Y-76550427D01*
X172399516Y-76305825D01*
X172480027Y-76040416D01*
X172507212Y-75764400D01*
X172480027Y-75488384D01*
X172399516Y-75222975D01*
X172268773Y-74978373D01*
X172092823Y-74763977D01*
X171878427Y-74588027D01*
X171740681Y-74514400D01*
X171878427Y-74440773D01*
X172092823Y-74264823D01*
X172268773Y-74050427D01*
X172399516Y-73805825D01*
X172480027Y-73540416D01*
X172507212Y-73264400D01*
X172480027Y-72988384D01*
X172399516Y-72722975D01*
X172268773Y-72478373D01*
X172092823Y-72263977D01*
X171980012Y-72171395D01*
X172051787Y-72164326D01*
X172156971Y-72132419D01*
X172253908Y-72080605D01*
X172338875Y-72010875D01*
X172408605Y-71925908D01*
X172460419Y-71828971D01*
X172492326Y-71723787D01*
X172503100Y-71614400D01*
X172500400Y-71107900D01*
X172360900Y-70968400D01*
X171171400Y-70968400D01*
X171171400Y-70988400D01*
X170763400Y-70988400D01*
X170763400Y-70968400D01*
X169573900Y-70968400D01*
X169434400Y-71107900D01*
X169431700Y-71614400D01*
X169442474Y-71723787D01*
X169474381Y-71828971D01*
X169526195Y-71925908D01*
X169595925Y-72010875D01*
X169680892Y-72080605D01*
X169777829Y-72132419D01*
X169883013Y-72164326D01*
X169954788Y-72171395D01*
X169841977Y-72263977D01*
X169666027Y-72478373D01*
X169535284Y-72722975D01*
X169454773Y-72988384D01*
X169427588Y-73264400D01*
X165708000Y-73264400D01*
X165708000Y-69914400D01*
X169431700Y-69914400D01*
X169434400Y-70420900D01*
X169573900Y-70560400D01*
X170763400Y-70560400D01*
X170763400Y-69495900D01*
X171171400Y-69495900D01*
X171171400Y-70560400D01*
X172360900Y-70560400D01*
X172500400Y-70420900D01*
X172503100Y-69914400D01*
X172492326Y-69805013D01*
X172460419Y-69699829D01*
X172408605Y-69602892D01*
X172338875Y-69517925D01*
X172253908Y-69448195D01*
X172156971Y-69396381D01*
X172051787Y-69364474D01*
X171942400Y-69353700D01*
X171310900Y-69356400D01*
X171171400Y-69495900D01*
X170763400Y-69495900D01*
X170623900Y-69356400D01*
X169992400Y-69353700D01*
X169883013Y-69364474D01*
X169777829Y-69396381D01*
X169680892Y-69448195D01*
X169595925Y-69517925D01*
X169526195Y-69602892D01*
X169474381Y-69699829D01*
X169442474Y-69805013D01*
X169431700Y-69914400D01*
X165708000Y-69914400D01*
X165708000Y-68485645D01*
X200972000Y-68485645D01*
X200972000Y-68674355D01*
X201008816Y-68859438D01*
X201081032Y-69033783D01*
X201185873Y-69190689D01*
X201247000Y-69251816D01*
X201247001Y-71718183D01*
X201185873Y-71779311D01*
X201081032Y-71936217D01*
X201008816Y-72110562D01*
X200972000Y-72295645D01*
X200972000Y-72484355D01*
X201008816Y-72669438D01*
X201081032Y-72843783D01*
X201185873Y-73000689D01*
X201319311Y-73134127D01*
X201476217Y-73238968D01*
X201650562Y-73311184D01*
X201835645Y-73348000D01*
X202024355Y-73348000D01*
X202209438Y-73311184D01*
X202383783Y-73238968D01*
X202438000Y-73202741D01*
X202492217Y-73238968D01*
X202666562Y-73311184D01*
X202851645Y-73348000D01*
X203040355Y-73348000D01*
X203225438Y-73311184D01*
X203399783Y-73238968D01*
X203556689Y-73134127D01*
X203690127Y-73000689D01*
X203794968Y-72843783D01*
X203867184Y-72669438D01*
X203904000Y-72484355D01*
X203904000Y-72295645D01*
X203867184Y-72110562D01*
X203794968Y-71936217D01*
X203690127Y-71779311D01*
X203629000Y-71718184D01*
X203629000Y-69505816D01*
X203690127Y-69444689D01*
X203794968Y-69287783D01*
X203867184Y-69113438D01*
X203904000Y-68928355D01*
X203904000Y-68739645D01*
X203867184Y-68554562D01*
X203794968Y-68380217D01*
X203690127Y-68223311D01*
X203556689Y-68089873D01*
X203399783Y-67985032D01*
X203225438Y-67912816D01*
X203040355Y-67876000D01*
X202851645Y-67876000D01*
X202666562Y-67912816D01*
X202631963Y-67927147D01*
X202540689Y-67835873D01*
X202383783Y-67731032D01*
X202209438Y-67658816D01*
X202024355Y-67622000D01*
X201835645Y-67622000D01*
X201650562Y-67658816D01*
X201476217Y-67731032D01*
X201319311Y-67835873D01*
X201185873Y-67969311D01*
X201081032Y-68126217D01*
X201008816Y-68300562D01*
X200972000Y-68485645D01*
X165708000Y-68485645D01*
X165708000Y-59929400D01*
X169427588Y-59929400D01*
X169454773Y-60205416D01*
X169535284Y-60470825D01*
X169666027Y-60715427D01*
X169841977Y-60929823D01*
X170056373Y-61105773D01*
X170194119Y-61179400D01*
X170056373Y-61253027D01*
X169841977Y-61428977D01*
X169666027Y-61643373D01*
X169535284Y-61887975D01*
X169454773Y-62153384D01*
X169427588Y-62429400D01*
X169454773Y-62705416D01*
X169535284Y-62970825D01*
X169666027Y-63215427D01*
X169841977Y-63429823D01*
X170056373Y-63605773D01*
X170300975Y-63736516D01*
X170566384Y-63817027D01*
X170773236Y-63837400D01*
X171161564Y-63837400D01*
X171368416Y-63817027D01*
X171633825Y-63736516D01*
X171878427Y-63605773D01*
X172092823Y-63429823D01*
X172268773Y-63215427D01*
X172399516Y-62970825D01*
X172480027Y-62705416D01*
X172507212Y-62429400D01*
X172480027Y-62153384D01*
X172399516Y-61887975D01*
X172268773Y-61643373D01*
X172092823Y-61428977D01*
X171878427Y-61253027D01*
X171740681Y-61179400D01*
X171878427Y-61105773D01*
X172092823Y-60929823D01*
X172268773Y-60715427D01*
X172399516Y-60470825D01*
X172455036Y-60287800D01*
X225184700Y-60287800D01*
X225187400Y-60794300D01*
X225326900Y-60933800D01*
X226516400Y-60933800D01*
X226516400Y-59869300D01*
X226924400Y-59869300D01*
X226924400Y-60933800D01*
X228113900Y-60933800D01*
X228253400Y-60794300D01*
X228256100Y-60287800D01*
X228245326Y-60178413D01*
X228213419Y-60073229D01*
X228161605Y-59976292D01*
X228091875Y-59891325D01*
X228006908Y-59821595D01*
X227909971Y-59769781D01*
X227804787Y-59737874D01*
X227695400Y-59727100D01*
X227063900Y-59729800D01*
X226924400Y-59869300D01*
X226516400Y-59869300D01*
X226376900Y-59729800D01*
X225745400Y-59727100D01*
X225636013Y-59737874D01*
X225530829Y-59769781D01*
X225433892Y-59821595D01*
X225348925Y-59891325D01*
X225279195Y-59976292D01*
X225227381Y-60073229D01*
X225195474Y-60178413D01*
X225184700Y-60287800D01*
X172455036Y-60287800D01*
X172480027Y-60205416D01*
X172507212Y-59929400D01*
X172480027Y-59653384D01*
X172399516Y-59387975D01*
X172268773Y-59143373D01*
X172092823Y-58928977D01*
X171980012Y-58836395D01*
X172051787Y-58829326D01*
X172156971Y-58797419D01*
X172253908Y-58745605D01*
X172338875Y-58675875D01*
X172408605Y-58590908D01*
X172460419Y-58493971D01*
X172492326Y-58388787D01*
X172503100Y-58279400D01*
X172500400Y-57772900D01*
X172360900Y-57633400D01*
X171171400Y-57633400D01*
X171171400Y-57653400D01*
X170763400Y-57653400D01*
X170763400Y-57633400D01*
X169573900Y-57633400D01*
X169434400Y-57772900D01*
X169431700Y-58279400D01*
X169442474Y-58388787D01*
X169474381Y-58493971D01*
X169526195Y-58590908D01*
X169595925Y-58675875D01*
X169680892Y-58745605D01*
X169777829Y-58797419D01*
X169883013Y-58829326D01*
X169954788Y-58836395D01*
X169841977Y-58928977D01*
X169666027Y-59143373D01*
X169535284Y-59387975D01*
X169454773Y-59653384D01*
X169427588Y-59929400D01*
X165708000Y-59929400D01*
X165708000Y-56579400D01*
X169431700Y-56579400D01*
X169434400Y-57085900D01*
X169573900Y-57225400D01*
X170763400Y-57225400D01*
X170763400Y-56160900D01*
X171171400Y-56160900D01*
X171171400Y-57225400D01*
X172360900Y-57225400D01*
X172500400Y-57085900D01*
X172503100Y-56579400D01*
X172492326Y-56470013D01*
X172460419Y-56364829D01*
X172408605Y-56267892D01*
X172338875Y-56182925D01*
X172253908Y-56113195D01*
X172156971Y-56061381D01*
X172051787Y-56029474D01*
X171942400Y-56018700D01*
X171310900Y-56021400D01*
X171171400Y-56160900D01*
X170763400Y-56160900D01*
X170623900Y-56021400D01*
X169992400Y-56018700D01*
X169883013Y-56029474D01*
X169777829Y-56061381D01*
X169680892Y-56113195D01*
X169595925Y-56182925D01*
X169526195Y-56267892D01*
X169474381Y-56364829D01*
X169442474Y-56470013D01*
X169431700Y-56579400D01*
X165708000Y-56579400D01*
X165708000Y-55000800D01*
X196480700Y-55000800D01*
X196491474Y-55110187D01*
X196523381Y-55215371D01*
X196575195Y-55312308D01*
X196644925Y-55397275D01*
X196729892Y-55467005D01*
X196826829Y-55518819D01*
X196932013Y-55550726D01*
X197041400Y-55561500D01*
X197547900Y-55558800D01*
X197687400Y-55419300D01*
X197687400Y-54229800D01*
X196622900Y-54229800D01*
X196483400Y-54369300D01*
X196480700Y-55000800D01*
X165708000Y-55000800D01*
X165708000Y-53050800D01*
X196480700Y-53050800D01*
X196483400Y-53682300D01*
X196622900Y-53821800D01*
X197687400Y-53821800D01*
X197687400Y-52632300D01*
X198095400Y-52632300D01*
X198095400Y-53821800D01*
X198115400Y-53821800D01*
X198115400Y-54229800D01*
X198095400Y-54229800D01*
X198095400Y-55419300D01*
X198234900Y-55558800D01*
X198741400Y-55561500D01*
X198850787Y-55550726D01*
X198955971Y-55518819D01*
X199052908Y-55467005D01*
X199137875Y-55397275D01*
X199207605Y-55312308D01*
X199259419Y-55215371D01*
X199291326Y-55110187D01*
X199298395Y-55038411D01*
X199390978Y-55151223D01*
X199605374Y-55327173D01*
X199849976Y-55457916D01*
X200115385Y-55538427D01*
X200391400Y-55565612D01*
X200667416Y-55538427D01*
X200932825Y-55457916D01*
X201177427Y-55327173D01*
X201391823Y-55151223D01*
X201567773Y-54936826D01*
X201641400Y-54799081D01*
X201715027Y-54936827D01*
X201890978Y-55151223D01*
X202105374Y-55327173D01*
X202349976Y-55457916D01*
X202615385Y-55538427D01*
X202891400Y-55565612D01*
X203167416Y-55538427D01*
X203432825Y-55457916D01*
X203677427Y-55327173D01*
X203891823Y-55151223D01*
X204067773Y-54936826D01*
X204141400Y-54799081D01*
X204215027Y-54936827D01*
X204390978Y-55151223D01*
X204605374Y-55327173D01*
X204849976Y-55457916D01*
X205115385Y-55538427D01*
X205391400Y-55565612D01*
X205667416Y-55538427D01*
X205932825Y-55457916D01*
X206177427Y-55327173D01*
X206391823Y-55151223D01*
X206515271Y-55000800D01*
X210577700Y-55000800D01*
X210588474Y-55110187D01*
X210620381Y-55215371D01*
X210672195Y-55312308D01*
X210741925Y-55397275D01*
X210826892Y-55467005D01*
X210923829Y-55518819D01*
X211029013Y-55550726D01*
X211138400Y-55561500D01*
X211644900Y-55558800D01*
X211784400Y-55419300D01*
X211784400Y-54229800D01*
X210719900Y-54229800D01*
X210580400Y-54369300D01*
X210577700Y-55000800D01*
X206515271Y-55000800D01*
X206567773Y-54936826D01*
X206698516Y-54692224D01*
X206779027Y-54426815D01*
X206799400Y-54219963D01*
X206799400Y-53831636D01*
X206779027Y-53624784D01*
X206698516Y-53359375D01*
X206567773Y-53114773D01*
X206515272Y-53050800D01*
X210577700Y-53050800D01*
X210580400Y-53682300D01*
X210719900Y-53821800D01*
X211784400Y-53821800D01*
X211784400Y-52632300D01*
X212192400Y-52632300D01*
X212192400Y-53821800D01*
X212212400Y-53821800D01*
X212212400Y-54229800D01*
X212192400Y-54229800D01*
X212192400Y-55419300D01*
X212331900Y-55558800D01*
X212838400Y-55561500D01*
X212947787Y-55550726D01*
X213052971Y-55518819D01*
X213149908Y-55467005D01*
X213234875Y-55397275D01*
X213304605Y-55312308D01*
X213356419Y-55215371D01*
X213388326Y-55110187D01*
X213395395Y-55038411D01*
X213487978Y-55151223D01*
X213702374Y-55327173D01*
X213946976Y-55457916D01*
X214212385Y-55538427D01*
X214488400Y-55565612D01*
X214764416Y-55538427D01*
X215029825Y-55457916D01*
X215274427Y-55327173D01*
X215488823Y-55151223D01*
X215664773Y-54936826D01*
X215738400Y-54799081D01*
X215812027Y-54936827D01*
X215987978Y-55151223D01*
X216202374Y-55327173D01*
X216446976Y-55457916D01*
X216712385Y-55538427D01*
X216988400Y-55565612D01*
X217264416Y-55538427D01*
X217529825Y-55457916D01*
X217774427Y-55327173D01*
X217988823Y-55151223D01*
X218164773Y-54936826D01*
X218238400Y-54799081D01*
X218312027Y-54936827D01*
X218487978Y-55151223D01*
X218702374Y-55327173D01*
X218946976Y-55457916D01*
X219212385Y-55538427D01*
X219488400Y-55565612D01*
X219764416Y-55538427D01*
X220029825Y-55457916D01*
X220274427Y-55327173D01*
X220488823Y-55151223D01*
X220664773Y-54936826D01*
X220795516Y-54692224D01*
X220876027Y-54426815D01*
X220896400Y-54219963D01*
X220896400Y-53831636D01*
X220876027Y-53624784D01*
X220795516Y-53359375D01*
X220664773Y-53114773D01*
X220488822Y-52900377D01*
X220274426Y-52724427D01*
X220029824Y-52593684D01*
X219764415Y-52513173D01*
X219488400Y-52485988D01*
X219212384Y-52513173D01*
X218946975Y-52593684D01*
X218702373Y-52724427D01*
X218487977Y-52900378D01*
X218312027Y-53114774D01*
X218238400Y-53252519D01*
X218164773Y-53114773D01*
X217988822Y-52900377D01*
X217774426Y-52724427D01*
X217529824Y-52593684D01*
X217264415Y-52513173D01*
X216988400Y-52485988D01*
X216712384Y-52513173D01*
X216446975Y-52593684D01*
X216202373Y-52724427D01*
X215987977Y-52900378D01*
X215812027Y-53114774D01*
X215738400Y-53252519D01*
X215664773Y-53114773D01*
X215488822Y-52900377D01*
X215274426Y-52724427D01*
X215029824Y-52593684D01*
X214764415Y-52513173D01*
X214488400Y-52485988D01*
X214212384Y-52513173D01*
X213946975Y-52593684D01*
X213702373Y-52724427D01*
X213487977Y-52900378D01*
X213395396Y-53013189D01*
X213388326Y-52941413D01*
X213356419Y-52836229D01*
X213304605Y-52739292D01*
X213234875Y-52654325D01*
X213149908Y-52584595D01*
X213052971Y-52532781D01*
X212947787Y-52500874D01*
X212838400Y-52490100D01*
X212331900Y-52492800D01*
X212192400Y-52632300D01*
X211784400Y-52632300D01*
X211644900Y-52492800D01*
X211138400Y-52490100D01*
X211029013Y-52500874D01*
X210923829Y-52532781D01*
X210826892Y-52584595D01*
X210741925Y-52654325D01*
X210672195Y-52739292D01*
X210620381Y-52836229D01*
X210588474Y-52941413D01*
X210577700Y-53050800D01*
X206515272Y-53050800D01*
X206391822Y-52900377D01*
X206177426Y-52724427D01*
X205932824Y-52593684D01*
X205667415Y-52513173D01*
X205391400Y-52485988D01*
X205115384Y-52513173D01*
X204849975Y-52593684D01*
X204605373Y-52724427D01*
X204390977Y-52900378D01*
X204215027Y-53114774D01*
X204141400Y-53252519D01*
X204067773Y-53114773D01*
X203891822Y-52900377D01*
X203677426Y-52724427D01*
X203432824Y-52593684D01*
X203167415Y-52513173D01*
X202891400Y-52485988D01*
X202615384Y-52513173D01*
X202349975Y-52593684D01*
X202105373Y-52724427D01*
X201890977Y-52900378D01*
X201715027Y-53114774D01*
X201641400Y-53252519D01*
X201567773Y-53114773D01*
X201391822Y-52900377D01*
X201177426Y-52724427D01*
X200932824Y-52593684D01*
X200667415Y-52513173D01*
X200391400Y-52485988D01*
X200115384Y-52513173D01*
X199849975Y-52593684D01*
X199605373Y-52724427D01*
X199390977Y-52900378D01*
X199298396Y-53013189D01*
X199291326Y-52941413D01*
X199259419Y-52836229D01*
X199207605Y-52739292D01*
X199137875Y-52654325D01*
X199052908Y-52584595D01*
X198955971Y-52532781D01*
X198850787Y-52500874D01*
X198741400Y-52490100D01*
X198234900Y-52492800D01*
X198095400Y-52632300D01*
X197687400Y-52632300D01*
X197547900Y-52492800D01*
X197041400Y-52490100D01*
X196932013Y-52500874D01*
X196826829Y-52532781D01*
X196729892Y-52584595D01*
X196644925Y-52654325D01*
X196575195Y-52739292D01*
X196523381Y-52836229D01*
X196491474Y-52941413D01*
X196480700Y-53050800D01*
X165708000Y-53050800D01*
X165708000Y-52164646D01*
X167198853Y-52164646D01*
X167450503Y-52520891D01*
X167938157Y-52760357D01*
X168463160Y-52900085D01*
X169005335Y-52934706D01*
X169543846Y-52862888D01*
X170057999Y-52687391D01*
X170369497Y-52520891D01*
X170621147Y-52164646D01*
X225618853Y-52164646D01*
X225870503Y-52520891D01*
X226358157Y-52760357D01*
X226883160Y-52900085D01*
X227425335Y-52934706D01*
X227963846Y-52862888D01*
X228477999Y-52687391D01*
X228789497Y-52520891D01*
X229041147Y-52164646D01*
X227330000Y-50453500D01*
X225618853Y-52164646D01*
X170621147Y-52164646D01*
X168910000Y-50453500D01*
X167198853Y-52164646D01*
X165708000Y-52164646D01*
X165708000Y-50260335D01*
X166140294Y-50260335D01*
X166212112Y-50798846D01*
X166387609Y-51312999D01*
X166554109Y-51624497D01*
X166910354Y-51876147D01*
X168621500Y-50165000D01*
X169198500Y-50165000D01*
X170909646Y-51876147D01*
X171265891Y-51624497D01*
X171505357Y-51136843D01*
X171645085Y-50611840D01*
X171667530Y-50260335D01*
X224560294Y-50260335D01*
X224632112Y-50798846D01*
X224807609Y-51312999D01*
X224974109Y-51624497D01*
X225330354Y-51876147D01*
X227041500Y-50165000D01*
X227618500Y-50165000D01*
X229329646Y-51876147D01*
X229685891Y-51624497D01*
X229925357Y-51136843D01*
X230065085Y-50611840D01*
X230099706Y-50069665D01*
X230027888Y-49531154D01*
X229852391Y-49017001D01*
X229685891Y-48705503D01*
X229329646Y-48453853D01*
X227618500Y-50165000D01*
X227041500Y-50165000D01*
X225330354Y-48453853D01*
X224974109Y-48705503D01*
X224734643Y-49193157D01*
X224594915Y-49718160D01*
X224560294Y-50260335D01*
X171667530Y-50260335D01*
X171679706Y-50069665D01*
X171607888Y-49531154D01*
X171432391Y-49017001D01*
X171265891Y-48705503D01*
X170909646Y-48453853D01*
X169198500Y-50165000D01*
X168621500Y-50165000D01*
X166910354Y-48453853D01*
X166554109Y-48705503D01*
X166314643Y-49193157D01*
X166174915Y-49718160D01*
X166140294Y-50260335D01*
X165708000Y-50260335D01*
X165708000Y-49559734D01*
X165771841Y-48908629D01*
X165952300Y-48310923D01*
X166029700Y-48165354D01*
X167198853Y-48165354D01*
X168910000Y-49876500D01*
X170621147Y-48165354D01*
X225618853Y-48165354D01*
X227330000Y-49876500D01*
X229041147Y-48165354D01*
X228789497Y-47809109D01*
X228301843Y-47569643D01*
X227776840Y-47429915D01*
X227234665Y-47395294D01*
X226696154Y-47467112D01*
X226182001Y-47642609D01*
X225870503Y-47809109D01*
X225618853Y-48165354D01*
X170621147Y-48165354D01*
X170369497Y-47809109D01*
X169881843Y-47569643D01*
X169356840Y-47429915D01*
X168814665Y-47395294D01*
X168276154Y-47467112D01*
X167762001Y-47642609D01*
X167450503Y-47809109D01*
X167198853Y-48165354D01*
X166029700Y-48165354D01*
X166245413Y-47759655D01*
X166640022Y-47275817D01*
X167121096Y-46877838D01*
X167670303Y-46580882D01*
X168266734Y-46396256D01*
X168916146Y-46328000D01*
X227300266Y-46328000D01*
X227951371Y-46391841D01*
M02*
